<?xml version="1.0" standalone="no"?>
<!DOCTYPE svg PUBLIC "-//W3C//DTD SVG 20010904//EN"
 "http://www.w3.org/TR/2001/REC-SVG-20010904/DTD/svg10.dtd">
<svg version="1.0" xmlns="http://www.w3.org/2000/svg"
 width="700.000000pt" height="700.000000pt" viewBox="0 0 700.000000 700.000000"
 preserveAspectRatio="xMidYMid meet">
<metadata>
Created by potrace 1.14, written by Peter Selinger 2001-2017
</metadata>
<g transform="translate(0.000000,700.000000) scale(0.100000,-0.100000)"
fill="#000000" stroke="none">
<path d="M3298 6996 c-1 -2 -42 -6 -89 -10 -105 -7 -307 -35 -379 -52 -14 -3
-38 -8 -55 -11 -103 -15 -424 -114 -585 -179 -19 -8 -44 -18 -55 -21 -48 -15
-379 -187 -470 -245 -358 -225 -638 -471 -889 -783 -126 -157 -246 -334 -328
-485 -20 -36 -47 -86 -61 -112 -48 -87 -147 -319 -192 -451 -43 -123 -108
-352 -119 -423 -3 -17 -12 -66 -21 -110 -18 -96 -29 -183 -29 -246 -1 -25 -4
-44 -7 -42 -22 13 -17 -597 6 -737 2 -13 6 -46 10 -74 9 -76 16 -116 25 -160
5 -22 11 -53 14 -70 71 -388 264 -846 518 -1229 186 -279 390 -481 681 -670
283 -185 678 -349 967 -402 14 -3 32 -7 40 -9 8 -3 33 -7 55 -10 22 -4 51 -8
65 -10 158 -27 521 -27 640 0 24 5 46 9 103 20 60 12 257 76 337 110 371 158
653 413 814 733 31 62 45 94 75 165 36 88 86 314 96 432 l5 60 -38 -95 c-149
-373 -392 -639 -726 -795 -79 -37 -215 -85 -288 -101 -141 -31 -289 -47 -438
-48 -85 0 -269 11 -307 18 -11 3 -38 7 -59 10 -306 47 -590 137 -831 262 -264
138 -427 260 -552 414 -19 23 -40 48 -46 54 -21 22 -114 153 -160 226 -184
289 -323 684 -361 1025 -3 33 -8 69 -11 80 -9 38 -10 420 -2 510 14 149 19
194 35 284 39 222 102 451 181 650 67 172 194 428 267 541 70 107 122 186 126
190 3 3 23 30 45 60 129 180 344 407 550 579 112 94 340 254 445 313 25 14 68
38 95 54 52 30 57 32 192 82 80 30 213 69 263 78 14 3 33 7 42 10 10 3 28 7
40 9 13 2 50 9 83 14 185 32 647 36 737 7 7 -3 32 -7 56 -10 87 -11 301 -65
427 -108 581 -198 1115 -591 1523 -1123 40 -53 138 -196 178 -260 73 -118 78
-128 153 -280 144 -291 237 -570 295 -885 53 -288 59 -407 31 -595 -126 -849
-689 -1749 -1455 -2324 -52 -39 -99 -74 -105 -79 -5 -4 -35 -23 -65 -42 -30
-19 -57 -37 -60 -41 -10 -13 -200 -119 -315 -177 -322 -162 -637 -260 -990
-308 -134 -18 -503 -27 -605 -14 -36 4 -94 11 -130 14 -36 4 -74 9 -85 11 -11
3 -33 6 -50 9 -29 4 -45 7 -130 26 -128 29 -190 45 -297 80 -66 21 -116 35
-112 30 14 -12 299 -124 404 -158 199 -65 436 -119 605 -138 28 -3 61 -7 75
-10 150 -26 617 -25 830 2 39 5 251 42 335 59 136 26 449 128 611 198 115 50
258 120 262 129 2 5 9 8 16 8 15 0 243 137 341 205 216 150 444 351 615 544
36 41 70 79 75 85 9 9 65 81 87 111 4 6 18 24 31 40 48 61 156 223 211 318
246 419 398 872 462 1367 26 201 26 602 0 815 -13 101 -17 131 -21 145 -2 8
-7 35 -10 60 -33 244 -157 630 -293 910 -451 929 -1258 1594 -2262 1864 -52
14 -106 27 -120 30 -14 2 -47 9 -74 15 -48 12 -261 44 -366 56 -57 7 -525 16
-532 11z"/>
<path d="M4608 5401 c-60 -31 -167 -127 -209 -187 -48 -70 -116 -213 -145
-304 -14 -47 -29 -92 -32 -100 -3 -8 -6 -19 -8 -25 -1 -5 -12 -37 -24 -70 -12
-33 -23 -71 -26 -85 -2 -14 -8 -34 -13 -45 -39 -89 -56 -136 -66 -190 -15 -78
-23 -112 -60 -255 -9 -36 -18 -72 -19 -80 -3 -25 -67 -290 -86 -360 -24 -84
-58 -260 -64 -328 -8 -88 6 -73 -198 -214 -38 -27 -72 -48 -76 -48 -17 0 -30
64 -27 137 9 237 14 286 39 423 7 36 12 101 10 144 -2 79 -3 80 -41 112 -52
45 -131 62 -178 40 -18 -9 -38 -16 -44 -16 -6 0 -11 -6 -11 -14 0 -8 -9 -21
-20 -29 -11 -8 -18 -16 -15 -19 2 -2 -16 -24 -40 -48 -25 -24 -45 -49 -45 -56
0 -6 -9 -19 -20 -29 -11 -10 -20 -24 -20 -31 0 -7 -11 -25 -25 -40 -14 -15
-25 -31 -25 -37 0 -6 -11 -24 -24 -41 -13 -17 -26 -41 -30 -53 -4 -13 -12 -23
-17 -23 -5 0 -9 -7 -9 -16 0 -9 -26 -61 -57 -116 -45 -79 -58 -97 -64 -82 -3
10 -3 26 2 35 5 9 9 81 9 160 1 79 2 178 3 219 2 82 -7 161 -25 226 -10 37
-17 43 -52 54 -23 6 -52 19 -66 28 -69 44 -231 -3 -327 -94 -31 -30 -58 -52
-60 -50 -3 2 3 33 12 68 20 75 25 97 32 164 5 48 4 52 -18 57 -43 10 -154 6
-170 -6 -34 -25 -56 -89 -75 -217 -3 -19 -12 -69 -20 -110 -9 -41 -17 -100
-20 -130 -2 -30 -5 -64 -8 -75 -4 -19 -16 -144 -21 -215 -7 -96 -36 -310 -65
-475 -11 -60 -22 -130 -25 -155 -4 -24 -10 -51 -15 -60 -4 -8 -8 -35 -9 -60
-1 -25 -3 -73 -5 -107 -2 -59 3 -73 28 -69 5 0 13 -9 17 -22 5 -13 14 -20 19
-17 6 4 31 8 57 10 63 6 81 13 88 36 4 10 11 19 16 19 5 0 20 9 32 20 16 16
22 34 24 78 1 31 3 57 4 57 5 0 10 70 14 175 2 63 6 122 8 130 3 8 5 22 5 30
0 120 23 267 62 390 16 52 30 99 30 103 0 14 61 137 71 143 5 3 2 -10 -7 -29
-17 -35 -17 -36 60 -272 77 -236 78 -237 71 -313 -4 -43 -9 -97 -11 -121 -2
-24 -5 -45 -7 -48 -3 -2 -1 -22 4 -44 5 -21 12 -56 15 -77 7 -46 53 -88 106
-96 20 -3 43 -12 49 -19 19 -20 77 -8 98 19 10 13 26 24 34 24 9 0 27 15 40
33 31 41 108 177 100 177 -3 0 -1 6 4 13 11 13 45 113 47 137 1 8 10 27 20 41
9 15 19 40 22 55 3 16 11 34 19 40 8 6 12 13 9 16 -3 3 3 23 12 44 10 22 18
46 20 54 9 64 32 143 60 207 8 17 14 36 14 43 0 12 49 100 56 100 3 0 2 -28
-2 -62 -18 -169 -5 -387 27 -449 25 -51 87 -112 137 -138 39 -20 116 -34 127
-23 3 3 15 7 27 9 24 4 97 63 157 128 24 26 44 45 46 43 2 -2 -1 -30 -7 -63
-27 -173 -33 -284 -19 -384 7 -47 14 -102 17 -121 12 -98 28 -132 89 -198 98
-106 217 -117 379 -35 58 29 164 127 209 193 17 25 45 60 61 77 49 55 166 249
191 318 10 28 24 57 31 65 7 8 15 29 19 45 4 17 11 39 16 50 5 11 29 81 55
155 25 74 51 149 59 165 93 217 99 265 12 104 -31 -57 -70 -126 -85 -154 -16
-27 -70 -129 -122 -225 -51 -96 -98 -179 -105 -185 -6 -5 -28 -38 -49 -73 -66
-109 -156 -223 -252 -319 -99 -98 -135 -118 -159 -87 -21 28 -48 121 -42 139
4 9 1 15 -8 15 -12 0 -13 4 -5 18 13 22 39 152 29 146 -4 -2 -11 -26 -15 -52
-5 -35 -9 -42 -14 -27 -7 21 -5 119 6 240 3 39 6 76 5 83 -1 6 -1 18 0 25 0 6
1 35 2 62 1 28 6 53 10 56 4 3 10 34 12 69 3 34 9 79 14 99 6 20 12 58 15 84
3 27 8 52 11 56 2 5 6 23 9 42 2 19 10 54 17 79 6 25 13 52 14 60 9 61 28 151
39 180 8 20 17 53 20 75 4 22 11 54 16 70 5 17 11 44 14 60 9 57 58 230 76
273 10 23 24 42 31 42 6 0 9 7 5 15 -3 8 -1 15 5 15 6 0 8 4 4 9 -3 5 5 18 19
28 13 10 26 29 30 41 4 12 11 22 15 22 5 0 18 24 31 53 12 28 27 57 34 62 7 6
31 48 54 95 23 47 54 108 68 135 54 106 83 171 90 200 4 17 10 35 14 40 21 31
46 255 28 255 -4 0 -8 12 -10 27 -7 59 -115 77 -200 34z m69 -99 c39 -25 -5
-266 -74 -400 -24 -48 -48 -91 -53 -97 -4 -5 -8 -12 -8 -15 0 -17 -37 -78 -45
-73 -6 3 -7 1 -3 -6 4 -6 1 -18 -7 -26 -9 -8 -14 -26 -13 -40 2 -13 -1 -22 -6
-19 -4 3 -15 -10 -23 -28 -17 -39 -19 -27 -4 22 5 19 12 46 15 60 3 14 9 29
15 34 5 6 9 21 9 34 0 13 4 31 10 41 5 10 14 47 20 82 6 35 12 69 14 74 1 6 6
26 10 45 24 117 61 228 98 288 21 34 26 36 45 24z m-2184 -1607 c-3 -9 -8 -14
-10 -11 -3 3 -2 9 2 15 9 16 15 13 8 -4z"/>
<path d="M4281 3584 c0 -11 3 -14 6 -6 3 7 2 16 -1 19 -3 4 -6 -2 -5 -13z"/>
<path d="M4262 3480 c0 -14 2 -19 5 -12 2 6 2 18 0 25 -3 6 -5 1 -5 -13z"/>
<path d="M4246 3403 c-6 -14 -5 -15 5 -6 7 7 10 15 7 18 -3 3 -9 -2 -12 -12z"/>
<path d="M4231 3314 c0 -11 3 -14 6 -6 3 7 2 16 -1 19 -3 4 -6 -2 -5 -13z"/>
<path d="M4222 3265 c0 -16 2 -22 5 -12 2 9 2 23 0 30 -3 6 -5 -1 -5 -18z"/>
<path d="M4212 3210 c0 -14 2 -19 5 -12 2 6 2 18 0 25 -3 6 -5 1 -5 -13z"/>
<path d="M4202 3160 c0 -14 2 -19 5 -12 2 6 2 18 0 25 -3 6 -5 1 -5 -13z"/>
<path d="M4186 3074 c-4 -20 -5 -38 -3 -40 3 -3 8 11 11 32 4 20 5 38 3 40 -3
3 -8 -11 -11 -32z"/>
<path d="M4172 2990 c0 -19 2 -27 5 -17 2 9 2 25 0 35 -3 9 -5 1 -5 -18z"/>
<path d="M4161 2934 c0 -11 3 -14 6 -6 3 7 2 16 -1 19 -3 4 -6 -2 -5 -13z"/>
<path d="M4146 2863 c-8 -63 -1 -65 11 -3 6 27 7 50 3 50 -4 0 -10 -21 -14
-47z"/>
</g>
</svg>
