<svg xmlns="http://www.w3.org/2000/svg" width="61.5" height="61.5" viewBox="0 0 61.5 61.5">
  <g id="ic_buyer" transform="translate(0.75 0.75)">
    <g id="Group_57198" data-name="Group 57198" transform="translate(0)">
      <path id="Path_75339" data-name="Path 75339" d="M333.094,241.375H330.75v-2.344a7.031,7.031,0,0,0-14.062,0v2.344h-2.344A2.344,2.344,0,0,0,312,243.719v18.75a2.344,2.344,0,0,0,2.344,2.344h18.75a2.344,2.344,0,0,0,2.344-2.344v-18.75A2.344,2.344,0,0,0,333.094,241.375Zm-11.719-2.344a2.344,2.344,0,0,1,4.688,0v2.344h-4.687Zm9.375,21.094H316.688V246.063H330.75Z" transform="translate(-275.438 -204.813)" fill="#c8a452" stroke="#0d0d0d" stroke-width="1.5"/>
      <path id="Path_75340" data-name="Path 75340" d="M4.688,49.219a7.039,7.039,0,0,1,7.031-7.031h5.091a7.03,7.03,0,0,0,13.642-1.875A14.021,14.021,0,0,0,37.5,28.125V18.75a2.344,2.344,0,0,0-2.344-2.344H28.125a2.346,2.346,0,0,1-2.344-2.344,2.344,2.344,0,0,0-4.687,0,2.346,2.346,0,0,1-2.344,2.344H11.719A2.344,2.344,0,0,0,9.375,18.75v9.375A14.049,14.049,0,0,0,12.949,37.5h-1.23a11.658,11.658,0,0,0-7.031,2.35V23.438A18.75,18.75,0,0,1,42.14,22.089a2.344,2.344,0,0,0,4.676-.332A23.438,23.438,0,0,0,0,23.438V57.656A2.344,2.344,0,0,0,2.344,60H30.469a2.344,2.344,0,0,0,0-4.687H4.688Zm9.375-28.125H18.75A7,7,0,0,0,23.438,19.3a7,7,0,0,0,4.688,1.795h4.687v7.031A9.329,9.329,0,0,1,27.2,36.708a2.344,2.344,0,0,0-1.415,2.152v.984a2.344,2.344,0,0,1-4.687,0v-.984a2.344,2.344,0,0,0-1.415-2.152,9.329,9.329,0,0,1-5.617-8.583Z" transform="translate(0)" fill="#c8a452" stroke="#0d0d0d" stroke-width="1.5"/>
    </g>
  </g>
</svg>
