<svg xmlns="http://www.w3.org/2000/svg" width="60" height="60" viewBox="0 0 60 60">
  <g id="ic_earnings" transform="translate(-0.265 -0.265)">
    <g id="layer2" transform="translate(0.265 0.265)">
      <path id="path824" d="M30.265.265a30,30,0,1,0,30,30,30.03,30.03,0,0,0-30-30Zm0,4a26.008,26.008,0,1,1-26,26,25.983,25.983,0,0,1,26-26Zm-.027,10.012A2,2,0,0,0,28.272,16.3v1.684c-3.229.606-5.992,2.685-5.992,6.289a7.15,7.15,0,0,0,2.641,5.7,14.961,14.961,0,0,0,4.723,2.2,13.117,13.117,0,0,1,3.531,1.551,2.616,2.616,0,0,1,1.09,2.555c0,3.333-7.984,3.333-7.984,0a2,2,0,1,0-4,0c0,3.6,2.766,5.684,5.993,6.293v1.676a2,2,0,1,0,4,0V42.569c3.227-.608,6-2.691,6-6.293a7.153,7.153,0,0,0-2.645-5.7,14.976,14.976,0,0,0-4.723-2.2,13.128,13.128,0,0,1-3.531-1.547,2.616,2.616,0,0,1-1.09-2.555c0-3.333,7.984-3.333,7.984,0a2,2,0,1,0,4,0c0-3.6-2.77-5.676-6-6.285V16.3a2,2,0,0,0-2.035-2.023Z" transform="translate(-0.265 -0.265)" fill="#ff8629"/>
    </g>
  </g>
</svg>
