<svg xmlns="http://www.w3.org/2000/svg" width="56.234" height="60" viewBox="0 0 56.234 60">
  <g id="ic_products" transform="translate(-16.067)">
    <g id="Group_57193" data-name="Group 57193" transform="translate(16.067)">
      <path id="Path_75337" data-name="Path 75337" d="M242.269,9.575a19.148,19.148,0,0,0-33.168,0,1.758,1.758,0,0,0,.066,1.866l9.112,13.449V56.359A3.645,3.645,0,0,0,221.919,60h7.531a3.645,3.645,0,0,0,3.641-3.641V24.891L242.2,11.441a1.757,1.757,0,0,0,.066-1.866ZM229.576,56.359a.132.132,0,0,1-.125.125h-7.531a.132.132,0,0,1-.125-.125V26.109h7.781Zm.825-33.766h-1.336l1.112-3.335a1.758,1.758,0,0,0-3.335-1.112l-1.157,3.47-1.157-3.47a1.758,1.758,0,1,0-3.335,1.112l1.112,3.335h-1.336l-8.25-12.177a15.63,15.63,0,0,1,25.931,0Z" transform="translate(-186.271)" fill="#ff9e9e"/>
      <path id="Path_75338" data-name="Path 75338" d="M34.77,43.864h-.125V24.911a1.758,1.758,0,0,0-1.758-1.758h-.125V7.965a2.922,2.922,0,0,0-2.9-3.066A3.375,3.375,0,0,0,28.6,5.15L22.686,7.517a4.763,4.763,0,0,0-2.853,4.214V23.153h-.125a1.758,1.758,0,0,0-1.758,1.758V43.864h-.125a1.758,1.758,0,0,0-1.758,1.758V60.684a3.645,3.645,0,0,0,3.641,3.641h13.18a3.645,3.645,0,0,0,3.641-3.641V45.622a1.758,1.758,0,0,0-1.758-1.758ZM23.348,11.731a1.3,1.3,0,0,1,.643-.95l5.255-2.1V23.153h-5.9ZM21.465,26.669h9.664v17.2H21.465ZM33.012,60.684a.132.132,0,0,1-.125.125H19.708a.132.132,0,0,1-.125-.125V47.38h13.43Z" transform="translate(-16.067 -4.325)" fill="#ff9e9e"/>
    </g>
  </g>
</svg>
