<svg xmlns="http://www.w3.org/2000/svg" width="61.5" height="61.5" viewBox="0 0 61.5 61.5">
  <g id="ic_sellers" transform="translate(0.75 0.75)">
    <g id="Group_57201" data-name="Group 57201">
      <path id="Path_75341" data-name="Path 75341" d="M52.969,0H7.031A7.039,7.039,0,0,0,0,7.031v4.688a6.853,6.853,0,0,0,4.219,6.6V57.656A2.344,2.344,0,0,0,6.563,60H53.438a2.344,2.344,0,0,0,2.344-2.344V18.321A6.853,6.853,0,0,0,60,11.719V7.031A7.039,7.039,0,0,0,52.969,0ZM4.688,7.031A2.346,2.346,0,0,1,7.031,4.688H52.969a2.346,2.346,0,0,1,2.344,2.344v4.688c0,1.081-.491,2.344-1.875,2.344a2.346,2.346,0,0,1-2.344-2.344,2.344,2.344,0,0,0-4.687,0,2.344,2.344,0,0,1-4.687,0,2.344,2.344,0,0,0-4.687,0,2.344,2.344,0,0,1-4.687,0,2.344,2.344,0,0,0-4.687,0,2.344,2.344,0,0,1-4.687,0,2.344,2.344,0,0,0-4.687,0,2.344,2.344,0,0,1-4.687,0,2.344,2.344,0,0,0-4.687,0,2.346,2.346,0,0,1-2.344,2.344c-1.384,0-1.875-1.263-1.875-2.344ZM8.906,55.313V18.347a7.037,7.037,0,0,0,2.344-1.393,7.015,7.015,0,0,0,9.375,0,7.015,7.015,0,0,0,9.375,0,7.015,7.015,0,0,0,9.375,0,7.015,7.015,0,0,0,9.375,0,7.037,7.037,0,0,0,2.344,1.393V55.313Z" fill="#3aff00" stroke="#0d0d0d" stroke-width="1.5"/>
      <path id="Path_75342" data-name="Path 75342" d="M210.063,203.031a7.031,7.031,0,1,0-7.031,7.031A7.039,7.039,0,0,0,210.063,203.031Zm-7.031,2.344a2.344,2.344,0,1,1,2.344-2.344A2.346,2.346,0,0,1,203.031,205.375Z" transform="translate(-173.031 -173.031)" fill="#3aff00" stroke="#0d0d0d" stroke-width="1.5"/>
      <path id="Path_75343" data-name="Path 75343" d="M167.719,316A11.732,11.732,0,0,0,156,327.719a2.344,2.344,0,0,0,4.688,0,7.031,7.031,0,0,1,14.063,0,2.344,2.344,0,0,0,4.688,0A11.732,11.732,0,0,0,167.719,316Z" transform="translate(-137.719 -278.969)" fill="#3aff00" stroke="#0d0d0d" stroke-width="1.5"/>
    </g>
  </g>
</svg>
