<svg xmlns="http://www.w3.org/2000/svg" width="70.685" height="66.84" viewBox="0 0 70.685 66.84">
  <g id="noun_Shipping_3592249" transform="translate(-1.999 -2.8)">
    <g id="Layer_2" data-name="Layer 2" transform="translate(1.999 2.8)">
      <path id="Path_3735" data-name="Path 3735" d="M69.119,58.147a12.63,12.63,0,0,0-4.244,3.663c-1.465,1.768-2.248,2.526-3.941,2.526s-2.526-.909-3.966-2.526a15.485,15.485,0,0,0-2.981-2.93L59.04,42.46a7.578,7.578,0,0,0-3.183-8.488l-5.431-3.385V16.163a5.81,5.81,0,0,0-5.911-5.785H39.893V5.326a2.526,2.526,0,0,0-5.052,0v5.052H30.218a5.81,5.81,0,0,0-5.785,5.785V30.638l-5.456,3.41a7.427,7.427,0,0,0-3.158,8.437l5.052,16.394a16.622,16.622,0,0,0-3.006,2.93c-1.465,1.768-2.273,2.526-3.966,2.526s-2.526-.859-3.941-2.526a12.832,12.832,0,0,0-4.193-3.663,2.559,2.559,0,1,0-2.349,4.547,7.578,7.578,0,0,1,2.526,2.349,9.8,9.8,0,0,0,7.831,4.446,9.826,9.826,0,0,0,7.856-4.446c1.111-1.314,1.819-2.147,2.854-2.526a3.89,3.89,0,0,1,1.086-.152c1.692,0,2.526.859,3.941,2.526a9.776,9.776,0,0,0,7.856,4.6A9.776,9.776,0,0,0,45.2,65.043c1.44-1.718,2.248-2.526,3.966-2.526a3.208,3.208,0,0,1,1.036.152h0c1.036.3,1.768,1.137,2.854,2.526A9.852,9.852,0,0,0,60.91,69.64a9.8,9.8,0,0,0,7.831-4.446,7.78,7.78,0,0,1,2.526-2.349,2.583,2.583,0,0,0-2.147-4.7ZM29.485,16.163a.733.733,0,0,1,.733-.733h14.3a.733.733,0,0,1,.733.733V27.48l-3.941-2.526h-.152a7.907,7.907,0,0,0-1.718-.758h0a7.73,7.73,0,0,0-4.016,0h0a7.149,7.149,0,0,0-1.743.758h-.152L29.586,27.48ZM33.4,61.81a9.776,9.776,0,0,0-7.831-4.446h0L20.644,40.995a2.526,2.526,0,0,1,1.036-2.678L24.433,36.6h0l7.3-4.572,3.107-1.92V63.376A19.175,19.175,0,0,1,33.4,61.81Zm15.788-4.446a9.549,9.549,0,0,0-7.907,4.446,17.682,17.682,0,0,1-1.389,1.516V30.107l3.41,2.122,7,4.4h0l2.728,1.692a2.526,2.526,0,0,1,1.036,2.728Z" transform="translate(-1.999 -2.8)" fill="#c8a452"/>
    </g>
  </g>
</svg>
