<svg xmlns="http://www.w3.org/2000/svg" xmlns:xlink="http://www.w3.org/1999/xlink" width="265.192" height="263.363" viewBox="0 0 265.192 263.363">
  <defs>
    <linearGradient id="linear-gradient" x1="-0.173" y1="-1.894" x2="0.645" y2="2.542" gradientUnits="objectBoundingBox">
      <stop offset="0" stop-color="#80738e"/>
      <stop offset="1" stop-color="#f9a15d" stop-opacity="0"/>
    </linearGradient>
    <linearGradient id="linear-gradient-2" x1="0.432" y1="-0.148" x2="0.62" y2="0.996" gradientUnits="objectBoundingBox">
      <stop offset="0" stop-color="#9d5524"/>
      <stop offset="0.25" stop-color="#f2ab37"/>
      <stop offset="0.502" stop-color="#ffd45d"/>
      <stop offset="0.736" stop-color="#f7af3d"/>
      <stop offset="1" stop-color="#9d5524"/>
    </linearGradient>
    <linearGradient id="linear-gradient-3" x1="1.123" y1="0.173" x2="0.081" y2="1.139" gradientUnits="objectBoundingBox">
      <stop offset="0" stop-color="#aa732a"/>
      <stop offset="1" stop-color="#aa732a"/>
    </linearGradient>
    <linearGradient id="linear-gradient-4" x1="-0.029" y1="0.745" x2="0.952" y2="0.078" gradientUnits="objectBoundingBox">
      <stop offset="0" stop-color="#9d5524"/>
      <stop offset="0.25" stop-color="#f2ab37"/>
      <stop offset="0.502" stop-color="#f7af3d"/>
      <stop offset="0.736" stop-color="#ffd45d"/>
      <stop offset="1" stop-color="#9d5524"/>
    </linearGradient>
    <linearGradient id="linear-gradient-5" x1="0.925" y1="0.972" x2="-0.095" y2="0.06" xlink:href="#linear-gradient-2"/>
    <linearGradient id="linear-gradient-6" x1="1.784" y1="-0.472" x2="-0.542" y2="1.298" xlink:href="#linear-gradient"/>
    <linearGradient id="linear-gradient-7" x1="0.762" y1="1.821" x2="0.421" y2="-0.104" xlink:href="#linear-gradient"/>
  </defs>
  <g id="logo" transform="translate(-173.95 -174.829)">
    <g id="Group_1" data-name="Group 1" transform="translate(173.95 409.578)">
      <path id="Path_1" data-name="Path 1" d="M203.016,398.2v27.983h-2.84V403.8l-10.993,18.83h-1.4l-10.993-18.7v22.27h-2.84V398.211h2.441l12.15,20.745,12.035-20.745h2.441Z" transform="translate(-173.95 -397.969)" fill="#fff"/>
      <path id="Path_2" data-name="Path 2" d="M215.065,424.584a13.658,13.658,0,0,1-5.281-5.092,14.868,14.868,0,0,1,0-14.559,13.513,13.513,0,0,1,5.281-5.092,16.161,16.161,0,0,1,15.022-.021,13.668,13.668,0,0,1,5.26,5.092,14.856,14.856,0,0,1,0,14.591,13.62,13.62,0,0,1-5.26,5.1,15.226,15.226,0,0,1-7.49,1.841A15.461,15.461,0,0,1,215.065,424.584Zm13.528-2.283a10.841,10.841,0,0,0,4.2-4.155,12.377,12.377,0,0,0,0-11.866,10.842,10.842,0,0,0-4.2-4.155,12.744,12.744,0,0,0-12.014,0,11.021,11.021,0,0,0-4.239,4.155,12.228,12.228,0,0,0,0,11.866,10.878,10.878,0,0,0,4.239,4.155A12.184,12.184,0,0,0,222.6,423.8,12.047,12.047,0,0,0,228.593,422.3Z" transform="translate(-172.187 -397.98)" fill="#fff"/>
      <path id="Path_3" data-name="Path 3" d="M261.234,426.183l-6.4-8.995a19.226,19.226,0,0,1-2.241.116h-7.511v8.879H242.13V398.2h10.478q5.349,0,8.395,2.556a8.691,8.691,0,0,1,3.04,7.038,9.089,9.089,0,0,1-1.662,5.533,9.233,9.233,0,0,1-4.734,3.261l6.838,9.594Zm-2.357-13.223a7.216,7.216,0,0,0,0-10.372,9.753,9.753,0,0,0-6.354-1.82h-7.437V414.8h7.437A9.774,9.774,0,0,0,258.877,412.959Z" transform="translate(-170.407 -397.969)" fill="#fff"/>
      <path id="Path_4" data-name="Path 4" d="M268.84,398.2h5.2v23.585H288.67v4.4H268.84Z" transform="translate(-169.018 -397.969)" fill="#fff"/>
      <path id="Path_5" data-name="Path 5" d="M294.23,423.332Q291,420.081,290.99,414V398.2h5.2v15.59q0,8.237,7.111,8.237,7.069,0,7.08-8.237V398.2h5.113v15.79q0,6.075-3.219,9.331c-2.146,2.167-5.155,3.261-9.015,3.261S296.387,425.5,294.23,423.332Z" transform="translate(-167.867 -397.969)" fill="#fff"/>
      <path id="Path_6" data-name="Path 6" d="M338.618,426.183l-7.6-10.636-7.511,10.636H317.6l10.394-14.275L318.158,398.2h5.88l7.154,9.952,7.08-9.952h5.639l-9.794,13.507,10.509,14.475Z" transform="translate(-166.484 -397.969)" fill="#fff"/>
      <path id="Path_7" data-name="Path 7" d="M349.79,423.332q-3.235-3.25-3.24-9.331V398.2h5.2v15.59q0,8.237,7.111,8.237,7.069,0,7.08-8.237V398.2h5.113v15.79q0,6.075-3.219,9.331c-2.146,2.167-5.155,3.261-9.015,3.261S351.947,425.5,349.79,423.332Z" transform="translate(-164.98 -397.969)" fill="#fff"/>
      <path id="Path_8" data-name="Path 8" d="M395.064,426.183l-5.712-8.2a9.314,9.314,0,0,1-1.083.042h-6.312v8.153h-5.2V398.2h11.509a15.459,15.459,0,0,1,6.333,1.2,9.188,9.188,0,0,1,4.134,3.44,10.453,10.453,0,0,1-.094,10.751,9.233,9.233,0,0,1-4.418,3.4l6.438,9.194Zm-1.873-22.144a8,8,0,0,0-5.155-1.441h-6.08v11.151h6.08a7.863,7.863,0,0,0,5.155-1.462,5.085,5.085,0,0,0,1.757-4.134A5.027,5.027,0,0,0,393.192,404.039Z" transform="translate(-163.409 -397.969)" fill="#fff"/>
      <path id="Path_9" data-name="Path 9" d="M416.43,416.314v9.878h-5.2V416.4L400.24,398.21h5.555l8.195,13.634,8.279-13.634h5.113Z" transform="translate(-162.189 -397.968)" fill="#fff"/>
    </g>
    <path id="Path_10" data-name="Path 10" d="M360.649,195.78c-10.719-4.555-28.75-6.533-45.75-2.377a70.969,70.969,0,0,0-46.529,3.419A100.241,100.241,0,0,1,360.649,195.78Z" transform="translate(4.907 0.531)" fill="url(#linear-gradient)"/>
    <g id="Group_2" data-name="Group 2" transform="translate(201.424 174.829)">
      <path id="Path_11" data-name="Path 11" d="M400.961,293.046a102.689,102.689,0,0,1-53.64,75.058c28.835-23.059,40.385-55.481,38.344-86.009v-.031a100.9,100.9,0,0,0-11.014-39.733c-12.6-24.237-35.031-42.6-59.762-48.927a70.969,70.969,0,0,0-46.529,3.419,100.208,100.208,0,0,1,92.279-1.052c1.578.768,3.135,1.6,4.7,2.472h.032A102.8,102.8,0,0,1,400.961,293.046Z" transform="translate(-196.518 -174.298)" fill="url(#linear-gradient-2)"/>
      <path id="Path_12" data-name="Path 12" d="M348.031,363.309a.08.08,0,0,0-.032.021,103.052,103.052,0,0,1-93.3,1.325c51.883,19.7,97.844-11.382,119.168-48.717,7.29-12.75,11.708-26.215,12.508-38.639C388.416,307.828,376.866,340.25,348.031,363.309Z" transform="translate(-197.228 -169.503)" fill="url(#linear-gradient-3)"/>
      <path id="Path_13" data-name="Path 13" d="M368.87,198.784c-33.411-18.557-69.062-16.179-96.981-1.42a100.629,100.629,0,0,0-29.76,23.827c-28.519,33.684-32.822,85.494-1.546,115.791-21.3-15.937-43.5-44.888-39.428-74.311.032-.305.084-.61.126-.915a102.868,102.868,0,0,1,167.59-62.971Z" transform="translate(-200.036 -174.829)" fill="url(#linear-gradient-4)"/>
      <path id="Path_14" data-name="Path 14" d="M290.5,362.6c-22.965,4.576-55.376-7.711-70.682-28.7a102.506,102.506,0,0,1-18.631-75.584c-4.061,29.424,18.125,58.374,39.439,74.322a76.945,76.945,0,0,0,18.9,10.762c28.109,10.225,60.909,7.711,71.965-25.7C329.757,344.634,310.959,358.52,290.5,362.6Z" transform="translate(-200.067 -170.489)" fill="url(#linear-gradient-5)"/>
      <path id="Path_15" data-name="Path 15" d="M343.42,363.309c9.625-7.9,20.85-27.13,25.836-47.36,7.29-12.75,11.708-26.215,12.508-38.639C383.805,307.828,372.254,340.25,343.42,363.309Z" transform="translate(-192.617 -169.502)" fill="url(#linear-gradient-6)"/>
    </g>
    <path id="Path_16" data-name="Path 16" d="M240.582,333.938c-21.3-15.937-43.5-44.888-39.428-74.311.032-.305.084-.61.126-.915a102.534,102.534,0,0,1,7.469-25.542C205.1,281.961,221.215,318.622,240.582,333.938Z" transform="translate(1.389 3.032)" fill="url(#linear-gradient-7)"/>
    <g id="Group_3" data-name="Group 3" transform="translate(259.98 221.071)">
      <path id="Path_17" data-name="Path 17" d="M259.885,268.968c.21-.21.21-.526.526-.631-.105-.105-.316-.105-.421-.315.526-3.913,1.273-6.659,1.8-10.667.421-1.9.947-3.587,2.64-4.124,1.378.631,3.377-.631,4.755.736.105,2.64-.526,2.325-.421,4.229a7.677,7.677,0,0,0-.947,3.913,8.325,8.325,0,0,0,2.535-2.535c2.325-1.273,5.07-2.851,8.237-2.114a10.476,10.476,0,0,0,3.692,1.483c.105,1.168,1.168,2.114.631,3.272.21.21.631,1.052.21,1.157-.105.315.316.315.316.526-.211,1.483.105,2.956,0,4.439,0,.421-.316.736-.316,1.168-.105,1.378.316,2.64.21,3.913a19.254,19.254,0,0,0-.105,4.229c-.631.526-.315,1.157-.105,2.009.421-.316.421-.842.631-1.273a50.671,50.671,0,0,0,2.64-4.544c.21-.421.105-.842.316-1.157.105-.105.316-.105.421-.21.21-.421.21-.842.421-1.273.315-.526.842-.842,1.157-1.378a9.35,9.35,0,0,1,.631-1.483c.105-.105.421-.105.526-.316.316-.421.316-1.052.631-1.483.21-.315.631-.526.842-.841s.211-.842.421-1.052c.631-.842,1.8-1.378,2.325-2.325-.526-.526.421-.631.947-.947v-.947a4.652,4.652,0,0,0,2.535-1.052c1.378.526,3.587.21,4.019,1.694.21,0,.421.21.736.105.21.21.21.526.526.631a20.461,20.461,0,0,1,.21,5.176c-.631,3.808-1.483,7.4-1.157,11.414a5.681,5.681,0,0,0-.21,3.272c-.526,1.168.21,2.325.421,3.377.737,0,1.157-.21,1.378-.736,1.483-.316,2.746-2.009,4.229-2.746,1.052-1.157,2.851-1.588,3.7-3.061,1.157-.421,1.483-1.693,2.535-2.325.105,1.168-1.157,1.9-1.483,3.061h-.316a23.869,23.869,0,0,1-8.027,9.615c-.421,0-.526.21-.947.105-.21.21-.526.21-.631.421-4.019.105-6.659-2.851-8.132-6.017a4.056,4.056,0,0,0-.316-2.009c.421-.841-.21-2.009.105-2.64-.526-.421.21-1.052-.421-1.483,0-.842.421-1.157.421-2.115,0-.526-.316-.736-.21-1.378.316-1.378.316-3.272.526-4.755-.316.631-1.168,1.483-.842,1.9a1.694,1.694,0,0,0-.947,1.8,23.217,23.217,0,0,0-2.325,7.921c-.526.421-.947.947-.631,1.589h-.421c-.105.421.21.421.21.736-.841.21-.947,1.8-.841,2.009-.526.526-.631,1.168-1.157,1.588a3.534,3.534,0,0,1-.841,2.535c.421.947-.737,1.8-.737,2.956-.526.105-.316.947-.842,1.052,0,.105.105.105.21.105-1.052,1.483-1.589,2.956-2.851,4.334-.421,0-.736.421-1.052.21.105.316-.526.631-.947.842.105.631-.421.526-.631.736-.316-.105.105-.21,0-.421-.316-.105-.21.316-.421.316-2.009-.316-2.43-.947-4.545-1.052.316-.842-.842-.316-.631-1.168-.21,0-.21.105-.421.105-.631-1.694-.526-3.166-1.052-4.86,0-.21.105-.21.315-.21-.21-1.378.316-3.587.316-5.281a138.362,138.362,0,0,0,1.694-15c.315-2.851.841-6.869-.105-9.4-.421.21-.316.947-1.052.736-.105.947-1.052,1.052-1.589,1.588,0,.316-.21.421-.105.736-1.052.421-1.168,1.8-2.115,2.325a2.185,2.185,0,0,1-1.052,1.9,3.989,3.989,0,0,1-1.052,2.325c-.631,2.956-2.325,6.764-2.535,9.72a.636.636,0,0,1-.315.631c.421,2.009-.526,4.124-.211,6.017-.841,1.052.105,2.43-.421,3.692.841.841-.421,2.22.105,3.166-.21.736-.631,1.378-.21,2.22-.315,0-.315.21-.421.316a8.524,8.524,0,0,1-.315,3.693c-.316.105-.316.21-.631.105-.105.105-.105.526-.21.631-.316,0-.421.21-.842.105-.21,2.325-3.272.842-4.545,1.9-.105-.105-.421-.105-.526-.21-.105-.421.21-.526.21-.841,0-.21-.421,0-.526.105a1.783,1.783,0,0,0-.842-.631,19.616,19.616,0,0,0-.105-2.535c.631-1.052.105-2.22.421-4.018,0-.316.316-.421.421-.631.316-3.913,1.483-8.552,1.9-12.466.316-.842.105-1.8.526-2.535,0-.105-.21,0-.21.105.316-.842,0-3.061.736-4.439,0-.105-.105-.105-.21-.105C259.254,273.512,259.99,270.872,259.885,268.968Zm-.631,6.975.211-1.473c.105,0,.105.105.21.105,0-.105.21-.421,0-.421,0,.105-.105.105-.21.105Zm9.815-5.176,5.5-11.519,1.157-.21,2.956,41.405" transform="translate(-255.73 -216.996)" fill="#fff"/>
      <path id="Path_18" data-name="Path 18" d="M336.5,221.325a2.208,2.208,0,0,0,0,2.535c-.526,1.378-.105,2.009-.842,3.587.105,1.168-1.052,2.325-.841,3.482-.105.21-.21.421-.526.421-.105,1.483-1.694,2.535-1.378,3.808a2.2,2.2,0,0,0-.947,1.8c-1.273.947-1.589,2.851-2.325,4.229-.526.21-.316.631-.526,1.157-1.273.631-.947,1.8-1.8,2.64-.105.316.315.105.21.421-.526-.105-.316.21-.421.421-.105.105-.421.105-.421.105a6.115,6.115,0,0,0-.631,1.483c-.947.105-.737,1.378-1.589,1.694-.105.315.315.21.21.526-1.062.105-.736,1.483-1.483,1.9,0,.21-.105.421.105.421-.841,1.483-.736,3.482-1.589,4.65a2.424,2.424,0,0,1-.421,2.009,4.242,4.242,0,0,1,0,1.157c-.947,1.694-.631,4.755-1.9,6.228.105,1.8-.736,3.167-.736,5.176-.21.105-.21.421-.421.526.421.736-.736,1.9-.21,2.43-.526.631-.316,2.009-.842,2.535-.105.316.316.21.21.526-.105.105-.21.421-.316.526-.105.316.105.421.105.631a27.222,27.222,0,0,0-.947,6.228c-.105.316-.21.105-.526.105a4.439,4.439,0,0,1-.21,3.482c-.105.421.315.316.315.631-.526,1.378,0,2.535-.631,4.018,0,.105.21.105.316.105-.737,1.694.316,3.377-.526,4.65a3.457,3.457,0,0,1,.421,2.43c-.105.421.631,1.052.21,1.9.526,1.483.631,3.061,1.9,4.229.526-.21.947-.421,1.378-.631a47.212,47.212,0,0,0,11.193-13.728c.21-.105.316-.21.526-.316,3.587-6.975,7.5-13.623,11.193-20.492a4.022,4.022,0,0,0-.316,1.694,129.837,129.837,0,0,0-5.386,14.475c-.21.105-.315.316-.421.421a3.134,3.134,0,0,1-1.052,2.746c-1.052,4.124-3.587,6.764-5.386,10.141a23.146,23.146,0,0,0-3.167,4.018c-1.9,1.8-3.272,4.019-6.017,4.965a13.819,13.819,0,0,1-4.439,1.483c-3.482.421-6.228-2.009-7.711-4.229,0-.421-.105-.421.105-.631h-.421a12.138,12.138,0,0,1-.947-4.544c-.21-2.009-.842-4.019-.736-5.7.105-.947,0-2.114.105-3.061a11.251,11.251,0,0,1,.526-2.43c-.526-.316.421-1.273-.105-1.483.105-.316.316-.526.421-.842-.105-1.273.21-1.589.105-2.43a12.322,12.322,0,0,0,.526-3.587,25.142,25.142,0,0,0,.526-4.544c.736-2.43,1.052-6.449,2.115-8.763a77.053,77.053,0,0,1,2.22-9.4,3.947,3.947,0,0,1-.105-1.052c.736-.21.315-1.483.841-1.9-.105-.21-.105-.421-.21-.526.21-.21.21-.736.526-.841.421-2.115,1.052-4.755,1.378-6.659.316-.842.631-2.009.947-3.061.316-.105,0-.421.526-.421-.316-.421.21-1.483.631-1.8-.21-1.9,1.063-2.746,1.063-4.439a1.267,1.267,0,0,1,.526-.526,1.337,1.337,0,0,1,.421-1.378c.105-1.9,1.168-3.587,1.483-5.281.631-.316.421-1.694,1.157-2.009a19.035,19.035,0,0,1,9.615-10.457c1.052-.105,3.166-.316,3.377.316,1.273-.21,1.589,1.378,1.483,2.114C336.176,221.325,336.292,221.325,336.5,221.325Zm-21.344,79.75.21.421,13.318-73.407c-.841,2.114-.841,4.124-1.588,6.333.421,1.378-1.273,3.482-.842,4.965-.526,0-.316.736-.736.842.21,1.273-.947,2.746-.841,4.124.21-1.273,1.694-2.43,1.378-3.482,1.157-.736,1.157-2.114,2.114-3.166.105-.315-.105-.315-.105-.526,1.157-.526.736-2.22,1.9-2.851.105-.316-.105-.421-.105-.631,1.694-1.588,1.588-4.229,2.325-6.333-.21-.211-.21-.526-.21-.947.947-1.052.421-2.746.316-4.019-.316-.105-.631-.105-.947-.21-1.378,1.483-1.693,3.8-2.851,5.7C328.581,227.869,328.686,227.869,328.686,228.09Zm7.49-4.439" transform="translate(-253.123 -218.786)" fill="#fff"/>
    </g>
  </g>
</svg>
