<svg xmlns="http://www.w3.org/2000/svg" xmlns:xlink="http://www.w3.org/1999/xlink" width="648" height="653" viewBox="0 0 648 653">
  <defs>
    <clipPath id="clip-path">
      <rect id="Rectangle_3961" data-name="Rectangle 3961" width="648" height="653" transform="translate(3737 822)" fill="none"/>
    </clipPath>
  </defs>
  <g id="Mask_Group_40" data-name="Mask Group 40" transform="translate(-3737 -822)" clip-path="url(#clip-path)">
    <g id="Group_4025" data-name="Group 4025">
      <path id="Path_275" data-name="Path 275" d="M103.1,0c56.942,0,313.544,55.681,103.1,103.1S160.044,63.162,103.1,63.162,0,160.044,0,103.1A103.1,103.1,0,0,1,103.1,0Z" transform="translate(3792 927.103) rotate(-30)" fill="#0d0d0d"/>
      <g id="Group_971" data-name="Group 971" transform="translate(3743 968.132)">
        <path id="Path_133" data-name="Path 133" d="M882.817,661.474a190.141,190.141,0,0,1-41.487,33.471c-.352.216-.709.419-1.068.629L815.44,673.6c.261-.242.549-.514.86-.813,18.494-17.562,110.309-140.348,116.427-170.248C932.306,505.034,938.248,602.722,882.817,661.474Z" transform="translate(-304.052 -203.936)" fill="#0d0d0d"/>
        <path id="Path_134" data-name="Path 134" d="M847.326,713.837c-.469.112-.947.217-1.426.312l-18.622-16.482c.364-.127.789-.278,1.276-.445,7.99-2.829,31.786-11.37,55.468-21.1,25.446-10.457,50.77-22.272,56.216-29.84C939.07,648.044,903.081,701.369,847.326,713.837Z" transform="translate(-305.259 -218.59)" fill="#0d0d0d"/>
        <path id="Path_3712" data-name="Path 3712" d="M862.763,304.626h-2.652V231.98a42.046,42.046,0,0,0-42.046-42.046H664.153a42.046,42.046,0,0,0-42.046,42.046V630.526a42.046,42.046,0,0,0,42.046,42.046H818.065a42.046,42.046,0,0,0,42.046-42.046V356.338h2.652Z" transform="translate(-284.343 -172.066)" fill="#555"/>
        <path id="Path_3713" data-name="Path 3713" d="M852.478,233.51V631.477a31.393,31.393,0,0,1-31.4,31.393H666.42a31.391,31.391,0,0,1-31.393-31.4V233.51a31.391,31.391,0,0,1,31.4-31.393h18.766A14.925,14.925,0,0,0,699,222.664h88.172a14.909,14.909,0,0,0,13.816-20.547h20.082A31.393,31.393,0,0,1,852.478,233.51Z" transform="translate(-285.66 -173.308)" fill="#0d0d0d"/>
        <path id="Path_3714" data-name="Path 3714" d="M807.144,464.809H671.209a8.991,8.991,0,0,1-8.981-8.981v-4.47a8.991,8.991,0,0,1,8.981-8.981H807.144a8.991,8.991,0,0,1,8.981,8.981v4.47A8.991,8.991,0,0,1,807.144,464.809Z" transform="translate(-288.433 -197.802)" fill="#555" opacity="0.2"/>
        <path id="Path_3715" data-name="Path 3715" d="M807.144,507.716H671.209a8.991,8.991,0,0,1-8.981-8.981v-4.47a8.991,8.991,0,0,1,8.981-8.981H807.144a8.991,8.991,0,0,1,8.981,8.981v4.47A8.991,8.991,0,0,1,807.144,507.716Z" transform="translate(-288.433 -202.176)" fill="#555" opacity="0.2"/>
        <path id="Path_3716" data-name="Path 3716" d="M814.664,455.111H678.73a9.44,9.44,0,0,1-9.43-9.43v-4.47a9.44,9.44,0,0,1,9.43-9.43H814.665a9.44,9.44,0,0,1,9.43,9.43v4.47A9.44,9.44,0,0,1,814.664,455.111ZM678.729,433.578a7.642,7.642,0,0,0-7.634,7.633v4.47a7.642,7.642,0,0,0,7.633,7.633H814.664a7.642,7.642,0,0,0,7.633-7.633v-4.47a7.642,7.642,0,0,0-7.633-7.633Z" transform="translate(-289.154 -196.722)" fill="#3f3d56"/>
        <path id="Path_3717" data-name="Path 3717" d="M814.664,498.018H678.73a9.44,9.44,0,0,1-9.43-9.43v-4.47a9.44,9.44,0,0,1,9.43-9.43H814.665a9.44,9.44,0,0,1,9.43,9.43v4.47A9.44,9.44,0,0,1,814.664,498.018ZM678.73,476.485a7.642,7.642,0,0,0-7.633,7.633v4.47a7.642,7.642,0,0,0,7.633,7.633H814.665a7.642,7.642,0,0,0,7.633-7.633v-4.47a7.642,7.642,0,0,0-7.633-7.633Z" transform="translate(-289.154 -201.096)" fill="#3f3d56"/>
        <path id="Path_3718" data-name="Path 3718" d="M863.922,233.51v86.563A92.984,92.984,0,0,1,747.28,230.2q0-3.808.306-7.537h51.033a14.909,14.909,0,0,0,13.816-20.547h20.082A31.393,31.393,0,0,1,863.922,233.51Z" transform="translate(-297.103 -173.308)" fill="#555" opacity="0.2"/>
        <path id="Path_3719" data-name="Path 3719" d="M713.17,701.306c0,1.825-.068,3.627-.215,5.406H666.42a31.391,31.391,0,0,1-31.393-31.4V632.751a69.216,69.216,0,0,1,78.143,68.555Z" transform="translate(-285.66 -217.151)" fill="#c8a452"/>
        <path id="Path_3720" data-name="Path 3720" d="M302.379,612.972a5.394,5.394,0,0,0,7.1-2.754L351.4,515.209a12.015,12.015,0,0,0-15.336-16.054h0a11.854,11.854,0,0,0-6.062,5.191,12.255,12.255,0,0,0-.588,1.161L287.5,600.517a5.388,5.388,0,0,0,2.755,7.105Z" transform="translate(-250.184 -203.507)" fill="#c8a452"/>
        <path id="Path_3721" data-name="Path 3721" d="M352.088,554l-41.465-9.215,10.263-27.15a28.693,28.693,0,0,1,30.8-21.219l.4.044Z" transform="translate(-252.588 -203.294)" fill="#1b1b1b"/>
        <path id="Path_3722" data-name="Path 3722" d="M443.71,614.461a6.312,6.312,0,0,1-5.758-3.751L396.031,515.7c-2.769-6.277-12.33-10.571-6.212-13.676s25.779-3.937,29.211,2h0a13.114,13.114,0,0,1,.631,1.247l41.92,95.009a6.286,6.286,0,0,1-3.214,8.289l-12.538,5.532-.006-.014A6.235,6.235,0,0,1,443.71,614.461Z" transform="translate(-260.457 -203.638)" fill="#c8a452"/>
        <path id="Path_3723" data-name="Path 3723" d="M384.873,591.169a5.394,5.394,0,0,0-5.388,5.388V707.031a5.394,5.394,0,0,0,5.388,5.388h13.255a5.394,5.394,0,0,0,5.388-5.388V596.557a5.394,5.394,0,0,0-5.388-5.388Z" transform="translate(-259.608 -212.971)" fill="#c8a452"/>
        <path id="Path_3724" data-name="Path 3724" d="M355.681,591.169a5.394,5.394,0,0,0-5.388,5.388V707.031a5.394,5.394,0,0,0,5.388,5.388h13.255a5.394,5.394,0,0,0,5.388-5.388V596.557a5.394,5.394,0,0,0-5.388-5.388Z" transform="translate(-256.632 -212.971)" fill="#c8a452"/>
        <circle id="Ellipse_87" data-name="Ellipse 87" cx="45.801" cy="45.801" r="45.801" transform="translate(72.588 170.857)" fill="#c8a452"/>
        <path id="Path_3725" data-name="Path 3725" d="M394.794,429.228c2.969-.082,6.664-.185,9.51-2.265a7.3,7.3,0,0,0,2.874-5.454,4.913,4.913,0,0,0-1.671-4.035,6.34,6.34,0,0,0-6-.863l2.424-17.715-1.779-.244-2.85,20.826,1.486-.682c1.723-.79,4.088-1.192,5.557.05a3.157,3.157,0,0,1,1.035,2.6,5.52,5.52,0,0,1-2.138,4.066c-2.215,1.618-5.16,1.827-8.5,1.92Z" transform="translate(-261.164 -193.344)" fill="#2f2e41"/>
        <rect id="Rectangle_2575" data-name="Rectangle 2575" width="9.673" height="1.796" transform="translate(149.571 207.08)" fill="#2f2e41"/>
        <rect id="Rectangle_2576" data-name="Rectangle 2576" width="9.673" height="1.796" transform="translate(119.037 207.08)" fill="#2f2e41"/>
        <path id="Path_3726" data-name="Path 3726" d="M418.148,612.706,401.664,492.367a5.388,5.388,0,0,0-5.339-4.657H383.881a5.413,5.413,0,0,0,.081-.9v-4.49a5.388,5.388,0,0,0-5.388-5.388H367.8a5.388,5.388,0,0,0-5.388,5.388v4.49a5.412,5.412,0,0,0,.081.9H350.047a5.389,5.389,0,0,0-5.339,4.657L328.224,612.706a5.388,5.388,0,0,0,5.338,6.12H412.81a5.388,5.388,0,0,0,5.338-6.12Z" transform="translate(-254.377 -201.325)" fill="#1b1b1b"/>
        <path id="Path_3727" data-name="Path 3727" d="M399.8,554V496.462l.4-.044a28.7,28.7,0,0,1,30.817,21.266l10.248,27.1Z" transform="translate(-261.679 -203.294)" fill="#1b1b1b"/>
        <path id="Path_3728" data-name="Path 3728" d="M368.479,451.137,336.8,438.84c-5.18-2.011-10.389-3.96-15.542-6.04a17.715,17.715,0,0,1-5.982-3.526,11.755,11.755,0,0,1-2.983-5.772c-1.1-4.644-.9-9.722-.822-14.461a110.191,110.191,0,0,1,1.277-15.483,74.8,74.8,0,0,1,9.565-27.283c8.884-14.577,24.191-25.544,41.8-24.669,8.151.405,16.35,3.33,22.406,8.9a14.145,14.145,0,0,0,2.115,2.05,2.934,2.934,0,0,0,1.684.113q1.109-.071,2.219-.109a45.836,45.836,0,0,1,7.692.323,24.356,24.356,0,0,1,12.69,5.269c3.027,2.6,5.489,6.279,5.743,10.363a12.267,12.267,0,0,1-4.144,10.014c-3.779,3.185-9.172,2.066-13.706,1.826l-16.608-.88-8.415-.446c-1.733-.092-1.728,2.6,0,2.694l22.366,1.185a97.781,97.781,0,0,0,10.9.442,12.19,12.19,0,0,0,7.484-3.011,14.932,14.932,0,0,0,4.523-14.011c-1.153-5.512-5.255-10.071-10.064-12.784-6.543-3.691-14.358-4.044-21.68-3.5l.953.395c-8.282-8.889-20.968-12.642-32.878-11.329-12.575,1.387-23.759,8.4-31.795,17.995-8.959,10.7-13.842,24.032-15.74,37.745a125.583,125.583,0,0,0-.972,22.343,28.154,28.154,0,0,0,1.663,9.655,13.821,13.821,0,0,0,6.489,6.956,92.861,92.861,0,0,0,10.3,4.231L339,442.571l22.926,8.9,5.836,2.265c1.617.628,2.318-1.976.716-2.6Z" transform="translate(-252.397 -187.249)" fill="#555"/>
        <path id="Path_3729" data-name="Path 3729" d="M318.215,358.774a13.92,13.92,0,1,1,13.92-13.92A13.92,13.92,0,0,1,318.215,358.774Zm0-25.146a11.226,11.226,0,1,0,11.226,11.226A11.226,11.226,0,0,0,318.215,333.628Z" transform="translate(-251.943 -186.441)" fill="#555"/>
        <path id="Path_3731" data-name="Path 3731" d="M880.924,727.73H246.9a.9.9,0,0,1,0-1.8H880.924a.9.9,0,0,1,0,1.8Z" transform="translate(-246 -226.709)" fill="#0d0d0d"/>
        <path id="Path_3732" data-name="Path 3732" d="M772.341,559.457H707.806a8.991,8.991,0,0,1-8.981-8.981v-4.47a8.991,8.991,0,0,1,8.981-8.981h64.536a8.991,8.991,0,0,1,8.98,8.981v4.47A8.991,8.991,0,0,1,772.341,559.457Z" transform="translate(-292.164 -207.451)" fill="#c8a452"/>
        <path id="Path_3733" data-name="Path 3733" d="M779.862,549.759H715.327a9.44,9.44,0,0,1-9.43-9.43v-4.47a9.44,9.44,0,0,1,9.43-9.43h64.536a9.44,9.44,0,0,1,9.43,9.43v4.47a9.44,9.44,0,0,1-9.43,9.43Zm-64.536-21.533a7.642,7.642,0,0,0-7.633,7.633v4.47a7.642,7.642,0,0,0,7.633,7.633h64.536a7.642,7.642,0,0,0,7.633-7.634v-4.47a7.642,7.642,0,0,0-7.634-7.634Z" transform="translate(-292.885 -206.371)" fill="#3f3d56"/>
      </g>
    </g>
  </g>
</svg>
