<svg xmlns="http://www.w3.org/2000/svg" width="92.255" height="98.195" viewBox="0 0 92.255 98.195">
  <g id="Group_4026" data-name="Group 4026" transform="translate(-3.875 -0.901)">
    <path id="Path_2818" data-name="Path 2818" d="M50.07,31.74a13.24,13.24,0,0,1-3,1.79,13.75,13.75,0,0,1-2.93.81c-.25,0-.45.71-.43,1.46h0c0,.67.24,1.2.53,1.21a13.29,13.29,0,0,0,3.8-.29A14.64,14.64,0,0,0,58.86,25.88,15.32,15.32,0,0,0,56.27,13a15.66,15.66,0,0,0-28,6.32,15.45,15.45,0,0,0,.18,6.53,14.67,14.67,0,0,0,10.87,10.9,13.34,13.34,0,0,0,3.81.3c.33,0,.57-.67.54-1.44s-.21-1.26-.44-1.3a13.72,13.72,0,0,1-2.92-.8,13.22,13.22,0,0,1-3-1.79,11.4,11.4,0,0,1-4.11-6.87,11.09,11.09,0,0,1,.12-4.46,10.88,10.88,0,0,1,2-4.16,10.59,10.59,0,0,1,16.71,0,10.89,10.89,0,0,1,2,4.16,11.14,11.14,0,0,1,.12,4.47,11.43,11.43,0,0,1-4.08,6.88Z" fill="#3aff00"/>
    <path id="Path_2819" data-name="Path 2819" d="M11.3,44.33a42.2,42.2,0,0,0,3.16,3.87,36.49,36.49,0,0,1,2.72,3.34,33.38,33.38,0,0,1,6,15.15,34.569,34.569,0,0,1,.28,3.89l.06,4.05.12,7.76.07,3.7v2.34a3.17,3.17,0,0,0,.23,1,3.333,3.333,0,0,0,2.79,2.04h2.93l3.3-.07L44.65,91a1.525,1.525,0,0,0,1.68-1.47,1.62,1.62,0,0,0-1.68-1.28L33,87.94l-3.3-.07H27.5V86.13l.07-3.7.12-7.76.06-4.05a38.361,38.361,0,0,0-.2-4.4A37.54,37.54,0,0,0,21.1,48.81a40.838,40.838,0,0,0-3-3.87,37.731,37.731,0,0,1-2.72-3.45,34.59,34.59,0,0,1-4.44-30.71c.26-.75.52-1.49.83-2.23l.11-.27.08-.16a1.71,1.71,0,0,1,.17-.3,2.92,2.92,0,0,1,.43-.54,3.14,3.14,0,0,1,2.52-.9,3.2,3.2,0,0,1,1.3.42,3,3,0,0,1,1,.94,3.37,3.37,0,0,1,.39,2.74l-.12.35-.27.67c-.17.45-.33.9-.48,1.36A28,28,0,0,0,39.66,49.34a29.81,29.81,0,0,0,11.19-.69,28.32,28.32,0,0,0,17-13,29.28,29.28,0,0,0,3.46-9.91,30.73,30.73,0,0,0-.35-10.14A32.1,32.1,0,0,0,69.41,11l-.1-.26-.06-.17a1.91,1.91,0,0,1-.09-.32,3.27,3.27,0,0,1-.09-.66A3.55,3.55,0,0,1,71,6.26,3.25,3.25,0,0,1,73.44,6a4.3,4.3,0,0,1,2.23,1.53,3.651,3.651,0,0,1,.36.56l.15.31.18.44c.24.59.46,1.18.67,1.78a35.25,35.25,0,0,1,1.65,7.13,36.17,36.17,0,0,1-5.16,23.5,1.53,1.53,0,0,0,.26,2.15,1.57,1.57,0,0,0,2-.66,37.09,37.09,0,0,0,5.34-10.88A38.49,38.49,0,0,0,81,9.33c-.21-.67-.44-1.34-.69-2l-.19-.5c-.07-.18-.18-.41-.27-.62A7.88,7.88,0,0,0,79.13,5a8.59,8.59,0,0,0-4.42-3.2,7.91,7.91,0,0,0-2.9-.35,7.73,7.73,0,0,0-2.89.79,8.05,8.05,0,0,0-4,4.38,8.15,8.15,0,0,0-.53,3,7.91,7.91,0,0,0,.18,1.55,6,6,0,0,0,.2.76l.12.36.1.27a28.29,28.29,0,0,1,1.24,4,26.18,26.18,0,0,1,.14,8.4,24.47,24.47,0,0,1-3,8.08A23.27,23.27,0,0,1,49.49,43.52a24.63,24.63,0,0,1-9.08.49,22.94,22.94,0,0,1-8.64-3.1A22.55,22.55,0,0,1,21.43,26.06,22.72,22.72,0,0,1,22,14.52c.12-.37.25-.74.38-1.1l.21-.54c.1-.27.22-.59.31-.88a8.82,8.82,0,0,0-1.06-7.25A8.46,8.46,0,0,0,19.16,2.1,8.57,8.57,0,0,0,8.7,3.44,8.3,8.3,0,0,0,7.54,4.91a6.5,6.5,0,0,0-.45.82l-.2.42-.13.32c-.35.85-.65,1.71-.94,2.58A39.47,39.47,0,0,0,11.3,44.33Z" fill="#3aff00"/>
    <path id="Path_2820" data-name="Path 2820" d="M89.24,63.34a22.51,22.51,0,0,1,3,5.47A23,23,0,0,1,93,71.48c.09.43.2.85.27,1.27L93.4,74c.06.44.73.78,1.48.75s1.19-.39,1.2-.85V72.48c0-.48-.08-1-.12-1.47a23,23,0,0,0-.55-3.17,24.09,24.09,0,0,0-3-6.73A23.64,23.64,0,0,0,78.08,51a24.37,24.37,0,1,0,0,47.45A23.65,23.65,0,0,0,92.45,88.37a24.15,24.15,0,0,0,3-6.73A23.31,23.31,0,0,0,96,78.46c0-.51.11-1,.13-1.48v-1.4c0-.52-.65-.91-1.43-.87s-1.27.36-1.32.77l-.15,1.22c-.07.41-.18.83-.27,1.27a23.259,23.259,0,0,1-.76,2.67,22.49,22.49,0,0,1-3,5.46A20.14,20.14,0,0,1,77,93.75a19.9,19.9,0,0,1-8.11-.1A19.67,19.67,0,0,1,61.28,90a19.31,19.31,0,0,1,0-30.62,19.68,19.68,0,0,1,7.65-3.62,19.946,19.946,0,0,1,20.31,7.58Z" fill="#3aff00"/>
    <path id="Path_2821" data-name="Path 2821" d="M72.29,81.56l.06-.07.24-.3,2-2.43c2.7-3.25,5.7-6.25,7-8.24a4.29,4.29,0,0,0-.73-1.28,3.3,3.3,0,0,0-.84-1,14.37,14.37,0,0,0-4.57,2.27,26.89,26.89,0,0,0-5,4.68c-.19.23-.36.46-.54.69a9.25,9.25,0,0,0-4.17-2.12A3.64,3.64,0,0,0,64.82,75a3.76,3.76,0,0,0-.51,1.13c.64.92,1.62,2.05,2.5,3.46.22.35.44.72.64,1.1.1.19.2.38.3.58l.07.15h0l4.43.19h0Z" fill="#3aff00"/>
  </g>
</svg>
