<svg xmlns="http://www.w3.org/2000/svg" width="47.608" height="46.435" viewBox="0 0 47.608 46.435">
  <g id="noun_Box_1279500" transform="translate(-7.21 -8.2)">
    <path id="Path_2790" data-name="Path 2790" d="M7.293,22.887h0v.044a1.667,1.667,0,0,0-.083.306V47.411a7.224,7.224,0,0,0,7.224,7.224H47.593a7.224,7.224,0,0,0,7.224-7.224V23.237a1.667,1.667,0,0,0-.083-.306v-.044h0L50.289,12.012A6.113,6.113,0,0,0,44.6,8.2H17.368a6.113,6.113,0,0,0-5.662,3.812Zm44.19,24.546a3.89,3.89,0,0,1-3.89,3.89H14.39a3.89,3.89,0,0,1-3.89-3.89V25.2H51.483Zm-18.827-35.9H44.6a2.779,2.779,0,0,1,2.573,1.734l3.5,8.6H32.656ZM14.807,13.268a2.779,2.779,0,0,1,2.573-1.734H29.322V21.87H11.306Z" fill="#c8a452"/>
    <path id="Path_2791" data-name="Path 2791" d="M33.417,52.134H50.366a1.667,1.667,0,1,0,0-3.334H33.417a1.667,1.667,0,1,0,0,3.334Z" transform="translate(-10.903 -18.038)" fill="#c8a452"/>
  </g>
</svg>
