<svg xmlns="http://www.w3.org/2000/svg" width="47.608" height="46.435" viewBox="0 0 47.608 46.435">
  <g id="Group_681" data-name="Group 681" transform="translate(-604 -177)">
    <g id="noun_Box_1279500" transform="translate(596.79 168.8)">
      <path id="Path_2790" data-name="Path 2790" d="M7.293,22.887h0v.044a1.667,1.667,0,0,0-.083.306V47.411a7.224,7.224,0,0,0,7.224,7.224H47.593a7.224,7.224,0,0,0,7.224-7.224V23.237a1.667,1.667,0,0,0-.083-.306v-.044h0L50.289,12.012A6.113,6.113,0,0,0,44.6,8.2H17.368a6.113,6.113,0,0,0-5.662,3.812Zm44.19,24.546a3.89,3.89,0,0,1-3.89,3.89H14.39a3.89,3.89,0,0,1-3.89-3.89V25.2H51.483Zm-18.827-35.9H44.6a2.779,2.779,0,0,1,2.573,1.734l3.5,8.6H32.656ZM14.807,13.268a2.779,2.779,0,0,1,2.573-1.734H29.322V21.87H11.306Z" fill="#3aff00"/>
    </g>
    <g id="noun_Check_1916271" transform="translate(615 194)">
      <g id="Group_171" data-name="Group 171">
        <path id="Path_158" data-name="Path 158" d="M10,18a1,1,0,0,1-.707-.293l-4-4a1,1,0,1,1,1.414-1.414l3.255,3.255,8.295-9.217a1,1,0,1,1,1.486,1.338l-9,10a1,1,0,0,1-.717.331Z" fill="#3aff00" stroke="#3aff00" stroke-width="1"/>
      </g>
    </g>
  </g>
</svg>
