<svg xmlns="http://www.w3.org/2000/svg" width="71.337" height="50.955" viewBox="0 0 71.337 50.955">
  <g id="noun_Shipping_3164199" transform="translate(-2 -6)">
    <g id="Layer_15" data-name="Layer 15" transform="translate(2 6)">
      <path id="Path_3734" data-name="Path 3734" d="M17.287,31.478a2.548,2.548,0,0,1-2.548,2.548H4.548a2.548,2.548,0,1,1,0-5.1H14.739A2.548,2.548,0,0,1,17.287,31.478ZM14.739,46.764H4.548a2.548,2.548,0,1,0,0,5.1H14.739a2.548,2.548,0,1,0,0-5.1ZM42.764,34.025H32.573a2.548,2.548,0,0,0,0,5.1H42.764a2.548,2.548,0,1,0,0-5.1ZM14.739,11.1H4.548a2.548,2.548,0,0,0,0,5.1H14.739a2.548,2.548,0,0,0,0-5.1ZM42.764,41.669H32.573a2.548,2.548,0,0,0,0,5.1H42.764a2.548,2.548,0,1,0,0-5.1ZM73.337,13.643V49.312a7.643,7.643,0,0,1-7.643,7.643H27.478a7.643,7.643,0,0,1-7.643-7.643V13.643A7.643,7.643,0,0,1,27.478,6H65.694A7.643,7.643,0,0,1,73.337,13.643ZM47.86,21.618l3.694-2.548a2.548,2.548,0,0,1,2.8,0l3.694,2.548V11.1H47.86Zm20.382-7.974A2.548,2.548,0,0,0,65.694,11.1H63.146V26.382a2.516,2.516,0,0,1-3.9,2.115l-6.293-4.153L46.713,28.5a2.564,2.564,0,0,1-3.949-2.115V11.1H27.478a2.548,2.548,0,0,0-2.548,2.548V49.312a2.548,2.548,0,0,0,2.548,2.548H65.694a2.548,2.548,0,0,0,2.548-2.548Z" transform="translate(-2 -6)" fill="#c8a452"/>
    </g>
  </g>
</svg>
