<svg xmlns="http://www.w3.org/2000/svg" width="108.712" height="115.238" viewBox="0 0 108.712 115.238">
  <g id="Group_114447" data-name="Group 114447" transform="translate(-973.75 -4274.992)">
    <g id="Group_114438" data-name="Group 114438" transform="translate(458.67 3701.902)">
      <g id="Group_114423" data-name="Group 114423" transform="translate(534.264 573.09)">
        <g id="Group_114422" data-name="Group 114422">
          <path id="Path_254" data-name="Path 254" d="M541.579,584.723a1.711,1.711,0,0,1,.874.734,1.569,1.569,0,0,1,.175,1.5,3.305,3.305,0,0,1-1.37,1.446l-2.723,1.748-3.666-5.705,2.559-1.646a3,3,0,0,1,1.764-.579,1.512,1.512,0,0,1,1.232.739,1.691,1.691,0,0,1,.289.91,1.611,1.611,0,0,1-.239.857A1.74,1.74,0,0,1,541.579,584.723Zm-5.471-.142,1.173,1.826,1.671-1.073a2.022,2.022,0,0,0,.817-.854,1.016,1.016,0,0,0-.875-1.362,2.023,2.023,0,0,0-1.115.389Zm5.59,2.283a.945.945,0,0,0-.11-.944q-.613-.952-2.006-.057l-1.876,1.206,1.221,1.9,1.875-1.206A2.292,2.292,0,0,0,541.7,586.863Z" transform="translate(-534.87 -573.373)" fill="#0d0d0d"/>
          <path id="Path_255" data-name="Path 255" d="M548.91,583.393l.364.76-4.438,2.128-2.933-6.116,4.316-2.069.364.761-3.442,1.65.9,1.878,3.066-1.471.357.743-3.067,1.472.947,1.974Z" transform="translate(-535.088 -573.245)" fill="#0d0d0d"/>
          <path id="Path_256" data-name="Path 256" d="M551.212,583.282a3.037,3.037,0,0,1-1.259-.215l.091-.83a2.991,2.991,0,0,0,1.124.208,3.66,3.66,0,0,0,1.248-.2,2.252,2.252,0,0,0,1.095-.685.877.877,0,0,0,.144-.854.755.755,0,0,0-.4-.462,1.541,1.541,0,0,0-.641-.131c-.236,0-.562.021-.978.063a9.9,9.9,0,0,1-1.289.058,2.041,2.041,0,0,1-.946-.272,1.512,1.512,0,0,1-.654-.865,1.734,1.734,0,0,1-.051-1.017,1.975,1.975,0,0,1,.59-.944,3.525,3.525,0,0,1,1.278-.721,4.538,4.538,0,0,1,1.168-.241,3.131,3.131,0,0,1,1.089.093l-.047.838a3.518,3.518,0,0,0-1-.091,3.4,3.4,0,0,0-.943.18,2.078,2.078,0,0,0-1.068.689.915.915,0,0,0-.135.866.735.735,0,0,0,.406.459,1.592,1.592,0,0,0,.655.131,9.067,9.067,0,0,0,.967-.064,9.449,9.449,0,0,1,1.284-.056,2.057,2.057,0,0,1,.94.269,1.477,1.477,0,0,1,.649.851,1.73,1.73,0,0,1,.046,1.016,1.951,1.951,0,0,1-.6.949,3.644,3.644,0,0,1-1.289.718A4.624,4.624,0,0,1,551.212,583.282Z" transform="translate(-535.297 -573.185)" fill="#0d0d0d"/>
          <path id="Path_257" data-name="Path 257" d="M556.387,575.645l-2.265.531-.192-.821,5.462-1.28.193.82-2.265.532,1.356,5.783-.934.219Z" transform="translate(-535.461 -573.121)" fill="#0d0d0d"/>
          <path id="Path_258" data-name="Path 258" d="M571.609,580.351a2.24,2.24,0,0,1-.73.635,2.21,2.21,0,0,1-.926.259,2.473,2.473,0,0,1-1.213-.235,5.811,5.811,0,0,1-1.332-.966,3.626,3.626,0,0,1-1.757-.413,3.3,3.3,0,0,1-1.271-1.162,3.592,3.592,0,0,1-.166-3.48,3.322,3.322,0,0,1,1.218-1.319,4.005,4.005,0,0,1,3.687-.215,3.309,3.309,0,0,1,1.358,1.162,3.433,3.433,0,0,1,.568,1.748,3.479,3.479,0,0,1-.244,1.548,3.255,3.255,0,0,1-.87,1.226,3.511,3.511,0,0,1-1.349.739,2.487,2.487,0,0,0,.683.479,1.4,1.4,0,0,0,.653.123,1.616,1.616,0,0,0,1.2-.653Zm-6.371-2.31a2.452,2.452,0,0,0,1,.877,2.716,2.716,0,0,0,1.369.26,2.683,2.683,0,0,0,1.316-.417,2.471,2.471,0,0,0,.888-.989,2.751,2.751,0,0,0-.156-2.66,2.474,2.474,0,0,0-1-.877,2.664,2.664,0,0,0-1.354-.262,2.713,2.713,0,0,0-1.33.419,2.46,2.46,0,0,0-.893.988,2.756,2.756,0,0,0,.157,2.661Z" transform="translate(-535.768 -573.091)" fill="#0d0d0d"/>
          <path id="Path_259" data-name="Path 259" d="M573.572,579.214a3.058,3.058,0,0,1-.6-2.276l.268-3.848.967.068-.267,3.81q-.151,2.174,1.753,2.307a1.833,1.833,0,0,0,1.458-.438,2.356,2.356,0,0,0,.607-1.6l.266-3.807.938.065-.269,3.848a3.055,3.055,0,0,1-.91,2.174,3.272,3.272,0,0,1-4.213-.3Z" transform="translate(-536.051 -573.09)" fill="#0d0d0d"/>
          <path id="Path_260" data-name="Path 260" d="M584.857,579.838l-3.524-.756-1.084,1.5-.976-.209,4.422-5.989.939.2,1.593,7.277-1-.213Zm-.169-.83-.735-3.555-2.126,2.943Z" transform="translate(-536.247 -573.13)" fill="#0d0d0d"/>
          <path id="Path_261" data-name="Path 261" d="M589.441,575.8l.918.312-1.908,5.626,3.479,1.178-.271.8-4.4-1.489Z" transform="translate(-536.495 -573.174)" fill="#0d0d0d"/>
          <path id="Path_262" data-name="Path 262" d="M595.4,577.993l.891.385-2.68,6.231-.889-.384Z" transform="translate(-536.664 -573.242)" fill="#0d0d0d"/>
          <path id="Path_263" data-name="Path 263" d="M599.452,580.793l-2.057-1.085.393-.745,4.963,2.615-.392.746L600.3,581.24l-2.769,5.254-.849-.447Z" transform="translate(-536.787 -573.272)" fill="#0d0d0d"/>
          <path id="Path_264" data-name="Path 264" d="M603.882,587.615l-1.307,1.948-.8-.535,1.318-1.964.226-5.169.861.576-.191,4.18,3.8-1.755.8.535Z" transform="translate(-536.945 -573.363)" fill="#0d0d0d"/>
        </g>
      </g>
      <path id="Path_265" data-name="Path 265" d="M605.919,594.685a54.106,54.106,0,1,1-73,.033" transform="translate(0 -0.67)" fill="none" stroke="#0d0d0d" stroke-miterlimit="10" stroke-width="0.5"/>
    </g>
    <g id="Group_114442" data-name="Group 114442" transform="translate(1006.5 4305.992)">
      <g id="Group_114441" data-name="Group 114441" transform="translate(0.5)">
        <path id="Path_120904" data-name="Path 120904" d="M40.5,56.992A16.992,16.992,0,1,0,57.492,40,17.011,17.011,0,0,0,40.5,56.992ZM57.492,42.266A14.727,14.727,0,1,1,42.766,56.992,14.743,14.743,0,0,1,57.492,42.266Zm0,0" transform="translate(-35.969 -35.469)" fill="#020202"/>
        <path id="Path_120905" data-name="Path 120905" d="M95.246,101.844l4.391,4.326-1.01,6.08a1.133,1.133,0,0,0,1.639,1.191l5.471-2.841,5.47,2.841a1.133,1.133,0,0,0,1.639-1.191l-1.01-6.08,4.391-4.326a1.133,1.133,0,0,0-.627-1.927L109.507,99l-2.757-5.514a1.133,1.133,0,0,0-2.026,0L101.967,99l-6.094.917a1.133,1.133,0,0,0-.627,1.927Zm7.639-.692a1.133,1.133,0,0,0,.845-.613l2.007-4.014,2.007,4.014a1.133,1.133,0,0,0,.845.613l4.435.668-3.2,3.148a1.135,1.135,0,0,0-.323.993l.735,4.425-3.982-2.067a1.132,1.132,0,0,0-1.044,0l-3.982,2.067.735-4.425a1.132,1.132,0,0,0-.323-.993l-3.2-3.148Zm0,0" transform="translate(-84.214 -82.34)" fill="#020202"/>
        <path id="Path_120906" data-name="Path 120906" d="M182.766,1.133A1.133,1.133,0,1,1,181.633,0,1.133,1.133,0,0,1,182.766,1.133Zm0,0" transform="translate(-160.109)" fill="#020202"/>
        <path id="Path_120907" data-name="Path 120907" d="M16.685,5.616a21.525,21.525,0,0,0-9.1,36.815L.761,54.46a1.133,1.133,0,0,0,1.216,1.668l7.75-1.609,2.724,7.676a1.132,1.132,0,0,0,2.052.181l7.521-13.222,7.52,13.222a1.132,1.132,0,0,0,.984.573c.033,0,.067,0,.1,0a1.134,1.134,0,0,0,.968-.75l2.724-7.676,7.75,1.609a1.133,1.133,0,0,0,1.216-1.668L36.461,42.432a21.525,21.525,0,0,0-9.1-36.815,1.133,1.133,0,0,0-.561,2.2,19.258,19.258,0,1,1-9.557,0,1.133,1.133,0,1,0-.56-2.2ZM13.758,59.1,11.532,52.83a1.133,1.133,0,0,0-1.3-.731L3.967,53.4l5.4-9.519a21.569,21.569,0,0,0,10.756,4.029Zm20.055-7a1.133,1.133,0,0,0-1.3.731L30.289,59.1,23.923,47.911a21.571,21.571,0,0,0,10.756-4.029l5.4,9.519Zm0,0" transform="translate(-0.5 -4.949)" fill="#020202"/>
      </g>
    </g>
  </g>
</svg>
