<svg xmlns="http://www.w3.org/2000/svg" width="113.22" height="115.239" viewBox="0 0 113.22 115.239">
  <g id="Group_114446" data-name="Group 114446" transform="translate(-609 -4274.992)">
    <g id="Group_114439" data-name="Group 114439" transform="translate(255.561 3707.215)">
      <g id="Group_114426" data-name="Group 114426" transform="translate(353.439 567.777)">
        <g id="Group_114425" data-name="Group 114425">
          <path id="Path_266" data-name="Path 266" d="M358.824,606.277a3.308,3.308,0,0,1-1.685.587,3.633,3.633,0,0,1-3.173-1.6,3.327,3.327,0,0,1-.526-1.709,4.033,4.033,0,0,1,1.321-3.022,2.958,2.958,0,0,1,1.212-.647l.26.836a2.53,2.53,0,0,0-1.578,1.341,2.776,2.776,0,0,0-.313,1.371,2.457,2.457,0,0,0,.4,1.273,2.75,2.75,0,0,0,2.378,1.2,2.458,2.458,0,0,0,1.264-.431,2.768,2.768,0,0,0,.919-1.065,2.533,2.533,0,0,0,.134-2.071l.829-.286a3.01,3.01,0,0,1,.2,1.364,3.824,3.824,0,0,1-.414,1.424A3.733,3.733,0,0,1,358.824,606.277Z" transform="translate(-353.439 -568.79)" fill="#0d0d0d"/>
          <path id="Path_267" data-name="Path 267" d="M362.172,600.2a3.333,3.333,0,0,1-1.757.363,3.574,3.574,0,0,1-2.924-2,3.313,3.313,0,0,1-.3-1.769,3.792,3.792,0,0,1,.675-1.78,3.751,3.751,0,0,1,1.411-1.264,3.312,3.312,0,0,1,1.75-.361,3.63,3.63,0,0,1,2.932,2.009,3.305,3.305,0,0,1,.294,1.763,4,4,0,0,1-2.086,3.044Zm1.185-3.056a2.49,2.49,0,0,0-.24-1.3,2.758,2.758,0,0,0-2.2-1.507,2.5,2.5,0,0,0-1.3.247,2.664,2.664,0,0,0-1.037.915,2.715,2.715,0,0,0-.483,1.307,2.471,2.471,0,0,0,.233,1.311,2.753,2.753,0,0,0,2.2,1.5,2.453,2.453,0,0,0,1.306-.254,2.716,2.716,0,0,0,1.044-.924A2.654,2.654,0,0,0,363.358,597.146Z" transform="translate(-353.557 -568.585)" fill="#0d0d0d"/>
          <path id="Path_268" data-name="Path 268" d="M370.8,590.109l-3.595-3.386,1.305,4.608-.306.323-4.652-1.029L367.12,594l-.638.676-4.924-4.659.544-.576,5.4,1.22-1.545-5.3.546-.577,4.931,4.652Z" transform="translate(-353.695 -568.314)" fill="#0d0d0d"/>
          <path id="Path_269" data-name="Path 269" d="M372.985,580.379a2.368,2.368,0,0,1,2.142,2.725,3.138,3.138,0,0,1-1.241,1.776l-1.318,1.035,1.268,1.614-.76.6-4.188-5.33,2.077-1.635A3.145,3.145,0,0,1,372.985,580.379Zm1.22,2.681a1.557,1.557,0,0,0-1.4-1.774,2.193,2.193,0,0,0-1.345.559l-1.295,1.017,1.878,2.392,1.295-1.018A2.192,2.192,0,0,0,374.206,583.06Z" transform="translate(-353.927 -568.175)" fill="#0d0d0d"/>
          <path id="Path_270" data-name="Path 270" d="M375.076,578.231l.825-.507,3.116,5.051,3.124-1.926.442.716L378.636,584Z" transform="translate(-354.122 -568.091)" fill="#0d0d0d"/>
          <path id="Path_271" data-name="Path 271" d="M380.578,575.022l.861-.443,3.1,6.031-.862.443Z" transform="translate(-354.296 -567.992)" fill="#0d0d0d"/>
          <path id="Path_272" data-name="Path 272" d="M392.14,577.318l-1.777-4.608-.814,4.72-.415.16-3.751-2.939,1.758,4.586-.868.332-2.428-6.329.741-.285,4.347,3.436.9-5.447.742-.284,2.437,6.325Z" transform="translate(-354.399 -567.868)" fill="#0d0d0d"/>
          <path id="Path_273" data-name="Path 273" d="M399.694,574.573l.188.82-4.8,1.1-1.511-6.609,4.664-1.066.188.822-3.721.849.465,2.031,3.314-.758.183.8-3.314.756.488,2.133Z" transform="translate(-354.706 -567.81)" fill="#0d0d0d"/>
          <path id="Path_274" data-name="Path 274" d="M406.608,567.831l.642,6.748-.79.076-4.528-4.647.479,5.032-.964.093-.644-6.75.79-.075,4.529,4.647-.479-5.032Z" transform="translate(-354.934 -567.779)" fill="#0d0d0d"/>
          <path id="Path_275" data-name="Path 275" d="M410.872,568.685l-2.322-.066.022-.843,5.605.156-.023.844-2.323-.066-.165,5.936-.959-.027Z" transform="translate(-355.179 -567.777)" fill="#0d0d0d"/>
          <path id="Path_276" data-name="Path 276" d="M419.21,573.7l-3.57-.491-.969,1.579-.988-.136,3.964-6.3.951.131,2.127,7.135-1.006-.138Zm-.23-.814-1-3.489-1.9,3.091Z" transform="translate(-355.341 -567.795)" fill="#0d0d0d"/>
          <path id="Path_277" data-name="Path 277" d="M426.143,577.055l-.871-2.392c-.178-.034-.317-.065-.416-.092l-1.617-.436-.536,1.992-.935-.251,1.763-6.547,2.553.688a3.134,3.134,0,0,1,1.837,1.147,2.134,2.134,0,0,1,.279,1.87,2.262,2.262,0,0,1-.721,1.19,2.186,2.186,0,0,1-1.275.489l.96,2.615Zm.358-3.3a1.563,1.563,0,0,0,.589-2.183,2.183,2.183,0,0,0-1.254-.745l-1.59-.428-.793,2.946,1.589.427A2.167,2.167,0,0,0,426.5,573.751Z" transform="translate(-355.596 -567.826)" fill="#0d0d0d"/>
          <path id="Path_278" data-name="Path 278" d="M431.817,576.6l-.871,2.175-.89-.355.877-2.194-.86-5.1.962.383.688,4.124,3.35-2.509.89.357Z" transform="translate(-355.858 -567.883)" fill="#0d0d0d"/>
          <path id="Path_279" data-name="Path 279" d="M437.1,581.614a3.038,3.038,0,0,1-.647-1.1l.694-.466a2.967,2.967,0,0,0,.564.995,3.643,3.643,0,0,0,.958.824,2.24,2.24,0,0,0,1.229.4.881.881,0,0,0,.746-.441.754.754,0,0,0,.094-.6,1.52,1.52,0,0,0-.311-.574q-.229-.273-.679-.708a9.824,9.824,0,0,1-.873-.948,2.029,2.029,0,0,1-.4-.9,1.506,1.506,0,0,1,.24-1.057,1.735,1.735,0,0,1,.746-.694,1.945,1.945,0,0,1,1.1-.155,3.482,3.482,0,0,1,1.373.512,4.578,4.578,0,0,1,.937.738,3.147,3.147,0,0,1,.628.892l-.67.5a3.526,3.526,0,0,0-.572-.819,3.391,3.391,0,0,0-.744-.606,2.094,2.094,0,0,0-1.214-.373.919.919,0,0,0-.751.454.741.741,0,0,0-.089.606,1.625,1.625,0,0,0,.321.587,9.109,9.109,0,0,0,.672.7,9.555,9.555,0,0,1,.868.944,2.059,2.059,0,0,1,.4.892,1.474,1.474,0,0,1-.232,1.044,1.726,1.726,0,0,1-.747.689,1.936,1.936,0,0,1-1.115.148,3.617,3.617,0,0,1-1.379-.522A4.614,4.614,0,0,1,437.1,581.614Z" transform="translate(-356.06 -568.042)" fill="#0d0d0d"/>
          <path id="Path_280" data-name="Path 280" d="M446.164,585.966l-2.859-2.194-1.623.892-.791-.608,6.562-3.51.761.584-1.684,7.253-.807-.619Zm.2-.822.862-3.526-3.182,1.746Z" transform="translate(-356.2 -568.18)" fill="#0d0d0d"/>
          <path id="Path_281" data-name="Path 281" d="M451.7,593.548l3.544-3.439-4.662,1.1-.31-.32,1.237-4.6-3.531,3.412-.646-.667,4.873-4.713.553.571-1.461,5.345,5.364-1.306.552.572-4.866,4.718Z" transform="translate(-356.403 -568.299)" fill="#0d0d0d"/>
          <path id="Path_282" data-name="Path 282" d="M461.4,596.171a2.367,2.367,0,0,1-2.818,2.019,3.147,3.147,0,0,1-1.718-1.32l-.974-1.362-1.671,1.194-.564-.787,5.513-3.945,1.539,2.149A3.139,3.139,0,0,1,461.4,596.171Zm-2.731,1.1a1.556,1.556,0,0,0,1.834-1.314,2.19,2.19,0,0,0-.5-1.369l-.959-1.339-2.473,1.77.959,1.339A2.191,2.191,0,0,0,458.665,597.27Z" transform="translate(-356.603 -568.541)" fill="#0d0d0d"/>
          <path id="Path_283" data-name="Path 283" d="M463.5,598.359l.472.845-5.186,2.892,1.789,3.206-.736.411-2.259-4.051Z" transform="translate(-356.727 -568.742)" fill="#0d0d0d"/>
          <path id="Path_284" data-name="Path 284" d="M463.006,610.966l-.776.328-1.918-4.53,6.243-2.642,1.864,4.406-.776.328-1.487-3.513-1.918.811,1.325,3.131-.758.321-1.324-3.131-2.016.853Z" transform="translate(-356.813 -568.924)" fill="#0d0d0d"/>
          <path id="Path_285" data-name="Path 285" d="M463.043,613.258a3.05,3.05,0,0,1,.271-1.246l.827.129a2.962,2.962,0,0,0-.261,1.113,3.686,3.686,0,0,0,.145,1.255,2.241,2.241,0,0,0,.632,1.125.884.884,0,0,0,.847.183.758.758,0,0,0,.478-.38,1.536,1.536,0,0,0,.16-.633c.012-.235,0-.563-.017-.98a9.36,9.36,0,0,1,0-1.288,2.016,2.016,0,0,1,.314-.933,1.5,1.5,0,0,1,.894-.613,1.74,1.74,0,0,1,1.019,0,1.97,1.97,0,0,1,.915.632,3.511,3.511,0,0,1,.66,1.308,4.614,4.614,0,0,1,.188,1.177,3.132,3.132,0,0,1-.143,1.083l-.833-.085a3.489,3.489,0,0,0,.135-.99,3.4,3.4,0,0,0-.135-.95,2.089,2.089,0,0,0-.639-1.1.919.919,0,0,0-.86-.173.74.74,0,0,0-.477.384,1.625,1.625,0,0,0-.161.649,8.739,8.739,0,0,0,.02.969,9.262,9.262,0,0,1,0,1.284,2.067,2.067,0,0,1-.31.927,1.484,1.484,0,0,1-.88.608,1.71,1.71,0,0,1-1.015,0,1.937,1.937,0,0,1-.92-.647,3.657,3.657,0,0,1-.659-1.319A4.635,4.635,0,0,1,463.043,613.258Z" transform="translate(-356.899 -569.139)" fill="#0d0d0d"/>
        </g>
      </g>
      <path id="Path_286" data-name="Path 286" d="M461.394,621.492A54.076,54.076,0,1,1,357,612.074" transform="translate(-0.015 -1.398)" fill="none" stroke="#0d0d0d" stroke-miterlimit="10" stroke-width="0.5"/>
      <circle id="Ellipse_1868" data-name="Ellipse 1868" cx="2" cy="2" r="2" transform="translate(459.279 618.455)" fill="#c8a452"/>
      <circle id="Ellipse_1869" data-name="Ellipse 1869" cx="2" cy="2" r="2" transform="translate(354.833 608.6)" fill="#c8a452"/>
    </g>
    <g id="Group_114444" data-name="Group 114444" transform="translate(634 4305.992)">
      <path id="Path_120898" data-name="Path 120898" d="M.134,257.861a1.133,1.133,0,0,0,1,.6H6.8V275a1.133,1.133,0,0,0,1.133,1.133H50.07A1.133,1.133,0,0,0,51.2,275V258.459h5.664a1.133,1.133,0,0,0,.942-1.761l-6.8-10.194a1.133,1.133,0,0,0-.943-.5h-4.3a1.133,1.133,0,1,0,0,2.265h3.7l5.286,7.929H36.4l-5.286-7.929H35.57a1.133,1.133,0,1,0,0-2.265H7.93a1.133,1.133,0,0,0-.943.5L.19,256.7a1.133,1.133,0,0,0-.056,1.163Zm8.928.6H22.2a1.133,1.133,0,0,0,.942-.5l4.722-7.081v22.99H9.063Zm25.792-.5a1.133,1.133,0,0,0,.943.5H48.938v15.4h-18.8v-22.99Zm-26.318-9.69H26.883L21.6,256.194H3.25Z" transform="translate(0 -218.129)"/>
      <path id="Path_120899" data-name="Path 120899" d="M107.327,2.835A6.021,6.021,0,0,0,102.23,0,6.247,6.247,0,0,0,96,6.453c0,3.917,3.17,6.489,7.968,10.383.841.682,1.71,1.388,2.634,2.157a1.133,1.133,0,0,0,1.45,0c.924-.77,1.793-1.475,2.634-2.157,4.8-3.894,7.968-6.466,7.968-10.383A6.247,6.247,0,0,0,112.424,0,6.021,6.021,0,0,0,107.327,2.835Zm9.061,3.618c0,2.838-2.836,5.139-7.13,8.624-.624.506-1.264,1.025-1.931,1.575-.668-.55-1.307-1.069-1.931-1.575-4.293-3.484-7.13-5.786-7.13-8.624a3.991,3.991,0,0,1,3.964-4.187c2.957,0,3.968,3.292,4.009,3.428a1.133,1.133,0,0,0,2.177,0c.01-.034,1.022-3.428,4.009-3.428A3.991,3.991,0,0,1,116.388,6.453Z" transform="translate(-85.124)"/>
      <path id="Path_120900" data-name="Path 120900" d="M313.929,89.158a1.13,1.13,0,0,0,.746-.28c.615-.538,1.2-1.033,1.756-1.511,3.151-2.685,5.427-4.625,5.427-7.511A4.652,4.652,0,0,0,317.327,75a4.214,4.214,0,0,0-3.4,1.7,4.214,4.214,0,0,0-3.4-1.7A4.652,4.652,0,0,0,306,79.857c0,2.886,2.276,4.826,5.427,7.511.561.478,1.141.972,1.756,1.511A1.13,1.13,0,0,0,313.929,89.158Zm-5.663-9.3a2.4,2.4,0,0,1,2.265-2.592c1.67,0,2.279,2.048,2.307,2.145a1.132,1.132,0,0,0,2.182,0c.025-.088.633-2.146,2.307-2.146a2.4,2.4,0,0,1,2.265,2.592c0,1.84-1.743,3.325-4.631,5.786-.336.286-.679.578-1.033.883-.354-.3-.7-.6-1.033-.883C310.008,83.182,308.265,81.7,308.265,79.857Z" transform="translate(-271.333 -66.505)"/>
      <ellipse id="Ellipse_1872" data-name="Ellipse 1872" cx="1.269" cy="0.952" rx="1.269" ry="0.952" transform="translate(39.348 28.172)"/>
    </g>
  </g>
</svg>
