<svg xmlns="http://www.w3.org/2000/svg" width="108.661" height="115.239" viewBox="0 0 108.661 115.239">
  <g id="Group_114448" data-name="Group 114448" transform="translate(-1339.75 -4274.992)">
    <g id="Group_114437" data-name="Group 114437" transform="translate(893.437 3566.094)">
      <g id="Group_114420" data-name="Group 114420" transform="translate(462.284 708.898)">
        <g id="Group_114419" data-name="Group 114419">
          <path id="Path_240" data-name="Path 240" d="M466.776,727.935a3.309,3.309,0,0,1-1.773-.193,3.628,3.628,0,0,1-2.18-2.808,3.315,3.315,0,0,1,.258-1.769,3.781,3.781,0,0,1,1.178-1.484,3.84,3.84,0,0,1,1.311-.68,2.949,2.949,0,0,1,1.371-.065l-.124.867a2.524,2.524,0,0,0-2,.536,2.771,2.771,0,0,0-.871,1.1,2.454,2.454,0,0,0-.18,1.324,2.745,2.745,0,0,0,1.633,2.1,2.459,2.459,0,0,0,1.327.154,2.774,2.774,0,0,0,1.286-.57,2.531,2.531,0,0,0,1.008-1.813l.872.1a3.02,3.02,0,0,1-.4,1.32,3.851,3.851,0,0,1-.985,1.107A3.746,3.746,0,0,1,466.776,727.935Z" transform="translate(-462.795 -709.275)" fill="#0d0d0d"/>
          <path id="Path_241" data-name="Path 241" d="M472.4,723.887a3.34,3.34,0,0,1-1.743-.425,3.578,3.578,0,0,1-1.783-3.063,3.326,3.326,0,0,1,.491-1.727,4.011,4.011,0,0,1,3.189-1.857,3.314,3.314,0,0,1,1.738.424,3.631,3.631,0,0,1,1.788,3.072,3.3,3.3,0,0,1-.49,1.719,4,4,0,0,1-3.189,1.857Zm2.381-2.255a2.482,2.482,0,0,0,.342-1.279,2.753,2.753,0,0,0-1.34-2.3,2.476,2.476,0,0,0-1.282-.335,2.657,2.657,0,0,0-1.33.382,2.705,2.705,0,0,0-1,.973,2.468,2.468,0,0,0-.35,1.284,2.754,2.754,0,0,0,1.339,2.3,2.472,2.472,0,0,0,1.291.33,2.72,2.72,0,0,0,1.338-.386A2.668,2.668,0,0,0,474.782,721.632Z" transform="translate(-462.986 -709.147)" fill="#0d0d0d"/>
          <path id="Path_242" data-name="Path 242" d="M479.13,720.536a3.027,3.027,0,0,1-1.27-.132l.037-.835a2.966,2.966,0,0,0,1.134.136,3.663,3.663,0,0,0,1.232-.284,2.24,2.24,0,0,0,1.049-.753.883.883,0,0,0,.087-.863.747.747,0,0,0-.429-.433,1.538,1.538,0,0,0-.648-.089c-.235.016-.56.057-.971.126a9.746,9.746,0,0,1-1.281.141,2.046,2.046,0,0,1-.961-.209,1.52,1.52,0,0,1-.709-.82,1.754,1.754,0,0,1-.117-1.013,1.969,1.969,0,0,1,.528-.979,3.5,3.5,0,0,1,1.228-.8,4.541,4.541,0,0,1,1.149-.317,3.1,3.1,0,0,1,1.092.023l.007.838a3.526,3.526,0,0,0-1-.026,3.437,3.437,0,0,0-.929.239,2.1,2.1,0,0,0-1.021.758.918.918,0,0,0-.077.874.741.741,0,0,0,.434.431,1.585,1.585,0,0,0,.663.088,8.523,8.523,0,0,0,.962-.127,9.466,9.466,0,0,1,1.276-.139,2.065,2.065,0,0,1,.955.206,1.478,1.478,0,0,1,.7.808,1.729,1.729,0,0,1,.111,1.009,1.953,1.953,0,0,1-.541.985,3.616,3.616,0,0,1-1.239.8A4.631,4.631,0,0,1,479.13,720.536Z" transform="translate(-463.218 -709.039)" fill="#0d0d0d"/>
          <path id="Path_243" data-name="Path 243" d="M483.787,712.581l-2.224.677-.245-.807,5.365-1.632.245.806-2.224.677,1.729,5.68-.918.279Z" transform="translate(-463.378 -708.958)" fill="#0d0d0d"/>
          <path id="Path_244" data-name="Path 244" d="M497.084,715.05l.116.835-4.874.678-.934-6.716,4.739-.66.116.836-3.78.526.287,2.062,3.368-.469.113.815-3.367.468.3,2.168Z" transform="translate(-463.695 -708.907)" fill="#0d0d0d"/>
          <path id="Path_245" data-name="Path 245" d="M499.647,709.837l.06,2.362,3.4-.086.02.833-3.4.086.069,2.74-.968.024-.171-6.778,4.783-.121.021.844Z" transform="translate(-463.923 -708.898)" fill="#0d0d0d"/>
          <path id="Path_246" data-name="Path 246" d="M506.484,709.915l-.2,2.354,3.388.285-.071.83-3.387-.285-.23,2.732-.966-.081.568-6.756,4.768.4-.071.84Z" transform="translate(-464.124 -708.901)" fill="#0d0d0d"/>
          <path id="Path_247" data-name="Path 247" d="M516.133,716.5l-.165.826-4.825-.964,1.328-6.649,4.692.938-.165.826-3.742-.747-.408,2.042,3.334.666-.161.807-3.334-.666-.429,2.147Z" transform="translate(-464.316 -708.924)" fill="#0d0d0d"/>
          <path id="Path_248" data-name="Path 248" d="M518.753,717.784a3.318,3.318,0,0,1-.83-1.58,3.631,3.631,0,0,1,1.115-3.375,3.3,3.3,0,0,1,1.613-.773,3.759,3.759,0,0,1,1.888.149,3.868,3.868,0,0,1,1.3.708,2.992,2.992,0,0,1,.819,1.1l-.789.383a2.529,2.529,0,0,0-1.56-1.363,2.759,2.759,0,0,0-1.4-.106,2.459,2.459,0,0,0-1.2.588,2.757,2.757,0,0,0-.836,2.53,2.466,2.466,0,0,0,.613,1.186,2.773,2.773,0,0,0,1.19.751,2.532,2.532,0,0,0,2.067-.175l.407.778a3.019,3.019,0,0,1-1.32.4,3.822,3.822,0,0,1-1.469-.2A3.749,3.749,0,0,1,518.753,717.784Z" transform="translate(-464.528 -708.996)" fill="#0d0d0d"/>
          <path id="Path_249" data-name="Path 249" d="M527.8,715.227l-2.11-.974.353-.765,5.092,2.35-.353.765-2.11-.973-2.487,5.391-.871-.4Z" transform="translate(-464.763 -709.042)" fill="#0d0d0d"/>
          <path id="Path_250" data-name="Path 250" d="M532.52,716.683l.846.474-3.312,5.915-.845-.474Z" transform="translate(-464.885 -709.143)" fill="#0d0d0d"/>
          <path id="Path_251" data-name="Path 251" d="M540.493,721.728l-6.277,3.925-.792-.539,1.357-7.282.864.589-1.123,5.976,5.171-3.214Z" transform="translate(-465.018 -709.179)" fill="#0d0d0d"/>
          <path id="Path_252" data-name="Path 252" d="M541.552,730.551l-.553.635-3.712-3.228,4.447-5.117,3.611,3.14-.552.635-2.88-2.5-1.366,1.571,2.565,2.231-.539.622-2.566-2.23-1.436,1.651Z" transform="translate(-465.139 -709.337)" fill="#0d0d0d"/>
        </g>
      </g>
      <path id="Path_253" data-name="Path 253" d="M542.374,736.164a54.081,54.081,0,1,1-80.61-3.191" transform="translate(0 -0.758)" fill="none" stroke="#0d0d0d" stroke-miterlimit="10" stroke-width="0.5"/>
    </g>
    <g id="Group_114443" data-name="Group 114443" transform="translate(1289 4305.992)">
      <g id="Group_114443-2" data-name="Group 114443" transform="translate(86)">
        <circle id="Ellipse_1873" data-name="Ellipse 1873" cx="1.133" cy="1.133" r="1.133" transform="translate(22.656 28.32)"/>
        <circle id="Ellipse_1874" data-name="Ellipse 1874" cx="1.133" cy="1.133" r="1.133" transform="translate(13.594 28.32)"/>
        <path id="Path_120908" data-name="Path 120908" d="M229.277,43.5c.011,0,1.254-.033,1.254,1.133a1.133,1.133,0,0,1-2.04.679,1.133,1.133,0,1,0-1.812,1.361,3.414,3.414,0,0,0,1.585,1.162v.763a1.133,1.133,0,1,0,2.266,0v-.761a3.405,3.405,0,0,0-.852-6.6c-.011,0-1.414.129-1.414-1.133a1.133,1.133,0,0,1,2.04-.679,1.133,1.133,0,1,0,1.812-1.361,3.414,3.414,0,0,0-1.585-1.162v-.763a1.133,1.133,0,0,0-2.266,0v.761a3.4,3.4,0,0,0,1.012,6.6Z" transform="translate(-210.141 -31.035)"/>
        <path id="Path_120909" data-name="Path 120909" d="M186,305.664c0,3.176,3.483,5.664,7.93,5.664s7.93-2.488,7.93-5.664S198.376,300,193.93,300,186,302.488,186,305.664Zm7.93-3.4c3.07,0,5.664,1.556,5.664,3.4s-2.594,3.4-5.664,3.4-5.664-1.556-5.664-3.4S190.859,302.266,193.93,302.266Z" transform="translate(-174.672 -266.016)"/>
        <circle id="Ellipse_1875" data-name="Ellipse 1875" cx="1.133" cy="1.133" r="1.133" transform="translate(32.398 47.125)"/>
        <path id="Path_120910" data-name="Path 120910" d="M90.027,48.987a12.526,12.526,0,0,1,2.77,7.88A1.133,1.133,0,0,0,93.93,58h6.8a1.133,1.133,0,0,0,1.133-1.133V55.5a24.44,24.44,0,0,0,6.8,0v1.37A1.133,1.133,0,0,0,109.789,58h6.8a1.133,1.133,0,0,0,1.133-1.133,13.239,13.239,0,0,1,.573-3.747,1.133,1.133,0,1,0-2.17-.651,15.976,15.976,0,0,0-.622,3.266h-4.578V54.161a1.133,1.133,0,0,0-1.348-1.112,22.383,22.383,0,0,1-8.632,0,1.133,1.133,0,0,0-1.348,1.112v1.573H95.016a14.531,14.531,0,0,0-3.308-8.265,15.582,15.582,0,0,1-3.443-10.087,20.1,20.1,0,0,1,2.338-9.16,1.133,1.133,0,0,0-.179-1.3,7.887,7.887,0,0,1-2.159-5.4V20.391H89.4a7.846,7.846,0,0,1,4.73,1.6,1.133,1.133,0,0,0,1.413-.043,17.762,17.762,0,0,1,2.581-1.828,11.316,11.316,0,0,0,14.272,0,17.743,17.743,0,0,1,2.581,1.828,1.133,1.133,0,0,0,1.413.043,7.846,7.846,0,0,1,4.73-1.6h1.133v1.133a7.887,7.887,0,0,1-2.159,5.4,1.133,1.133,0,0,0-.179,1.3,20.1,20.1,0,0,1,2.338,9.16,17.4,17.4,0,0,1-1.108,6.131,1.133,1.133,0,0,0,2.117.806,19.693,19.693,0,0,0,1.256-6.937,22.191,22.191,0,0,0-2.247-9.51,10.118,10.118,0,0,0,2.247-6.35V19.258a1.133,1.133,0,0,0-1.133-1.133h-2.266a10.03,10.03,0,0,0-5.351,1.549,19.952,19.952,0,0,0-1.72-1.2,11.328,11.328,0,1,0-17.577,0,19.952,19.952,0,0,0-1.72,1.2A10.03,10.03,0,0,0,89.4,18.125H87.133A1.133,1.133,0,0,0,86,19.258v2.266a10.118,10.118,0,0,0,2.247,6.35A22.191,22.191,0,0,0,86,37.383a17.669,17.669,0,0,0,4.027,11.6ZM105.258,2.266A9.063,9.063,0,1,1,96.2,11.328,9.073,9.073,0,0,1,105.258,2.266Z" transform="translate(-86)"/>
      </g>
    </g>
  </g>
</svg>
