<svg id="mail_email_message" data-name="mail, email, message" xmlns="http://www.w3.org/2000/svg" width="23" height="15.923" viewBox="0 0 23 15.923">
  <path id="Path_120887" data-name="Path 120887" d="M25.115,13a.885.885,0,0,0-.885.885v7.077a.885.885,0,0,1-.885.885H5.654a.885.885,0,0,1-.885-.885V13.885a.885.885,0,1,0-1.769,0v7.077a2.655,2.655,0,0,0,2.654,2.654H23.346A2.655,2.655,0,0,0,26,20.962V13.885A.885.885,0,0,0,25.115,13Z" transform="translate(-3 -7.692)" fill="#fff"/>
  <path id="Path_120888" data-name="Path 120888" d="M13.97,18.8a.8.8,0,0,0,1.059,0L25.455,9.944a1.085,1.085,0,0,0,.267-1.232A2.648,2.648,0,0,0,23.329,7H5.671A2.648,2.648,0,0,0,3.278,8.712a1.085,1.085,0,0,0,.266,1.231ZM5.671,9H23.329a.778.778,0,0,1,.247.04L14.5,16.75,5.424,9.04A.779.779,0,0,1,5.671,9Z" transform="translate(-3 -7)" fill="#fff"/>
</svg>
