<svg xmlns="http://www.w3.org/2000/svg" xmlns:xlink="http://www.w3.org/1999/xlink" width="515" height="719" viewBox="0 0 515 719">
  <defs>
    <clipPath id="clip-path">
      <rect id="Rectangle_3960" data-name="Rectangle 3960" width="515" height="719" transform="translate(1965 735)" fill="none"/>
    </clipPath>
  </defs>
  <g id="Mask_Group_41" data-name="Mask Group 41" transform="translate(-1965 -735)" clip-path="url(#clip-path)">
    <g id="Group_4027" data-name="Group 4027">
      <g id="Group_4026" data-name="Group 4026" transform="translate(1751.548 532.959)">
        <path id="Path_275" data-name="Path 275" d="M103.1,0a103.1,103.1,0,0,1,103.1,103.1c0,56.942-46.161-39.941-103.1-39.941S0,160.044,0,103.1A103.1,103.1,0,0,1,103.1,0Z" transform="translate(188.452 274.144) rotate(-30)" fill="#0d0d0d"/>
        <path id="Path_276" data-name="Path 276" d="M91.288,0c50.417,0-84.236,66.608,91.288,91.288S192.357,271.56,141.94,271.56,0,141.705,0,91.288A91.288,91.288,0,0,1,91.288,0Z" transform="translate(350 744.631) rotate(-30)" fill="#0d0d0d"/>
        <g id="Group_285" data-name="Group 285" transform="translate(139 222.524)">
          <g id="Group_284" data-name="Group 284" transform="translate(109 135.708)">
            <path id="Path_253" data-name="Path 253" d="M451.647,461.769c20.848-36.674,60.617-64.834,102.715-62.122a194.369,194.369,0,0,0-51.119,123.267c-.691,17.679.381,37.415-11.358,50.652-7.3,8.237-18.468,12.226-29.444,13.063s-21.952-1.146-32.782-3.121l-2.627.806C426.031,542.141,430.8,498.443,451.647,461.769Z" transform="translate(-233.431 -229.095)" fill="#858585"/>
            <path id="Path_254" data-name="Path 254" d="M554.413,400.085a166.137,166.137,0,0,0-73.972,70.54c-3.523,6.6-6.522,13.6-7.831,21a41.034,41.034,0,0,0,2.135,21.49c2.312,6.431,5.423,12.74,6.132,19.621.747,7.253-1.921,14.034-6.725,19.416-5.877,6.585-13.77,10.665-21.627,14.388-8.724,4.133-17.851,8.287-24.03,16-.749.935-2.155-.282-1.408-1.215,10.75-13.42,29.152-15.942,41.913-26.752,5.954-5.044,10.425-11.913,10.142-19.962-.247-7.038-3.448-13.548-5.846-20.039-2.518-6.815-3.773-13.668-2.87-20.934.924-7.433,3.656-14.566,6.995-21.227a161.173,161.173,0,0,1,29.639-40.733,169.082,169.082,0,0,1,46.749-33.355c1.075-.518,1.67,1.245.6,1.759Z" transform="translate(-233.42 -228.65)" fill="#0d0d0d"/>
            <path id="Path_255" data-name="Path 255" d="M512.339,477.5a24.925,24.925,0,0,1-7.522-31.387c.544-1.065,2.225-.269,1.68.8a23.08,23.08,0,0,0,7.056,29.182C514.523,476.8,513.3,478.2,512.339,477.5Z" transform="translate(-260.544 -245.729)" fill="#0d0d0d"/>
            <path id="Path_256" data-name="Path 256" d="M498.759,563.055a48.04,48.04,0,0,0,30.417-17.338c.752-.932,2.159.284,1.408,1.215a49.971,49.971,0,0,1-31.688,17.977c-1.187.17-1.317-1.685-.136-1.854Z" transform="translate(-259.035 -281.692)" fill="#0d0d0d"/>
            <path id="Path_257" data-name="Path 257" d="M574.047,432.559a14.109,14.109,0,0,0,12.61,4.5c1.184-.185,1.313,1.671.136,1.854a15.81,15.81,0,0,1-13.961-4.943.961.961,0,0,1-.1-1.311A.935.935,0,0,1,574.047,432.559Z" transform="translate(-285.92 -240.943)" fill="#0d0d0d"/>
            <path id="Path_258" data-name="Path 258" d="M637.21,567.629c-.736.136-1.472.273-2.215.424a185.753,185.753,0,0,0-29.051,8.03c-.735.256-1.476.526-2.2.8a195.882,195.882,0,0,0-61.606,37.491,190.24,190.24,0,0,0-19.954,20.909c-8.439,10.311-16.769,22.163-27.8,28.885a32.6,32.6,0,0,1-3.551,1.925L427.3,639.745c-.114-.133-.235-.251-.35-.383l-2.585-.936c.288-.407.6-.823.884-1.23.166-.237.347-.468.513-.7.115-.156.231-.312.327-.459.038-.052.077-.1.109-.142.1-.147.2-.274.288-.407q2.571-3.495,5.2-6.966c.006-.015.006-.015.026-.023,13.4-17.6,28.384-34.231,45.418-48.062.513-.416,1.031-.847,1.572-1.251a181.54,181.54,0,0,1,24.535-16.6,160.366,160.366,0,0,1,14.554-7.2,133.435,133.435,0,0,1,40.428-10.311C586,542.5,614.292,548.83,635.6,566.28,636.14,566.727,636.671,567.168,637.21,567.629Z" transform="translate(-232.516 -281.383)" fill="#858585"/>
            <path id="Path_259" data-name="Path 259" d="M637.231,578.98A166.133,166.133,0,0,0,535.7,590.767c-6.786,3.148-13.4,6.933-18.9,12.056a41.029,41.029,0,0,0-11.234,18.443c-2.025,6.526-3.341,13.437-6.917,19.358-3.77,6.241-9.983,10.049-17.059,11.454-8.657,1.719-17.416.225-25.93-1.533-9.454-1.952-19.242-4.13-28.82-1.692-1.16.3-1.551-1.522-.392-1.818,16.663-4.242,32.875,4.823,49.572,3.874,7.791-.443,15.5-3.236,20.117-9.832,4.041-5.768,5.4-12.893,7.4-19.519,2.093-6.957,5.216-13.185,10.312-18.443,5.213-5.379,11.689-9.429,18.365-12.737A161.173,161.173,0,0,1,580.4,575.7a169.076,169.076,0,0,1,57.409,1.514c1.17.234.584,2-.578,1.767Z" transform="translate(-233.014 -291.987)" fill="#0d0d0d"/>
            <path id="Path_260" data-name="Path 260" d="M612.629,575.274a24.925,24.925,0,0,1,12.891-29.589c1.076-.523,1.939,1.125.861,1.648a23.08,23.08,0,0,0-11.935,27.548C614.8,576.025,612.978,576.411,612.629,575.274Z" transform="translate(-299.992 -281.765)" fill="#0d0d0d"/>
            <path id="Path_261" data-name="Path 261" d="M550.661,642.483a48.041,48.041,0,0,0,34.724,4.47c1.161-.291,1.552,1.526.392,1.818a49.97,49.97,0,0,1-36.124-4.725C548.6,643.467,549.617,641.908,550.661,642.483Z" transform="translate(-277.517 -316.648)" fill="#0d0d0d"/>
            <path id="Path_262" data-name="Path 262" d="M695.363,575.662a14.108,14.108,0,0,0,7.362,11.182c1.057.565.042,2.124-1.008,1.563a15.81,15.81,0,0,1-8.171-12.352.961.961,0,0,1,.712-1.1.935.935,0,0,1,1.105.713Z" transform="translate(-329.538 -292.343)" fill="#0d0d0d"/>
            <path id="Path_263" data-name="Path 263" d="M408.055,586.334c-8.9-43.02-20.019-57.363-20.019-57.363l-4.249-3.295-5.109-3.969.025-.51-1.212-.412-.285-.221-.467-.358-.075.081-.158.164-23.121-7.859-29.333-9.964-13.582-17.655a23.493,23.493,0,0,0-18.794-9.167l-43.379.321a23.494,23.494,0,0,0-15.8,6.268l-28.513,26.448-44.428,21.219-.075-.075-.467.333-6.865,3.282.283,1.474-4.249,3.066s-11.122,13.346-20.019,53.375c-2.263,10.185-3.377,32.034-3.78,58.958A10.277,10.277,0,0,0,134.656,660.9H401.574a10.279,10.279,0,0,0,10.273-10.419C411.453,621.189,410.34,597.379,408.055,586.334Z" transform="translate(-124.383 -256.612)" fill="#c8a452"/>
            <circle id="ab6171fa-7d69-4734-b81c-8dff60f9761b" cx="56.831" cy="56.831" r="56.831" transform="translate(95.585 89.235)" fill="#9e616a"/>
            <path id="Path_266" data-name="Path 266" d="M339.563,445.066q-.364-.8-.726-1.609c.093,0,.185.016.278.019Z" transform="translate(-201.685 -244.952)" fill="#2f2e41"/>
            <path id="Path_267" data-name="Path 267" d="M258.819,261.457c2.874-2.293,6.234-4.4,9.909-4.284s7.4,3.438,6.64,7.035a58.4,58.4,0,0,1,70.282-26.354c9.134,3.222,18.091,9.669,20.189,19.125.539,2.427.654,5.089,2.17,7.06,1.911,2.485,5.567,3.047,8.577,2.173l.09-.027a2.685,2.685,0,0,1,3.245,3.791l-2.584,4.82a20.71,20.71,0,0,0,9.867-.21,2.683,2.683,0,0,1,2.849,4.175c-8.522,11.7-22.759,19.255-37.287,19.166-10.326-.063-20.758-3.622-30.808-1.247a26.761,26.761,0,0,0-18,37.567c-3.087-3.377-9.055-2.577-12.213.734s-3.975,8.252-3.657,12.817c.487,6.981,3.222,13.559,6.105,19.961-24.175-.761-47.041-17.72-54.738-40.657C231.726,304.067,239.826,276.608,258.819,261.457Z" transform="translate(-164.814 -169.638)" fill="#2f2e41"/>
            <path id="Path_268" data-name="Path 268" d="M87.464,495.253l15.94,86.726,9.564.833Z" transform="translate(-31.528 -178.519)" opacity="0.2"/>
            <path id="Path_269" data-name="Path 269" d="M347.632,485.026l-15.94,93.2-9.564.9Z" transform="translate(-116.115 -174.833)" opacity="0.2"/>
            <path id="Path_270" data-name="Path 270" d="M274.573,195.7a5.666,5.666,0,0,1-7.583-3.325,5.754,5.754,0,0,1,3.016-7.85c3.106-1.3,6.238.105,7.618,3.41A5.645,5.645,0,0,1,274.573,195.7Zm-5.854-17.576-2.43,1.015a2.622,2.622,0,0,1-3.33-1.221l-.12-.235c-2.615-4.716-2.914-10.447-.885-17.025,1.88-5.9,2.66-10.051,1.09-13.811-1.815-4.347-5.691-5.709-10.634-3.736-1.917.8-2.527.788-4.036,2.284a3.464,3.464,0,0,1-2.508,1.019,3.348,3.348,0,0,1-2.4-1.051,3.42,3.42,0,0,1-.024-4.667,26.564,26.564,0,0,1,8.983-6.168c10.621-4.435,15.967,2.112,18.413,7.972,2.393,5.731,1.047,11.048-1.116,17.935-1.813,5.722-1.707,9.962.352,14.178a2.61,2.61,0,0,1-1.359,3.511Z" transform="translate(-166.973 -133.069)" fill="#c8a452"/>
          </g>
          <g id="Group_283" data-name="Group 283" transform="translate(257.064 95.476)">
            <path id="Path_264" data-name="Path 264" d="M595.928,191.732a34.81,34.81,0,1,0,0,69.621H855.352a34.81,34.81,0,1,0,0-69.621Z" transform="translate(-561.117 -191.732)" fill="#e5e5e5"/>
            <path id="Path_265" data-name="Path 265" d="M599.9,202.747a27.766,27.766,0,0,0,0,55.531H859.322a27.766,27.766,0,1,0,0-55.531Z" transform="translate(-565.088 -195.702)" fill="#fff"/>
            <path id="Path_271" data-name="Path 271" d="M675.356,270.721H623.741a1.243,1.243,0,0,1,0-2.487h51.615a1.243,1.243,0,1,1,0,2.486Z" transform="translate(-583.243 -219.308)" fill="#c8a452"/>
            <path id="Path_272" data-name="Path 272" d="M777.737,271.368H726.122a1.243,1.243,0,1,1,0-2.486h51.615a1.243,1.243,0,1,1,0,2.487Z" transform="translate(-620.147 -219.541)" fill="#c8a452"/>
            <path id="Path_273" data-name="Path 273" d="M880.12,272.017H828.5a1.243,1.243,0,1,1,0-2.487H880.12a1.243,1.243,0,0,1,0,2.487Z" transform="translate(-657.051 -219.775)" fill="#c8a452"/>
            <path id="Path_274" data-name="Path 274" d="M982.5,272.665H930.882a1.243,1.243,0,1,1,0-2.487H982.5a1.243,1.243,0,0,1,0,2.487Z" transform="translate(-693.955 -220.009)" fill="#c8a452"/>
            <circle id="Ellipse_6" data-name="Ellipse 6" cx="9.593" cy="9.593" r="9.593" transform="translate(56.599 20.785)" fill="#c8a452"/>
            <circle id="Ellipse_7" data-name="Ellipse 7" cx="9.593" cy="9.593" r="9.593" transform="translate(122.472 20.785)" fill="#c8a452"/>
            <circle id="Ellipse_8" data-name="Ellipse 8" cx="9.593" cy="9.593" r="9.593" transform="translate(188.344 20.785)" fill="#c8a452"/>
            <circle id="Ellipse_9" data-name="Ellipse 9" cx="9.593" cy="9.593" r="9.593" transform="translate(254.216 20.785)" fill="#c8a452"/>
          </g>
        </g>
      </g>
    </g>
  </g>
</svg>
