<svg xmlns="http://www.w3.org/2000/svg" width="108.656" height="115.239" viewBox="0 0 108.656 115.239">
  <g id="Group_114445" data-name="Group 114445" transform="translate(-242.75 -4274.993)">
    <g id="Group_114440" data-name="Group 114440" transform="translate(30.66 3710.301)">
      <g id="Group_114429" data-name="Group 114429" transform="translate(227.154 564.692)">
        <g id="Group_114428" data-name="Group 114428">
          <path id="Path_287" data-name="Path 287" d="M228.917,579.494l1.463,1.856,2.67-2.1.515.654L230.9,582l1.7,2.151-.76.6-4.2-5.324,3.757-2.962.522.661Z" transform="translate(-227.636 -565.063)" fill="#0d0d0d"/>
          <path id="Path_288" data-name="Path 288" d="M240.59,578.671l-2.335-1.011c-.147.106-.265.185-.354.239l-1.428.875,1.077,1.76-.825.506-3.543-5.781,2.255-1.381a3.143,3.143,0,0,1,2.1-.546,2.138,2.138,0,0,1,1.55,1.084,2.26,2.26,0,0,1,.368,1.342,2.191,2.191,0,0,1-.521,1.262l2.56,1.1Zm-2.153-2.532a1.563,1.563,0,0,0-1.182-1.928,2.2,2.2,0,0,0-1.4.4l-1.4.861,1.594,2.6,1.4-.86A2.173,2.173,0,0,0,238.437,576.14Z" transform="translate(-227.811 -564.964)" fill="#0d0d0d"/>
          <path id="Path_289" data-name="Path 289" d="M246.987,574.633l.35.767-4.476,2.04-2.812-6.168,4.353-1.984.35.766-3.472,1.583.864,1.894,3.093-1.41.341.749-3.093,1.41.907,1.992Z" transform="translate(-228.027 -564.837)" fill="#0d0d0d"/>
          <path id="Path_290" data-name="Path 290" d="M253.294,572.541l.258.8-4.686,1.5-2.069-6.456,4.556-1.46.258.8-3.634,1.164.635,1.982,3.238-1.036.251.783-3.238,1.036.668,2.085Z" transform="translate(-228.24 -564.763)" fill="#0d0d0d"/>
          <path id="Path_291" data-name="Path 291" d="M258.159,572.219a3.012,3.012,0,0,1-1.2-.441l.241-.8a2.976,2.976,0,0,0,1.066.412,3.616,3.616,0,0,0,1.263.029,2.243,2.243,0,0,0,1.2-.47.883.883,0,0,0,.3-.815.744.744,0,0,0-.31-.526,1.52,1.52,0,0,0-.605-.247q-.347-.065-.972-.117a9.6,9.6,0,0,1-1.275-.179,2.035,2.035,0,0,1-.88-.441,1.513,1.513,0,0,1-.484-.969,1.742,1.742,0,0,1,.137-1.01,1.949,1.949,0,0,1,.753-.818,3.487,3.487,0,0,1,1.388-.475,4.542,4.542,0,0,1,1.191-.023,3.14,3.14,0,0,1,1.053.291l-.2.814a3.519,3.519,0,0,0-.962-.271,3.43,3.43,0,0,0-.96,0,2.1,2.1,0,0,0-1.176.481.922.922,0,0,0-.292.828.743.743,0,0,0,.315.526,1.618,1.618,0,0,0,.621.249,8.843,8.843,0,0,0,.962.114,9.482,9.482,0,0,1,1.272.179,2.075,2.075,0,0,1,.874.437,1.478,1.478,0,0,1,.482.955,1.734,1.734,0,0,1-.141,1.006,1.955,1.955,0,0,1-.767.821,3.659,3.659,0,0,1-1.4.471A4.6,4.6,0,0,1,258.159,572.219Z" transform="translate(-228.545 -564.711)" fill="#0d0d0d"/>
          <path id="Path_292" data-name="Path 292" d="M269.328,564.692l.176,6.776-.968.026-.079-3.021-3.891.1.078,3.021-.967.026-.177-6.777.968-.025.076,2.914,3.892-.1-.076-2.914Z" transform="translate(-228.766 -564.692)" fill="#0d0d0d"/>
          <path id="Path_293" data-name="Path 293" d="M272.142,564.869l.966.068-.477,6.764-.966-.068Z" transform="translate(-229.024 -564.698)" fill="#0d0d0d"/>
          <path id="Path_294" data-name="Path 294" d="M280.244,566.517a2.367,2.367,0,0,1-.552,3.423,3.141,3.141,0,0,1-2.146.291l-1.654-.266-.326,2.027-.957-.154,1.08-6.692,2.61.42A3.141,3.141,0,0,1,280.244,566.517Zm-1.144,2.714a1.558,1.558,0,0,0,.359-2.228,2.19,2.19,0,0,0-1.324-.61l-1.625-.262-.484,3,1.625.261A2.188,2.188,0,0,0,279.1,569.231Z" transform="translate(-229.117 -564.706)" fill="#0d0d0d"/>
          <path id="Path_295" data-name="Path 295" d="M287.673,568.475a2.368,2.368,0,0,1-.973,3.329,3.142,3.142,0,0,1-2.166.022l-1.609-.47-.576,1.97-.93-.271,1.9-6.507,2.537.742A3.142,3.142,0,0,1,287.673,568.475Zm-1.473,2.552a1.555,1.555,0,0,0,.633-2.165,2.179,2.179,0,0,0-1.238-.771l-1.58-.463-.854,2.919,1.581.462A2.186,2.186,0,0,0,286.2,571.027Z" transform="translate(-229.331 -564.75)" fill="#0d0d0d"/>
          <path id="Path_296" data-name="Path 296" d="M290.54,568.874l.9.352-2.472,6.314-.9-.354Z" transform="translate(-229.541 -564.824)" fill="#0d0d0d"/>
          <path id="Path_297" data-name="Path 297" d="M299.1,572.853l-3.079,6.04-.707-.36-1.329-6.352-2.3,4.5-.862-.441,3.079-6.039.707.361,1.329,6.351,2.3-4.5Z" transform="translate(-229.628 -564.866)" fill="#0d0d0d"/>
          <path id="Path_298" data-name="Path 298" d="M303.627,579.879l.762.532-1.513,2.169a3.594,3.594,0,0,1-1.327-.147,4.35,4.35,0,0,1-1.272-.615,3.776,3.776,0,0,1-1.259-1.427,3.349,3.349,0,0,1-.352-1.757,3.608,3.608,0,0,1,2.037-2.918,3.287,3.287,0,0,1,1.774-.275,3.875,3.875,0,0,1,1.783.7,3.92,3.92,0,0,1,1.06,1.063,3.03,3.03,0,0,1,.479,1.285l-.837.148a2.725,2.725,0,0,0-1.163-1.768,2.866,2.866,0,0,0-1.331-.521,2.435,2.435,0,0,0-1.322.212,2.735,2.735,0,0,0-1.53,2.191,2.483,2.483,0,0,0,.256,1.319,2.82,2.82,0,0,0,.938,1.067,2.883,2.883,0,0,0,1.552.552Z" transform="translate(-229.875 -565.03)" fill="#0d0d0d"/>
        </g>
      </g>
      <path id="Path_299" data-name="Path 299" d="M305.487,588.977a54.078,54.078,0,1,1-78.979.9" transform="translate(0 -0.765)" fill="none" stroke="#0d0d0d" stroke-miterlimit="10" stroke-width="0.5"/>
      <circle id="Ellipse_1870" data-name="Ellipse 1870" cx="2" cy="2" r="2" transform="translate(302.978 585.573)" fill="#c8a452"/>
      <circle id="Ellipse_1871" data-name="Ellipse 1871" cx="2" cy="2" r="2" transform="translate(225.64 586.211)" fill="#c8a452"/>
    </g>
    <g id="Group_114441" data-name="Group 114441" transform="translate(265 4309.992)">
      <path id="Path_120901" data-name="Path 120901" d="M153,2.49a1.247,1.247,0,0,1-1.162-.819A1.233,1.233,0,1,1,154.2,1.5,1.248,1.248,0,0,1,153,2.49Zm0,0" transform="translate(-133.037 -0.022)"/>
      <path id="Path_120902" data-name="Path 120902" d="M50.9,0H42.256a1.234,1.234,0,1,0,0,2.468H50.9a.922.922,0,0,1,.921.921V7.174H21.488V3.389a.922.922,0,0,1,.921-.921h8.643a1.234,1.234,0,0,0,0-2.468H22.409A3.393,3.393,0,0,0,19.02,3.389V8.408a1.234,1.234,0,0,0,1.234,1.234h.313v18.39a3.306,3.306,0,0,0,3.3,3.3H49.439a3.306,3.306,0,0,0,3.3-3.3V9.641h.313a1.234,1.234,0,0,0,1.234-1.234V3.389A3.393,3.393,0,0,0,50.9,0ZM40.273,9.641v8.8l-3.04-1.615a1.235,1.235,0,0,0-1.158,0l-3.04,1.615v-8.8Zm10,18.39a.835.835,0,0,1-.834.834H23.869a.836.836,0,0,1-.834-.834V9.641h7.532v10.85a1.234,1.234,0,0,0,1.813,1.09l4.274-2.27,4.274,2.27a1.234,1.234,0,0,0,1.813-1.09V9.641h7.532Zm0,0" transform="translate(-16.673)"/>
      <path id="Path_120903" data-name="Path 120903" d="M59,83.654h-.94l-4.641-10.41a6.08,6.08,0,0,0-5.525-3.6l-6.233-.02h0a1.234,1.234,0,0,0-1.234,1.234V96.767H1.234A1.234,1.234,0,0,0,0,98v6.643a1.234,1.234,0,0,0,1.234,1.234H8.259a7.135,7.135,0,0,0,13.71,0h21.2a7.135,7.135,0,0,0,13.71,0h5.064a1.234,1.234,0,0,0,1.234-1.234V87.828A4.179,4.179,0,0,0,59,83.654ZM42.895,72.1l4.995.016a3.608,3.608,0,0,1,3.279,2.136l4.192,9.406H42.9Zm0,14.025H59a1.708,1.708,0,0,1,1.706,1.707v8.938H42.895Zm.013,17.288H22.231a7.1,7.1,0,0,0-1.725-4.176H44.632a7.1,7.1,0,0,0-1.725,4.176ZM2.468,99.234H9.722A7.1,7.1,0,0,0,8,103.41H2.468Zm12.646,9.331A4.666,4.666,0,1,1,19.78,103.9a4.671,4.671,0,0,1-4.666,4.666Zm34.91,0a4.666,4.666,0,1,1,4.666-4.666A4.671,4.671,0,0,1,50.024,108.566Zm10.685-5.156H57.142a7.1,7.1,0,0,0-1.725-4.176h5.292Zm0,0" transform="translate(0 -61.033)"/>
    </g>
  </g>
</svg>
