<svg xmlns="http://www.w3.org/2000/svg" width="18.827" height="14.932" viewBox="0 0 18.827 14.932">
  <g id="Group_6721" data-name="Group 6721" transform="translate(0 0)">
    <path id="Path_357" data-name="Path 357" d="M43.93,35.8a7.856,7.856,0,0,1-2.219.593,3.8,3.8,0,0,0,1.7-2.085,7.849,7.849,0,0,1-2.453.914,3.9,3.9,0,0,0-2.82-1.19A3.818,3.818,0,0,0,34.275,37.8a3.677,3.677,0,0,0,.1.859,11.057,11.057,0,0,1-7.962-3.939,3.684,3.684,0,0,0-.523,1.9,3.746,3.746,0,0,0,1.718,3.138,3.908,3.908,0,0,1-1.749-.472c0,.016,0,.032,0,.048a3.8,3.8,0,0,0,3.1,3.7,3.971,3.971,0,0,1-1.744.065,3.856,3.856,0,0,0,3.608,2.618,7.872,7.872,0,0,1-4.8,1.614,7.968,7.968,0,0,1-.921-.053,11.123,11.123,0,0,0,5.921,1.694,10.777,10.777,0,0,0,10.99-10.725c0-.163,0-.326-.011-.487A7.731,7.731,0,0,0,43.93,35.8Z" transform="translate(-25.103 -34.028)" fill="#fff"/>
  </g>
</svg>
