<svg xmlns="http://www.w3.org/2000/svg" xmlns:xlink="http://www.w3.org/1999/xlink" width="177.608" height="45.964" viewBox="0 0 177.608 45.964">
  <defs>
    <linearGradient id="linear-gradient" x1="-0.173" y1="-1.894" x2="0.645" y2="2.542" gradientUnits="objectBoundingBox">
      <stop offset="0" stop-color="#80738e"/>
      <stop offset="1" stop-color="#f9a15d" stop-opacity="0"/>
    </linearGradient>
    <linearGradient id="linear-gradient-2" x1="0.432" y1="-0.148" x2="0.62" y2="0.996" gradientUnits="objectBoundingBox">
      <stop offset="0" stop-color="#9d5524"/>
      <stop offset="0.25" stop-color="#f2ab37"/>
      <stop offset="0.502" stop-color="#ffd45d"/>
      <stop offset="0.736" stop-color="#f7af3d"/>
      <stop offset="1" stop-color="#9d5524"/>
    </linearGradient>
    <linearGradient id="linear-gradient-3" x1="1.123" y1="0.173" x2="0.081" y2="1.139" gradientUnits="objectBoundingBox">
      <stop offset="0" stop-color="#aa732a"/>
      <stop offset="1" stop-color="#aa732a"/>
    </linearGradient>
    <linearGradient id="linear-gradient-4" x1="-0.029" y1="0.745" x2="0.952" y2="0.078" gradientUnits="objectBoundingBox">
      <stop offset="0" stop-color="#9d5524"/>
      <stop offset="0.25" stop-color="#f2ab37"/>
      <stop offset="0.502" stop-color="#f7af3d"/>
      <stop offset="0.736" stop-color="#ffd45d"/>
      <stop offset="1" stop-color="#9d5524"/>
    </linearGradient>
    <linearGradient id="linear-gradient-5" x1="0.925" y1="0.972" x2="-0.095" y2="0.06" xlink:href="#linear-gradient-2"/>
    <linearGradient id="linear-gradient-6" x1="1.784" y1="-0.472" x2="-0.542" y2="1.298" xlink:href="#linear-gradient"/>
    <linearGradient id="linear-gradient-7" x1="0.762" y1="1.821" x2="0.421" y2="-0.104" xlink:href="#linear-gradient"/>
  </defs>
  <g id="logo" transform="translate(-201.424 -174.829)">
    <g id="Group_1" data-name="Group 1" transform="translate(259.861 191.455)">
      <path id="Path_1" data-name="Path 1" d="M187.012,398.2v12.575h-1.276v-10.06l-4.94,8.462h-.629l-4.94-8.405v10.008H173.95V398.2h1.1l5.46,9.322,5.408-9.322h1.1Z" transform="translate(-173.95 -398.096)" fill="#fff"/>
      <path id="Path_2" data-name="Path 2" d="M211.109,409.935a6.138,6.138,0,0,1-2.373-2.288,6.681,6.681,0,0,1,0-6.543,6.073,6.073,0,0,1,2.373-2.288,7.263,7.263,0,0,1,6.751-.009,6.142,6.142,0,0,1,2.364,2.288,6.676,6.676,0,0,1,0,6.557,6.12,6.12,0,0,1-2.364,2.293,6.842,6.842,0,0,1-3.366.827A6.948,6.948,0,0,1,211.109,409.935Zm6.079-1.026a4.872,4.872,0,0,0,1.886-1.867,5.562,5.562,0,0,0,0-5.332,4.872,4.872,0,0,0-1.886-1.867,5.727,5.727,0,0,0-5.4,0,4.953,4.953,0,0,0-1.905,1.867,5.5,5.5,0,0,0,0,5.332,4.888,4.888,0,0,0,1.905,1.867,5.475,5.475,0,0,0,2.7.671A5.414,5.414,0,0,0,217.188,408.909Z" transform="translate(-191.84 -397.98)" fill="#fff"/>
      <path id="Path_3" data-name="Path 3" d="M250.715,410.775l-2.874-4.042a8.636,8.636,0,0,1-1.007.052h-3.375v3.99H242.13V398.2h4.708a5.691,5.691,0,0,1,3.772,1.149,3.906,3.906,0,0,1,1.366,3.163A4.084,4.084,0,0,1,251.23,405a4.149,4.149,0,0,1-2.127,1.466l3.073,4.311Zm-1.059-5.942a3.243,3.243,0,0,0,0-4.661,4.383,4.383,0,0,0-2.855-.818h-3.342v6.306H246.8A4.392,4.392,0,0,0,249.656,404.832Z" transform="translate(-209.899 -398.096)" fill="#fff"/>
      <path id="Path_4" data-name="Path 4" d="M268.84,398.2h2.335v10.6h6.576v1.976H268.84Z" transform="translate(-223.982 -398.096)" fill="#fff"/>
      <path id="Path_5" data-name="Path 5" d="M292.446,409.494a5.7,5.7,0,0,1-1.456-4.193v-7.1h2.335v7.006q0,3.7,3.2,3.7,3.177,0,3.181-3.7V398.2H302v7.1a5.711,5.711,0,0,1-1.447,4.193,6.347,6.347,0,0,1-8.107,0Z" transform="translate(-235.661 -398.096)" fill="#fff"/>
      <path id="Path_6" data-name="Path 6" d="M327.045,410.775,323.632,406l-3.375,4.779H317.6l4.671-6.415-4.42-6.16h2.643l3.215,4.472,3.181-4.472h2.534l-4.4,6.07,4.723,6.5Z" transform="translate(-249.692 -398.096)" fill="#fff"/>
      <path id="Path_7" data-name="Path 7" d="M348.006,409.494a5.7,5.7,0,0,1-1.456-4.193v-7.1h2.335v7.006q0,3.7,3.2,3.7,3.177,0,3.182-3.7V398.2h2.3v7.1a5.711,5.711,0,0,1-1.447,4.193,6.347,6.347,0,0,1-8.107,0Z" transform="translate(-264.957 -398.096)" fill="#fff"/>
      <path id="Path_8" data-name="Path 8" d="M384.986,410.775l-2.567-3.683a4.183,4.183,0,0,1-.487.019H379.1v3.664H376.76V398.2h5.172a6.947,6.947,0,0,1,2.846.539,4.129,4.129,0,0,1,1.858,1.546,4.7,4.7,0,0,1-.042,4.831,4.149,4.149,0,0,1-1.986,1.527l2.893,4.132Zm-.841-9.951a3.6,3.6,0,0,0-2.316-.648H379.1v5.011h2.732a3.534,3.534,0,0,0,2.316-.657,2.285,2.285,0,0,0,.789-1.858A2.259,2.259,0,0,0,384.144,400.824Z" transform="translate(-280.885 -398.096)" fill="#fff"/>
      <path id="Path_9" data-name="Path 9" d="M407.515,406.346v4.439H405.18v-4.4l-4.94-8.174h2.5l3.683,6.127,3.72-6.127h2.3Z" transform="translate(-293.265 -398.101)" fill="#fff"/>
    </g>
    <g id="Icon" transform="translate(201.424 174.829)">
      <g id="Group_668" data-name="Group 668">
        <path id="Path_10" data-name="Path 10" d="M288.991,187.443a17.55,17.55,0,0,0-10.224-.531,15.859,15.859,0,0,0-10.4.764A22.4,22.4,0,0,1,288.991,187.443Z" transform="translate(-252.313 -182.642)" fill="url(#linear-gradient)"/>
        <g id="Group_2" data-name="Group 2" transform="translate(0 0)">
          <path id="Path_11" data-name="Path 11" d="M297.992,209.172a22.948,22.948,0,0,1-11.987,16.773,22.414,22.414,0,0,0,8.569-19.22v-.007a22.548,22.548,0,0,0-2.461-8.879A21.52,21.52,0,0,0,278.758,186.9a15.859,15.859,0,0,0-10.4.764,22.393,22.393,0,0,1,20.621-.235c.353.172.7.357,1.051.552h.007A22.972,22.972,0,0,1,297.992,209.172Z" transform="translate(-252.306 -182.635)" fill="url(#linear-gradient-2)"/>
          <path id="Path_12" data-name="Path 12" d="M275.556,296.52l-.007,0a23.029,23.029,0,0,1-20.849.3c11.594,4.4,21.865-2.544,26.63-10.887a20.444,20.444,0,0,0,2.8-8.635A22.414,22.414,0,0,1,275.556,296.52Z" transform="translate(-241.857 -253.211)" fill="url(#linear-gradient-3)"/>
          <path id="Path_13" data-name="Path 13" d="M238.255,180.182a22.6,22.6,0,0,0-28.323,5.007c-6.373,7.527-7.335,19.105-.346,25.875-4.76-3.562-9.721-10.031-8.811-16.606.007-.068.019-.136.028-.2a22.988,22.988,0,0,1,37.451-14.072Z" transform="translate(-200.526 -174.829)" fill="url(#linear-gradient-4)"/>
          <path id="Path_14" data-name="Path 14" d="M220.275,281.624c-5.132,1.023-12.375-1.723-15.8-6.413a22.907,22.907,0,0,1-4.163-16.891c-.907,6.575,4.05,13.045,8.813,16.608a17.194,17.194,0,0,0,4.224,2.4c6.281,2.285,13.611,1.723,16.082-5.743C229.049,277.608,224.848,280.711,220.275,281.624Z" transform="translate(-200.067 -238.693)" fill="url(#linear-gradient-5)"/>
          <path id="Path_15" data-name="Path 15" d="M343.42,296.528c2.151-1.765,4.659-6.063,5.774-10.583a20.444,20.444,0,0,0,2.8-8.635A22.412,22.412,0,0,1,343.42,296.528Z" transform="translate(-309.721 -253.219)" fill="url(#linear-gradient-6)"/>
        </g>
        <path id="Path_16" data-name="Path 16" d="M209.587,255.688c-4.76-3.561-9.721-10.031-8.811-16.606.007-.068.019-.136.028-.2a22.913,22.913,0,0,1,1.669-5.708C201.658,244.073,205.259,252.266,209.587,255.688Z" transform="translate(-200.526 -219.455)" fill="url(#linear-gradient-7)"/>
      </g>
      <g id="Group_3" data-name="Group 3" transform="translate(13.085 10.334)">
        <path id="Path_17" data-name="Path 17" d="M256.659,256.747c.047-.047.047-.118.118-.141-.023-.024-.071-.024-.094-.07.118-.875.284-1.488.4-2.384.094-.426.212-.8.59-.922.308.141.755-.141,1.063.165.023.59-.118.52-.094.945a1.716,1.716,0,0,0-.212.875,1.86,1.86,0,0,0,.567-.567,2.588,2.588,0,0,1,1.841-.473,2.341,2.341,0,0,0,.825.331c.024.261.261.473.141.731.047.047.141.235.047.259-.024.07.071.07.071.118-.047.331.023.661,0,.992,0,.094-.071.165-.071.261-.024.308.071.59.047.875a4.3,4.3,0,0,0-.024.945c-.141.118-.071.259-.023.449.094-.071.094-.188.141-.284a11.324,11.324,0,0,0,.59-1.016c.047-.094.024-.188.071-.259.024-.023.071-.023.094-.047.047-.094.047-.188.094-.284.07-.118.188-.188.259-.308a2.089,2.089,0,0,1,.141-.331c.024-.024.094-.024.118-.071.071-.094.071-.235.141-.331.047-.07.141-.118.188-.188s.047-.188.094-.235c.141-.188.4-.308.52-.52-.118-.118.094-.141.212-.212v-.212a1.04,1.04,0,0,0,.567-.235c.308.118.8.047.9.378.047,0,.094.047.165.024.047.047.047.118.118.141a4.572,4.572,0,0,1,.047,1.157,10.109,10.109,0,0,0-.259,2.551,1.27,1.27,0,0,0-.047.731c-.118.261.047.519.094.755.165,0,.259-.047.308-.165.331-.071.614-.449.945-.614.235-.259.637-.355.827-.684.259-.094.331-.378.567-.52.023.261-.259.426-.331.684h-.071a5.334,5.334,0,0,1-1.794,2.149c-.094,0-.118.047-.212.023-.047.047-.118.047-.141.094a2.013,2.013,0,0,1-1.817-1.345.907.907,0,0,0-.07-.449c.094-.188-.047-.449.023-.59-.118-.094.047-.235-.094-.331,0-.188.094-.259.094-.473,0-.118-.07-.165-.047-.308.071-.308.071-.731.118-1.063-.071.141-.261.331-.188.425a.379.379,0,0,0-.212.4,5.189,5.189,0,0,0-.52,1.77c-.117.094-.212.212-.141.355h-.094c-.023.094.047.094.047.165-.188.047-.212.4-.188.449-.118.118-.141.261-.259.355a.79.79,0,0,1-.188.567c.094.212-.165.4-.165.661-.118.023-.071.212-.188.235,0,.023.023.023.047.023a8.6,8.6,0,0,1-.637.969c-.094,0-.165.094-.235.047.023.071-.118.141-.212.188.024.141-.094.118-.141.165-.071-.024.024-.047,0-.094-.071-.024-.047.071-.094.071a7.1,7.1,0,0,0-1.016-.235c.071-.188-.188-.071-.141-.261-.047,0-.047.024-.094.024-.141-.378-.118-.708-.235-1.086,0-.047.024-.047.07-.047a10.894,10.894,0,0,1,.071-1.18,30.921,30.921,0,0,0,.379-3.352,5.257,5.257,0,0,0-.024-2.1c-.094.047-.071.212-.235.165-.023.212-.235.235-.355.355,0,.071-.047.094-.023.165-.235.094-.261.4-.473.52a.488.488,0,0,1-.235.426.891.891,0,0,1-.235.52,18.494,18.494,0,0,0-.567,2.172.142.142,0,0,1-.07.141c.094.449-.118.922-.047,1.345-.188.235.024.543-.094.825.188.188-.094.5.023.708-.047.165-.141.308-.047.5-.071,0-.071.047-.094.07a1.905,1.905,0,0,1-.07.825c-.071.023-.071.047-.141.023-.023.024-.023.118-.047.141-.071,0-.094.047-.188.023-.047.52-.731.188-1.016.425-.023-.023-.094-.023-.117-.047-.024-.094.047-.118.047-.188,0-.047-.094,0-.118.023a.4.4,0,0,0-.188-.141,4.384,4.384,0,0,0-.023-.567c.141-.235.023-.5.094-.9,0-.071.071-.094.094-.141.071-.875.331-1.911.425-2.786.071-.188.023-.4.118-.567,0-.024-.047,0-.047.023.071-.188,0-.684.165-.992,0-.023-.023-.023-.047-.023C256.517,257.762,256.682,257.172,256.659,256.747Zm-.141,1.559.047-.329c.023,0,.023.023.047.023,0-.023.047-.094,0-.094,0,.023-.024.023-.047.023Zm2.193-1.157,1.23-2.574.259-.047.661,9.253" transform="translate(-255.73 -245.133)" fill="#fff"/>
        <path id="Path_18" data-name="Path 18" d="M312.73,219.354a.493.493,0,0,0,0,.567c-.118.308-.023.449-.188.8.024.261-.235.52-.188.778-.023.047-.047.094-.118.094-.024.331-.379.567-.308.851a.492.492,0,0,0-.212.4c-.285.212-.355.637-.52.945-.118.047-.071.141-.118.259-.284.141-.212.4-.4.59-.023.071.07.024.047.094-.118-.023-.071.047-.094.094-.023.023-.094.023-.094.023a1.367,1.367,0,0,0-.141.331c-.212.024-.165.308-.355.379-.024.071.07.047.047.118-.237.024-.165.331-.332.426,0,.047-.023.094.024.094-.188.331-.165.778-.355,1.039a.542.542,0,0,1-.094.449.948.948,0,0,1,0,.259c-.212.379-.141,1.063-.426,1.392.024.4-.165.708-.165,1.157-.047.023-.047.094-.094.118.094.165-.165.425-.047.543-.118.141-.071.449-.188.567-.024.071.07.047.047.118-.023.024-.047.094-.071.118-.023.071.024.094.024.141a6.082,6.082,0,0,0-.212,1.392c-.024.071-.047.023-.118.023a.992.992,0,0,1-.047.778c-.024.094.07.071.07.141-.118.308,0,.567-.141.9,0,.024.047.024.071.024-.165.378.07.755-.118,1.039a.773.773,0,0,1,.094.543c-.024.094.141.235.047.425a2.01,2.01,0,0,0,.426.945c.118-.047.212-.094.308-.141a10.55,10.55,0,0,0,2.5-3.068c.047-.023.071-.047.118-.071.8-1.559,1.676-3.044,2.5-4.579a.9.9,0,0,0-.071.378,29.01,29.01,0,0,0-1.2,3.235c-.047.024-.071.071-.094.094a.7.7,0,0,1-.235.614,9.763,9.763,0,0,1-1.2,2.266,5.173,5.173,0,0,0-.708.9c-.425.4-.731.9-1.345,1.11a3.088,3.088,0,0,1-.992.331,1.893,1.893,0,0,1-1.723-.945c0-.094-.024-.094.024-.141h-.094a2.713,2.713,0,0,1-.212-1.016,9.072,9.072,0,0,1-.165-1.274c.023-.212,0-.473.023-.684a2.515,2.515,0,0,1,.118-.543c-.118-.071.094-.284-.023-.331.023-.071.071-.118.094-.188-.023-.284.047-.355.023-.543a2.754,2.754,0,0,0,.118-.8,5.619,5.619,0,0,0,.118-1.016,17.6,17.6,0,0,1,.473-1.958,17.224,17.224,0,0,1,.5-2.1.882.882,0,0,1-.023-.235c.165-.047.071-.331.188-.425-.023-.047-.023-.094-.047-.118.047-.047.047-.165.118-.188.094-.473.235-1.063.308-1.488.071-.188.141-.449.212-.684.071-.024,0-.094.118-.094-.071-.094.047-.331.141-.4-.047-.425.237-.614.237-.992a.283.283,0,0,1,.118-.118.3.3,0,0,1,.094-.308,8.642,8.642,0,0,1,.331-1.18c.141-.071.094-.378.259-.449a4.254,4.254,0,0,1,2.149-2.337c.235-.023.708-.071.755.071.284-.047.355.308.331.473C312.657,219.354,312.683,219.354,312.73,219.354Zm-4.77,17.822.047.094,2.976-16.4c-.188.473-.188.922-.355,1.415.094.308-.284.778-.188,1.11-.118,0-.071.165-.165.188.047.284-.212.614-.188.921.047-.284.378-.543.308-.778.259-.165.259-.472.473-.708.024-.071-.023-.071-.023-.118.259-.118.165-.5.426-.637.023-.07-.024-.094-.024-.141.378-.355.355-.945.52-1.415-.047-.047-.047-.118-.047-.212.212-.235.094-.614.07-.9-.07-.023-.141-.023-.212-.047a7.864,7.864,0,0,0-.637,1.274C310.96,220.816,310.983,220.816,310.983,220.865Zm1.674-.992" transform="translate(-294.098 -218.786)" fill="#fff"/>
      </g>
    </g>
  </g>
</svg>
