<svg id="Group_61382" data-name="Group 61382" xmlns="http://www.w3.org/2000/svg" width="22.63" height="22.63" viewBox="0 0 22.63 22.63">
  <g id="phone_call_hang_up" data-name="phone, call, hang, up" transform="translate(0 0)">
    <path id="Path_120889" data-name="Path 120889" d="M4.3,5.981,6.312,3.973a2.646,2.646,0,0,1,4.007.313l1.95,2.675a2.657,2.657,0,0,1,.389,2.347c-.253.81-.629,2.017-.851,2.762a.84.84,0,0,0,.041.612,10.908,10.908,0,0,0,1.839,2.634.883.883,0,1,1-1.249,1.249,12.455,12.455,0,0,1-2.17-3.1,2.594,2.594,0,0,1-.15-1.915c.219-.739.6-1.956.855-2.773A.883.883,0,0,0,10.843,8L8.893,5.325a.881.881,0,0,0-1.333-.1l-.592.592L8.741,8.548a.883.883,0,1,1-1.482.961L5.692,7.091l-.137.137a2.231,2.231,0,0,0-.6,1.655C4.965,10.439,6,13.3,10.9,18.106c5.128,5.032,9.2,7.035,10.888,5.358l2.008-2.009a.879.879,0,0,0-.1-1.331l-2.675-1.95a.876.876,0,0,0-.78-.128l-1.672.521L20.473,19.9a.883.883,0,0,1-1.012,1.448l-3.383-2.364a.883.883,0,0,1-.217-1.23.863.863,0,0,1,.464-.323l0-.014,3.391-1.058a2.652,2.652,0,0,1,2.345.387l2.675,1.95a2.645,2.645,0,0,1,.31,4.008l-2.008,2.01a3.793,3.793,0,0,1-2.776,1.113c-2.232,0-5.583-1.542-10.6-6.461-4.279-4.2-6.456-7.722-6.472-10.472A3.956,3.956,0,0,1,4.3,5.981Z" transform="translate(-3.187 -3.199)" fill="#fff"/>
  </g>
</svg>
