<svg id="Group_4002" data-name="Group 4002" xmlns="http://www.w3.org/2000/svg" width="61.644" height="66.382" viewBox="0 0 61.644 66.382">
  <path id="Path_3736" data-name="Path 3736" d="M50.13,18.76l-6.5-12.9a6.756,6.756,0,0,0-6-3.864H26.257A6.614,6.614,0,0,0,21.35,4.371l-.308.356a5,5,0,0,0-.5.735l-.284.5-.711,1.422-1.8,3.271v.45L13.764,18.76a7.871,7.871,0,0,0-.759,3.437V58.35a3.841,3.841,0,0,0,0,.545h0a3.177,3.177,0,0,0,0,.474,13.157,13.157,0,0,0,.332,1.731,9.719,9.719,0,0,0,.474,1.4A9.483,9.483,0,0,0,15.874,65.6a7.681,7.681,0,0,0,1.256,1.067,4.742,4.742,0,0,0,.711.474l.332.19a4.006,4.006,0,0,0,1.019.474,8.392,8.392,0,0,0,3.3.569h20.34a8.392,8.392,0,0,0,8.108-8.534V22.2a7.562,7.562,0,0,0-.806-3.437ZM46.195,59.038a4.575,4.575,0,0,1-4.433,4.741H22.488a5.8,5.8,0,0,1-4.362-3.2,1.114,1.114,0,0,1,0-.237,1.161,1.161,0,0,1,0-.261,6.756,6.756,0,0,1-.45-1.731V25.161a14.888,14.888,0,0,1,2.062-7.586l1.114-1.9.284-.522,1.209-2.062.877-1.47,1.233-2.513.4-.616c.213-.5,1.114-1.778,1.612-1.778H37.66c.474,0,1.494,1.185,1.707,1.683l5.168,9.483A15.267,15.267,0,0,1,46.337,25Z" transform="translate(10.707 -2)" fill="#c8a452"/>
  <path id="Path_3737" data-name="Path 3737" d="M29.484,7.285c.759-1.162.474-2.537.237-2.56L27.35,4.179a6.377,6.377,0,0,0-5.31,1.043,6.543,6.543,0,0,0-.593.5l-.379.356L17.915,9.632l-5.429,6a6.756,6.756,0,0,0-1.47,2.75L3.241,49.056a6.614,6.614,0,0,0-.166.9,8.985,8.985,0,0,0,1.28,5.927,7.918,7.918,0,0,0,1.707,1.968,4.741,4.741,0,0,0,.806.616,8.558,8.558,0,0,0,2.868,1.3L23.818,63.28c.474,0,.759-.948.735-2.062s-.782-2.252-1.4-2.371l-12.3-3.058A5.5,5.5,0,0,1,8.243,53.8a5.666,5.666,0,0,1-.806-3.6L15.45,18.427l7.112-6.8,2.2-2.371C25.074,8.9,26.141,8,26.592,8.115l1.233.308C28.085,8.755,28.891,8.186,29.484,7.285Z" transform="translate(-2.997 0.728)" fill="#c8a452"/>
  <path id="Path_3738" data-name="Path 3738" d="M29.963,25.71a13.228,13.228,0,0,0-3.532-.925c-.759-.142-1.375-.308-1.8-.427a2.371,2.371,0,0,1-.9-.45.782.782,0,0,1-.237-.593.9.9,0,0,1,.4-.782,2.821,2.821,0,0,1,2.371,0,1.256,1.256,0,0,1,.593.569.877.877,0,0,0,.356.308,1.28,1.28,0,0,0,.474,0h3.84a.5.5,0,0,0,.332-.166A.474.474,0,0,0,32,22.889a3.3,3.3,0,0,0-.593-1.731A6.235,6.235,0,0,0,29.726,19.5,8.179,8.179,0,0,0,27,18.432V16.773a.593.593,0,0,0-.19-.427.687.687,0,0,0-.427-.166H24.013a.664.664,0,0,0-.4.166.522.522,0,0,0-.19.427v1.636a6.543,6.543,0,0,0-3.7,1.683,4.386,4.386,0,0,0-1.351,3.271,4.149,4.149,0,0,0,.687,2.371,4.433,4.433,0,0,0,1.968,1.588,12.3,12.3,0,0,0,3.058.9,18.964,18.964,0,0,1,2.015.427,3.39,3.39,0,0,1,1.043.45.83.83,0,0,1,.308.664.877.877,0,0,1-.569.782,3.888,3.888,0,0,1-1.636.284,3.248,3.248,0,0,1-1.019-.119,2.11,2.11,0,0,1-.735-.332,2.987,2.987,0,0,1-.474-.474,1.968,1.968,0,0,0-.379-.308,1.47,1.47,0,0,0-.522,0h-3.7a.486.486,0,0,0-.5.474,4.2,4.2,0,0,0,.64,2.062,5.1,5.1,0,0,0,1.8,1.659,8.487,8.487,0,0,0,3.011.948V36.33a.522.522,0,0,0,.19.427.545.545,0,0,0,.4.166h2.371a.569.569,0,0,0,.427-.166.593.593,0,0,0,.19-.427V34.718a8.819,8.819,0,0,0,2.892-.925,5.215,5.215,0,0,0,1.968-1.731,4.409,4.409,0,0,0,.711-2.371,4.457,4.457,0,0,0-.616-2.371,4.528,4.528,0,0,0-1.944-1.612Z" transform="translate(17.456 17.436)" fill="#c8a452"/>
</svg>
