<svg id="Group_6720" data-name="Group 6720" xmlns="http://www.w3.org/2000/svg" width="16.536" height="16.424" viewBox="0 0 16.536 16.424">
  <path id="Union_1" data-name="Union 1" d="M3.032,16.424A3.025,3.025,0,0,1,0,13.413V3.011A3.025,3.025,0,0,1,3.032,0H13.5a3.025,3.025,0,0,1,3.031,3.011v10.4A3.025,3.025,0,0,1,13.5,16.424ZM2.825,8.212A5.443,5.443,0,1,0,8.268,2.805,5.431,5.431,0,0,0,2.825,8.212ZM12.6,2.644a1.288,1.288,0,1,0,1.289-1.279A1.285,1.285,0,0,0,12.6,2.644ZM5.125,8.212a3.143,3.143,0,1,1,3.143,3.122A3.136,3.136,0,0,1,5.125,8.212Z" fill="#fff"/>
</svg>
