<svg id="user_account_people_man" data-name="user, account, people, man" xmlns="http://www.w3.org/2000/svg" width="20" height="23.636" viewBox="0 0 20 23.636">
  <path id="Path_120885" data-name="Path 120885" d="M22.034,16.181a.852.852,0,0,0-1.286.008,1.072,1.072,0,0,0,.007,1.414A9.4,9.4,0,0,1,23.182,24c0,1.223-3.187,3-8.182,3s-8.182-1.778-8.182-3a9.411,9.411,0,0,1,2.4-6.363,1.072,1.072,0,0,0,0-1.414.852.852,0,0,0-1.286,0A11.5,11.5,0,0,0,5,24c0,3.248,5.152,5,10,5s10-1.752,10-5a11.491,11.491,0,0,0-2.966-7.819Z" transform="translate(-5 -5.364)" fill="#fff"/>
  <path id="Path_120886" data-name="Path 120886" d="M15,17c3.314,0,6-3.134,6-7s-2.686-7-6-7S9,6.134,9,10,11.688,17,15,17ZM15,5c2.367,0,4.286,2.239,4.286,5S17.367,15,15,15s-4.286-2.239-4.286-5S12.634,5,15,5Z" transform="translate(-5 -3)" fill="#fff"/>
</svg>
