<svg xmlns="http://www.w3.org/2000/svg" width="47.608" height="46.435" viewBox="0 0 47.608 46.435">
  <g id="refund_orders" transform="translate(-7.21 -8.2)">
    <path id="Path_2790" data-name="Path 2790" d="M7.293,22.887h0v.044a1.667,1.667,0,0,0-.083.306V47.411a7.224,7.224,0,0,0,7.224,7.224H47.593a7.224,7.224,0,0,0,7.224-7.224V23.237a1.667,1.667,0,0,0-.083-.306v-.044h0L50.289,12.012A6.113,6.113,0,0,0,44.6,8.2H17.368a6.113,6.113,0,0,0-5.662,3.812Zm44.19,24.546a3.89,3.89,0,0,1-3.89,3.89H14.39a3.89,3.89,0,0,1-3.89-3.89V25.2H51.483Zm-18.827-35.9H44.6a2.779,2.779,0,0,1,2.573,1.734l3.5,8.6H32.656ZM14.807,13.268a2.779,2.779,0,0,1,2.573-1.734H29.322V21.87H11.306Z" fill="#ff8629"/>
    <path id="Path_2792" data-name="Path 2792" d="M21.294,27.7a7.193,7.193,0,0,1,13.934-2.387l.734.007c.378,0,.516.257.308.568l-1.177,2.386a.419.419,0,0,1-.752,0l-1.577-2.4c-.206-.313-.064-.567.314-.565l.755,0a5.815,5.815,0,1,0-.936,6.222.65.65,0,0,1,.909-.059.629.629,0,0,1,.061.9,7.226,7.226,0,0,1-5.4,2.408A7.133,7.133,0,0,1,21.294,27.7" transform="translate(2.416 9.858)" fill="#ff8629" stroke="#ff8629" stroke-width="1"/>
  </g>
</svg>
