<svg xmlns="http://www.w3.org/2000/svg" width="50.916" height="50.13" viewBox="0 0 50.916 50.13">
  <g id="noun_earning_2535970" transform="translate(-1.21 -0.99)">
    <g id="Layer_2" data-name="Layer 2" transform="translate(1.21 0.99)">
      <path id="Path_2794" data-name="Path 2794" d="M26.129,27.627a13.31,13.31,0,0,1-12.312-8.219,1.664,1.664,0,0,1,1.148-2.229h0a1.664,1.664,0,0,1,1.93.982A9.983,9.983,0,0,0,26.129,24.3h.6a9.983,9.983,0,0,0,.116-19.966h-.7a9.983,9.983,0,0,0-9.068,5.79,1.664,1.664,0,0,1-1.98.865h0a1.664,1.664,0,0,1-1.065-2.263,13.41,13.41,0,0,1,12.1-7.72,8.053,8.053,0,0,1,1.015,0,13.31,13.31,0,1,1-.083,26.621,7.188,7.188,0,0,1-.932,0Z" transform="translate(7.08 -0.99)" fill="#08f"/>
      <path id="Path_2795" data-name="Path 2795" d="M27.572,15.609a4.426,4.426,0,0,1-1.131,3.078A3.727,3.727,0,0,1,24.295,19.8v1.115a1.514,1.514,0,0,1-1.514,1.514h0a1.514,1.514,0,0,1-1.514-1.514V19.7a4.16,4.16,0,0,1-2.812-3.328,1.181,1.181,0,0,1,1-1.464,1.148,1.148,0,0,1,1.248.782,2.928,2.928,0,0,0,.566,1.048,2.163,2.163,0,0,0,1.664.732,2.579,2.579,0,0,0,1.3-.3,1.863,1.863,0,0,0,.349-.25,1.773,1.773,0,0,0,.4-2.18,1.547,1.547,0,0,0-.6-.483h-.116c-.333-.15-1-.366-1.98-.666l-1.048-.366a4.825,4.825,0,0,1-1.115-.6,3.727,3.727,0,0,1-1.048-1.464,4.309,4.309,0,0,1-.4-1.847,4.06,4.06,0,0,1,.516-2.063,3.328,3.328,0,0,1,1.448-1.381,3.693,3.693,0,0,1,.649-.266V4.744A1.514,1.514,0,0,1,22.714,3.23h0a1.514,1.514,0,0,1,1.514,1.514v.849A3.68,3.68,0,0,1,27.04,8.2a1.181,1.181,0,0,1-1.065,1.464h0A1.131,1.131,0,0,1,24.81,8.9a1.8,1.8,0,0,0-.433-.649h0a2.113,2.113,0,0,0-1.547-.416,2.329,2.329,0,0,0-1.448.383l-.116.1a1.131,1.131,0,0,0-.4.882,1.231,1.231,0,0,0,.4.9h0a6.489,6.489,0,0,0,2.113.849l1,.216a6.472,6.472,0,0,1,1.664.8,3.594,3.594,0,0,1,1.2,1.448,5.074,5.074,0,0,1,.333,2.2Z" transform="translate(10.213 0.496)" fill="#08f"/>
      <path id="Path_2796" data-name="Path 2796" d="M20.434,16a7.737,7.737,0,0,1,1.215.1,4.188,4.188,0,0,1,3.078,6.023.965.965,0,0,0,0,.932.948.948,0,0,0,.815.449h.233l18.3-5.956a3.427,3.427,0,0,1,1.348-.25,4.359,4.359,0,0,1,2.712,7.487L44.16,28.112a1.664,1.664,0,0,1-2.346-.2h0a1.664,1.664,0,0,1,.2-2.346l3.976-3.328a.9.9,0,0,0,.1-.948c-.133-.366-.449-.8-.832-.632L26.889,26.632a4.01,4.01,0,0,1-1.264.2,4.309,4.309,0,0,1-3.877-6.189.865.865,0,0,0-.649-1.264,4.226,4.226,0,0,0-2.9.6,4.01,4.01,0,0,0-.582.449L13.18,25.717A3.111,3.111,0,0,1,10.8,26.831H8.538v7.9H30.35a2.729,2.729,0,0,0,1.664-.632l3.744-3.128a1.664,1.664,0,0,1,2.346.2h0a1.664,1.664,0,0,1-.2,2.346l-3.677,3.111a6.073,6.073,0,0,1-3.877,1.414H5.21V23.5h5.557l4.526-5.441A7.5,7.5,0,0,1,20.434,16Z" transform="translate(1.445 8.973)" fill="#08f"/>
      <path id="Path_2797" data-name="Path 2797" d="M4.338,19.13H8.065a3.128,3.128,0,0,1,3.128,3.111v13.71a3.128,3.128,0,0,1-3.128,3.128H4.338A3.128,3.128,0,0,1,1.21,35.951V22.241A3.128,3.128,0,0,1,4.338,19.13Zm3.527,3.328H4.538v13.31H7.865Z" transform="translate(-1.21 11.051)" fill="#08f"/>
    </g>
  </g>
</svg>
