<svg xmlns="http://www.w3.org/2000/svg" xmlns:xlink="http://www.w3.org/1999/xlink" width="865.737" height="859.766" viewBox="0 0 865.737 859.766">
  <defs>
    <linearGradient id="linear-gradient" x1="-0.173" y1="-1.894" x2="0.645" y2="2.542" gradientUnits="objectBoundingBox">
      <stop offset="0" stop-color="#80738e"/>
      <stop offset="1" stop-color="#f9a15d" stop-opacity="0"/>
    </linearGradient>
    <linearGradient id="linear-gradient-2" x1="0.432" y1="-0.148" x2="0.62" y2="0.996" gradientUnits="objectBoundingBox">
      <stop offset="0" stop-color="#9d5524"/>
      <stop offset="0.25" stop-color="#f2ab37"/>
      <stop offset="0.502" stop-color="#ffd45d"/>
      <stop offset="0.736" stop-color="#f7af3d"/>
      <stop offset="1" stop-color="#9d5524"/>
    </linearGradient>
    <linearGradient id="linear-gradient-3" x1="1.123" y1="0.173" x2="0.081" y2="1.139" gradientUnits="objectBoundingBox">
      <stop offset="0" stop-color="#aa732a"/>
      <stop offset="1" stop-color="#aa732a"/>
    </linearGradient>
    <linearGradient id="linear-gradient-4" x1="-0.029" y1="0.745" x2="0.952" y2="0.078" gradientUnits="objectBoundingBox">
      <stop offset="0" stop-color="#9d5524"/>
      <stop offset="0.25" stop-color="#f2ab37"/>
      <stop offset="0.502" stop-color="#f7af3d"/>
      <stop offset="0.736" stop-color="#ffd45d"/>
      <stop offset="1" stop-color="#9d5524"/>
    </linearGradient>
    <linearGradient id="linear-gradient-5" x1="0.925" y1="0.972" x2="-0.095" y2="0.06" xlink:href="#linear-gradient-2"/>
    <linearGradient id="linear-gradient-6" x1="1.784" y1="-0.472" x2="-0.542" y2="1.298" xlink:href="#linear-gradient"/>
    <linearGradient id="linear-gradient-7" x1="0.762" y1="1.821" x2="0.421" y2="-0.104" xlink:href="#linear-gradient"/>
  </defs>
  <g id="Group_black" data-name="Group black" transform="translate(2576 -2717.234)">
    <g id="logo" transform="translate(-2576 2717.234)">
      <g id="Group_1" data-name="Group 1" transform="translate(0 766.355)">
        <path id="Path_1" data-name="Path 1" d="M268.838,398.2v91.351h-9.273v-73.08l-35.888,61.473H219.11l-35.888-61.061v72.7H173.95V398.234h7.967l39.666,67.723,39.288-67.723h7.967Z" transform="translate(-173.95 -397.444)"/>
        <path id="Path_2" data-name="Path 2" d="M231.336,484.832A44.588,44.588,0,0,1,214.1,468.21a48.536,48.536,0,0,1,0-47.53,44.113,44.113,0,0,1,17.24-16.622,52.76,52.76,0,0,1,49.041-.069,44.621,44.621,0,0,1,17.171,16.622,48.5,48.5,0,0,1,0,47.633A44.463,44.463,0,0,1,280.377,484.9a49.707,49.707,0,0,1-24.452,6.01A50.475,50.475,0,0,1,231.336,484.832ZM275.5,477.38a35.391,35.391,0,0,0,13.7-13.565,40.406,40.406,0,0,0,0-38.739,35.393,35.393,0,0,0-13.7-13.565,41.6,41.6,0,0,0-39.219,0,35.978,35.978,0,0,0-13.84,13.565,39.919,39.919,0,0,0,0,38.739,35.511,35.511,0,0,0,13.84,13.565,39.775,39.775,0,0,0,19.644,4.877A39.329,39.329,0,0,0,275.5,477.38Z" transform="translate(-91.356 -397.98)"/>
        <path id="Path_3" data-name="Path 3" d="M304.5,489.551l-20.88-29.363a62.764,62.764,0,0,1-7.315.378H251.78v28.985h-9.65V398.2h34.2q17.463,0,27.405,8.346t9.925,22.975q0,10.714-5.426,18.064-5.409,7.366-15.454,10.646l22.323,31.32ZM296.8,446.382q7.161-6.027,7.178-16.827c0-7.384-2.4-13.085-7.178-17.034s-11.711-5.941-20.743-5.941H251.78v45.813h24.28Q289.608,452.341,296.8,446.382Z" transform="translate(-7.984 -397.445)"/>
        <path id="Path_4" data-name="Path 4" d="M268.84,398.2h16.965v77h47.77v14.355H268.84Z" transform="translate(57.035 -397.444)"/>
        <path id="Path_5" data-name="Path 5" d="M301.568,480.244q-10.561-10.612-10.578-30.461V398.2h16.965v50.9q0,26.89,23.215,26.89,23.078,0,23.112-26.89V398.2h16.691v51.548q0,19.833-10.509,30.462c-7.006,7.075-16.828,10.646-29.431,10.646S308.608,487.318,301.568,480.244Z" transform="translate(110.953 -397.444)"/>
        <path id="Path_6" data-name="Path 6" d="M386.216,489.551l-24.8-34.721L336.9,489.551H317.6l33.931-46.6L319.42,398.2h19.2l23.353,32.488L385.083,398.2H403.49l-31.973,44.1,34.308,47.255Z" transform="translate(175.728 -397.445)"/>
        <path id="Path_7" data-name="Path 7" d="M357.127,480.244q-10.56-10.612-10.577-30.461V398.2h16.965v50.9q0,26.89,23.215,26.89,23.078,0,23.113-26.89V398.2h16.69v51.548q0,19.833-10.509,30.462c-7.005,7.075-16.827,10.646-29.431,10.646S364.167,487.318,357.127,480.244Z" transform="translate(246.199 -397.444)"/>
        <path id="Path_8" data-name="Path 8" d="M436.516,489.551,417.868,462.8a30.417,30.417,0,0,1-3.537.138H393.725v26.615H376.76V398.2h37.571A50.468,50.468,0,0,1,435,402.115a30,30,0,0,1,13.5,11.23,34.126,34.126,0,0,1-.308,35.1,30.142,30.142,0,0,1-14.424,11.093l21.017,30.015ZM430.4,417.26q-5.769-4.688-16.828-4.705h-19.85v36.4h19.85c7.384,0,13.016-1.58,16.828-4.774,3.812-3.16,5.735-7.693,5.735-13.5S434.215,420.385,430.4,417.26Z" transform="translate(319.738 -397.445)"/>
        <path id="Path_9" data-name="Path 9" d="M453.093,457.313v32.247H436.128V457.588L400.24,398.21h18.133l26.753,44.508,27.028-44.508h16.69Z" transform="translate(376.894 -397.42)"/>
      </g>
      <path id="Path_10" data-name="Path 10" d="M569.621,220.095c-34.994-14.87-93.857-21.327-149.355-7.761-49.694-12.707-102.272-10.543-151.9,11.161C355.291,177.579,465.083,168.41,569.621,220.095Z" transform="translate(55.891 -149.963)" fill="url(#linear-gradient)"/>
      <g id="Group_2" data-name="Group 2" transform="translate(89.692 0)">
        <path id="Path_11" data-name="Path 11" d="M701.246,537.646A335.235,335.235,0,0,1,526.134,782.68C620.267,707.4,657.974,601.558,651.312,501.9v-.1a329.394,329.394,0,0,0-35.956-129.711C574.214,292.957,501,233,420.257,212.356c-49.694-12.707-102.272-10.543-151.9,11.161,86.887-45.95,196.714-55.12,301.251-3.434,5.152,2.507,10.234,5.22,15.351,8.07h.1C672.3,301.371,720.168,417,701.246,537.646Z" transform="translate(-33.826 -149.985)" fill="url(#linear-gradient-2)"/>
        <path id="Path_12" data-name="Path 12" d="M559.386,558.083a.262.262,0,0,0-.1.069A336.419,336.419,0,0,1,254.7,562.479C424.076,626.8,574.118,525.321,643.731,403.439c23.8-41.623,38.223-85.581,40.833-126.139C691.226,376.962,653.518,482.8,559.386,558.083Z" transform="translate(-67.078 74.611)" fill="url(#linear-gradient-3)"/>
        <path id="Path_13" data-name="Path 13" d="M749.776,253.031c-109.071-60.58-225.457-52.818-316.6-4.636A328.508,328.508,0,0,0,336.02,326.18c-93.1,109.964-107.148,279.1-5.048,378.006-69.543-52.029-142.006-146.539-128.715-242.594.1-1,.275-1.992.412-2.988a334.735,334.735,0,0,1,24.383-83.383c59.79-136.065,205.5-220.375,359.256-196.3A333.346,333.346,0,0,1,749.776,253.031Z" transform="translate(-198.606 -174.829)" fill="url(#linear-gradient-4)"/>
        <path id="Path_14" data-name="Path 14" d="M495.284,598.756c-74.969,14.939-180.778-25.173-230.746-93.686a334.639,334.639,0,0,1-60.821-246.75c-13.256,96.056,59.172,190.566,128.75,242.629,21.773,16.278,43.2,28.4,61.713,35.133,91.763,33.381,198.842,25.173,234.936-83.9C623.45,540.1,562.08,585.431,495.284,598.756Z" transform="translate(-200.067 28.409)" fill="url(#linear-gradient-5)"/>
        <path id="Path_15" data-name="Path 15" d="M343.42,558.059c31.423-25.791,68.066-88.569,84.345-154.61,23.8-41.623,38.223-85.581,40.833-126.139C475.26,376.937,437.552,482.781,343.42,558.059Z" transform="translate(148.888 74.635)" fill="url(#linear-gradient-6)"/>
      </g>
      <path id="Path_16" data-name="Path 16" d="M330.972,562.136C261.428,510.107,188.966,415.6,202.256,319.541c.1-1,.275-1.992.412-2.988a334.729,334.729,0,0,1,24.383-83.383C215.135,392.45,267.747,512.133,330.972,562.136Z" transform="translate(-108.914 -32.812)" fill="url(#linear-gradient-7)"/>
      <g id="Group_3" data-name="Group 3" transform="translate(280.852 150.961)">
        <path id="Path_17" data-name="Path 17" d="M269.3,304.606c.687-.687.687-1.717,1.717-2.06-.343-.344-1.03-.344-1.374-1.03,1.717-12.776,4.155-21.739,5.873-34.824,1.373-6.216,3.091-11.711,8.62-13.462,4.5,2.06,11.024-2.061,15.523,2.4.343,8.62-1.717,7.59-1.374,13.805-2.4,3.812-3.091,8.963-3.091,12.776,3.435-1.717,5.873-5.186,8.277-8.277,7.59-4.155,16.553-9.307,26.89-6.9a34.2,34.2,0,0,0,12.054,4.842c.343,3.812,3.812,6.9,2.061,10.681.687.686,2.061,3.434.687,3.778-.344,1.03,1.03,1.03,1.03,1.717-.687,4.842.343,9.651,0,14.493,0,1.374-1.03,2.4-1.03,3.812-.344,4.5,1.03,8.62.687,12.775s-1.03,10.337-.344,13.805c-2.06,1.717-1.03,3.778-.343,6.56,1.374-1.03,1.374-2.747,2.061-4.156,2.747-4.842,6.559-9.994,8.62-14.835.687-1.374.344-2.748,1.03-3.778.344-.344,1.03-.344,1.374-.687.687-1.374.687-2.747,1.374-4.155,1.03-1.717,2.747-2.748,3.778-4.5.687-1.373,1.03-3.434,2.06-4.842.344-.344,1.374-.344,1.717-1.03,1.03-1.374,1.03-3.434,2.06-4.842.687-1.03,2.061-1.717,2.747-2.747s.687-2.747,1.374-3.435c2.06-2.747,5.872-4.5,7.589-7.59-1.717-1.717,1.374-2.06,3.091-3.091V276.72c3.777,0,5.873-2.061,8.276-3.434,4.5,1.717,11.711.687,13.119,5.529.687,0,1.374.687,2.4.344.687.687.687,1.717,1.717,2.061.687,5.186,1.373,10.337.687,16.9-2.061,12.432-4.843,24.143-3.778,37.262-1.373,2.4-1.373,7.59-.686,10.68-1.717,3.812.686,7.589,1.373,11.024,2.4,0,3.778-.687,4.5-2.4,4.842-1.031,8.963-6.559,13.805-8.963,3.434-3.778,9.307-5.186,12.089-9.994,3.778-1.374,4.842-5.528,8.277-7.59.343,3.812-3.778,6.216-4.842,9.994h-1.031a77.921,77.921,0,0,1-26.2,31.389c-1.373,0-1.717.687-3.091.344-.687.687-1.717.687-2.06,1.374-13.119.343-21.739-9.307-26.547-19.644,0-2.748,0-4.5-1.03-6.56,1.374-2.747-.687-6.559.343-8.62-1.717-1.374.687-3.434-1.374-4.842,0-2.747,1.374-3.778,1.374-6.9,0-1.717-1.03-2.4-.687-4.5,1.03-4.5,1.03-10.68,1.717-15.522-1.03,2.06-3.812,4.842-2.748,6.216-2.06,1.374-3.434,2.747-3.09,5.873-3.434,7.246-6.9,16.553-7.59,25.86-1.717,1.374-3.091,3.091-2.061,5.186h-1.374c-.343,1.373.687,1.373.687,2.4-2.747.687-3.091,5.873-2.747,6.559-1.717,1.717-2.061,3.812-3.778,5.185.687,3.091-1.374,6.216-2.747,8.277,1.373,3.091-2.4,5.873-2.4,9.65-1.717.343-1.03,3.091-2.747,3.434,0,.343.343.343.687.343-3.434,4.842-5.186,9.65-9.307,14.149-1.373,0-2.4,1.374-3.434.687.343,1.03-1.717,2.061-3.091,2.748.344,2.06-1.373,1.717-2.06,2.4-1.03-.344.344-.687,0-1.374-1.03-.344-.687,1.03-1.374,1.03-6.56-1.03-7.933-3.091-14.836-3.434,1.03-2.747-2.747-1.03-2.06-3.812-.687,0-.687.343-1.374.343-2.061-5.529-1.717-10.337-3.434-15.866,0-.687.344-.687,1.03-.687-.686-4.5,1.031-11.711,1.031-17.24,2.061-14.836,4.842-30.359,5.529-48.973,1.03-9.307,2.747-22.426-.344-30.7-1.374.687-1.031,3.091-3.434,2.4-.344,3.091-3.434,3.434-5.186,5.186,0,1.03-.687,1.374-.343,2.4-3.435,1.374-3.812,5.872-6.9,7.589,0,3.435-1.717,4.842-3.434,6.216-.687,3.434-1.374,5.529-3.435,7.59-2.06,9.65-7.589,22.082-8.276,31.732a2.077,2.077,0,0,1-1.03,2.061c1.373,6.56-1.717,13.462-.687,19.644-2.747,3.434.343,7.933-1.373,12.054,2.747,2.747-1.374,7.246.343,10.337-.687,2.4-2.061,4.5-.687,7.246-1.03,0-1.03.687-1.374,1.03.687,4.842,0,7.933-1.03,12.054-1.03.343-1.03.687-2.061.343-.343.344-.343,1.717-.686,2.061-1.03,0-1.374.687-2.748.343-.687,7.59-10.681,2.747-14.836,6.216-.343-.343-1.373-.343-1.717-.687-.344-1.374.687-1.717.687-2.747,0-.687-1.374,0-1.717.343a5.82,5.82,0,0,0-2.747-2.061,64.037,64.037,0,0,0-.343-8.276c2.061-3.434.343-7.246,1.373-13.119,0-1.03,1.031-1.374,1.374-2.061,1.03-12.775,4.842-27.92,6.216-40.7,1.03-2.748.344-5.873,1.717-8.277,0-.344-.687,0-.687.344,1.03-2.748,0-9.994,2.4-14.493,0-.343-.343-.343-.687-.343C267.234,319.442,269.639,310.822,269.3,304.606Zm-2.061,22.769.687-4.808c.343,0,.343.344.687.344,0-.344.687-1.373,0-1.373,0,.343-.343.343-.687.343Zm32.041-16.9,17.962-37.605,3.778-.686,9.65,135.171" transform="translate(-255.73 -134.942)"/>
        <path id="Path_18" data-name="Path 18" d="M405.829,227.076c-1.374,1.03-2.061,5.873,0,8.276-1.717,4.5-.344,6.56-2.748,11.711.344,3.812-3.434,7.59-2.747,11.367-.343.687-.687,1.374-1.717,1.374-.344,4.842-5.529,8.276-4.5,12.432a7.2,7.2,0,0,0-3.091,5.873c-4.156,3.091-5.186,9.307-7.59,13.806-1.718.687-1.031,2.061-1.718,3.778-4.155,2.061-3.091,5.873-5.872,8.62-.343,1.03,1.03.344.687,1.374-1.717-.343-1.03.687-1.374,1.374-.343.343-1.374.343-1.374.343-1.03,1.374-1.373,3.091-2.06,4.842-3.091.344-2.4,4.5-5.186,5.53-.344,1.03,1.03.686.687,1.717-3.469.343-2.4,4.842-4.842,6.216,0,.687-.343,1.373.343,1.373-2.747,4.843-2.4,11.368-5.186,15.179.344,2.748,0,5.186-1.373,6.56.343,1.373,0,2.06,0,3.777-3.091,5.529-2.061,15.522-6.216,20.33.344,5.873-2.4,10.337-2.4,16.9-.687.343-.687,1.373-1.374,1.717,1.374,2.4-2.4,6.216-.687,7.933-1.717,2.061-1.03,6.56-2.747,8.277-.343,1.03,1.03.687.687,1.717-.344.343-.687,1.374-1.03,1.717-.343,1.031.343,1.374.343,2.061-2.4,6.559-2.747,16.9-3.091,20.331-.344,1.03-.687.343-1.717.343,1.717,3.812.687,7.933-.687,11.368-.344,1.373,1.03,1.03,1.03,2.06-1.718,4.5,0,8.277-2.06,13.119,0,.343.687.343,1.03.343-2.4,5.529,1.03,11.024-1.717,15.18,1.717,2.061,1.717,6.216,1.373,7.933-.344,1.373,2.061,3.434.687,6.215,1.717,4.843,2.061,9.994,6.216,13.806,1.717-.687,3.091-1.374,4.5-2.06,14.836-12.054,26.89-27.577,36.54-44.817.687-.343,1.03-.687,1.717-1.03,11.711-22.769,24.486-44.473,36.54-66.9-.344,1.717-1.374,3.091-1.03,5.529a423.868,423.868,0,0,0-17.583,47.255c-.687.344-1.03,1.03-1.374,1.373.344,3.091-1.03,7.59-3.434,8.963-3.434,13.462-11.711,22.082-17.583,33.106-3.778,4.155-7.59,8.277-10.337,13.119-6.216,5.873-10.681,13.119-19.644,16.21a45.113,45.113,0,0,1-14.492,4.842c-11.367,1.373-20.331-6.559-25.173-13.806,0-1.373-.343-1.373.344-2.06h-1.374c-2.4-4.842-2.747-10.337-3.091-14.836-.687-6.559-2.747-13.119-2.4-18.614.343-3.091,0-6.9.343-9.994a36.732,36.732,0,0,1,1.717-7.933c-1.717-1.031,1.374-4.156-.343-4.842.343-1.03,1.03-1.717,1.374-2.747-.344-4.156.687-5.186.343-7.933a40.227,40.227,0,0,0,1.717-11.711c1.03-5.872,1.717-9.993,1.717-14.836,2.4-7.933,3.434-21.052,6.9-28.607,1.373-10.68,4.842-21.4,7.246-30.7a12.886,12.886,0,0,1-.343-3.434c2.4-.687,1.03-4.842,2.747-6.216-.343-.687-.343-1.374-.687-1.718.687-.687.687-2.4,1.718-2.747,1.373-6.9,3.434-15.523,4.5-21.739,1.03-2.747,2.06-6.559,3.091-9.994,1.03-.344,0-1.374,1.717-1.374-1.03-1.374.687-4.842,2.06-5.873-.687-6.216,3.469-8.963,3.469-14.492a4.138,4.138,0,0,1,1.717-1.717c-.687-1.717.344-3.434,1.374-4.5.343-6.217,3.812-11.711,4.842-17.24,2.06-1.03,1.374-5.529,3.778-6.56a62.141,62.141,0,0,1,31.389-34.136c3.434-.343,10.337-1.03,11.024,1.03,4.156-.687,5.186,4.5,4.842,6.9C404.764,227.076,405.142,227.076,405.829,227.076Zm-69.681,260.35.687,1.373,43.477-239.641c-2.747,6.9-2.747,13.462-5.185,20.674,1.374,4.5-4.155,11.367-2.747,16.21-1.717,0-1.031,2.4-2.4,2.748.687,4.155-3.091,8.964-2.747,13.462.687-4.155,5.529-7.933,4.5-11.367,3.778-2.4,3.778-6.9,6.9-10.337.344-1.03-.343-1.03-.343-1.717,3.777-1.717,2.4-7.246,6.216-9.307.344-1.03-.343-1.373-.343-2.06,5.529-5.186,5.186-13.806,7.59-20.674-.687-.687-.687-1.717-.687-3.091,3.091-3.434,1.374-8.963,1.03-13.119-1.03-.343-2.061-.343-3.091-.687-4.5,4.843-5.528,12.4-9.307,18.614C379.969,248.437,380.312,248.437,380.312,249.158Zm24.452-14.492" transform="translate(-133.631 -218.786)"/>
      </g>
    </g>
  </g>
</svg>
