<svg xmlns="http://www.w3.org/2000/svg" xmlns:xlink="http://www.w3.org/1999/xlink" width="161.308" height="40" viewBox="0 0 161.308 40">
  <defs>
    <linearGradient id="linear-gradient" x1="-0.173" y1="-1.894" x2="0.645" y2="2.542" gradientUnits="objectBoundingBox">
      <stop offset="0" stop-color="#80738e"/>
      <stop offset="1" stop-color="#f9a15d" stop-opacity="0"/>
    </linearGradient>
    <linearGradient id="linear-gradient-2" x1="0.432" y1="-0.148" x2="0.62" y2="0.996" gradientUnits="objectBoundingBox">
      <stop offset="0" stop-color="#9d5524"/>
      <stop offset="0.25" stop-color="#f2ab37"/>
      <stop offset="0.502" stop-color="#ffd45d"/>
      <stop offset="0.736" stop-color="#f7af3d"/>
      <stop offset="1" stop-color="#9d5524"/>
    </linearGradient>
    <linearGradient id="linear-gradient-3" x1="1.123" y1="0.173" x2="0.081" y2="1.139" gradientUnits="objectBoundingBox">
      <stop offset="0" stop-color="#aa732a"/>
      <stop offset="1" stop-color="#aa732a"/>
    </linearGradient>
    <linearGradient id="linear-gradient-4" x1="-0.029" y1="0.745" x2="0.952" y2="0.078" gradientUnits="objectBoundingBox">
      <stop offset="0" stop-color="#9d5524"/>
      <stop offset="0.25" stop-color="#f2ab37"/>
      <stop offset="0.502" stop-color="#f7af3d"/>
      <stop offset="0.736" stop-color="#ffd45d"/>
      <stop offset="1" stop-color="#9d5524"/>
    </linearGradient>
    <linearGradient id="linear-gradient-5" x1="0.925" y1="0.972" x2="-0.095" y2="0.06" xlink:href="#linear-gradient-2"/>
    <linearGradient id="linear-gradient-6" x1="1.784" y1="-0.472" x2="-0.542" y2="1.298" xlink:href="#linear-gradient"/>
    <linearGradient id="linear-gradient-7" x1="0.762" y1="1.821" x2="0.421" y2="-0.104" xlink:href="#linear-gradient"/>
  </defs>
  <g id="ddsd" transform="translate(2198.308 -2241)">
    <g id="Group_1" data-name="Group 1" transform="translate(-2152 2255)">
      <path id="Path_1" data-name="Path 1" d="M186.563,398.2v12.134H185.33v-9.708l-4.77,8.166h-.607l-4.77-8.111v9.657H173.95V398.2h1.059l5.273,9,5.222-9h1.059Z" transform="translate(-173.95 -398.099)" fill="#fff"/>
      <path id="Path_2" data-name="Path 2" d="M211,409.517a5.925,5.925,0,0,1-2.292-2.208,6.443,6.443,0,0,1,0-6.314A5.862,5.862,0,0,1,211,398.787a7.017,7.017,0,0,1,6.519-.009,5.93,5.93,0,0,1,2.282,2.208,6.439,6.439,0,0,1,0,6.327,5.908,5.908,0,0,1-2.282,2.212,6.611,6.611,0,0,1-3.25.8A6.713,6.713,0,0,1,211,409.517Zm5.871-.99a4.7,4.7,0,0,0,1.821-1.8,5.364,5.364,0,0,0,0-5.146,4.7,4.7,0,0,0-1.821-1.8,5.533,5.533,0,0,0-5.213,0,4.781,4.781,0,0,0-1.84,1.8,5.3,5.3,0,0,0,0,5.146,4.719,4.719,0,0,0,1.84,1.8,5.29,5.29,0,0,0,2.611.648A5.23,5.23,0,0,0,216.868,408.527Z" transform="translate(-192.391 -397.98)" fill="#fff"/>
      <path id="Path_3" data-name="Path 3" d="M250.42,410.334l-2.776-3.9a8.355,8.355,0,0,1-.972.05h-3.259v3.85H242.13V398.2h4.547a5.5,5.5,0,0,1,3.643,1.109,3.768,3.768,0,0,1,1.319,3.052,3.939,3.939,0,0,1-.721,2.4,4.007,4.007,0,0,1-2.054,1.414l2.967,4.16ZM249.4,404.6a3.128,3.128,0,0,0,0-4.5,4.235,4.235,0,0,0-2.757-.789h-3.227V405.4h3.227A4.244,4.244,0,0,0,249.4,404.6Z" transform="translate(-211.029 -398.099)" fill="#fff"/>
      <path id="Path_4" data-name="Path 4" d="M268.84,398.2H271.1v10.228h6.35v1.907h-8.6Z" transform="translate(-225.555 -398.099)" fill="#fff"/>
      <path id="Path_5" data-name="Path 5" d="M292.4,409.1a5.493,5.493,0,0,1-1.406-4.046V398.2h2.255v6.761q0,3.572,3.086,3.572,3.068,0,3.072-3.572V398.2h2.219v6.847a5.509,5.509,0,0,1-1.4,4.046,6.132,6.132,0,0,1-7.829,0Z" transform="translate(-237.602 -398.099)" fill="#fff"/>
      <path id="Path_6" data-name="Path 6" d="M326.721,410.334l-3.3-4.612-3.259,4.612H317.6l4.51-6.19-4.268-5.944h2.552l3.1,4.315,3.072-4.315h2.447l-4.25,5.857,4.56,6.277Z" transform="translate(-252.074 -398.099)" fill="#fff"/>
      <path id="Path_7" data-name="Path 7" d="M347.956,409.1a5.493,5.493,0,0,1-1.406-4.046V398.2h2.255v6.761q0,3.572,3.086,3.572,3.068,0,3.072-3.572V398.2h2.219v6.847a5.508,5.508,0,0,1-1.4,4.046,6.132,6.132,0,0,1-7.829,0Z" transform="translate(-267.818 -398.099)" fill="#fff"/>
      <path id="Path_8" data-name="Path 8" d="M384.7,410.334l-2.479-3.554a4.037,4.037,0,0,1-.47.018h-2.739v3.535H376.76V398.2h4.994a6.712,6.712,0,0,1,2.748.52,3.986,3.986,0,0,1,1.794,1.492,4.53,4.53,0,0,1-.041,4.662,4.006,4.006,0,0,1-1.917,1.474l2.794,3.987Zm-.813-9.6a3.476,3.476,0,0,0-2.237-.625h-2.639v4.836h2.639a3.414,3.414,0,0,0,2.237-.634,2.2,2.2,0,0,0,.762-1.793A2.179,2.179,0,0,0,383.89,400.732Z" transform="translate(-284.256 -398.099)" fill="#fff"/>
      <path id="Path_9" data-name="Path 9" d="M407.265,406.061v4.283H405.01V406.1l-4.77-7.887h2.41l3.556,5.912,3.593-5.912h2.219Z" transform="translate(-297.018 -398.105)" fill="#fff"/>
    </g>
    <g id="Group_4025" data-name="Group 4025" transform="translate(0 -0.234)">
      <path id="Path_10" data-name="Path 10" d="M286.388,187.14a15.335,15.335,0,0,0-8.933-.464,13.857,13.857,0,0,0-9.085.668A19.573,19.573,0,0,1,286.388,187.14Z" transform="translate(-2452.75 2058.288)" fill="url(#linear-gradient)"/>
      <g id="Group_2" data-name="Group 2" transform="translate(-2198.308 2241.234)">
        <path id="Path_11" data-name="Path 11" d="M294.251,206.029a19.965,19.965,0,0,1-10.474,14.589,19.457,19.457,0,0,0,7.487-16.718v-.006a19.545,19.545,0,0,0-2.151-7.723,18.785,18.785,0,0,0-11.669-9.51,13.916,13.916,0,0,0-9.085.665,19.645,19.645,0,0,1,18.018-.2c.308.149.612.311.918.481h.006A19.934,19.934,0,0,1,294.251,206.029Z" transform="translate(-254.494 -182.938)" fill="url(#linear-gradient-2)"/>
        <path id="Path_12" data-name="Path 12" d="M272.923,294.094l-.006,0a20.121,20.121,0,0,1-18.217.259c10.131,3.847,19.1-2.222,23.268-9.512a17.864,17.864,0,0,0,2.442-7.545A19.584,19.584,0,0,1,272.923,294.094Z" transform="translate(-243.639 -256.413)" fill="url(#linear-gradient-3)"/>
        <path id="Path_13" data-name="Path 13" d="M233.51,179.506a19.746,19.746,0,0,0-24.747,4.375c-5.569,6.577-6.409,16.693-.3,22.609-4.159-3.112-8.493-8.765-7.7-14.51.006-.06.016-.119.025-.179a20.086,20.086,0,0,1,32.723-12.3Z" transform="translate(-200.544 -174.829)" fill="url(#linear-gradient-4)"/>
        <path id="Path_14" data-name="Path 14" d="M217.724,278.682c-4.484.894-10.813-1.506-13.8-5.6a20.015,20.015,0,0,1-3.638-14.758c-.793,5.745,3.539,11.4,7.7,14.512a15.026,15.026,0,0,0,3.691,2.1c5.488,2,11.893,1.506,14.052-5.018C225.39,275.173,221.719,277.885,217.724,278.682Z" transform="translate(-200.067 -241.332)" fill="url(#linear-gradient-5)"/>
        <path id="Path_15" data-name="Path 15" d="M343.42,294.1c1.879-1.543,4.071-5.3,5.045-9.247a17.863,17.863,0,0,0,2.442-7.545A19.583,19.583,0,0,1,343.42,294.1Z" transform="translate(-314.136 -256.421)" fill="url(#linear-gradient-6)"/>
      </g>
      <path id="Path_16" data-name="Path 16" d="M208.461,252.846c-4.159-3.112-8.493-8.765-7.7-14.51.006-.06.016-.119.025-.179a20.02,20.02,0,0,1,1.458-4.987C201.533,242.7,204.679,249.855,208.461,252.846Z" transform="translate(-2398.852 2019.953)" fill="url(#linear-gradient-7)"/>
      <g id="Group_3" data-name="Group 3" transform="translate(-2186.955 2250.197)">
        <path id="Path_17" data-name="Path 17" d="M256.541,256.3c.041-.041.041-.1.1-.123-.021-.021-.062-.021-.082-.062.1-.764.249-1.3.351-2.083.082-.372.185-.7.516-.805.269.123.659-.123.928.144.021.516-.1.454-.082.826a1.5,1.5,0,0,0-.185.764,1.626,1.626,0,0,0,.5-.5,2.261,2.261,0,0,1,1.608-.413,2.045,2.045,0,0,0,.721.29c.021.228.228.413.123.639.041.041.123.205.041.226-.021.062.062.062.062.1-.041.29.021.577,0,.867,0,.082-.062.144-.062.228-.021.269.062.516.041.764a3.76,3.76,0,0,0-.021.826c-.123.1-.062.226-.021.392.082-.062.082-.164.123-.249a9.9,9.9,0,0,0,.516-.887c.041-.082.021-.164.062-.226.021-.021.062-.021.082-.041.041-.082.041-.164.082-.249.062-.1.164-.164.226-.269a1.827,1.827,0,0,1,.123-.29c.021-.021.082-.021.1-.062.062-.082.062-.205.123-.29.041-.062.123-.1.164-.164s.041-.164.082-.205c.123-.164.351-.269.454-.454-.1-.1.082-.123.185-.185v-.185a.908.908,0,0,0,.495-.205c.269.1.7.041.785.331.041,0,.082.041.144.021.041.041.041.1.1.123a4,4,0,0,1,.041,1.011,8.832,8.832,0,0,0-.226,2.229,1.109,1.109,0,0,0-.041.639c-.1.228.041.454.082.659.144,0,.226-.041.269-.144.29-.062.536-.392.826-.536.205-.226.557-.31.723-.6.226-.082.29-.331.5-.454.021.228-.226.372-.29.6h-.062a4.66,4.66,0,0,1-1.567,1.877c-.082,0-.1.041-.185.021-.041.041-.1.041-.123.082a1.759,1.759,0,0,1-1.588-1.175.792.792,0,0,0-.062-.392c.082-.164-.041-.392.021-.516-.1-.082.041-.205-.082-.29,0-.164.082-.226.082-.413,0-.1-.062-.144-.041-.269.062-.269.062-.639.1-.928-.062.123-.228.29-.164.372a.331.331,0,0,0-.185.351,4.532,4.532,0,0,0-.454,1.547c-.1.082-.185.185-.123.31H262.3c-.021.082.041.082.041.144-.164.041-.185.351-.164.392-.1.1-.123.228-.226.31a.69.69,0,0,1-.164.5c.082.185-.144.351-.144.577-.1.021-.062.185-.164.205,0,.021.021.021.041.021a7.5,7.5,0,0,1-.557.846c-.082,0-.144.082-.205.041.021.062-.1.123-.185.164.021.123-.082.1-.123.144-.062-.021.021-.041,0-.082-.062-.021-.041.062-.082.062a6.2,6.2,0,0,0-.887-.205c.062-.164-.164-.062-.123-.228-.041,0-.041.021-.082.021-.123-.331-.1-.618-.205-.949,0-.041.021-.041.062-.041a9.522,9.522,0,0,1,.062-1.031,27.018,27.018,0,0,0,.331-2.929A4.592,4.592,0,0,0,259.5,255c-.082.041-.062.185-.205.144-.021.185-.205.205-.31.31,0,.062-.041.082-.021.144-.205.082-.228.351-.413.454a.427.427,0,0,1-.205.372.779.779,0,0,1-.205.454,16.148,16.148,0,0,0-.5,1.9.124.124,0,0,1-.062.123c.082.392-.1.805-.041,1.175-.164.205.021.474-.082.721.164.164-.082.433.021.618-.041.144-.123.269-.041.433-.062,0-.062.041-.082.062a1.664,1.664,0,0,1-.062.721c-.062.021-.062.041-.123.021-.021.021-.021.1-.041.123-.062,0-.082.041-.164.021-.041.454-.639.164-.887.372-.021-.021-.082-.021-.1-.041-.021-.082.041-.1.041-.164,0-.041-.082,0-.1.021a.348.348,0,0,0-.164-.123,3.83,3.83,0,0,0-.021-.5c.123-.205.021-.433.082-.785,0-.062.062-.082.082-.123.062-.764.29-1.67.372-2.434.062-.164.021-.351.1-.5,0-.021-.041,0-.041.021.062-.164,0-.6.144-.867,0-.021-.021-.021-.041-.021C256.418,257.19,256.562,256.675,256.541,256.3Zm-.123,1.362.041-.288c.021,0,.021.021.041.021,0-.021.041-.082,0-.082,0,.021-.021.021-.041.021Zm1.916-1.011,1.074-2.249.226-.041.577,8.085" transform="translate(-255.73 -246.155)" fill="#fff"/>
        <path id="Path_18" data-name="Path 18" d="M311.866,219.282a.431.431,0,0,0,0,.5c-.1.269-.021.392-.164.7.021.228-.205.454-.164.68-.021.041-.041.082-.1.082-.021.29-.331.5-.269.744a.43.43,0,0,0-.185.351c-.249.185-.31.557-.454.826-.1.041-.062.123-.1.226-.249.123-.185.351-.351.516-.021.062.062.021.041.082-.1-.021-.062.041-.082.082-.021.021-.082.021-.082.021a1.2,1.2,0,0,0-.123.29c-.185.021-.144.269-.31.331-.021.062.062.041.041.1-.207.021-.144.29-.29.372,0,.041-.021.082.021.082-.164.29-.144.68-.31.908a.473.473,0,0,1-.082.392.829.829,0,0,1,0,.226c-.185.331-.123.928-.372,1.216.021.351-.144.618-.144,1.011-.041.021-.041.082-.082.1.082.144-.144.372-.041.474-.1.123-.062.392-.164.5-.021.062.062.041.041.1-.021.021-.041.082-.062.1-.021.062.021.082.021.123a5.315,5.315,0,0,0-.185,1.216c-.021.062-.041.021-.1.021a.867.867,0,0,1-.041.68c-.021.082.062.062.062.123-.1.269,0,.5-.123.785,0,.021.041.021.062.021-.144.331.062.659-.1.908a.675.675,0,0,1,.082.475c-.021.082.123.205.041.372a1.756,1.756,0,0,0,.372.826c.1-.041.185-.082.269-.123a9.219,9.219,0,0,0,2.186-2.681c.041-.021.062-.041.1-.062.7-1.362,1.465-2.66,2.186-4a.786.786,0,0,0-.062.331,25.357,25.357,0,0,0-1.052,2.826c-.041.021-.062.062-.082.082a.612.612,0,0,1-.205.536,8.532,8.532,0,0,1-1.052,1.98,4.52,4.52,0,0,0-.618.785c-.372.351-.639.785-1.175.97a2.7,2.7,0,0,1-.867.29,1.654,1.654,0,0,1-1.506-.826c0-.082-.021-.082.021-.123h-.082a2.37,2.37,0,0,1-.185-.887,7.915,7.915,0,0,1-.144-1.113c.021-.185,0-.413.021-.6a2.195,2.195,0,0,1,.1-.474c-.1-.062.082-.249-.021-.29.021-.062.062-.1.082-.164-.021-.249.041-.31.021-.475a2.4,2.4,0,0,0,.1-.7,4.911,4.911,0,0,0,.1-.887,15.382,15.382,0,0,1,.413-1.711,15.055,15.055,0,0,1,.433-1.836.772.772,0,0,1-.021-.205c.144-.041.062-.29.164-.372-.021-.041-.021-.082-.041-.1.041-.041.041-.144.1-.164.082-.413.205-.928.269-1.3.062-.164.123-.392.185-.6.062-.021,0-.082.1-.082-.062-.082.041-.29.123-.351-.041-.372.207-.536.207-.867a.247.247,0,0,1,.1-.1.261.261,0,0,1,.082-.269,7.549,7.549,0,0,1,.29-1.031c.123-.062.082-.331.226-.392a3.717,3.717,0,0,1,1.877-2.042c.205-.021.618-.062.659.062.249-.041.31.269.29.413C311.8,219.282,311.825,219.282,311.866,219.282ZM307.7,234.854m.041.082,2.6-14.333c-.164.413-.164.805-.31,1.237.082.269-.249.68-.164.97-.1,0-.062.144-.144.164.041.249-.185.536-.164.805.041-.249.331-.474.269-.68.226-.144.226-.413.413-.618.021-.062-.021-.062-.021-.1.226-.1.144-.433.372-.557.021-.062-.021-.082-.021-.123.331-.31.31-.826.454-1.237-.041-.041-.041-.1-.041-.185.185-.205.082-.536.062-.785-.062-.021-.123-.021-.185-.041a6.867,6.867,0,0,0-.557,1.113C310.32,220.56,310.34,220.56,310.34,220.6Zm1.462-.867" transform="translate(-295.586 -218.786)" fill="#fff"/>
      </g>
    </g>
  </g>
</svg>
