<?xml version="1.0" standalone="no"?>
<!DOCTYPE svg PUBLIC "-//W3C//DTD SVG 1.1//EN" "http://www.w3.org/Graphics/SVG/1.1/DTD/svg11.dtd" >
<svg xmlns="http://www.w3.org/2000/svg" xmlns:xlink="http://www.w3.org/1999/xlink" version="1.1">
<metadata>
Created by FontForge 20170731 at Thu Jun  9 15:07:53 2022
 By Aleksey,,,
Copyright (c) 2010 by Laura Worthington. All rights reserved.
</metadata>
<defs>
<font id="Sheila" horiz-adv-x="1769" >
  <font-face 
    font-family="Sheila"
    font-weight="400"
    font-stretch="normal"
    units-per-em="2048"
    panose-1="2 0 5 7 0 0 0 2 0 2"
    ascent="1106"
    descent="-942"
    x-height="517"
    cap-height="1543"
    bbox="-1394.39 -1187.09 3172.55 1939.52"
    underline-thickness="102"
    underline-position="-204"
    unicode-range="U+000D-F8FF"
  />
<missing-glyph horiz-adv-x="606" 
 />
    <glyph glyph-name="es" unicode="es" horiz-adv-x="1241" 
d="M922 401q13 -45 16 -61q9 -40 10 -71q2 -41 -2 -70q-5 -39 -18 -62q-29 -50 -60 -78q-34 -31 -57 -41q35 -2 96 13q64 15 137 45q71 30 121 66q49 36 72 57q16 16 16 27t17 26q50 39 51 12q1 -16 -20 -40t-60 -54q-38 -30 -65 -49q-48 -33 -125 -68q-47 -23 -105 -38
q-56 -15 -116 -24q-59 -9 -114 -9q-59 0 -102 10q-55 12 -76 49q-23 40 -24 70q-71 -39 -134 -63q-77 -30 -139 -43q-69 -15 -131 -15q-65 0 -110 22q-42 20 -60 64q-18 42 -10 95q7 50 43 111q33 56 99 111q63 55 129 84q68 29 120 38t94 1q39 -7 52 -27q14 -21 9 -49
q-4 -27 -25 -53q-21 -27 -55 -52q-35 -26 -74 -46q-38 -21 -80 -33q-43 -13 -78 -17q-49 -6 -68 -5q-29 1 -49 8q-18 -24 -32 -55q-12 -27 -17 -58q-4 -28 3 -52q7 -23 26 -34q33 -20 91 -20q61 0 124 14q71 16 138 40q69 25 136 60q8 41 41 85q34 45 84 61q43 12 53 -25
q40 21 90 66t90 102q41 56 72 78q35 26 68 37q8 2 18 -4q10 -5 18 -19q7 -11 7 -25q0 -13 -8 -26q-73 -92 -127 -66zM545 119q-4 -22 11 -51q15 -28 75 -39q37 -6 71 6t64 34q26 19 51 49q22 27 35 52q31 61 35 113q5 53 0 114q-43 -50 -92 -96q-44 -41 -99 -72
q2 -12 -5 -28q-10 -24 -21 -37q-18 -21 -33 -34q-18 -15 -39 -21q-11 -4 -24 4q-8 5 -15 14q-5 5 -9 3q-5 -2 -5 -11zM305 305q31 19 51 35q27 21 45 42q20 23 28 42q9 20 1 35q-18 32 -97 10q-78 -22 -196 -125q-32 -30 -43 -41q-18 -18 -33 -39q36 -10 110 -2q69 7 134 43
z" />
    <glyph glyph-name="bs" unicode="bs" horiz-adv-x="1417" 
d="M1098 401q13 -45 16 -61q9 -40 10 -71q2 -41 -2 -70q-5 -39 -18 -62q-29 -50 -60 -78q-34 -31 -57 -41q35 -2 96 13q67 16 138 45q68 29 120 66q49 36 72 57q17 17 17 27q0 11 16 26q50 39 51 12q2 -17 -19 -40q-19 -22 -61 -54q-38 -30 -65 -49q-48 -33 -125 -68
q-47 -23 -105 -38t-115 -24q-59 -9 -115 -9q-58 0 -101 10q-32 6 -52 22q-18 14 -30 36q-11 21 -14 40q-3 21 -3 37q0 20 10 43l-4 4q-36 26 -65 38q-33 13 -80 21q-33 -45 -73 -85q-42 -42 -77 -70q-63 -51 -146 -75q-81 -23 -157 -11q-58 11 -65 47q-8 38 22 76
q32 41 84 72q46 28 105 47q54 17 114 25q54 7 113 5q26 33 48 71t33 65q10 26 12 54q1 23 -13 33q-28 21 -94 -12q-70 -35 -146 -91q-69 -51 -158 -128q-77 -67 -132 -125q-13 -13 -31 -38q-9 -13 -25 -40q-8 -15 -22 -45q-7 -16 -19 -14q-10 2 -18 12q-11 16 -15 24
q-6 13 -4 21q1 4 15 34q21 45 29 60q6 12 18.5 36t18.5 36q24 47 36 68q17 30 48 80q1 2 89 144q2 3 109 175q20 32 55 89.5t51 82.5q50 80 84 135q17 28 39 64q23 45 27 55q8 23 4 55q-5 35 19 72t51 72q27 34 46 24t40 -51q8 -17 3 -32q-4 -13 -10 -23q-12 -21 -20 -33
q-5 -8 -16.5 -26t-17.5 -27q-7 -11 -40 -65q-4 -7 -39 -62q-61 -100 -98 -162q-10 -17 -48 -80t-58 -98q-19 -33 -54.5 -91.5t-49.5 -82.5q-18 -31 -48.5 -81.5t-40.5 -68.5q-56 -95 -63 -107t-13.5 -23t-10 -16.5t-3.5 -6.5q-4 -6 -2 -10q2 -3 8 3q25 22 77 70q48 45 95 82
q48 38 106 80q50 36 104 64q51 26 93 35q44 9 72 -7q27 -16 36 -45t3 -65q-6 -34 -24 -75q-17 -37 -42 -77q39 -7 71 -20q33 -13 58 -29l17 -13q19 34 43 57q27 26 61 36q43 12 53 -25q43 22 91 66q49 45 90 102q43 57 71 78q35 26 68 37q8 2 18 -4q10 -5 18 -19
q7 -11 7 -25q0 -13 -8 -26q-73 -92 -127 -66zM721 119q-4 -22 11 -51q15 -28 75 -39q37 -6 72 6q32 11 63 34q26 19 51 49q23 27 35 52q31 61 35 113q5 53 0 114q-43 -50 -92 -96q-44 -41 -99 -72q1 -10 -6 -28q-8 -20 -21 -37q-15 -20 -32 -34q-18 -15 -39 -21
q-9 -3 -23 -3q-19 0 -30 13zM352 135q25 21 56 52q19 19 49 57q-43 2 -99 -6q-46 -6 -110 -27q-56 -18 -103 -47q-45 -28 -73 -68q-19 -28 -13 -50q6 -23 56 -28q59 -4 122 33q61 37 115 84z" />
    <glyph glyph-name="bx" unicode="bx" horiz-adv-x="1437" 
d="M352 135q25 21 56 52q19 19 49 57q-43 2 -99 -6q-46 -6 -110 -27q-56 -18 -103 -47q-45 -28 -73 -68q-19 -28 -13 -50q6 -23 56 -28q59 -4 122 33q61 37 115 84zM1020 45q28 -16 89 -10q59 6 132 41q75 36 121 68q52 36 72 55q16 16 16 27t16 26q50 40 52 12
q5 -30 -80 -92q-7 -5 -29.5 -21t-37.5 -27q-44 -32 -124 -71q-34 -16 -80 -31q-42 -14 -77 -21t-68 -7q-31 0 -49 6q-47 18 -68 61t-33 113q-28 -21 -72 -51q-39 -27 -98 -64q-91 -54 -139 -61q-54 -8 -82 6q-34 16 -28 38t24 26q20 4 28 -10q7 -13 7 -25q43 -37 178 47
q58 35 102 73q8 7 70 62q-11 87 -24 118q-17 41 -23 60q-6 17 -15 24q-3 3 -9.5 7t-8.5 6l-16 12q-8 7 -10 19q-8 35 18 51t55 10q33 -7 48 -26q14 -18 30 -72q13 -49 16 -71q5 -30 15 -93q63 45 110 86q44 38 62 76q7 16 6 34q-1 17 17 40q28 34 59 45q30 11 51 -4
q22 -16 10 -41q-13 -26 -47 -66q-30 -35 -59 -62q-34 -32 -60 -53q-32 -26 -65 -50q-34 -25 -78 -54q7 -62 22 -105q13 -38 54 -61zM551 231q-33 -45 -72 -84q-41 -41 -76 -69q-63 -51 -146 -75q-81 -23 -157 -11q-58 11 -65 47q-8 38 22 76q32 41 84 72q46 28 105 47
q54 17 114 25q54 7 113 5q26 33 48 71t33 65q10 26 12 54q1 23 -13 33q-28 21 -94 -12q-70 -35 -146 -91q-69 -51 -158 -128q-77 -67 -132 -125q-13 -13 -31 -38q-9 -13 -25 -40q-8 -15 -22 -45q-7 -16 -19 -14q-10 2 -18 12q-9 12 -14 24q-6 14 -5 21q1 4 15 34
q21 45 29 60q6 12 18.5 36t18.5 36q24 47 36 68q17 30 48 80q1 2 89 144q2 3 109 175q20 32 55 89.5t51 82.5q50 80 84 135q17 28 39 64q23 45 27 55q8 23 4 55q-5 35 19 72t51 72q27 34 46 24t40 -51q8 -17 3 -32q-5 -16 -9 -23q-6 -11 -21 -33q-5 -8 -16.5 -26t-17.5 -27
q-7 -11 -40 -65q-4 -7 -39 -62q-61 -100 -98 -162q-10 -17 -48 -80t-58 -98q-19 -33 -54.5 -91.5t-49.5 -82.5q-18 -31 -48.5 -81.5t-40.5 -68.5q-56 -95 -63 -107t-13.5 -23t-10 -16.5t-3.5 -6.5q-4 -6 -2 -10q2 -3 8 3q25 22 77 70q48 45 95 82q48 38 106 80q50 36 104 64
q51 26 93 35q44 9 72 -7q27 -16 36 -45t3 -65q-6 -34 -24 -75q-17 -37 -42 -77q42 -2 69 -12q28 -11 44 -24t22 -27q7 -16 7 -21q-1 -16 -20 -8t-42 28q-16 11 -14 20q1 4 -3.5 7t-15.5 6q-31 10 -46 10h-17z" />
    <glyph glyph-name="cs" unicode="cs" horiz-adv-x="1296" 
d="M561 119q-4 -22 11 -51q15 -28 75 -39q37 -6 72 6q32 11 63 34q29 21 52 49q20 24 34 52q31 61 35 113q5 53 0 114q-65 -75 -99 -105q-41 -37 -91 -63q2 -12 -5 -28q-9 -21 -22 -37q-18 -21 -33 -34q-18 -15 -39 -21q-10 -4 -23 4q-10 6 -16 14q-12 16 -14 -8zM55 362
q88 88 173 121q86 33 157 33q41 0 67 -13q27 -13 37 -28q2 4 19 27q7 10 43 18q35 8 38 -5t-20 -48q-37 -55 -81 -96t-78 -37q-17 2 -13 6l18 16q11 10 31 33q19 23 29 53q4 16 -20 31q-23 15 -68 10q-49 -4 -118 -42q-69 -37 -140 -113q-51 -52 -80 -103q-30 -52 -38 -89
q-9 -40 0 -68t34 -41q36 -17 91 -13q56 4 124 24q62 18 139 50q58 24 138 66q11 35 43 75q30 37 77 54q11 4 27 -2q13 -5 18 -23q38 18 83 56q52 44 106 112q40 50 73 77q33 26 66 38q9 2 19 -4q8 -5 17 -19q7 -11 7 -25q0 -13 -8 -26q-73 -92 -127 -66q13 -45 16 -61
q10 -46 11 -71q2 -41 -2 -70q-5 -36 -19 -62q-30 -52 -59 -78q-33 -30 -58 -41q36 -2 97 13q64 15 137 45q71 30 121 66q45 33 71 57q17 17 17 27q0 11 16 26q50 39 51 12q5 -30 -80 -92q-12 -9 -65 -49q-43 -33 -125 -70q-48 -23 -104 -38t-116 -24q-59 -9 -115 -9
q-58 0 -101 10q-61 15 -82 56q-21 43 -17 75q-84 -44 -137 -66q-72 -30 -141 -51q-64 -19 -131 -26q-63 -6 -105 10q-49 18 -70 57q-22 41 -18 90q5 52 36 110q30 56 89 115z" />
    <glyph glyph-name="cx" unicode="cx" horiz-adv-x="1368" 
d="M33 362q88 88 173 121q86 33 156 33q41 0 67 -13q28 -14 38 -28q11 17 18 27t43 18q35 8 38 -5q3 -14 -19 -48q-37 -55 -81 -96q-45 -41 -79 -37q-17 2 -12 6q8 8 17 16q16 14 32 33q19 23 29 53q4 15 -21 31q-23 15 -67 10q-49 -4 -118 -42q-71 -39 -141 -113
q-43 -44 -65 -90q-20 -42 -22 -80q-1 -37 14 -65t37 -42q27 -18 74 -24q48 -6 107 -3t123 15q55 10 126 31q52 16 95 38q50 26 85 46q44 26 68 43q38 28 43 32q-2 16 -6.5 39.5t-5.5 28.5q-4 22 -11 44q-5 15 -12 29q-10 19 -11 23q-6 17 -15 24q-3 3 -9 7t-8 6l-17 12
q-8 7 -10 19q-8 35 19 51q26 16 55 10q32 -6 47 -26q16 -20 31 -72q10 -40 15 -71q5 -30 15 -93q63 45 110 86q44 38 62 76q8 18 7 34q-2 18 16 40q28 34 59 45t52 -4q22 -16 10 -41q-13 -26 -47 -66q-25 -29 -60 -62q-39 -37 -59 -53t-66 -50q-34 -25 -78 -54
q7 -62 22 -105q13 -38 54 -61q28 -16 89 -10q59 6 132 41q75 36 121 68q52 36 72 55q16 16 16 27t17 26q49 39 51 12q4 -32 -80 -94q-34 -25 -66 -47q-46 -32 -124 -70q-42 -19 -80 -32q-33 -11 -78 -20q-35 -7 -68 -7q-31 0 -49 6q-46 18 -66 65q-21 49 -32 115
q-12 -8 -44 -26q-34 -18 -70 -36q-45 -22 -89 -39q-52 -20 -100 -36q-57 -18 -133 -35q-59 -13 -131 -20q-63 -6 -118 -3t-93 19q-43 18 -69 54q-26 37 -29 85q-3 47 22 106q23 54 82 113z" />
    <glyph glyph-name="ex" unicode="ex" horiz-adv-x="1298" 
d="M733 225q-7 45 -13 68q-8 27 -15 45q-5 11 -17 31q-8 12 -12 24q-6 15 -16 24q-3 3 -9 7t-8 6l-16 12q-10 8 -11 19q-8 35 19 51q26 16 55 10q32 -6 47 -26q16 -20 31 -72q2 -6 5 -18.5t5 -17.5q3 -11 7 -33q1 -3 8 -38q2 -10 8 -53q63 45 108 84t62 74q7 16 6 34
q-2 18 16 40q28 34 60 45q30 11 51 -4q22 -16 10 -41q-13 -26 -47 -66q-20 -23 -58 -61q-24 -24 -59 -52q-36 -29 -65 -49q-47 -33 -78 -53q7 -62 20 -106q12 -41 54 -64q28 -16 89 -10q59 6 132 41q75 36 121 68q48 33 71 55q17 17 17 27q0 11 16 26q49 39 51 12
q5 -30 -80 -92l-66 -48t-124 -71q-34 -16 -80 -31q-40 -14 -78 -21q-35 -7 -67 -7q-31 0 -49 6q-49 19 -66 61q-20 47 -31 113q-58 -34 -130 -69q-71 -34 -167 -64q-67 -21 -130 -33q-60 -11 -123 -16q-52 -4 -106 1q-50 5 -79 19q-41 17 -60 61q-18 41 -10 95q7 51 43 113
q33 57 99 112q63 55 129 84q68 29 120 38t94 1q39 -7 52 -27q14 -21 9 -49q-4 -27 -25 -53q-21 -27 -55 -52q-35 -26 -74 -46q-38 -21 -80 -33q-43 -13 -78 -17q-49 -6 -68 -5q-29 1 -49 8q-18 -24 -32 -55q-13 -29 -16 -58t3 -51t25 -35q25 -17 67 -23q44 -6 98 -3
q53 3 115 15q75 15 123 31q82 28 165 74q81 45 136 88zM307 305q31 19 51 35q27 21 45 42q20 23 28 42q9 20 1 35q-18 32 -97 10q-78 -22 -196 -125q-32 -30 -43 -41q-18 -18 -33 -39q36 -10 110 -2q69 7 134 43z" />
    <glyph glyph-name="fg" unicode="fg" horiz-adv-x="1452" 
d="M66 236q-123 -198 -211 -368q-95 -184 -145 -318q-52 -140 -55 -231q-3 -92 56 -110q43 -12 101 29q55 39 115 116q60 78 114 173q57 101 96 200q43 108 61 196q19 94 7 163q-6 38 -18 61q-11 20 -19 40q-10 24 -13 37q-5 21 1 50q6 31 16 37q11 6 25 -5q13 -10 30 -37
q17 -25 33 -60q10 -20 10 -36t-3 -28q-2 -9 -4 -23q-1 -10 7 -22q51 -71 136 -69q46 1 99 30t81 84q35 69 88 137q53 67 125 119q82 59 166 88q87 30 155 31q72 2 128 -22q55 -23 85 -70q14 -21 9 -38q-4 -15 -21 -21t-25 6q-7 11 -18 35q-16 37 -51 58t-88 18
q-57 -3 -123 -32q-67 -29 -152 -94q-59 -46 -104 -96q-49 -54 -77 -97q-31 -48 -38 -83q-8 -38 12 -53q23 -19 78 2q58 22 118 59q57 35 124 86q61 46 96 84q68 71 90 107q19 32 25 45q2 8 8 14q10 10 27 -8q16 -21 22 -59q6 -37 -4 -64q-4 -6 -9 -22q-4 -12 -12 -25
t-16 -21t-16 -6q-6 0 -20 -21q-1 -1 -33 -61q-35 -65 -49 -93q-38 -76 -60 -118q182 56 283 117t143 92q16 12 21 40t20 42q20 18 43 31q18 11 23 -19q4 -16 -25 -54q-27 -36 -70 -66q-30 -20 -53 -36q-28 -20 -90 -53q-55 -30 -132 -63t-177 -63q-39 -75 -116 -214
q-74 -135 -134 -229q-84 -133 -191 -246t-206 -177q-104 -67 -194 -79q-91 -12 -151 48q-41 39 -45 98t23 129q28 71 83 145q58 78 136 150q84 77 156 127q81 56 159 96q75 39 182 80q102 39 224 78q66 132 91 188q29 65 67 141q5 11 1 13t-10 -4q-43 -41 -106 -90
q-72 -56 -135 -94q-69 -42 -132 -60t-98 6q-38 28 -38 84q-29 -33 -80 -58q-50 -24 -97 -24q-43 0 -77 11q-37 12 -74 40q10 -40 -11 -127q-19 -79 -64 -189q-44 -109 -100 -212q-58 -108 -125 -194q-66 -85 -135 -132t-132 -30q-59 16 -80 68q-21 53 -11 132q11 80 48 185
q40 111 93 222q60 124 128 245q82 145 149 256q44 73 106 165q15 23 50 75t53 78q5 8 40 59t52 75q43 61 72 111q28 45 36 69q9 28 12 44q2 11 4 33q2 19 7 38q8 32 29 62q25 36 44 56q26 27 47 42q24 16 42 18q56 8 66 -8q10 -15 -21 -61l-64 -96q-17 -25 -58.5 -88
t-65.5 -100q-52 -78 -176 -271q-110 -170 -219 -346zM688 -522q66 102 130 210t104 187q-79 -24 -157 -55q-85 -34 -179 -83q-99 -52 -183 -108q-90 -60 -163 -127q-73 -66 -128 -143q-52 -73 -78 -140q-26 -68 -25 -121q2 -55 34 -83q49 -43 128 -19q75 23 170 96
q87 67 182 173q91 102 165 213z" />
    <glyph glyph-name="fj" unicode="fj" horiz-adv-x="985" 
d="M-319 -827q-79 23 -91 102t23 203q-66 -66 -105 -135q-39 -70 -55 -139q-15 -66 0 -122q15 -54 62 -83q51 -31 106 -28q56 3 119 32q60 28 124 78q57 45 123 114q49 52 116 136q47 59 106 147q65 97 125 198q58 97 112 199q-96 -30 -135 -43q-81 -27 -118 -41
q-36 -98 -100 -223q-59 -115 -129 -211t-142 -149q-73 -53 -141 -35zM-274 -432l-8 -4l-2 -2q-3 -1 -5 -2q-52 -145 -57 -239t55 -112q46 -12 107 34q60 46 124 129q56 73 118 191q58 109 96 214q-60 -23 -114 -45q-53 -22 -106 -47q-34 -16 -102 -54q-46 -26 -106 -63z
M590 139q17 27 32 57q22 44 27 52q14 26 19 48q6 27 2 60q-5 35 19 72q28 45 50 72q27 34 46 24t40 -51q7 -17 3 -33t-9 -24q-24 -43 -69 -125.5t-66 -120.5q-56 -101 -131 -238q171 51 277 115q101 61 143 92q15 11 20 40q5 27 21 42q20 18 43 31q17 10 22 -19
q5 -17 -24 -54q-27 -36 -70 -66q-30 -20 -53 -36q-25 -18 -89 -53q-59 -33 -130 -62q-84 -34 -176 -62q-30 -58 -115 -212q-68 -123 -139 -233q-84 -133 -189 -250q-103 -115 -207 -185q-105 -71 -206 -90q-103 -20 -189 36q-65 40 -82 111t6 151q23 81 79 162
q55 80 136 147q51 154 154 350q107 205 223 394q44 73 106 165q15 23 50 75t53 78q5 8 40 59t52 75q43 61 72 111q28 45 36 69q9 28 12 44q2 11 4 33q2 19 7 38q8 32 29 62q25 36 44 56q26 27 47 42q24 16 42 18q56 8 66 -8q10 -15 -21 -61l-64 -96q-17 -25 -58.5 -88
t-65.5 -100q-52 -78 -176 -271q-139 -215 -220 -346q-103 -165 -193 -335q-80 -151 -140 -296q57 35 108 63q54 30 104 53q95 43 106 48q48 20 118 45q24 79 36 148q12 70 1 124q-6 38 -18 61q-11 20 -19 40q-10 24 -13 37q-5 21 1 50q6 31 16 37q11 6 25 -5q13 -10 30 -37
q17 -25 33 -60q10 -20 10 -36t-3 -28q-2 -9 -4 -23q-1 -10 7 -22q51 -71 135 -69q47 2 100 31q53 30 87 77zM553 72q-64 -56 -147 -62q-85 -6 -158 47q8 -34 -4 -93q-12 -60 -39 -138q100 32 118 38q77 24 140 42q23 44 45 84zM920 750l12 -20t14 -29t7 -31q1 -15 -5 -31
q-22 -42 -49 -53q-27 -10 -49 18q-23 29 -18 47q5 21 32 62q11 17 11 20q0 6 4 15q5 13 17 14q14 2 24 -12z" />
    <glyph glyph-name="fx" unicode="fx" horiz-adv-x="1239" 
d="M676 147q-25 -21 -63 -43q-34 -20 -72 -35q-43 -17 -73 -26q-36 -11 -60 -12q-48 -4 -94 4q-42 8 -64 22q10 -40 -11 -127q-19 -79 -64 -189q-44 -109 -100 -212q-58 -108 -125 -194q-66 -85 -135 -132t-132 -30q-59 16 -80 68q-21 53 -11 132q11 80 48 185
q40 111 93 222q60 124 128 245q82 145 149 256q44 73 106 165q15 23 50 75t53 78q5 8 40 59t52 75q43 61 72 111q28 45 36 69q9 28 12 44q2 11 4 33q2 19 7 38q8 32 29 62q25 36 44 56q26 27 47 42q24 16 42 18q56 8 66 -8q10 -15 -21 -61l-64 -96q-17 -25 -58.5 -88
t-65.5 -100q-52 -78 -176 -271q-110 -170 -219 -346q-123 -198 -211 -368q-95 -184 -145 -318q-52 -140 -55 -231q-3 -92 56 -110q43 -12 101 29q55 39 115 116q60 78 114 173q57 101 96 200q43 108 61 196q19 94 7 163q-6 38 -18 61q-11 20 -19 40q-10 24 -13 37
q-5 21 1 50q6 31 16 37q11 6 25 -5q13 -10 30 -37q17 -25 33 -60q10 -20 10 -36t-3 -28q-2 -9 -4 -23q-1 -10 7 -22q16 -23 56 -31q39 -8 80 -3q26 1 61 15t70 32q16 8 68 40q30 19 61 44q-10 83 -26 128q-14 40 -26 68q-6 17 -15 24q-3 3 -9 7t-8 6l-17 12q-8 7 -10 19
q-8 35 18 51q27 16 56 10q32 -6 47 -26q16 -20 31 -72q10 -40 15 -79t15 -101q7 6 25 21t28 24q27 24 51 48q26 26 42 46q19 24 26 39q7 16 6 34q-1 17 17 40q28 34 59 45q30 11 51 -4q23 -17 11 -41q-13 -26 -47 -66q-66 -76 -119 -125q-65 -60 -144 -125q5 -33 9 -54
q5 -22 12 -35q7 -12 21 -23q17 -13 34 -23q28 -16 89 -10q59 6 132 41q75 36 121 68q52 36 72 55q16 16 16 27t17 26q50 39 51 12q5 -30 -80 -92q-7 -5 -29.5 -21t-37.5 -27q-46 -33 -123 -71q-34 -16 -80 -31q-41 -14 -78 -21q-35 -7 -68 -7q-31 0 -49 6q-47 18 -65 48
q-19 32 -31 99z" />
    <glyph glyph-name="fy" unicode="fy" horiz-adv-x="1445" 
d="M670 -522q66 102 130 210q57 96 103 187q-79 -24 -157 -55q-85 -34 -179 -83t-182 -108q-94 -63 -164 -127q-73 -66 -128 -143q-52 -73 -78 -140q-26 -66 -24 -121t34 -83q49 -43 128 -19q75 23 170 96q87 67 182 173q91 102 165 213zM578 137q9 16 33 50q14 20 42 62
q19 29 34 60q13 27 11 47q-4 34 20 72q28 45 50 72q27 34 46 24t40 -51q8 -17 3 -32q-5 -16 -9 -23q-2 -3 -5.5 -8.5t-9.5 -15.5t-11 -18q-34 -55 -43 -69q-43 -67 -46 -72q-27 -44 -31 -51q-30 -53 -44 -88q-13 -34 4 -45q8 -6 25 -6q21 0 48 11q34 14 76 36t107 70
q100 72 169 141t103 125q24 42 38 71q15 32 38 17q8 -6 14 -16q7 -11 15 -29q8 -17 9 -37q1 -16 -8 -41q-19 -42 -21 -47q-12 -23 -34 -29q-26 -8 -43 -34q-18 -27 -35 -58l-153 -295q177 55 280 117q106 64 144 92q15 11 20 40q4 27 21 42q20 18 43 31q17 10 22 -19
q4 -17 -24 -54q-27 -36 -70 -66q-30 -20 -53 -36q-28 -20 -90 -53q-52 -28 -133 -63q-76 -33 -177 -63q-56 -108 -115 -214q-67 -122 -135 -229q-87 -137 -190 -246q-105 -111 -207 -177q-104 -67 -193 -79q-91 -12 -151 48q-41 39 -45 98t23 129q29 74 82 145
q56 75 137 150q87 80 155 127q78 54 160 96q78 40 181 80q97 38 225 78l198 381q4 7 1 9q-3 1 -7 -3q-10 -8 -31.5 -26.5t-32.5 -27.5q-31 -26 -108 -83q-8 -5 -19 -13t-26.5 -19.5t-27.5 -19.5q-43 -30 -96 -61q-51 -29 -98 -47q-49 -18 -79 -8q-36 11 -43 31q-8 22 -2 51
q-29 -29 -66 -44q-40 -16 -86 -16q-42 0 -76 10q-35 10 -73 39q10 -40 -11 -127q-19 -79 -64 -189q-44 -109 -100 -212q-58 -108 -125 -194q-66 -85 -135 -132t-132 -30q-59 16 -80 68q-21 53 -11 132q11 80 48 185q40 111 93 222q60 124 128 245q82 145 149 256
q44 73 106 165q15 23 50 75t53 78q5 8 40 59t52 75q43 61 72 111q28 45 36 69q9 28 12 44q2 11 4 33q2 19 7 38q8 32 29 62q25 36 44 56q26 27 47 42q24 16 42 18q56 8 66 -8q10 -15 -21 -61l-64 -96q-17 -25 -58.5 -88t-65.5 -100q-52 -78 -176 -271q-139 -215 -220 -346
q-117 -188 -210 -368q-95 -184 -145 -318q-52 -140 -55 -231q-3 -92 56 -110q43 -12 101 29q55 39 115 116q60 78 114 173q57 101 96 200q43 108 61 196q19 94 7 163q-6 38 -18 61q-11 20 -19 40q-10 24 -13 37q-5 21 1 50q6 31 16 37q11 6 25 -5q13 -10 30 -37
q17 -25 33 -60q10 -20 10 -36t-3 -28q-2 -9 -4 -23q-1 -10 7 -22q51 -69 135 -69q42 0 90 26q51 28 85 80z" />
    <glyph glyph-name="gg" unicode="gg" horiz-adv-x="1673" 
d="M1249 -70q180 56 281 117t143 92q16 12 21 40t20 42q20 18 43 31q18 11 23 -19q4 -16 -25 -54q-29 -37 -69 -66l-54 -36q-28 -20 -90 -53q-56 -30 -132 -63t-177 -63q-39 -75 -116 -214q-74 -135 -134 -229q-91 -144 -192 -249q-101 -106 -199 -165q-101 -61 -190 -73
q-91 -12 -160 33q-47 29 -65 87q-18 57 -4 130q13 71 60 151t127 154q83 76 168 127q90 53 187 96q90 40 208 80q122 42 236 78q66 132 92 188q32 70 68 141q5 11 1 13q-3 2 -9 -4q-38 -37 -107 -90q-72 -56 -135 -94q-69 -42 -132 -60t-97 6q-43 33 -37 92
q-34 -24 -150 -89q-101 -56 -280 -109q-39 -75 -116 -214q-74 -135 -134 -229q-82 -130 -198 -255q-111 -120 -228 -192q-118 -73 -227 -86q-112 -14 -195 62q-60 53 -68 128q-7 74 23 156q30 81 95 161q62 76 151 145q88 68 171 114q74 42 178 83q90 36 209 67
q160 42 265 66q66 132 92 188q32 70 68 141q5 11 1 13q-3 2 -9 -4q-38 -37 -107 -90q-72 -56 -135 -94q-69 -42 -132 -60t-97 6q-41 30 -38 82t33 109q27 52 81 112q47 52 106 94q82 59 166 88q87 30 155 31q72 2 128 -22q55 -23 85 -70q15 -22 10 -38q-4 -15 -22 -21
q-17 -6 -25 6q-7 11 -18 35q-16 37 -51 58t-88 18q-57 -3 -123 -32q-67 -29 -152 -94q-59 -46 -104 -96q-49 -54 -77 -97q-31 -48 -38 -83q-8 -38 12 -53q23 -19 78 2q58 22 118 59q57 35 124 86q62 46 96 84q68 71 90 107q19 32 25 45q1 7 8 14q10 10 27 -8q16 -21 22 -59
q6 -37 -4 -64q-4 -6 -9 -22q-4 -12 -12 -25t-16 -21t-16 -6q-7 0 -20 -21q-1 -1 -33 -61q-21 -39 -48 -93q-17 -34 -61 -118q170 51 278 114q103 60 144 93q24 73 82 143q59 71 129 121q82 59 166 88q87 30 155 31q72 2 128 -22q55 -23 85 -70q15 -22 10 -38q-4 -15 -22 -21
q-16 -6 -24 6q-11 17 -19 35q-16 37 -51 58t-88 18q-57 -3 -123 -32q-67 -29 -152 -94q-59 -46 -104 -96q-49 -54 -77 -97q-31 -48 -38 -83q-7 -37 13 -53q23 -18 77 2q58 22 118 59q57 35 124 86q62 46 96 84q68 71 90 107q19 32 25 45q1 8 8 14q10 10 27 -8q16 -21 22 -59
q6 -37 -4 -64q-4 -6 -9 -22q-4 -12 -12 -25t-16 -21t-16 -6q-5 0 -19 -21q-7 -11 -34 -61q-21 -39 -48 -93q-17 -34 -61 -118zM49 -522q66 102 130 210t104 187q-132 -29 -244 -62t-202 -69q-95 -38 -175 -82q-85 -46 -162 -106q-66 -50 -124 -123q-57 -71 -87 -146
t-29 -138q1 -64 46 -103q69 -61 168 -43q97 18 201 87q105 70 202 173q100 106 172 215zM909 -522q66 102 130 210t104 187q-88 -27 -169 -55q-96 -34 -206 -83q-109 -49 -209 -108q-105 -62 -176 -127q-77 -69 -120 -141q-44 -73 -57 -134q-13 -62 2 -113q15 -50 58 -74
q56 -33 136 -11q79 22 169 86q87 62 177 158q86 92 161 205z" />
    <glyph glyph-name="gj" unicode="gj" horiz-adv-x="1208" 
d="M121 -545q-77 -125 -189 -240q-109 -112 -223 -184q46 -33 107 -31q62 2 124 26q61 24 132 73q65 45 132 107q60 56 123 130q56 66 105 142q65 97 125 198q67 112 113 199q-109 -38 -193 -62q-61 -18 -180 -55q-89 -164 -176 -303zM281 -125q-99 -22 -243 -58
q-90 -23 -199 -60q-90 -31 -172 -72q-79 -39 -161 -103q-67 -50 -120 -125q-55 -78 -81 -150q-28 -79 -28 -147q0 -69 39 -114q50 -58 126 -52q73 6 165 54q-33 56 -39 118q-6 63 12 128q17 62 59 127q42 66 99 114q93 83 216 136q124 54 269 98zM-233 -483
q-57 -52 -92 -111t-49 -118q-13 -58 -6 -112q8 -55 38 -96q103 66 211 178q104 107 178 220q97 153 154 252q-143 -46 -246 -92q-110 -49 -188 -121zM780 82q-54 -37 -150 -86q-100 -51 -259 -98q-12 -19 -27 -51q-9 -20 -29 -52l180 51q85 25 191 60q32 60 48 89t46 87z
M811 137q12 21 61 111q14 26 19 48q6 27 2 60q-5 35 19 72q24 38 51 72t46 24t40 -51q7 -17 3 -33q-4 -13 -10 -24q-24 -43 -69 -125.5t-66 -120.5q-56 -101 -131 -238q173 52 278 115q96 58 142 92q16 12 21 40t20 42q20 18 43 31q18 11 23 -19q4 -16 -25 -54
q-27 -36 -70 -66q-30 -20 -53 -36q-25 -18 -89 -53q-59 -33 -130 -62q-84 -34 -176 -62q-30 -58 -115 -212q-68 -123 -139 -233q-82 -130 -198 -255q-111 -120 -228 -192q-118 -73 -227 -86q-112 -14 -195 62l-10 12q-111 -58 -215 -60q-100 -1 -168 79q-45 56 -48 130
q-3 75 27 156q29 79 93 161q62 80 149 147q74 57 160 101q80 40 174 72q100 33 210 59q20 5 114 27.5t153 35.5q66 132 92 188q33 70 68 141q5 11 1 13q-3 2 -9 -4q-38 -37 -107 -90q-72 -56 -135 -94q-69 -42 -132 -60t-98 6q-40 30 -37 82t33 109q27 52 81 112
q47 52 106 94q82 59 166 88q87 30 155 31q72 2 128 -22q55 -23 85 -70q14 -21 9 -38q-5 -15 -21 -21q-17 -6 -25 6q-7 11 -18 35q-16 37 -51 58t-88 18q-57 -3 -123 -32q-67 -29 -152 -94q-59 -46 -104 -96q-49 -54 -77 -97q-31 -48 -38 -83q-8 -38 12 -53q23 -19 78 2
q58 22 118 59q57 35 124 86q62 46 96 84q68 71 90 107q19 32 25 45q1 7 8 14q10 10 27 -8q16 -21 22 -47t-4 -76q-8 -25 -15 -42q-12 -28 -38 -32q-15 -1 -56 -83q-62 -124 -106 -210q170 51 279 115q99 58 145 92zM1135 750l12 -20t14 -29t7 -31q1 -15 -5 -31
q-22 -42 -49 -53q-27 -10 -49 18q-23 29 -18 47q5 21 32 62q11 17 11 20q0 6 4 15q5 13 17 14q14 2 24 -12z" />
    <glyph glyph-name="gx" unicode="gx" horiz-adv-x="1527" 
d="M51 -522q66 102 130 210t104 187q-132 -29 -244 -62t-202 -69q-95 -38 -175 -82q-85 -46 -162 -106q-66 -50 -124 -123q-57 -71 -87 -146t-29 -138q1 -64 46 -103q69 -61 168 -43q97 18 201 87q105 70 202 173q100 106 172 215zM952 215q-11 87 -24 118q-17 41 -23 60
q-6 17 -15 24q-3 3 -9.5 7t-8.5 6l-16 12q-8 7 -10 19q-8 35 18 51q27 16 56 10q32 -6 47 -26q14 -18 30 -72q13 -49 16 -71q5 -30 15 -93q63 45 110 86q44 38 62 76q7 16 6 34q-1 17 17 40q28 34 59 45q30 11 51 -4q22 -16 10 -41q-13 -26 -47 -66q-30 -35 -59 -62
q-39 -37 -59 -53t-66 -50q-34 -25 -78 -54q7 -60 22 -104q14 -40 54 -62q28 -16 89 -10q59 6 132 41q75 36 121 68q52 36 72 55q16 16 16 27t16 26q50 40 52 12q5 -30 -80 -92q-7 -5 -29.5 -21t-37.5 -27q-44 -32 -124 -71q-34 -16 -80 -31q-42 -14 -77 -21t-68 -7
q-31 0 -49 6q-47 18 -68 61q-19 40 -32 113q-73 -56 -130 -92q-68 -42 -132 -70q-74 -32 -147 -57q-87 -29 -179 -57q-39 -75 -116 -214q-74 -135 -134 -229q-82 -130 -198 -255q-111 -120 -228 -192q-118 -73 -227 -86q-112 -14 -195 62q-60 53 -68 128q-7 74 23 156
q30 81 95 161q62 76 151 145q88 68 171 114q74 42 178 83q90 36 209 67q160 42 265 66q66 132 92 188q33 70 68 141q5 11 1 13q-3 2 -9 -4q-38 -37 -107 -90q-72 -56 -135 -94q-69 -42 -132 -60t-97 6q-41 30 -38 82t33 109q27 52 81 112q47 52 106 94q82 59 166 88
q87 30 155 31q72 2 128 -22q55 -23 85 -70q15 -22 10 -38q-4 -15 -22 -21q-16 -6 -24 6q-11 17 -19 35q-16 37 -51 58t-88 18q-57 -3 -123 -32q-67 -29 -152 -94q-59 -46 -104 -96q-49 -54 -77 -97q-31 -48 -38 -83q-7 -37 13 -53q23 -18 77 2q58 22 118 59q57 35 124 86
q62 46 96 84q68 71 90 107q19 32 25 45q1 7 8 14q10 10 27 -8q16 -21 22 -59q6 -37 -4 -64q-4 -6 -9 -22q-4 -12 -12 -25t-16 -21t-16 -6q-5 0 -19 -21q-7 -11 -34 -61q-21 -39 -48 -93q-17 -34 -61 -118q174 51 306 117t255 168z" />
    <glyph glyph-name="gy" unicode="gy" horiz-adv-x="1667" 
d="M926 184q-34 -51 -48 -87q-13 -36 3 -46q7 -6 25 -6q20 0 48 11q34 14 76 36t107 70q104 75 170 141q67 67 102 125q24 42 38 71q15 32 38 17q8 -6 14 -16q7 -11 15 -29q8 -17 9 -37q1 -18 -7 -41q-9 -22 -23 -47q-12 -22 -41 -33q-16 -6 -28 -18q-10 -10 -32 -51
q-26 -48 -59 -113q-4 -8 -40 -79.5t-62 -121.5q177 55 280 117q106 64 144 92q15 11 20 40q5 27 21 42q20 18 43 31q17 10 22 -19q5 -17 -24 -54q-27 -36 -70 -66q-30 -20 -53 -36q-28 -20 -90 -53q-56 -30 -132 -63q-74 -32 -178 -63q-56 -108 -115 -214
q-74 -135 -134 -229q-90 -141 -193 -249q-101 -106 -199 -165q-102 -62 -189 -73q-92 -12 -161 33q-46 28 -64 87q-18 57 -4 130q13 71 60 151t127 154q83 76 168 127q93 55 186 96q90 40 208 80q110 38 237 78q21 41 54.5 106t43.5 84q0 1 37 71q14 26 33 61q5 9 23 45
q9 18 9 20q4 11 2.5 12t-8.5 -6q-26 -26 -64 -57q-51 -41 -112 -86q-8 -5 -19 -13t-26.5 -19.5t-27.5 -19.5q-43 -30 -96 -61q-51 -29 -98 -47q-49 -18 -79 -8q-36 11 -43 33q-8 24 0 55q-54 -36 -149 -83q-96 -48 -246 -93q-39 -75 -116 -214q-74 -135 -134 -229
q-82 -130 -198 -255q-111 -120 -228 -192q-118 -73 -227 -86q-112 -14 -195 62q-60 53 -68 128q-7 74 23 156q30 81 95 161q62 76 151 145q88 68 171 114q74 42 178 83q90 36 209 67q160 42 265 66q66 132 92 188q33 70 68 141q5 11 1 13q-3 2 -9 -4q-38 -37 -107 -90
q-72 -56 -135 -94q-69 -42 -132 -60t-97 6q-41 30 -38 82t33 109q27 52 81 112q47 52 106 94q82 59 166 88q87 30 155 31q72 2 128 -22q55 -23 85 -70q15 -22 10 -38q-4 -15 -22 -21q-16 -6 -24 6q-11 17 -19 35q-16 37 -51 58t-88 18q-57 -3 -123 -32q-67 -29 -152 -94
q-59 -46 -104 -96q-49 -54 -77 -97q-31 -48 -38 -83q-7 -37 13 -53q23 -18 77 2q58 22 118 59q57 35 124 86q62 46 96 84q68 71 90 107q19 32 25 45q1 7 8 14q10 10 27 -8q16 -21 22 -59q6 -37 -4 -64q-4 -6 -9 -22q-4 -12 -12 -25t-16 -21t-16 -6q-7 0 -20 -21
q-1 -1 -33 -61q-21 -39 -48 -93q-17 -34 -61 -118q147 45 250 101q87 48 145 88q4 6 41 62q7 11 19 28.5t16 23.5q10 14 37 56q21 32 16 67q-4 34 20 72q28 45 50 72q27 34 46 24t40 -51q8 -17 3 -32q-5 -16 -9 -23q-1 -2 -9.5 -16t-15.5 -26q-8 -14 -41 -69
q-15 -25 -43 -73q-25 -43 -30 -50zM51 -522q66 102 130 210t104 187q-132 -29 -244 -62t-202 -69q-95 -38 -175 -82q-85 -46 -162 -106q-66 -50 -124 -123q-57 -71 -87 -146t-29 -138q1 -64 46 -103q69 -61 168 -43q97 18 201 87q105 70 202 173q100 106 172 215zM891 -522
q66 102 130 210q57 96 103 187q-88 -27 -169 -55q-92 -32 -205 -83q-109 -49 -209 -108q-105 -62 -176 -127q-77 -69 -120 -141q-45 -75 -58 -134q-13 -62 2 -113q15 -50 59 -74q56 -33 136 -11q79 22 169 86q84 60 176 158q90 96 162 205z" />
    <glyph glyph-name="jg" unicode="jg" horiz-adv-x="1230" 
d="M-49 -68q171 52 274 113q109 65 142 92q23 68 83 142q57 69 130 122q83 60 165 88q87 30 156 31q72 2 128 -22q55 -23 85 -70q14 -21 9 -38q-5 -15 -21 -21q-17 -6 -25 6q-7 11 -18 35q-16 37 -51 58t-88 18q-57 -3 -123 -32q-67 -29 -152 -94q-59 -46 -104 -96
q-49 -54 -77 -97q-31 -48 -38 -83q-8 -38 12 -53q24 -19 77 2q59 23 116 59q61 38 122 86q62 48 95 84q26 26 58 64q20 23 38 49q19 26 25 39q1 8 8 14q10 10 27 -8q16 -21 22 -59q6 -37 -4 -64q-3 -7 -9 -23q-3 -8 -13 -24t-15 -21q-8 -8 -16 -6q-7 0 -20 -21
q-7 -11 -34 -61q-21 -39 -48 -93q-38 -76 -60 -118q180 56 281 117t143 92q15 11 20 40q5 27 21 42q20 18 43 31q17 10 22 -19q5 -17 -24 -54q-27 -36 -70 -66q-5 -4 -13 -9t-19.5 -13.5t-20.5 -14.5q-34 -24 -90 -54q-59 -32 -132 -62q-81 -33 -177 -62q-39 -75 -116 -214
q-74 -135 -134 -229q-90 -141 -193 -249q-103 -107 -198 -165q-101 -61 -190 -73q-92 -12 -161 33q-46 28 -64 87q-18 57 -4 130q13 71 60 151t127 154q83 76 168 127q93 55 186 96q90 40 208 80q110 38 237 78q75 149 92 186q26 55 68 139q8 17 2 23q-7 7 -17 -8l-5 -5
t-11.5 -11t-15.5 -14q-26 -25 -70 -58q-54 -41 -94 -68q-46 -31 -102 -60q-51 -26 -95 -35q-46 -9 -72 11q-45 30 -39 92q-43 -31 -147 -88q-99 -55 -277 -108q-43 -84 -114 -212q-68 -123 -139 -233q-82 -130 -198 -255q-111 -120 -228 -192q-118 -73 -228 -86
q-111 -14 -194 62q-59 51 -71 128q-12 73 16 156q27 82 90 161q61 77 149 145q89 68 174 114q81 44 184 83q94 35 216 68q145 38 270 67q90 166 98 182q28 54 88 160q14 26 19 48q6 27 2 60q-5 35 19 72q28 45 50 72q27 34 46 24t40 -51q7 -17 3 -33t-9 -24
q-24 -43 -69 -125.5t-66 -120.5q-56 -101 -131 -238zM-958 -444q-70 -53 -121 -123q-55 -76 -81 -146q-28 -76 -25 -138q3 -64 48 -103q69 -61 168 -43q98 18 202 87q105 70 202 173q100 106 172 215q65 97 125 198q58 97 112 199q-124 -28 -247 -62q-114 -32 -209 -69
q-102 -40 -182 -82q-84 -44 -164 -106zM467 -522q66 102 130 210q57 96 103 187q-88 -27 -169 -55q-92 -32 -205 -83q-109 -49 -209 -108q-105 -62 -176 -127q-77 -69 -120 -141q-45 -75 -58 -134q-13 -60 3 -113q16 -52 58 -75q55 -33 136 -10q79 22 169 86q84 60 176 158
q90 96 162 205zM322 750l12 -20t14 -29t7 -31q1 -15 -5 -31q-22 -42 -49 -53q-27 -10 -49 18q-23 30 -19 47q5 19 33 62q10 16 10 20q0 3 5 15q5 13 17 14q14 2 24 -12z" />
    <glyph glyph-name="jx" unicode="jx" horiz-adv-x="1087" 
d="M-958 -444q-70 -53 -121 -123q-55 -76 -81 -146q-28 -76 -25 -138q3 -64 48 -103q69 -61 168 -43q98 18 202 87q105 70 202 173q100 106 172 215q65 97 125 198q58 97 112 199q-124 -28 -247 -62q-114 -32 -209 -69q-102 -40 -182 -82q-84 -44 -164 -106zM-49 -68
q171 46 310 113t251 172q-11 84 -25 118q-13 31 -22 60q-6 17 -15 24q-3 3 -9.5 7t-8.5 6l-16 12q-8 7 -10 19q-8 35 18 51t55 10q32 -6 47 -26q16 -20 31 -72q10 -40 15 -71q2 -10 7.5 -41.5t8.5 -51.5q57 41 109 86q46 40 63 76q7 16 6 34q-2 18 16 40q28 34 60 45
q30 11 51 -4q22 -16 10 -41q-13 -26 -47 -66q-30 -35 -59 -62q-34 -32 -60 -53q-32 -26 -65 -50q-34 -25 -78 -54q7 -65 21 -104q13 -39 55 -62q28 -16 89 -10q59 6 132 41q75 36 121 68q48 33 71 55q17 17 17 27q0 11 16 26q50 39 51 12q4 -32 -80 -94q-34 -25 -66 -47
q-46 -32 -124 -70q-34 -16 -80 -31q-41 -14 -78 -21q-35 -7 -67 -7q-31 0 -49 6q-47 18 -68 61t-33 113q-73 -56 -130 -92q-71 -44 -131 -70q-74 -32 -147 -57q-80 -27 -180 -57q-43 -84 -114 -212q-68 -123 -139 -233q-82 -130 -198 -255q-111 -120 -228 -192
q-118 -73 -228 -86q-111 -14 -194 62q-59 51 -71 128q-12 73 16 156q27 82 90 161q61 77 149 145q89 68 174 114q81 44 184 83q94 35 216 68q145 38 270 67q90 166 98 182q28 54 88 160q14 26 19 48q6 27 2 60q-5 35 19 72q28 45 50 72q27 34 46 24t40 -51q7 -17 3 -33
t-9 -24q-24 -43 -69 -125.5t-66 -120.5q-56 -101 -131 -238zM317 750q7 -10 13 -20q9 -15 14 -29t7 -31q1 -15 -5 -31q-22 -42 -49 -53q-27 -10 -49 18q-23 30 -19 47q5 19 33 62q10 16 10 20q0 6 4 15q5 13 18 14q14 2 23 -12z" />
    <glyph glyph-name="jy" unicode="jy" horiz-adv-x="1222" 
d="M-49 -68q150 46 247 100q94 52 144 87q21 33 38 58q24 35 45 69q28 46 37 64q15 30 11 46q-7 34 18 72q29 42 52 72q27 34 46 24t40 -51q8 -17 3 -32q-5 -16 -9 -23q-1 -2 -9.5 -16t-15.5 -26q-8 -14 -41 -69q-6 -10 -21 -34.5t-23 -37.5q-19 -32 -32 -51
q-35 -51 -48 -87t3 -46q8 -6 26 -5q22 2 48 11q33 11 76 36q42 24 106 69q100 72 165 137q76 76 108 129q24 42 38 71q15 32 37 17q9 -7 15 -16q7 -11 15 -29q6 -14 8 -37q1 -18 -7 -41q-14 -32 -22 -47q-12 -22 -41 -33q-16 -6 -28 -18t-33 -51q-7 -12 -58 -113
q-72 -141 -103 -201q180 56 281 117t143 92q16 12 21 40t20 42q20 18 43 31q18 11 23 -19q4 -16 -25 -54q-28 -37 -69 -66q-3 -2 -13 -8.5t-20.5 -13.5t-20.5 -14q-28 -20 -90 -53q-55 -30 -132 -63t-177 -63q-39 -75 -116 -214q-74 -135 -134 -229q-92 -144 -192 -249
q-101 -106 -199 -165q-102 -62 -189 -73q-92 -12 -161 33q-47 29 -65 87q-18 57 -4 130q13 69 61 151q47 80 127 154q83 76 168 127q93 55 186 96q90 40 208 80q122 42 236 78q84 158 101 192l36 72l15.5 31l15.5 31q15 27 24 45l9 18q2 6 1 7t-5 -3q-47 -39 -70 -59
q-55 -47 -116 -91q-25 -16 -71 -50t-93 -59q-47 -26 -97 -45q-46 -18 -77 -7q-36 11 -43 33q-8 24 0 55q-53 -35 -149 -82q-95 -47 -243 -92q-43 -84 -114 -212q-68 -123 -139 -233q-82 -130 -198 -255q-111 -120 -228 -192q-118 -73 -228 -86q-111 -14 -194 62
q-59 51 -71 128q-12 73 16 156q27 82 90 161q61 77 149 145q89 68 174 114q81 44 184 83q94 35 216 68q145 38 270 67q90 166 98 182q28 54 88 160q14 26 19 48q6 27 2 60q-5 35 19 72q28 45 50 72q27 34 46 24t40 -51q7 -17 3 -33t-9 -24q-24 -43 -69 -125.5t-66 -120.5
q-56 -101 -131 -238zM-958 -444q-70 -53 -121 -123q-55 -76 -81 -146q-28 -76 -25 -138q3 -64 48 -103q69 -61 168 -43q98 18 202 87q105 70 202 173q100 106 172 215q65 97 125 198q58 97 112 199q-124 -28 -247 -62q-114 -32 -209 -69q-102 -40 -182 -82
q-84 -44 -164 -106zM446 -522q78 120 131 210q57 96 103 187q-88 -27 -169 -55q-96 -34 -206 -83q-109 -49 -209 -108q-105 -62 -176 -127q-76 -69 -120 -141q-44 -73 -57 -134q-13 -62 2 -113q15 -50 58 -74q56 -33 137 -11q79 22 169 86q84 60 176 158q86 92 161 205z
M322 750l12 -20t14 -29t7 -31q1 -15 -5 -31q-22 -42 -49 -53q-27 -10 -49 18q-23 30 -19 47q5 19 33 62q10 16 10 20q0 3 5 15q5 13 17 14q14 2 24 -12z" />
    <glyph glyph-name="ks" unicode="ks" horiz-adv-x="1466" 
d="M1147 401q13 -45 16 -61q9 -40 10 -71q2 -41 -2 -70q-5 -39 -18 -62q-30 -52 -59 -78q-33 -30 -58 -41q36 -2 97 13q64 15 137 45q71 30 121 66q45 33 71 57q17 17 17 27q0 11 16 26q49 39 51 12q4 -32 -80 -94q-3 -2 -25.5 -19t-39.5 -29q-45 -33 -125 -69
q-47 -23 -105 -38t-115 -24q-58 -9 -115 -9q-58 0 -101 10q-48 11 -69 38q-22 29 -28 56q-73 -51 -162 -78q-87 -27 -184 -8q-54 11 -92 43q-36 31 -62 71q-25 39 -32 70q-7 33 0 45q17 23 35 18q24 -6 49 -11q14 -4 39 2q30 7 50 17q23 11 49 27q24 15 40 31q35 39 39 76
t-12 47t-81 -11q-64 -21 -169 -99q-28 -21 -81 -67q-43 -37 -87 -81t-81 -87q-37 -42 -60 -83q-10 -16 -21 -14q-10 1 -18 11q-11 13 -14 24q-4 15 -3 22q1 6 16 34q28 53 32 60q5 9 19 33.5l22 38.5q34 60 38 68q39 67 47 80q37 61 87 144q53 88 107 175q25 39 104 171
q44 73 82 134q10 16 18.5 30.5t14.5 24.5l5 9q23 45 27 55q8 23 4 55q-5 35 19 72t51 72q27 34 46 24t40 -51q8 -17 3 -32q-4 -13 -10 -23q-12 -21 -20 -33q-5 -8 -16.5 -26t-17.5 -27q-7 -11 -40 -65q-4 -7 -39 -62q-29 -47 -97 -162l-105 -177q-16 -28 -51.5 -86
t-52.5 -87q-82 -140 -89 -151q-43 -73 -63 -109q-24 -43 -29 -50q-5 -6 0 -8t8 2q10 7 66 58q54 49 129 104q40 30 91 67q41 30 93 59q47 27 87 38q42 12 73 4q46 -12 50 -45q5 -34 -13 -72q-15 -33 -51 -74q-32 -36 -60 -57q-51 -36 -103 -52q-46 -14 -92 -19q-9 0 -8 -21
q1 -20 17 -45q17 -28 40 -49q26 -25 64 -35q77 -22 160 -1q78 20 151 69q0 21 10 51q9 28 26 50q19 25 40 42q25 20 51 27q44 12 54 -25q40 21 90 66t90 102q43 57 71 78q35 26 68 37q8 2 18 -4q10 -5 18 -19q7 -11 7 -25q0 -13 -8 -26q-73 -92 -127 -66zM768 106
q2 -23 19 -46q18 -23 69 -31q38 -6 72 6q32 11 63 34q26 19 51 49q22 27 35 52q31 61 35 113q4 53 0 114q-43 -50 -92 -96q-46 -43 -98 -72q1 -10 -6 -28q-10 -24 -21 -37q-18 -21 -33 -34q-18 -15 -39 -21q-12 -5 -26 -5q-13 0 -29 2z" />
    <glyph glyph-name="kz" unicode="kz" horiz-adv-x="1355" 
d="M913 299q39 18 104 43q10 4 48 18.5t58 22.5q72 29 97 40q44 20 70 40q-53 -14 -97 -16q-31 -1 -73 1q-12 1 -29 3t-21 2q-19 1 -26 -5q-10 -9 -26 -22q-8 -6 -18 -8q-9 -2 -24 0q-33 3 -48 4q-56 5 -69 13q-13 9 5 38q22 30 44 37q24 8 30 6q29 -9 78 -19q58 -12 87 -17
q43 -7 83 -9q41 -2 67 4q25 6 44 15q14 7 28 17q9 7 16 10t13 -1q24 -16 22 -30q-1 -12 -30 -33q-57 -37 -113 -64q-40 -19 -118 -55q-24 -11 -114 -50q-52 -23 -98 -51q-56 -32 -84 -64q-32 -37 -45 -60q-15 -26 -13 -40q1 -13 13 -3q29 22 70 28q38 6 63 -2q43 -15 66 -26
q41 -20 68 -29q37 -13 63 -17q27 -4 51 13q23 19 30 27q12 14 29 8q24 -8 9 -34q-15 -25 -56 -36q-37 -10 -75 -9t-76 9q-40 8 -69 19q-44 17 -56 22q-48 19 -88 7q-42 -12 -76 -42q-15 -14 -25 -13t-16 9t-9 21q-4 18 -5 26q-59 -37 -130 -49q-74 -13 -145 2q-54 11 -92 43
q-36 31 -62 71q-25 39 -32 70q-7 33 0 45q17 23 35 18q24 -6 49 -11q13 -4 39 1t51 16q27 12 51 27q27 17 41 31q35 39 39 72t-16 53q-16 16 -81 -8q-63 -24 -169 -102q-45 -33 -92 -77q-41 -39 -90 -89q-38 -39 -76 -86q-23 -28 -49 -66q-10 -16 -21 -14q-10 1 -19 12
q-11 13 -15 24q-4 14 -3 21q1 4 15 34q21 45 29 60q6 12 18.5 36t18.5 36q24 47 36 68q39 67 47 80q29 47 88 143q18 29 54.5 87t54.5 86q18 29 53.5 86t52.5 84q18 30 46 74.5t37 59.5q10 16 18.5 30.5t14.5 24.5l5 9q23 45 27 55q8 23 4 55q-5 35 19 72q28 45 50 72
q27 35 47 24q17 -9 39 -51q8 -18 4 -32q-4 -13 -10 -23q-12 -21 -20 -33q-5 -8 -16.5 -26t-17.5 -27q-7 -11 -40 -65q-4 -7 -39 -62q-29 -47 -97 -162l-105 -176q-20 -33 -54.5 -92t-46.5 -80q-16 -27 -45.5 -77.5t-42.5 -72.5q-51 -87 -63 -108q-24 -43 -29 -50
q-3 -7 -2 -8.5t6 2.5q12 8 69 58q58 51 130 104q40 30 91 67q41 30 93 59q47 27 87 38q42 12 73 4q46 -12 50 -45q5 -34 -13 -72q-15 -33 -51 -74q-32 -36 -60 -57q-51 -36 -103 -52q-46 -14 -92 -19q-9 0 -8 -21q1 -20 17 -45q17 -28 40 -49q26 -25 64 -35q63 -16 128 -11
q61 4 118 38q17 44 72 108q58 68 167 119z" />
    <glyph glyph-name="px" unicode="px" horiz-adv-x="1441" 
d="M1024 45q28 -16 89 -10q59 6 132 41q75 36 121 68q52 36 72 55q16 16 16 27t16 26q50 40 52 12q5 -30 -80 -92q-7 -5 -29.5 -21t-37.5 -27q-44 -32 -124 -71q-34 -16 -80 -31q-42 -14 -77 -21t-68 -7q-31 0 -49 6q-47 18 -68 61q-19 40 -32 113q-14 -10 -73 -51
q-50 -34 -97 -64q-91 -54 -140 -61q-54 -8 -82 6q-15 7 -22 19q-6 10 -4 19q1 8 9 16t17 8q18 2 23 -11l3.5 -10.5t4.5 -11.5q22 -21 66 -4q41 15 110 57q56 34 103 70q34 26 71 59q-11 87 -24 118q-17 41 -23 60q-6 17 -15 24q-3 3 -9.5 7t-8.5 6l-16 12q-8 7 -10 19
q-8 35 18 51q27 16 56 10q32 -6 47 -26q14 -18 30 -72q13 -49 16 -71q5 -30 15 -93q63 45 110 86q44 38 62 76q7 16 6 34q-1 17 17 40q28 34 59 45q30 11 51 -4q22 -16 10 -41q-13 -26 -47 -66q-28 -32 -59 -60q-40 -36 -59 -51q-20 -16 -66 -50q-60 -44 -78 -58
q7 -62 22 -105q13 -38 54 -61zM555 231h17q15 0 46 -10q11 -3 15.5 -6t3.5 -7q-2 -9 14 -20q23 -20 42 -28t20 8q0 8 -6 21t-23 27q-16 13 -44 24q-27 10 -69 12q26 41 41 76q17 39 21 73q5 36 -6 63q-11 28 -39 46q-29 17 -74 5q-44 -12 -100 -42q-45 -25 -115 -75
q-49 -36 -117 -91q-53 -43 -105 -92q-48 -45 -81 -78q-2 -2 -5 -1q-2 1 -1 5q7 14 28 47q25 40 45 73q8 14 24.5 40t24.5 40q10 16 37 71q6 10 10 23q5 15 -3 32q-14 29 -24.5 43t-17.5 13q-17 -2 -34 -23q-10 -13 -52 -67q-22 -29 -12 -62q6 -23 -3 -45q-10 -25 -21 -47
q-18 -36 -60 -108q-13 -22 -38 -67.5t-35 -62.5q-102 -180 -157 -279q-55 -100 -165 -294q-141 -249 -156 -275q-66 -116 -126 -217q-17 -29 -15 -47q1 -16 33 -57q15 -18 26 -13q10 5 20 26q8 18 18 47q8 25 20 50q30 64 80 161q54 106 96 184q34 63 106 193q52 94 106 188
q18 32 51.5 89.5t47.5 82.5q39 69 84 140q16 22 41 50q8 9 27 28.5t29 30.5q34 36 65 64q48 43 95 82q58 48 109 87q62 47 106 74q49 29 89 45q39 15 58 2q28 -22 4 -85q-22 -57 -78 -134q-59 2 -113 -5q-65 -8 -114 -24q-56 -18 -105 -48q-52 -31 -84 -72q-30 -38 -22 -76
q7 -36 65 -47q74 -12 159 12q84 24 149 76q33 25 75 67q39 39 72 84zM352 135q-54 -47 -115 -84q-63 -37 -122 -33q-50 5 -56 28q-6 22 13 50q28 40 73 68q47 28 102 47q62 21 110 27q57 7 100 6q-30 -38 -49 -57q-31 -31 -56 -52z" />
    <glyph glyph-name="qf" unicode="qf" horiz-adv-x="1384" 
d="M-86 -1020q93 108 117 138q66 81 101 127q51 67 94 128q49 69 93 142q55 88 70 117q27 52 29 57q21 44 12 53t-29 10q-42 -1 -72 -42q-29 -40 -40 -85q-6 -14 -3 -24q4 -14 7 -21q4 -9 4 -23q0 -13 -12 -34q-74 -138 -171 -254q-88 -106 -190 -211q6 33 26 91
q26 78 43 124q32 87 59 150q41 96 77 167q150 305 254 464q100 152 154 169q16 4 34 25q19 22 29 55q15 47 3 75q-17 37 -25 50q-13 19 -21 11q-10 -10 -14 -17q-1 -1 -12 -18.5t-21 -32.5q-24 -39 -94 -109q-39 -39 -97 -84q-71 -55 -121 -86q-58 -36 -116 -59
q-52 -21 -76 -2q-20 15 -12 53q7 35 38 83q28 43 77 97q45 50 104 96q85 65 152 94q66 29 122 32q53 3 88 -18q36 -22 52 -58q11 -24 18 -35q8 -12 25 -6q16 6 17 20t-5 25q-28 55 -82 81q-57 27 -128 26q-77 -2 -158 -30q-84 -29 -167 -90q-57 -40 -105 -94
q-54 -61 -81 -113q-31 -61 -34 -110q-3 -51 38 -80q26 -20 72 -11q44 9 95 35q52 27 101 60q57 38 94 69q46 38 70 58q25 21 33 29q4 4 7 2q4 -2 -1 -8q-11 -14 -32.5 -44t-29.5 -40q-28 -38 -78 -117q-45 -72 -98 -167q-63 -114 -124 -237q-104 -209 -160 -355
q-55 -142 -70 -243q-2 -12 2 -27q4 -17 14 -30q9 -13 23 -14q15 -1 31 16zM1036 57q10 -40 -11 -127q-21 -86 -63 -189q-41 -102 -101 -212q-58 -108 -125 -194q-66 -85 -135 -132t-132 -30q-59 16 -80 68t-10 132q11 85 47 185q40 111 93 222q60 124 128 245
q68 120 150 256q51 85 105 165q98 144 104 153q5 8 40 59t52 75q38 54 71 111q28 45 36 69q11 34 13 44q2 11 4 33q2 19 7 38q9 34 28 62q22 32 45 56q26 27 47 42q24 16 42 18q55 7 65 -8q10 -16 -20 -61q-11 -15 -65 -96q-17 -25 -58.5 -88t-65.5 -100q-52 -78 -176 -271
q-110 -170 -219 -346q-123 -198 -211 -368q-91 -177 -144 -318q-53 -143 -56 -231q-3 -92 57 -110q43 -12 100 29t116 116q57 73 113 173q60 108 97 200q41 103 60 196q19 94 7 163q-6 41 -17 61q-15 29 -20 40q-10 24 -13 37q-5 21 1 50q6 31 16 37q11 6 25 -5
q15 -12 31 -37t33 -60q10 -20 10 -36t-3 -28q-2 -9 -4 -23q-1 -10 7 -22q51 -71 135 -69q49 1 99 29q48 26 87 81q12 18 13 30q1 13 18 30q55 52 59 20q4 -20 -11 -40q-13 -17 -62 -66q-45 -45 -96 -74q-54 -31 -105 -35q-82 -6 -158 51z" />
    <glyph glyph-name="qp" unicode="qp" horiz-adv-x="1509" 
d="M-86 -1020q-16 -17 -31 -16q-14 1 -23 14q-10 13 -14 30q-4 15 -2 27q15 101 70 243q56 146 160 355q61 123 124 237q53 95 98 167q50 79 78 117q8 10 29.5 40t32.5 44q5 6 1 8q-3 2 -7 -2q-8 -8 -33 -29q-24 -20 -70 -58q-37 -31 -94 -69q-49 -33 -101 -60
q-51 -26 -95 -35q-46 -9 -72 11q-41 29 -38 80q3 49 34 110q27 52 81 113q48 54 105 94q83 61 167 90q81 28 158 30q71 1 128 -26q54 -26 82 -81q6 -11 5 -25t-17 -20q-17 -6 -25 6q-7 11 -18 35q-16 36 -52 58q-35 21 -88 18q-56 -3 -122 -32q-67 -29 -152 -94
q-59 -46 -104 -96q-49 -54 -77 -97q-31 -48 -38 -83q-8 -38 12 -53q24 -19 76 2q58 23 116 59q50 31 121 86q58 45 97 84q70 70 94 109q10 15 21 32.5t12 18.5q4 7 14 17q8 8 21 -11q8 -13 25 -50q12 -28 -3 -75q-10 -33 -29 -55q-18 -21 -34 -25q-54 -17 -154 -169
q-104 -159 -254 -464q-36 -71 -77 -167q-27 -63 -59 -150q-17 -46 -43 -124q-20 -58 -26 -91q46 47 92 104q57 70 92 123q41 63 80 137q38 74 62 146q8 25 7 36q-1 13 -6 22l-10 19q-4 9 -3 23q6 46 27 93t63 53q20 4 29 -5t-3 -57q-4 -9 -19 -59q-14 -48 -48 -127
q-34 -82 -74 -158q-39 -74 -84 -144q-48 -76 -98 -141q-44 -58 -117 -143zM1157 135q19 16 55 52q24 24 50 57q-43 1 -100 -6q-48 -6 -110 -27q-56 -19 -102 -47q-45 -28 -73 -68q-19 -28 -13 -50q6 -23 56 -28q58 -4 121 33q65 38 116 84zM737 20q-46 -75 -156 -260
q-96 -161 -168 -290q-37 -66 -159 -286q-70 -126 -127 -247q-8 -17 -19 -50q-7 -21 -19 -47q-10 -21 -20 -26q-11 -5 -26 13q-32 41 -33 57q-2 18 15 47q33 54 134 225q31 53 94 162.5t73 126.5q88 153 177 309q97 170 161 287q10 17 35 62.5t38 67.5q42 72 60 108
q11 22 21 47q9 22 3 45q-10 33 12 62q42 54 52 67q17 21 34 23q7 1 17.5 -13t24.5 -43q8 -17 3 -32q-4 -13 -10 -23q-22 -44 -38 -71q-8 -14 -24 -40t-24 -40q-20 -33 -45 -73q-21 -33 -28 -47q-1 -4 1 -5q3 -1 5 1q33 33 81 78q52 49 105 92q68 55 117 91q70 50 115 75
q56 30 100 42q45 12 74 -5q28 -18 39 -46q11 -27 6 -63q-5 -35 -22 -73q-17 -37 -42 -76q39 -6 60 -16q31 -14 51 -25q44 -22 71 -49q26 -27 25 -43q-1 -27 -51 12q-17 16 -20 28t-21 23q-39 21 -61 31q-29 13 -68 20q-31 -43 -72 -85q-37 -38 -76 -68q-65 -53 -148 -76
q-86 -24 -159 -12q-58 11 -65 47q-8 38 22 76q32 41 84 72q50 30 105 48q49 16 114 24q54 7 113 5q56 77 78 134q24 63 -4 85q-19 13 -58 -2q-40 -16 -89 -45q-50 -30 -106 -73q-35 -27 -109 -88q-47 -39 -95 -82q-38 -34 -66 -64q-7 -8 -26 -28.5t-28 -30.5
q-19 -21 -38 -50z" />
    <glyph glyph-name="qy" unicode="qy" horiz-adv-x="1538" 
d="M797 184q-35 -51 -48 -87t3 -46q8 -6 25 -6q21 0 48 11q34 14 76 36t107 70q104 75 170 141q67 67 102 125q24 42 38 71q15 32 38 17q8 -6 14 -16q7 -11 15 -29q8 -17 9 -37q1 -16 -8 -41q-14 -32 -22 -47q-12 -22 -41 -33q-31 -11 -42 -32l-28 -56l-151 -295
q177 55 280 117q106 64 144 92q15 11 20 40q4 27 21 42q20 18 43 31q17 10 22 -19q4 -17 -24 -54q-27 -36 -70 -66q-5 -4 -13 -9t-19.5 -13.5t-20.5 -14.5q-35 -24 -90 -54q-59 -32 -132 -62q-78 -32 -178 -62q-56 -108 -115 -214q-74 -135 -134 -229q-90 -141 -193 -249
q-101 -106 -199 -165q-102 -62 -189 -73q-92 -12 -161 33q-68 44 -74 137q-24 -30 -65 -88q-29 -41 -41 -70q-10 -22 -24 -21q-13 1 -24 15t-19 33q-7 18 -3 28q4 14 14.5 52t17.5 60q23 78 44 134q31 85 64 161q34 80 90 191q61 123 124 237q53 95 98 167q50 79 78 117
q8 10 29.5 40t32.5 44q5 6 1 8q-3 2 -7 -2q-8 -8 -33 -29q-24 -20 -70 -58q-37 -31 -94 -69q-49 -33 -101 -60q-51 -26 -95 -35q-46 -9 -72 11q-41 29 -38 80q3 49 34 110q27 52 81 113q48 54 105 94q83 61 167 90q81 28 158 30q71 1 128 -26q54 -26 82 -81q6 -11 5 -25
t-17 -20q-17 -6 -25 6q-7 11 -18 35q-16 36 -52 58q-35 21 -88 18q-56 -3 -122 -32q-67 -29 -152 -94q-59 -46 -104 -96q-49 -54 -77 -97q-31 -48 -38 -83q-8 -38 12 -53q24 -19 76 2q58 23 116 59q50 31 121 86q58 45 97 84q70 70 94 109q10 15 21 32.5t12 18.5q4 7 14 17
q8 8 21 -11q8 -13 25 -50q12 -28 -3 -75q-10 -33 -29 -55q-18 -21 -34 -25q-54 -17 -154 -169q-104 -159 -254 -464q-87 -176 -134 -308q-51 -141 -71 -206q32 43 96 113q7 73 56 166q46 88 137 168q83 76 168 127q93 55 186 96q90 40 208 80q109 38 237 78l198 385q4 5 1 7
q-3 1 -7 -3q-28 -24 -64 -55q-35 -31 -110 -84q-8 -5 -19 -13t-26.5 -19.5t-27.5 -19.5q-43 -30 -96 -61q-51 -29 -98 -47q-49 -18 -79 -8q-45 12 -47 47q-2 36 16 75q16 36 44 74q25 34 36 51q12 16 39 56q23 34 19 67q-5 35 19 72q28 45 50 72q27 34 46 24t40 -51
q8 -17 3 -32q-5 -16 -9 -23q-2 -3 -5.5 -8.5t-9.5 -15.5t-11 -18q-20 -32 -42 -69q-4 -7 -20 -33t-24 -40q-20 -34 -31 -50zM762 -522q66 102 130 210q57 96 103 187q-163 -55 -216 -74q-107 -38 -200 -81q-94 -43 -183 -97q-82 -50 -160 -121q-76 -67 -121 -140
q-43 -70 -58 -136q38 38 93 88q49 44 100 82q40 29 77 54q39 26 55 36q22 14 40 22l33 15q47 17 55 8q8 -8 6 -31q-1 -42 -44 -69q-41 -26 -85 -37q-14 -4 -27 -2l-20 4q-12 2 -23 -1q-7 -2 -32 -16q-61 -40 -119 -91q-70 -61 -115 -113q0 -44 17 -80q17 -35 51 -56
q55 -33 136 -10q79 22 169 86q84 60 176 158q90 96 162 205z" />
    <glyph glyph-name="tt" unicode="tt" horiz-adv-x="716" 
d="M848 893q81 0 116 7q37 7 62 20q29 15 33 22q6 11 16 19q26 22 47 22q15 0 16 -16t-10 -23q-39 -23 -69 -37q-27 -12 -67 -21q-35 -8 -71 -9q-38 -2 -83 0q-99 -154 -161 -246q-77 -113 -151 -246q-24 -43 -58 -111t-54 -113q-24 -54 -42 -96q-19 -44 -20 -57
q-2 -9 -5.5 -13.5t-9.5 -3.5q-13 2 -23 12q-11 11 -20 26q-9 14 -7 22q1 6 20 47q16 34 47 95q1 2 64 117q30 54 65 116q28 49 68 113q17 28 76 118q10 15 35.5 55t39.5 61q50 76 70 106q-82 5 -145 14q-94 13 -152 22q-87 -139 -91 -146q-66 -103 -82 -128
q-27 -41 -77 -123q-26 -43 -75 -133q-35 -63 -58 -111q-9 -18 -27 -56l-27 -57q-20 -43 -43 -96q-19 -44 -20 -57q-2 -9 -5.5 -13.5t-9.5 -3.5q-11 1 -22 12q-14 14 -21 26q-9 14 -7 22q1 6 20 47q16 34 47 95q1 2 64 117q30 54 65 116q66 107 82 132q51 81 86 134
q56 84 81 125q54 86 67 109q-15 2 -62 7q-26 3 -43 1q-27 -4 -48 -9t-40 -28q-22 -23 -54 -29q-38 -7 -69 -8q-34 -4 -37 8t9 47q7 22 38 36q32 15 65 20q38 6 72 5q35 -1 58 -3l20 -2t16 -2t8 -1t7 -0.5t7 -1.5q5 -2 17 -3q4 0 22 -3.5t34 -5.5q10 18 20.5 35.5t21 35.5
t14.5 25q18 32 29 58q11 28 12 37q1 15 0 33q-4 34 19 71q28 45 50 72q27 35 46 25q18 -10 40 -52q7 -16 3 -31q-5 -18 -9 -24q-39 -70 -96 -145q-59 -78 -103 -152q11 -2 34.5 -6.5t35.5 -6.5q52 -10 79 -14q58 -9 79 -11q55 -6 67 -7q101 161 146 248q46 89 39 123
q-6 34 15 73q20 37 44 74q24 35 45 27q20 -7 43 -49q10 -15 6 -31q-6 -21 -8 -25q-10 -20 -49 -89q-21 -37 -68 -112q-13 -21 -38 -62.5t-37 -60.5q-61 -99 -74 -120z" />
    <glyph glyph-name="yg" unicode="yg" horiz-adv-x="1648" 
d="M61 184q-35 -51 -48 -87t3 -46q7 -6 26 -6q20 0 48 11q34 14 76 36q38 20 106 70q104 75 170 141q69 69 103 125q24 42 38 71q15 32 38 17q8 -6 14 -16q7 -11 15 -29q6 -14 8 -37q1 -18 -7 -41q-14 -32 -22 -47q-12 -22 -41 -33q-31 -11 -41 -33q-11 -25 -29 -55
q-8 -13 -49 -96q-67 -136 -98 -197q162 51 269 112q102 59 142 91q23 70 83 144q57 69 130 122q82 59 166 88q87 30 156 31q72 2 128 -22q55 -23 85 -70q14 -21 9 -38q-5 -15 -21 -21q-17 -6 -25 6q-7 11 -18 35q-16 36 -52 58q-35 21 -88 18q-57 -3 -123 -32
q-65 -28 -151 -94q-62 -49 -105 -96q-46 -50 -76 -97q-31 -48 -38 -83q-8 -38 12 -53q23 -19 78 2q58 22 118 59q57 35 124 86q62 46 96 84q68 71 90 107q16 26 24 45q1 6 9 14q10 10 26 -8q17 -23 23 -59q6 -37 -4 -64q-6 -10 -10 -22t-12 -25q-10 -16 -15 -21
q-8 -8 -17 -6q-6 0 -19 -21q-7 -11 -34 -61q-7 -13 -47 -93q-6 -12 -17.5 -35.5t-21.5 -43.5t-20 -39q177 55 280 117q106 64 144 92q15 11 20 40q5 27 21 42q20 18 43 31q17 10 22 -19q5 -17 -24 -54q-27 -36 -70 -66q-5 -4 -13 -9t-19.5 -13.5t-20.5 -14.5
q-34 -24 -90 -54t-133 -62q-81 -33 -177 -62q-56 -108 -115 -214q-67 -122 -135 -229q-92 -144 -192 -249q-101 -106 -199 -165q-102 -62 -189 -73q-92 -12 -161 33q-46 28 -64 87t-5 130q13 69 61 151q47 80 127 154q83 76 168 127q93 55 186 96q90 40 208 80
q110 38 237 78q66 132 91 188q38 84 66 141q5 11 1 13q-3 2 -9 -4q-43 -41 -106 -90q-68 -53 -136 -94q-69 -42 -132 -60t-97 6q-23 17 -32 39q-9 23 -5 51q-45 -32 -148 -88q-101 -55 -274 -106q-52 -101 -119 -216q-51 -87 -137 -229q-84 -133 -197 -255
q-110 -119 -229 -192q-118 -73 -227 -86q-112 -14 -195 62q-58 50 -70 128q-12 73 16 156q27 82 90 161q61 77 149 145q89 68 174 114q81 44 184 83q94 35 216 68q145 38 270 67q39 74 110 213q18 36 92 178q1 4 0 4q-2 0 -4 -2q-29 -24 -65 -56q-33 -29 -117 -89
q-8 -5 -19 -13t-26.5 -19.5t-27.5 -19.5q-43 -30 -96 -61q-51 -29 -98 -47q-49 -18 -79 -8q-45 12 -47 47q-2 36 16 75q16 36 44 74q26 34 36 51q12 16 39 56q22 33 18 67t20 72q28 45 50 72q27 34 46 24t40 -51q8 -17 3 -32q-5 -16 -9 -23q-2 -3 -5.5 -8.5t-9.5 -15.5
t-11 -18q-19 -32 -42 -69q-4 -7 -20 -33t-24 -40q-15 -26 -32 -50zM-541 -444q-67 -51 -120 -123q-55 -76 -81 -146q-28 -76 -25 -138q3 -64 48 -103q69 -61 168 -43q98 18 202 87q105 70 202 173q100 106 172 215q38 60 119 195q62 104 116 202q-132 -30 -236 -58
q-105 -29 -207 -68q-94 -36 -187 -85q-88 -46 -171 -108zM885 -522q66 102 130 210q57 96 103 187q-88 -27 -169 -55q-96 -34 -206 -83q-104 -47 -208 -108q-108 -63 -177 -127q-74 -67 -119 -141q-45 -75 -58 -134q-13 -62 2 -113q15 -50 59 -74q56 -33 136 -11
q79 22 169 86q84 60 176 158q90 96 162 205z" />
    <glyph glyph-name="yj" unicode="yj" horiz-adv-x="1183" 
d="M-541 -444q-70 -53 -121 -123q-53 -73 -80 -146q-28 -76 -25 -138q3 -64 48 -103q59 -50 137 -46q77 4 164 50q-33 56 -39 117q-6 60 13 127q18 65 58 127q42 66 99 114q97 86 218 137q126 53 270 97l59 106q-132 -30 -236 -58q-105 -29 -207 -68q-94 -36 -187 -85
q-88 -46 -171 -108zM98 -545q-84 -131 -186 -242q-105 -115 -215 -190q74 -41 168 -14q93 27 191 96t190 169q97 105 162 204q55 83 124 198q67 112 113 199q-98 -34 -189 -61q-92 -27 -177 -54q-10 -17 -28 -47t-33 -56t-29 -49q-57 -98 -91 -153zM-258 -483
q-54 -50 -91 -111q-36 -59 -49 -119t-6 -113q8 -57 37 -96q110 69 212 175q103 108 180 225q70 115 74 122q37 59 79 130q-139 -45 -247 -93q-114 -51 -189 -120zM754 80q-47 -31 -150 -84q-95 -49 -250 -96l-55 -103q98 28 175 51q26 8 89 27.5t99 30.5q2 4 20 37.5
t27 50.5zM782 133q22 38 34 58q5 8 32 57q12 22 18 48q6 27 2 60q-4 34 20 72q28 45 50 72q27 34 46 24t40 -51q8 -17 3 -33t-9 -24q-24 -43 -69 -125.5t-66 -120.5q-56 -101 -131 -238q171 51 277 115q96 58 142 92q16 12 21 40t20 42q20 18 43 31q18 11 23 -19
q4 -16 -25 -54q-29 -37 -69 -66q-19 -13 -54 -37q-36 -25 -89 -53q-64 -34 -130 -61q-84 -34 -176 -62q-43 -84 -114 -212q-62 -112 -140 -233q-84 -133 -197 -255q-110 -119 -229 -192q-118 -73 -227 -86q-112 -14 -195 62q-106 -59 -205 -64q-100 -5 -178 64
q-58 50 -70 128q-12 73 16 156q27 82 90 161q61 77 149 145q89 68 174 114q81 44 184 83q94 35 216 68q145 38 270 67q39 74 110 213q18 36 92 178l1 5q-1 1 -5 -3q-26 -26 -64 -57q-39 -32 -118 -88q-8 -5 -19 -13t-26.5 -19.5t-27.5 -19.5q-43 -30 -96 -61
q-51 -29 -98 -47q-49 -18 -79 -8q-45 12 -47 47q-2 36 16 75q16 36 44 74q26 34 36 51q12 16 39 56q22 33 18 67t20 72q28 45 50 72q27 34 46 24t40 -51q8 -17 3 -32q-5 -16 -9 -23q-2 -3 -5.5 -8.5t-9.5 -15.5t-11 -18q-19 -32 -42 -69q-4 -7 -20 -33t-24 -40
q-15 -26 -32 -50q-35 -51 -48 -87t3 -46q7 -6 26 -6q20 0 48 11q34 14 76 36q38 20 106 70q104 75 170 141q69 69 103 125q24 42 38 71q15 32 38 17q8 -6 14 -16q7 -11 15 -29q6 -14 8 -37q1 -18 -7 -41q-14 -32 -22 -47q-12 -22 -41 -33q-23 -8 -38 -32q-10 -16 -32 -56
l-50 -100q-43 -87 -97 -193q159 49 267 109q95 53 144 92zM1112 750l12 -20q12 -22 15 -29q5 -14 7 -31q1 -15 -5 -31q-22 -42 -49 -53t-50 18t-18 47q5 19 33 62q10 16 10 20q0 6 4 15q5 13 18 14q14 2 23 -12z" />
    <glyph glyph-name="yx" unicode="yx" horiz-adv-x="1503" 
d="M-545 -444q-70 -53 -121 -123q-53 -73 -80 -146q-28 -76 -25 -138q3 -64 48 -103q69 -61 168 -43q98 18 202 87q102 68 201 173q100 106 172 215q57 90 120 195q62 104 116 202q-137 -31 -237 -58q-102 -28 -206 -68q-94 -36 -187 -85q-88 -46 -171 -108zM367 -68
q171 46 310 113t251 172q-11 84 -25 118q-13 31 -22 60q-6 15 -16 24q-3 3 -9 7t-8 6l-17 12q-8 7 -10 19q-8 35 19 51q26 16 55 10q32 -6 47 -26q16 -20 31 -72q10 -40 15 -71q2 -10 7.5 -41.5t8.5 -51.5q57 41 109 86q46 40 63 76q7 16 6 34q-2 18 16 40q28 34 59 45
t52 -4q22 -16 10 -41q-13 -26 -47 -66q-25 -29 -60 -62q-39 -37 -59 -53t-66 -50q-42 -31 -77 -54q7 -65 21 -104q14 -40 54 -62q28 -16 90 -10q59 6 132 41q72 34 120 68q52 36 72 55q17 17 17 27q0 11 16 26q50 39 51 12q4 -32 -80 -94q-34 -25 -66 -47q-46 -32 -124 -70
q-34 -16 -80 -31q-41 -14 -78 -21q-35 -7 -68 -7q-31 0 -49 6q-46 18 -67 62t-33 112q-73 -56 -130 -92q-71 -44 -131 -70q-71 -31 -148 -57q-87 -29 -179 -57q-44 -86 -120 -216q-73 -126 -136 -229q-84 -133 -197 -255q-110 -119 -229 -192q-118 -73 -227 -86
q-112 -14 -195 62q-58 50 -70 128q-12 73 16 156q27 82 90 161q61 77 149 145q89 68 174 114q81 44 184 83q94 35 216 68q151 40 269 67q71 131 111 209q51 98 88 176q2 7 0.5 8t-6.5 -4q-25 -24 -65 -56q-84 -65 -111 -85q-8 -5 -19 -13t-26.5 -19.5t-27.5 -19.5
q-37 -26 -96 -62q-44 -27 -98 -47q-48 -18 -79 -7q-41 15 -42 49q-2 35 15 74q15 36 41 73q30 43 35 51q12 16 39 56q22 33 18 67t20 72q28 45 50 72q27 34 46 24t40 -51q8 -17 3 -32q-5 -16 -9 -23q-2 -3 -5.5 -8.5t-9.5 -15.5t-11 -18q-19 -32 -42 -69q-6 -10 -21 -34.5
t-23 -37.5q-19 -32 -32 -51q-35 -51 -48 -87t3 -46q8 -6 26 -6q20 0 48 11q34 14 76 36q38 20 106 70q104 75 170 141q69 69 103 125q24 42 38 71q15 32 37 17q9 -7 15 -16q7 -11 15 -29q6 -14 8 -37q1 -18 -7 -41q-18 -40 -22 -49q-13 -25 -41 -31q-24 -5 -38 -29
q-17 -28 -32 -59q-18 -34 -50 -99q-54 -110 -97 -194z" />
    <glyph glyph-name="yy" unicode="yy" horiz-adv-x="1640" 
d="M899 184q-35 -51 -48 -87t3 -46q8 -6 26 -6q21 0 48 11q34 14 76 36q38 20 106 70q104 75 170 141q67 67 102 125q24 42 38 71q15 32 38 17q9 -7 15 -16q7 -11 15 -29q6 -14 8 -37q1 -18 -7 -41q-9 -22 -23 -47q-12 -22 -41 -33q-31 -11 -42 -32l-27 -56l-152 -295
q180 56 281 117t143 92q16 12 21 40t20 42q20 18 43 31q18 11 23 -19q4 -16 -25 -54q-27 -36 -70 -66q-30 -20 -53 -36q-28 -20 -90 -53q-55 -30 -132 -63t-177 -63q-39 -75 -116 -214q-74 -135 -134 -229q-90 -141 -193 -249q-103 -107 -198 -165q-101 -61 -190 -73
q-91 -12 -160 33q-47 29 -65 87q-18 57 -4 130q13 71 60 151t127 154q83 76 168 127q90 53 187 96q90 40 208 80q122 42 236 78l98 188q22 42 67 130q31 61 32 63q2 6 0 7t-8 -3q-41 -32 -65 -53q-34 -30 -105 -82q-8 -5 -19 -13t-26.5 -19.5t-27.5 -19.5q-43 -30 -96 -61
q-49 -28 -99 -47q-49 -18 -79 -8q-36 11 -43 33q-8 24 0 55q-59 -38 -147 -82q-96 -47 -242 -92q-44 -86 -120 -216q-73 -126 -136 -229q-84 -133 -197 -255q-110 -119 -229 -192q-118 -73 -227 -86q-112 -14 -195 62q-58 50 -70 128q-12 73 16 156q27 82 90 161
q61 77 149 145q89 68 174 114q81 44 184 83q94 35 216 68q145 38 270 67q60 113 104 206q42 88 92 173q5 8 0 11q-4 3 -10 -3q-13 -13 -63 -57q-32 -28 -107 -82q-8 -5 -19 -13t-26.5 -19.5t-27.5 -19.5q-43 -30 -96 -61q-51 -29 -98 -47q-49 -18 -79 -8q-45 12 -47 47
q-2 36 16 75q16 36 44 74q26 34 36 51q12 16 39 56q22 33 18 67t20 72q28 45 50 72q27 34 46 24t40 -51q8 -17 3 -32q-5 -16 -9 -23q-2 -3 -5.5 -8.5t-9.5 -15.5t-11 -18q-19 -32 -42 -69q-6 -10 -21 -34.5t-23 -37.5q-19 -32 -32 -51q-35 -51 -48 -87t3 -46q7 -6 26 -6
q20 0 48 11q34 14 76 36q38 20 106 70q104 75 170 141q69 69 103 125q24 42 38 71q15 32 38 17q8 -6 14 -16q7 -11 15 -29q6 -14 8 -37q1 -18 -7 -41q-14 -32 -22 -47q-12 -22 -41 -33q-31 -11 -41 -33q-11 -25 -29 -55q-8 -13 -49 -96q-67 -136 -98 -197q145 45 244 100
t145 87q18 35 42 66q21 28 34 48q6 9 20 29.5t18 26.5q23 34 19 67q-5 35 19 72q24 38 51 72t46 24t40 -51q8 -17 3 -32q-4 -13 -10 -23q-12 -21 -25 -42q-19 -32 -42 -69q-4 -7 -20 -33t-24 -40q-15 -26 -32 -50zM-541 -444q-70 -53 -121 -123q-53 -73 -80 -146
q-28 -76 -25 -138q3 -64 48 -103q46 -40 108 -45q61 -5 127 18q65 22 136 70q73 49 136 108q69 64 127 134q57 69 110 147q38 60 119 195q62 104 116 202q-132 -30 -236 -58q-105 -29 -207 -68q-94 -36 -187 -85q-88 -46 -171 -108zM864 -522q66 102 130 210t104 187
q-88 -27 -169 -55q-96 -34 -206 -83q-109 -49 -209 -108q-105 -62 -176 -127q-76 -69 -120 -141q-44 -73 -57 -134q-13 -62 2 -113q15 -50 58 -74q56 -33 136 -11q79 22 169 86q84 60 176 158q90 96 162 205z" />
    <glyph glyph-name="zx" unicode="zx" horiz-adv-x="1275" 
d="M31 39q-48 19 -88 7q-42 -12 -76 -42q-25 -23 -38 -11t-19 44q-5 17 7 46q11 28 40 66q28 37 76 76q49 40 120 74q39 18 104 43q10 4 48 18.5t58 22.5q63 25 96 40q46 21 71 40q-53 -14 -97 -16q-19 -1 -73 2q-12 1 -31 3l-19 1q-20 2 -26 -4q-19 -17 -26 -23
q-8 -6 -18 -8q-9 -2 -24 0q-33 3 -48 4q-56 5 -69 13q-13 9 5 38q22 30 44 37q24 8 30 6q29 -9 78 -19q58 -12 87 -17q43 -7 83 -9q41 -2 67 4q25 6 44 15q14 7 28 17q9 7 16 10t13 -1q24 -16 22 -30q-1 -11 -31 -33q-59 -39 -112 -64q-40 -19 -118 -55q-24 -11 -114 -50
q-52 -23 -98 -51q-55 -31 -81 -62q-28 -33 -38 -55q-10 -24 -6 -36q5 -12 16 -2q32 24 61 31t52 -5q117 -59 220 -67t210 37q43 18 74 37q42 25 64 41q6 4 25 17t27 19q21 16 33 27q-11 87 -24 118q-17 41 -23 60q-6 17 -15 24q-3 3 -9 7t-8 6l-17 12q-8 7 -10 19
q-8 35 18 51q27 16 56 10q32 -6 47 -26q14 -18 30 -72q13 -49 16 -71q5 -30 15 -93q63 45 110 86q44 38 62 76q7 16 6 34q-1 17 17 40q28 34 59 45q30 11 51 -4q23 -17 11 -41q-12 -23 -48 -66q-30 -35 -59 -62q-39 -37 -59 -53t-66 -50q-34 -25 -78 -54q7 -62 22 -105
q13 -38 54 -61q28 -16 89 -10q59 6 132 41q75 36 121 68q52 36 72 55q16 16 16 27t17 26q49 39 51 12q4 -32 -80 -94q-18 -13 -67 -47q-46 -32 -124 -70q-44 -20 -79 -32q-33 -11 -78 -20q-35 -7 -68 -7q-31 0 -49 6q-47 18 -68 61q-19 40 -32 113q-20 -14 -83 -54
q-63 -39 -145 -73q-42 -18 -86 -32q-49 -16 -102 -20q-57 -5 -121 4q-60 8 -143 40z" />
    <glyph glyph-name=".notdef" horiz-adv-x="606" 
 />
    <glyph glyph-name=".null" horiz-adv-x="0" 
 />
    <glyph glyph-name=".null" horiz-adv-x="0" 
 />
    <glyph glyph-name="nonmarkingreturn" unicode="&#xd;" horiz-adv-x="606" 
 />
    <glyph glyph-name="space" unicode=" " horiz-adv-x="606" 
 />
    <glyph glyph-name="exclam" unicode="!" horiz-adv-x="600" 
d="M221 209q-12 -27 -19 -34q-9 -9 -18 -7q-8 2 -16 11q-12 14 -16 20q-19 26 -15 41t15 32q15 31 56 98q33 55 104 170q23 37 67.5 109t58.5 94q102 165 124 199l52.5 84t45.5 72q43 66 47 75q19 35 31 66q9 25 5 68q-6 43 23 87q30 46 59 85q33 41 57 27t48 -60
q10 -18 4 -37t-12 -29t-24 -39q-30 -48 -41 -64q-9 -14 -49 -77q-10 -16 -26.5 -44t-19.5 -32q-65 -109 -168 -275q-106 -171 -165 -269q-57 -95 -133 -227q-57 -99 -75 -144zM76 119q34 -6 51 -33t6 -51q-17 -47 -43 -61q-26 -15 -59 6q-21 12 -26 20t0 18t15 24
q12 16 23 36q2 8 2 14q0 11 1 16q1 7 7 10q5 3 23 1z" />
    <glyph glyph-name="quotedbl" unicode="&#x22;" horiz-adv-x="319" 
d="M289 1264q-2 -13 -4 -33.5t-3 -26.5q-2 -19 -14 -69q-5 -22 -12 -32.5t-17 -9.5q-21 2 -28 42l-12 57q-7 35 -11 63q-5 56 50 62q28 2 41 -11t10 -42zM123 1264q-2 -13 -4 -33.5t-3 -26.5q-2 -19 -14 -69q-5 -22 -12 -32.5t-17 -9.5q-21 2 -28 42l-12 57q-5 22 -10 63
q-5 56 49 62q28 2 41 -11t10 -42z" />
    <glyph glyph-name="numbersign" unicode="#" horiz-adv-x="997" 
d="M862 1245q7 13 21 16q11 2 28 -3q16 -5 23 -15q8 -11 4 -22q-13 -31 -42 -107q-9 -24 -28 -71t-28 -70h192q13 0 15 -14q1 -13 -3 -28q-5 -17 -13 -29q-9 -13 -21 -13h-203l-137 -340h188q12 0 13 -13q2 -14 -3 -29q-5 -18 -14 -29q-10 -13 -23 -13h-47q-24 0 -36 -1
t-43 -1h-68q-12 -29 -39.5 -97.5t-38.5 -97.5q-29 -77 -35 -84q-6 -13 -20 -14t-29 3q-14 4 -22 15t-4 25q1 3 4.5 13t10.5 29t15 39q17 44 68 169h-201q-62 -156 -77 -195q-32 -82 -33 -84q-6 -13 -21 -14t-28 3t-22 15t-5 25q1 3 4.5 13t10.5 29t15 39q17 44 68 169h-46
q-33 0 -49 1q-7 0 -20.5 0.5t-19.5 1.5q-11 1 -19 1q-13 2 -14 15q-2 16 2 29q5 18 14 28q10 12 23 12h166l135 336q-92 0 -129 1q-55 1 -61 3q-11 2 -14 15q-3 15 1 29q5 17 15 28q10 12 22 12h201l108 270q7 13 21 16q11 2 29 -3q14 -4 23 -15q9 -10 3 -22
q-1 -1 -16.5 -40.5t-26.5 -65.5q-33 -79 -57 -140q69 0 102 -1t103 -1zM584 551l135 336h-203q-29 -72 -67 -169q-22 -57 -66 -167h201z" />
    <glyph glyph-name="dollar" unicode="$" horiz-adv-x="802" 
d="M449 258q53 16 103 44q47 27 81 65q32 37 46 82q13 44 1 94q-12 43 -55 70q-45 28 -99 47q-74 26 -113 38q-59 18 -100 47q-45 29 -48 78t29 101q31 49 95 97q63 47 150 71q14 4 35 7q27 4 36 5q3 13 14 39q9 23 15 39q12 30 33 33q28 4 49 4q27 0 6 -26q-18 -22 -53 -87
q55 -1 101 -19q50 -19 72 -35q29 -21 37 -39q9 -20 -3 -28q-37 -24 -52 -54q-15 -29 -45 -46q-15 -8 -26 2q-12 10 -2 24q10 16 15 41q5 28 1 54q-2 12 -12 27q-11 16 -37 26t-70 10q-42 0 -108 -18q-63 -17 -109 -51q-48 -35 -69 -71q-23 -39 -16 -73q8 -35 52 -53
q37 -16 97 -33q53 -15 114 -41q58 -24 104 -63q44 -37 60 -97q15 -55 -4 -114t-61 -107q-44 -50 -109 -87t-145 -52q-49 -10 -99 -10q-1 -42 -14 -66q-12 -23 -29 -32q-16 -9 -33 -10q-12 -1 -30 -1q-14 0 -15 6q-1 5 7 20q8 14 22 34q12 17 29 49q-54 7 -93 17
q-47 12 -85 40q-12 7 -26 18q-12 10 -26 27q-13 17 -17 29q-4 14 7 24q34 32 48 61q15 29 24 40q5 7 13 8q11 2 18 -1q8 -3 12 -9q5 -7 0 -15q-17 -29 -18 -70q-2 -43 20 -75q18 -27 53 -39q36 -13 74 -14q41 -2 79 4q36 5 69 14z" />
    <glyph glyph-name="percent" unicode="%" horiz-adv-x="1075" 
d="M131 1098q22 40 64 74q41 33 85 50q45 17 95 19q52 2 94 -14q44 -17 72 -49q29 -34 41 -74q12 -39 7 -87q-4 -42 -30 -89q-24 -46 -64 -78q-41 -33 -85 -51q-49 -20 -95 -21q-47 -1 -92 17t-75 51t-42 74q-12 39 -7 87q4 45 32 91zM203 991q0 -73 39 -126q39 -52 98 -52
q32 0 56 17q25 18 44 46q19 29 29 64q10 36 10 78q0 36 -12 69t-33 57t-46 37q-24 13 -52 11q-28 -1 -53 -20q-24 -18 -42 -45q-17 -25 -28 -62q-10 -33 -10 -74zM1030 1176q-9 -9 -93 -107q-22 -25 -66 -76t-60 -69q-27 -31 -80 -92.5t-66 -76.5q-102 -118 -152 -177
q-30 -35 -85 -99.5t-59 -69.5q-46 -54 -124 -145l-90 -105q-30 -35 -42 -50q-11 -11 -27 -8q-15 3 -31 14q-14 10 -21 24q-8 15 3 27q12 16 61 74q20 24 69 80.5t76 88.5q54 64 192 223q177 205 206 239q84 99 185 216q103 119 132 152q8 11 25 6t31 -16t20 -27
q6 -15 -4 -26zM561 453q22 40 64 74q41 33 85 50q45 17 95 19q52 2 94 -14q43 -16 72 -50t41 -73t7 -87q-4 -42 -30 -89q-24 -46 -64 -78q-41 -33 -85 -51q-49 -20 -95 -21q-47 -1 -92 17q-43 17 -74 51q-30 33 -42 73q-12 42 -8 87q4 46 32 92zM633 346q0 -74 39 -126
t98 -52q32 0 56 17q26 19 44 45q19 28 29 65q10 36 10 78q0 36 -12 69t-33 57t-46 37q-24 13 -52 11q-28 -1 -53 -20q-24 -18 -42 -45q-17 -25 -28 -62q-10 -33 -10 -74z" />
    <glyph glyph-name="ampersand" unicode="&#x26;" horiz-adv-x="1835" 
d="M1034 754q41 0 56 1q22 1 31 -6q9 -8 0 -26q-7 -13 -40 -55q-34 -40 -75 -44q-95 -10 -97 -10q-47 -6 -95 -18q-63 -16 -126 -40q-74 -28 -136 -59q-74 -37 -126 -74q-59 -42 -96 -86q-39 -47 -45 -93q-15 -97 34 -149q47 -50 133 -72q81 -21 183 -16q97 4 188 26
q79 18 167 63q85 43 173 103q89 60 156 119q69 60 115 116q-59 14 -112 24q-48 9 -77 7q-51 -2 -86 -47q-10 -15 -20 -8q-11 8 0 24q7 15 33 49q25 32 81 43q43 8 83 4q48 -5 87 -13q53 -11 84 -19q46 -12 74 -17q40 -6 74 -5q36 1 59 24q10 10 22 3t1 -24q-22 -33 -58 -57
q-36 -23 -96 -19q-10 1 -60 10q-48 9 -55 11q-56 -70 -114 -125q-68 -65 -147 -122q-81 -59 -174 -105q-96 -48 -197 -74q-56 -15 -134 -27q-80 -13 -155 -14q-88 -2 -156 9q-76 12 -132 43q-57 32 -87 88q-30 57 -18 145q7 69 55 130q47 60 116 110q72 52 153 90
q88 42 170 69q91 30 162 47q84 20 132 25q10 1 10 6q0 4 -8 4q-43 0 -103 -3q-67 -3 -123 -2q-67 2 -123 10q-58 9 -107 34q-45 23 -69 67q-24 43 -13 113q12 77 84 149q73 73 195 130q121 57 283 93q161 36 349 42q21 0 34 -1q26 -2 39 -5q18 -4 37 -12q21 -9 31 -19
q51 -57 16 -81q-35 -23 -128 -34q-48 -4 -71 -1t-35 10q-18 10 -28 15q-13 6 -47 11q-99 8 -214 -14t-224 -68q-106 -45 -182 -106q-75 -61 -86 -129q-12 -76 41 -112q51 -35 140 -49q81 -13 194 -11q38 1 105 2.5t95 1.5z" />
    <glyph glyph-name="quotesingle" unicode="'" horiz-adv-x="161" 
d="M129 1239q-2 -13 -4 -33t-3 -26q-4 -31 -13 -70q-11 -44 -30 -42q-21 2 -28 42l-12 57q-4 21 -10 64q-4 55 49 61q28 2 41 -11t10 -42z" />
    <glyph glyph-name="parenleft" unicode="(" horiz-adv-x="294" 
d="M-92 821q38 170 111 295q73 126 168 227q89 95 194 170q106 76 190 125q13 6 20 -4t-7 -20q-82 -53 -176 -134q-86 -75 -165 -181q-77 -103 -135 -234q-61 -136 -90 -299q-28 -151 -23 -303q4 -147 38 -273q33 -124 93 -222q59 -96 146 -154q15 -10 7 -21t-21 -4
q-118 62 -200 172q-83 112 -128 249q-45 138 -51 296q-6 156 29 315z" />
    <glyph glyph-name="parenright" unicode=")" horiz-adv-x="491" 
d="M416 604q-38 -167 -112 -295q-73 -126 -168 -227q-94 -100 -193 -171q-105 -75 -191 -124q-12 -6 -19 4q-8 11 7 21q82 53 176 134q88 76 165 180t135 234q59 132 89 299q27 159 23 304q-5 150 -37 272q-33 125 -93 222q-59 97 -147 155q-14 9 -6 20t21 4
q117 -61 199 -172q83 -112 128 -249q45 -138 51 -296q6 -161 -28 -315z" />
    <glyph glyph-name="asterisk" unicode="*" horiz-adv-x="630" 
d="M358 1223l203 -109q12 -6 11 -20q-2 -15 -10 -28q-8 -12 -22 -20q-14 -7 -22 1l-178 141l18 -232q0 -12 -12 -18t-28 -6q-14 0 -28 6t-14 23q0 3 1 14t2 19q1 10 5 56q3 35 6 67q3 36 3 71l-180 -141q-11 -6 -23 1q-13 8 -21 19q-10 13 -11 27q-1 13 12 20l209 109
l-213 114q-12 6 -11 21q1 9 11 27q7 13 20 21q12 8 25 1q42 -26 91 -69q42 -36 89 -68l-17 227q0 9 14 17t29 9q16 1 29 -5q12 -6 12 -19l-14 -227l176 135q11 8 23 0q11 -7 21 -22t11 -27q2 -15 -10 -21z" />
    <glyph glyph-name="plus" unicode="+" horiz-adv-x="1114" 
d="M1065 707q14 0 20 -16q7 -18 6 -34t-10 -33q-8 -16 -22 -16h-416q-2 -154 -1 -226q1 -73 1 -196q0 -14 -15 -21q-15 -8 -34 -6t-34 9q-15 8 -15 22v418h-154h-131q-69 0 -94 1t-43 1q-14 1 -22 18q-7 15 -6 32q1 18 9 33q8 16 25 16q24 0 49 1t93 1q80 0 126 -1t148 -1
v153v130q0 68 1 92t1 42q1 14 17 22q14 7 33 7q17 0 33 -8q15 -7 15 -25v-49v-93q0 -80 -1 -127t-1 -146h422z" />
    <glyph glyph-name="comma" unicode="," horiz-adv-x="204" 
d="M37 94q12 -10 31 -37q16 -24 10 -41q-2 -5 -5.5 -13t-5.5 -12q-2 -5 -14 -22q-11 -16 -27 -29q-24 -20 -36 -28q-24 -16 -35 -22q-17 -9 -25 -11q-16 -6 -20 6q-5 12 8 17q27 12 40 33q20 32 22 36q-17 18 -11 36q1 3 25 61q5 14 13 27q9 15 30 -1z" />
    <glyph glyph-name="hyphen" unicode="-" horiz-adv-x="600" 
d="M526 469q15 0 22 -13t6 -31q-1 -17 -9 -31q-7 -13 -23 -13q-172 0 -324 -2q-119 -2 -137 2q-14 1 -20 15q-6 15 -5 29q2 16 9 29t25 13q35 0 57 1t85 1h128h186z" />
    <glyph glyph-name="period" unicode="." horiz-adv-x="221" 
d="M10 119q34 -6 51 -33q17 -28 7 -51q-17 -47 -43 -61q-27 -15 -60 6q-20 11 -25 20q-5 8 -1 18q6 14 15 24q10 11 23 36q3 12 3 14q0 11 1 16q1 7 7 10q5 3 22 1z" />
    <glyph glyph-name="slash" unicode="/" horiz-adv-x="479" 
d="M860 1274q-21 -34 -115 -188q-25 -41 -76 -126.5t-77 -128.5q-25 -41 -81 -134.5t-86 -143.5q-70 -115 -156 -260q-18 -30 -59 -99.5t-59 -99.5q-13 -21 -27 -44l-21 -34.5t-9 -15.5q-7 -14 -23 -14q-15 0 -28 8q-12 8 -18 21q-6 14 4 30q16 23 55 89q15 26 54.5 91.5
t62.5 104.5q87 147 154 258q30 50 86 143.5t81 134.5q44 74 153 256q27 45 64.5 110t48.5 83q7 13 24 15q15 2 30 -6q14 -7 20 -21t-2 -29z" />
    <glyph glyph-name="zero" unicode="0" horiz-adv-x="1290" 
d="M522 1114q9 -13 13 -27q4 -15 3 -33q-2 -20 -12 -42q-23 -51 -43 -71q-22 -22 -36 -25q-15 -3 -24 8q-9 10 -9 26q0 60 18 109q17 47 62 98q63 70 142 113q78 42 166 59q83 16 167 7q81 -9 143 -42q64 -35 94 -99q31 -67 34 -145q3 -81 -15 -174q-17 -89 -55 -185
q-35 -89 -83 -174q-45 -80 -100 -146q-93 -110 -203 -193q-111 -84 -224 -130t-223 -46q-111 0 -202 57q-63 39 -98 106q-35 66 -45 147t3 171q14 94 46 181q27 73 71 142q44 70 88 119q48 54 89 88t74 52q7 4 14 1q6 -3 9 -9t3 -14q0 -7 -6 -11q-22 -16 -58 -51
q-34 -33 -70 -82q-35 -48 -69 -113q-32 -60 -55 -143q-18 -60 -29 -128q-12 -69 -7 -140q4 -65 30 -131q24 -61 82 -99q79 -53 177 -52q100 2 201 40q98 38 197 110q99 73 170 158q42 49 81 121q39 73 67 148q28 76 43 158q14 77 8 153q-6 69 -37 130q-30 59 -90 93
q-53 30 -120 41q-66 11 -134 0q-67 -10 -133 -42q-64 -31 -115 -89z" />
    <glyph glyph-name="one" unicode="1" horiz-adv-x="641" 
d="M621 1061q5 10 1 17q-5 8 -34 -9q-27 -16 -53 -14q-25 2 -46 12q-7 4 -19 14q-9 8 -11 18t4 17q6 8 26 12q22 5 55 22q5 3 70 39q33 18 69 46q29 22 50 43q34 39 91 49q54 10 112 10q16 0 17 -7q1 -6 -5 -17q-85 -108 -235 -303q-127 -165 -254 -371q-85 -138 -112 -184
q-53 -92 -86 -157q-35 -69 -67 -147q-28 -67 -57 -159q-4 -12 -9 -18.5t-12 -5.5q-14 2 -42 34q-23 24 -21 46q1 17 4 28q8 21 49 127q18 47 57 128q27 57 77 145t110 181q12 18 46.5 72t50.5 78q17 25 44.5 65t29.5 44q12 18 32.5 46.5t24.5 34.5q28 40 43 64z" />
    <glyph glyph-name="two" unicode="2" horiz-adv-x="1318" 
d="M1192 100q-2 13 2 23q6 14 9 23q4 13 22 26q32 26 51 31q21 6 32 3t14 -12t-3 -20q-22 -40 -50 -60q-20 -14 -71 -48q-70 -44 -146 -59q-77 -15 -154 -9q-75 6 -152 29q-73 22 -142 51q-62 27 -120 39q-59 12 -122 6q-64 -6 -134 -33q-69 -26 -154 -78q-28 -16 -42 -9
q-14 8 -14 30q-1 59 15 83q17 24 39 42q161 138 400 263q241 127 515 243q148 63 218 141q72 79 86 153q15 77 -10 142q-25 64 -69 102q-40 32 -91 49q-56 19 -121 20q-62 1 -140 -16q-73 -16 -149 -55q6 -4 12 -12q7 -8 8 -23q2 -17 -2 -32q-6 -24 -18 -43q-21 -35 -51 -65
q-28 -28 -54 -44q-27 -17 -48 -18q-23 -2 -34 14q-11 14 -16 42q-5 27 9 62q15 37 49 76q36 40 106 86q69 45 156 72q89 28 176 32q90 5 171 -13q84 -18 142 -62q69 -52 101 -143q31 -87 4 -187q-26 -97 -124 -193q-97 -96 -278 -161q-321 -114 -541 -236
q-223 -124 -348 -221q-6 -4 -4 -9q2 -6 8 -1q61 29 123 51q62 23 124 33q61 10 127 4q62 -6 130 -35q76 -33 128 -57q65 -29 136 -48q69 -18 143 -15q73 3 146 46z" />
    <glyph glyph-name="three" unicode="3" horiz-adv-x="1155" 
d="M152 272q40 -106 137 -171q96 -65 250 -60q63 1 133 27q64 23 122 66q55 41 102 98q48 59 77 124q18 44 24 89q6 48 -1 89q-8 43 -30 74q-23 31 -65 47q-29 10 -57 12q-31 3 -76 1q-27 -1 -83 -11q-42 -7 -75 -24q-14 -6 -20 -4t-5 12q2 24 7 49q7 26 16 39q6 9 33 14
q8 1 22 4t25.5 5t21.5 3q33 4 68 15q94 22 183 63t141 93q31 31 43 71q12 42 8 83q-5 43 -24 83q-21 43 -54 72q-31 29 -98 44q-68 15 -148 12q-79 -3 -160 -27q-78 -23 -141 -78q1 -1 3 -4t4.5 -6t4.5 -6q7 -8 10 -24q3 -15 0 -37q-3 -21 -20 -50q-23 -39 -49 -66
q-29 -31 -53 -44q-28 -16 -49 -17q-24 -2 -35 14q-12 15 -18 43q-6 30 5 66q12 39 44 82q34 47 100 92q78 57 178 86q107 31 203 40q104 9 185 -5q83 -15 128 -50q49 -40 76 -93q28 -54 29 -107q1 -55 -26 -111q-27 -55 -89 -102q-58 -46 -164 -83q-115 -41 -221 -67
q-6 -1 -6 -8q0 -6 8 -4q44 4 87 1q41 -3 75 -9q70 -12 116 -54q45 -40 68 -101q23 -60 20 -126q-3 -67 -32 -131q-37 -78 -97 -136q-57 -56 -137 -98q-74 -39 -163 -61q-81 -20 -174 -20q-94 0 -166 21q-70 20 -124 59q-51 37 -86 85q-33 46 -52 101q-17 52 -20 86
q-3 40 11 78q1 12 12 17q9 5 19 -1q11 -6 21 -26q9 -18 14 -60q1 -21 0 -34q-1 -12 -6 -23q-6 -14 -10 -21z" />
    <glyph glyph-name="four" unicode="4" horiz-adv-x="1179" 
d="M502 1092q-11 2 -34 16t-38 76q-18 81 -10 113q7 31 41 36q26 2 49 -4q24 -6 41 -31q17 -24 21 -70q5 -48 -7 -122q-12 -73 -49 -132q-38 -61 -87 -110t-110 -87q-62 -39 -114 -64q144 35 290 39q143 4 328 -29q152 250 253 378q94 118 141 173q17 21 29 29q14 10 33 16
q20 7 40 8q5 0 23 1.5l30 2.5q17 0 20 -9q3 -8 -6 -15q-6 -4 -52 -52q-41 -42 -104 -119q-58 -70 -139 -188t-155 -254q58 -22 93 -46q33 -24 56 -56q20 -29 28 -68q7 -35 7 -80q0 -18 -10 -18t-20 16q-33 57 -89 99q-49 36 -116 65q-93 -171 -162 -326q-68 -152 -109 -276
q-8 -22 -21 -12t-28 28q-25 32 -27 53q-1 14 1 23q7 34 30 93q19 47 56 127q44 94 73 152q31 62 88 165q-76 16 -172 22q-95 6 -186 -1q-97 -8 -184 -28q-84 -20 -166 -63q-23 -12 -28 23q-5 39 -1 78q4 26 21 35q23 12 39 20q70 28 130 65q65 39 117 87q56 51 93 104
t53 117z" />
    <glyph glyph-name="five" unicode="5" horiz-adv-x="1236" 
d="M1210 1206q3 0 1 8q-1 6 4 23q4 13 23 35q17 19 58 47q39 23 62 29q26 6 43 2q19 -5 31 -15t22 -22q16 -18 10 -44q-6 -25 -33 -52q-26 -26 -78 -51q-49 -24 -124 -36q-56 -10 -127 -8q-60 1 -131 19q-62 15 -128 47q-61 29 -116 76q-12 -65 -43 -136q-25 -56 -69 -130
q-35 -59 -79 -117q-42 -55 -75 -99q-4 -4 -1 -8t5 -2q53 44 106 65q54 22 121 29q139 15 242 -26t156 -109q43 -55 61 -123q18 -66 10 -139q-7 -71 -42 -145q-36 -77 -95 -140q-45 -46 -114 -87q-68 -40 -151 -67q-87 -29 -173 -40q-90 -12 -177 -3q-85 9 -166 44
q-79 34 -139 100q-35 40 -47 74q-13 36 -14 80q0 11 6 19q5 7 19 5q11 -1 28 -17q17 -15 33 -52q15 -32 10 -54q-1 -10 -6 -18q80 -91 183 -116t208 -6q104 19 198 74q89 52 152 124q54 63 76 119q25 64 31 112q6 53 -3 98q-9 43 -28 80q-17 28 -41 55t-57 48q-27 17 -72 31
q-37 12 -82 10q-101 -5 -161 -28q-62 -24 -113 -87q-7 -8 -20 5q-12 12 -25 35q-16 28 -21 41q-7 20 -4 23q44 45 90 105q52 67 88 127q41 69 71 140q31 73 38 149q1 9 5 30q3 15 32 0q20 -9 63.5 -28t66.5 -30q58 -26 134 -50q65 -20 135 -28q65 -7 133 5z" />
    <glyph glyph-name="six" unicode="6" horiz-adv-x="1181" 
d="M1090 1307q-81 4 -182 -15q-93 -18 -195 -65q-98 -45 -199 -125q-98 -77 -190 -195q-63 -80 -104 -182q-41 -104 -52 -214q-11 -111 19 -210q30 -101 112 -168q65 -54 138 -73q75 -19 154 -12q77 7 154 39q74 30 142 83q83 67 124 147q40 78 43 156q3 76 -30 139
q-35 66 -92 99q-56 33 -124 48t-134 8q-68 -8 -134 -39q-68 -32 -124 -93q-2 -1 6 -3t15 -10q7 -9 9 -31q2 -25 -12 -65q-11 -38 -35 -73t-46 -53q-24 -20 -45 -24q-21 -5 -36 7q-14 11 -22 37t-1 61q7 36 35 84q26 45 85 107q63 68 145 111q88 46 167 63q84 18 169 10
q82 -7 151 -47q91 -52 125 -133q35 -85 21 -176q-15 -96 -75 -190q-61 -96 -159 -173q-72 -56 -162 -94q-88 -37 -189 -53q-96 -15 -189 -1q-95 14 -162 62q-108 77 -151 191q-43 113 -37 240t55 252q50 126 129 222q97 120 215 196q121 78 238 122q120 45 231 60
q119 16 190 12q57 -5 98 -19q44 -15 60 -31q8 -8 8 -19q0 -12 -9 -21q-8 -8 -32 -13q-20 -4 -61 4q-20 4 -31 14q-10 9 -16 19q-8 13 -8 27z" />
    <glyph glyph-name="seven" unicode="7" horiz-adv-x="720" 
d="M258 1229q-4 -1 -1 -9t0 -23q-3 -16 -16 -39q-12 -22 -48 -56q-33 -28 -57 -39t-42 -9t-33 9q-13 6 -26 18q-19 16 -15 41q5 28 30 58q26 30 74 62q50 33 120 56q75 25 148 26q77 2 151 -10q79 -12 147 -28q63 -15 138 -23q62 -7 124 1q59 8 105 45q17 13 29 17
q15 4 33 6q12 1 39 1q12 0 52 2q15 1 20.5 -4t1.5 -16q-8 -23 -34 -39q-146 -98 -244 -171q-107 -80 -193 -154q-93 -80 -161 -151q-70 -73 -145 -165q-65 -82 -120 -160q-61 -86 -108 -163q-48 -79 -86 -156q-32 -66 -57 -140q-7 -23 -18 -25t-46 27q-24 23 -26 44
q-2 23 2 28q46 121 148 284q102 164 247 343q121 149 261 273q134 118 276 224q-68 -21 -160 -9q-128 17 -186 26q-82 13 -181 20q-87 6 -143 -22z" />
    <glyph glyph-name="eight" unicode="8" horiz-adv-x="958" 
d="M532 666q-41 -5 -109 -19q-53 -11 -111 -37q-53 -24 -100 -63t-79 -98q-31 -57 -38 -112q-8 -58 4 -108q12 -52 41 -94q28 -41 77 -69q41 -24 99 -31q64 -8 126 6q68 16 127 57q61 44 105 123q33 62 33 124q0 63 -24 120q-26 61 -63 108q-42 53 -88 93zM920 1335
q19 -5 23 -9q5 -5 1 -15q-5 -11 -11 -11q-3 0 -10 1.5t-10 1.5q-63 8 -123 2q-59 -6 -121 -31q-58 -24 -107 -71t-81 -122q-43 -97 -20 -192t106 -180q44 1 96 14q47 11 97 34q46 21 89 50t71 63q10 13 35 54q17 28 28 62q9 28 11 64q2 32 -13 54q-4 -4 -16 -10
q-15 -7 -29 -10q-15 -3 -35 -1q-16 1 -33 15q-71 52 -85 92q-13 38 28 72q14 9 31 13q20 5 43 -1q25 -6 53 -27q31 -23 63 -59q28 -33 47 -74q21 -45 27 -97q6 -53 -9 -107q-15 -53 -65 -103q-45 -45 -100 -69q-54 -23 -110 -34q-46 -9 -108 -14q-84 -7 -91 -8
q60 -45 116 -101q55 -55 89 -123q32 -64 32 -144q0 -77 -49 -162q-46 -82 -127 -123q-83 -42 -169 -51q-87 -9 -173 8q-85 17 -139 49q-56 33 -99 84q-46 54 -66 111q-21 60 -18 129t42 141q30 56 87 97q53 37 123 63q65 24 136 33q69 9 129 3q-41 36 -80 90q-34 47 -59 109
q-23 58 -26 116q-3 59 21 111q45 95 112 143q70 50 147 71q82 22 156 18q83 -5 143 -19z" />
    <glyph glyph-name="nine" unicode="9" horiz-adv-x="1277" 
d="M193 29q84 -4 181 14q89 17 195 66q101 47 199 124t190 195q63 78 104 181t52 215q11 111 -19 210q-30 101 -112 168q-63 51 -138 72q-74 21 -154 13q-77 -7 -154 -39q-74 -30 -142 -83q-83 -67 -124 -147q-40 -78 -43 -156q-3 -76 30 -139q34 -65 92 -98q56 -33 124 -48
q71 -16 134 -9q67 7 133 39q64 31 125 93q2 2 -6 3q-7 1 -15 11q-7 9 -9 30q-2 25 12 65q12 40 35 74q22 33 46 52t45 24t36 -7q14 -11 22 -37t1 -61q-7 -36 -35 -84q-25 -43 -85 -106q-69 -71 -146 -112q-86 -46 -166 -63q-84 -18 -169 -10q-82 7 -151 47q-91 52 -125 133
q-36 85 -21 177q15 94 75 189q61 96 159 173q67 54 161 94q91 39 190 54q95 15 188 1q91 -13 163 -63q108 -78 151 -190q44 -115 38 -241q-6 -125 -56 -252q-50 -126 -129 -222q-97 -120 -215 -196q-121 -78 -238 -122q-120 -45 -231 -60q-113 -15 -190 -11q-61 5 -98 18
q-44 15 -60 31q-8 8 -8 19q0 12 9 21q8 8 32 13q20 4 61 -4q31 -7 47 -33q9 -14 9 -26z" />
    <glyph glyph-name="colon" unicode=":" horiz-adv-x="352" 
d="M166 205q34 -6 51 -33t6 -51q-17 -47 -43 -61q-26 -15 -59 6q-21 12 -26 20t0 18q3 8 16 24q9 11 22 36q2 8 2 14q0 11 1 16q1 7 7 10q5 3 23 1zM166 489q35 -6 51 -32q17 -27 6 -51q-17 -47 -43 -61q-27 -15 -59 5q-20 12 -26 21q-5 7 0 18q3 8 16 24q9 11 22 36
q2 8 2 14q0 10 1 15q1 7 7 10q5 3 23 1z" />
    <glyph glyph-name="semicolon" unicode=";" horiz-adv-x="335" 
d="M168 250q-21 16 -30 1q-7 -11 -13 -28q-5 -11 -10.5 -24.5t-9 -22t-5.5 -13.5q-6 -18 11 -36q-2 -4 -22 -36q-14 -23 -40 -34q-12 -4 -7 -12t21 -2q18 6 57 31q37 23 60 53q13 18 14 21q2 4 5.5 12.5t5.5 13.5q6 17 -8 40q-16 26 -29 36zM143 492q36 -6 52 -33
q17 -27 6 -51q-17 -47 -43 -61q-28 -15 -60 5q-19 11 -25 21q-5 8 -1 18q6 14 15 24q12 13 24 36q2 8 2 14q0 10 1 15q1 7 7 10q7 3 22 2z" />
    <glyph glyph-name="less" unicode="&#x3c;" horiz-adv-x="745" 
d="M657 1116q13 8 27 1q16 -8 25 -21q11 -15 12 -31q2 -18 -10 -25q-85 -60 -144 -103q-86 -63 -152 -113q-43 -32 -143 -106q-24 -18 -61.5 -45.5t-50.5 -37.5q126 -90 178 -129q92 -68 171 -126q29 -21 74 -54.5t61 -45.5q22 -16 46 -34.5t27 -20.5q12 -8 11 -25
q-2 -19 -10 -33q-10 -17 -24 -24q-15 -7 -28 2q-2 2 -37 26q-42 29 -79 56q-10 7 -48 34t-61 44t-67.5 48.5t-57.5 41.5l-129 94q-23 17 -63 47l-56 42q-32 24 -33 50q-2 28 20 44q11 7 81 59q4 3 59.5 44.5t90.5 66.5q30 21 91.5 67t93.5 69q39 28 186 138z" />
    <glyph glyph-name="equal" unicode="=" horiz-adv-x="909" 
d="M836 938q14 0 20 -15q6 -14 4 -34q-2 -18 -11 -34q-9 -15 -24 -15q-147 0 -232 -1t-241 -1h-193q-77 0 -91 2q-15 1 -22 16t-6 32t9 32q7 14 25 14q23 2 103 3q54 1 191 1h233h235zM836 616q14 0 20 -15q6 -14 4 -34q-2 -18 -11 -34q-9 -15 -24 -15q-147 0 -232 -1
t-241 -1h-193q-77 0 -91 2q-14 1 -22 17q-7 15 -6 31q1 17 9 32q7 14 25 14q23 2 103 3q54 1 191 1h233h235z" />
    <glyph glyph-name="greater" unicode="&#x3e;" horiz-adv-x="765" 
d="M119 1116q148 -110 186 -138q31 -22 93 -68t93 -68q34 -24 85.5 -63t63.5 -48q70 -52 81 -59q22 -16 20 -44q-2 -27 -32 -50q-157 -115 -185 -135q-60 -43 -189 -137q-35 -26 -92 -66t-61 -43q-56 -40 -71 -52q-14 -10 -29 -2q-14 7 -24 24q-8 14 -10 33q-1 17 11 25
q3 2 27 20.5t46 34.5q16 12 61 45.5t74 54.5q79 58 171 126q52 39 178 129q-13 10 -50.5 37.5t-61.5 45.5q-100 74 -143 106q-66 50 -152 113t-143 103q-13 8 -11 25q1 14 13 31q10 14 24 21t27 -1z" />
    <glyph glyph-name="question" unicode="?" horiz-adv-x="751" 
d="M344 1313q-1 -4 7 -8q10 -5 17 -16q7 -12 6 -35q-1 -24 -22 -62q-22 -41 -45 -64q-22 -22 -48 -35q-24 -12 -43 -9q-20 3 -28 20q-14 23 -19 47t7 50q13 29 45 64q35 38 96 89q75 62 169 110q91 46 177 64q87 18 166 6q80 -12 140 -57q100 -78 106 -170q6 -93 -60 -198
q-65 -104 -197 -222q-127 -114 -300 -244q-72 -53 -116 -105q-47 -56 -79 -109q-38 -63 -51 -95q-21 -50 -26 -66q-4 -16 -16 -15q-11 1 -21 13q-18 24 -23 36q-6 14 -6 36q0 50 84 136q81 82 230 196q134 102 235 202q104 103 156 193q53 93 52 175q-2 84 -73 155
q-39 38 -104 53q-62 15 -136 4q-76 -11 -146 -46q-73 -37 -134 -93zM96 158q34 -6 51 -33q17 -28 7 -51q-17 -47 -43 -61q-28 -15 -60 5q-19 11 -25 21q-5 8 -1 18q6 14 15 24q10 11 23 36q3 12 3 14q0 10 1 15q2 8 7 11t22 1z" />
    <glyph glyph-name="at" unicode="@" horiz-adv-x="1171" 
d="M434 -29q-145 -53 -245 -32q-101 21 -138 102q-22 48 -22 108t21 120q20 58 66 121t111 114q120 96 283 138q158 40 330 13q116 -18 181 -72q65 -55 86 -123q21 -70 5 -144q-17 -76 -59 -134q-44 -58 -102 -95q-57 -36 -111 -52q-59 -17 -104 -16q-46 1 -74 14
q-47 23 -40 75q7 51 60 158q4 6 0 9t-10 -3q-15 -15 -63 -59q-38 -35 -79 -66q-44 -34 -89 -61q-46 -28 -89 -46q-44 -18 -81 -21t-66 18q-41 29 -39 81q1 51 32 109q32 61 78 114q47 54 105 95q80 58 168 89q84 29 161 31q74 1 132 -26q57 -27 84 -79q6 -11 3 -27
q-3 -17 -20 -23q-16 -6 -24 7q-12 20 -19 34q-17 38 -51 59q-35 21 -88 18q-54 -3 -123 -33q-68 -29 -151 -93q-62 -49 -105 -96q-49 -54 -77 -97q-31 -48 -38 -83q-8 -38 13 -54q24 -21 77 -3t112 55q63 39 120 85q58 46 98 91q78 86 97 114q14 19 26 43q2 9 8 15
q10 10 27 -8q18 -24 25 -58q8 -36 -2 -63q-3 -12 -19 -47q-12 -27 -35 -29q-14 0 -35 -30q-20 -29 -35 -66q-17 -43 -21 -70q-5 -34 7 -41t46 -6q35 2 77 19q45 19 90 55q50 40 88 98q30 46 47 109q17 65 4 126q-13 60 -64 111q-50 50 -150 68q-77 14 -161 6
q-74 -7 -151 -31q-73 -23 -136 -58q-69 -39 -118 -79q-56 -45 -97 -101q-44 -60 -68 -113q-25 -56 -31 -109t10 -89q16 -37 41 -59q29 -26 68 -34q42 -9 100 -3q57 6 135 33q12 2 17 8q3 4 10 11q2 1 5 5t4 6q4 4 15 9q54 14 52 -5q0 -1 -1 -3q-5 -17 -25 -27
q-17 -9 -69 -27z" />
    <glyph glyph-name="A" unicode="A" 
d="M446 1049q28 31 54 35q28 5 73 -1l101 -14q44 -6 139 -30q80 -20 194 -62q99 -36 265 -111q178 137 318 229q146 96 262 163q123 71 186 104q72 38 90 45q1 15 11 44q9 27 52 48q26 13 46 20q22 8 51 15q9 2 23.5 5.5t19.5 4.5q16 4 28 4q9 0 19 -6q9 -5 14 -16
q4 -9 2 -23q-1 -11 -14 -24q-37 -33 -93 -95q-67 -75 -116 -133q-66 -79 -126 -157q-48 -63 -124 -167q-49 -67 -112 -161q-54 -81 -87 -139q105 -64 127 -82q7 -5 8 -15q1 -4 -2 -17q-1 -7 -8 -10q-6 -3 -14 9q-8 11 -41 32q-25 16 -86 56q-76 -128 -119 -227
q-51 -117 -76 -189q-30 -85 -42 -134q-13 -51 -13 -66q0 -8 -12 -7q-10 1 -26 12q-13 8 -25 27q-14 20 -15 43q-4 42 64 186q67 141 215 386q-61 41 -152 86q-72 35 -190 98q-153 -120 -277 -231q-121 -108 -268 -228q-350 -278 -594 -422t-393 -167q-91 -14 -152 -16
q-57 -1 -82 24q-41 45 -18 66q23 22 121 32q41 5 65 -15t45 -24q118 -17 362 139q247 158 609 451q146 120 258 217q127 110 252 203q-105 47 -197 81q-82 30 -179 59q-78 23 -138 31q-58 8 -78 -7q-22 -16 -28 -19q-11 -5 -26 -7q-14 -2 -32 0q-35 3 -49 5q-59 7 -73 26
q-13 18 3 36zM2062 1268q6 12 6 20q0 20 -30 10q-39 -13 -214 -121q-175 -107 -474 -335q103 -52 186 -103q88 -54 133 -82q94 163 193 311q33 50 100 150t100 150z" />
    <glyph glyph-name="B" unicode="B" horiz-adv-x="1966" 
d="M1765 498q43 -65 50 -142q8 -81 -29 -184q-40 -114 -131 -212q-89 -96 -207 -175q-116 -77 -250 -133q-135 -56 -263 -84q-135 -29 -245 -28q-116 2 -194 34q-94 40 -123 94q-31 57 -16 120t70 135q54 71 134 137q84 70 177 127q103 64 198 106q196 87 360 137
q176 53 326 80q-56 56 -133 96q-84 44 -165 66q-90 25 -173 35q-79 10 -156 8q-43 -1 -54 8q-11 10 -5 23q6 14 21 29q17 17 28 24q22 15 87 20q57 4 149 17q81 11 159 32q74 20 166 55q82 31 158 73q75 41 136 90q63 50 102 104q41 56 51 115q7 42 -14 85q-21 42 -89 72
q-71 32 -191 46q-128 15 -321 8q-188 -10 -371 -41q-164 -28 -323 -69q-134 -35 -241 -76q-97 -37 -124 -60q-22 -18 -37 -39q-16 -22 -24 -32q-11 -13 -34 -30q-16 -12 -68 -30q-11 -4 -28 -10t-29.5 -10t-21.5 -8q-28 -11 -48 -9q-17 2 -18 21q-1 17 16 63q11 32 30 48
q22 19 47 30q16 8 122 52q91 38 259 86q164 47 386 87q229 41 505 53q225 8 360 -5q144 -14 224 -47q83 -35 111 -86t20 -118q-11 -79 -72 -158t-170 -150q-107 -70 -262 -126q-150 -54 -346 -82q-10 -1 -10 -6t10 -6q45 -5 124 -22q63 -14 138 -43q71 -28 133 -69
q64 -43 109 -98q57 12 102 13q51 2 80 0q25 -2 80 -8q30 -3 37 -17q7 -12 -7 -19q-16 -8 -48 -8q-11 0 -17 3q-2 1 -11 7q-5 3 -12 6q-9 4 -20 5q-25 4 -75 1q-45 -3 -89 -11zM948 266q-111 -54 -194 -107q-99 -63 -165 -121q-77 -67 -120 -127q-46 -64 -60 -122t13 -105
q28 -50 100 -79q74 -33 179 -27q103 6 224 41q116 34 238 94q126 62 226 135q101 73 183 165q77 86 113 184q34 90 19 158q-15 70 -62 128q-159 -23 -335 -76q-171 -52 -359 -141zM1405 1450q-14 20 -35 10q-24 -12 -37 -24q-45 -38 -126 -117q-53 -52 -148 -156
q-82 -90 -159 -184q-75 -92 -157 -201q-60 -80 -137 -192q-55 -80 -121 -187q-57 -93 -99 -172q-53 -100 -73 -147q-11 -24 -3 -50t22 -42q16 -18 30 -19q18 -2 25 19q24 65 68 168q38 88 93 197q54 107 112 208q60 104 128 197q48 66 137 180q61 78 125 145q63 67 107 97
q49 34 84 34q30 0 73 34q47 38 75 79q29 43 30 72q2 30 -14 51z" />
    <glyph glyph-name="C" unicode="C" horiz-adv-x="1230" 
d="M1384 1049q33 36 64 93q33 60 48 126q15 68 1 126q-15 60 -78 93q-60 30 -182 9q-123 -21 -276 -96q-154 -76 -320 -204q-164 -127 -311 -315q-111 -139 -165 -273q-55 -136 -65 -243t18 -192q27 -80 81 -120q58 -41 142 -56q83 -15 180 -10q100 5 191 25q96 21 173 54
q62 24 137 61q79 39 147 77q81 45 130 77q66 43 88 63q15 15 17 27q1 10 17 24q48 46 54 15q4 -22 -20 -46q-26 -26 -73 -63q-27 -21 -84 -59q-66 -43 -117 -73q-68 -40 -138 -76q-68 -36 -142 -66q-85 -35 -183 -58q-100 -23 -210 -31q-104 -7 -204 8q-96 15 -163 62
q-73 52 -111 152t-29 225t71 274q64 152 184 302q151 187 329 313q176 125 340 192q166 68 302 80q137 12 213 -22q57 -28 80 -70t28 -93q5 -52 -10 -104q-16 -56 -33 -100q-17 -43 -40 -83q-23 -39 -31 -52q-36 -48 -81 -92q-48 -46 -106 -74t-92 -20q-35 8 -68 28
q-18 10 5 35q25 27 61 49q40 25 82 42q42 18 65 16q22 -4 38 2q17 7 26 16q13 12 20 25z" />
    <glyph glyph-name="D" unicode="D" horiz-adv-x="2064" 
d="M1989 518q-85 -193 -205 -344q-126 -158 -260 -268q-142 -116 -287 -193q-146 -78 -284 -120q-135 -41 -252 -46q-112 -4 -189 27q-93 40 -118 101q-26 63 -2 139q23 73 87 157q60 78 151 160q85 76 189 145q103 68 203 113q115 51 232 84q114 32 234 52t225 26
q103 6 206 4q82 210 94 391q12 180 -51 310q-63 131 -204 200q-144 70 -363 60q-190 -10 -372 -41q-164 -28 -323 -69q-131 -34 -240 -76q-97 -37 -124 -60q-24 -20 -38 -39q-16 -22 -24 -32q-12 -15 -33 -30q-15 -11 -69 -30q-11 -4 -28 -10t-29.5 -10t-21.5 -8
q-28 -11 -48 -9q-15 1 -17 21q-2 19 15 63q11 31 31 48q22 19 47 30q16 8 122 52q91 38 259 86q164 47 386 87q229 41 505 53q244 11 406 -55q163 -66 241 -196q77 -128 69 -318q-8 -189 -106 -422q54 -6 81 -11q24 -5 68 -16q104 -27 111 -49q9 -26 -40 -18q-9 1 -19 4
q-12 2 -16 6l-10 8l-5 5t-5 4q-5 5 -18 10q-25 10 -73 16q-52 7 -88 8zM1030 358q-110 -54 -201 -114q-93 -62 -179 -140q-83 -76 -138 -149q-59 -79 -80 -144q-23 -69 -2 -124q21 -56 94 -86q69 -29 178 -21q106 7 238 52q128 43 268 123q138 78 270 191q126 108 242 257
q115 149 187 319q-111 2 -208 -5q-103 -7 -223 -26q-114 -18 -228 -51t-218 -82zM1395 1450q-14 20 -35 10q-24 -12 -37 -24q-45 -38 -126 -117q-53 -52 -148 -156q-82 -90 -159 -184q-75 -92 -157 -201q-60 -80 -137 -192q-55 -80 -121 -187q-57 -93 -99 -172
q-53 -100 -73 -147q-11 -24 -3 -50t22 -42q16 -18 30 -19q18 -2 25 19q30 82 67 168q32 75 94 197q54 107 112 208q60 104 128 197q58 81 136 180q61 78 125 145q61 64 108 97q49 34 84 34q30 0 73 34q45 36 74 79q30 45 31 72q2 30 -14 51z" />
    <glyph glyph-name="E" unicode="E" horiz-adv-x="1728" 
d="M166 -358q37 -37 114 -55q74 -17 186 -5q103 11 249 60q134 45 301 139q193 112 311 219q120 109 174 184q5 7 7 22q2 14 3 30q1 8 7 35q5 21 16 38q30 49 56 56q28 8 44 -31q6 -17 -10 -46t-47 -71q-40 -52 -88 -109q-49 -58 -114 -120q-62 -59 -147 -124
q-76 -58 -188 -122q-174 -99 -321 -150t-265 -63q-121 -12 -204 11q-86 24 -137 75q-52 52 -73 143q-21 92 3 203q24 110 105 229q83 121 233 228q107 77 221 135q116 59 212 98q109 44 178 68q112 38 120 41q8 2 11.5 5t1.5 7q-3 8 -19 4q-36 -11 -93 -19q-48 -7 -112 -5
q-58 2 -113 15t-94 42q-38 27 -56 75q-18 45 -1 113q30 118 143 213q111 93 270 162q158 68 335 107t344 51q38 2 54 2q24 0 54 -19q38 -26 49 -42q10 -15 -2 -27q-13 -13 -44 -22l-30 -8q-31 -9 -51 -15q-47 -15 -72 -15q-21 0 -45 6q-17 4 -37 12q-18 7 -55 7
q-68 0 -147 -17q-76 -16 -174 -49q-92 -31 -179 -72q-94 -45 -163 -91q-75 -50 -125 -102q-52 -54 -68 -103q-16 -52 -1 -89t52 -59q36 -22 88 -31q55 -10 102 -10q48 0 98 8q53 9 77 17q65 22 85 13q18 -9 11 -52q-1 -6 -3.5 -18.5l-3.5 -17.5q-3 -12 -13 -24
q-9 -10 -33 -23q-12 -6 -66 -25q-16 -5 -88 -29q-74 -25 -151 -56q-87 -35 -191 -92q-103 -56 -206 -131q-125 -91 -201 -194q-78 -105 -114 -204q-35 -96 -27 -183q7 -83 57 -133z" />
    <glyph glyph-name="F" unicode="F" horiz-adv-x="851" 
d="M1137 1450q14 -21 14 -51q212 59 330 86q135 31 212 44q79 13 131 13q48 0 87 -6q62 -11 81 -46q19 -36 18 -76q-2 -41 -13 -74q-11 -32 -19 -40q-10 -14 -21 -11q-12 3 -7 20q16 81 -49 117q-67 36 -183 35q-120 -2 -270 -31q-140 -28 -313 -78q-14 -25 -27 -43
q-16 -24 -39 -45q-18 -17 -47 -35q-24 -15 -49 -15q-31 0 -74 -28q-41 -27 -93 -79q-53 -53 -109 -119q-59 -70 -119 -150q64 5 117 17t110 29q51 15 90 27q45 14 61 15q51 4 80 -10q27 -14 33 -58q1 -18 -3 -19q-5 -2 -17 6q-8 5 -32 16q-19 9 -44 9q-35 0 -79 -9
q-57 -12 -99 -22q-55 -13 -120 -30q-70 -18 -138 -29q-76 -105 -139 -211q-58 -98 -116 -213q-59 -118 -95 -199q-34 -77 -68 -169q-7 -21 -25 -19q-15 1 -31 19q-13 14 -21 42q-8 26 3 50q28 68 70 145q55 100 98 169q71 113 120 185q73 107 136 191q-46 -5 -76 3
q-31 8 -49 21q-21 16 -29 27q-11 15 -12 25q-10 33 0 34q9 1 39 -10q6 -2 73 -23q40 -13 103 -11q115 144 197 239q118 135 188 207q-155 -42 -318 -67q-176 -27 -397 -21q-28 0 -54 6q-25 6 -48 29q-34 34 -41 51q-8 20 6 28q15 9 48 12q9 1 37.5 3t47.5 4q50 5 75 0
t42 -12q6 -3 34 -19q18 -11 52 -18q61 -15 133 -13q79 2 144 11q66 9 149 29q96 23 150 38l29 30q21 21 51 46q27 23 55 35q27 12 39 -4z" />
    <glyph glyph-name="G" unicode="G" horiz-adv-x="1835" 
d="M1436 604q-31 19 -80 32q-50 14 -112 21q-76 9 -135 9q-60 0 -149 -7q-39 -113 -31 -207q8 -95 72 -143q49 -37 129 -36q79 1 169 29q91 28 176 77q86 50 151 106q56 49 80 85q21 32 29 52q7 19 19 31q14 14 54 29q29 10 75 22q40 10 58 0q12 -6 11 -13q-1 -6 -12 -15
q-22 -18 -23 -19q-16 -11 -25 -24q-24 -32 -85 -123q-82 -123 -133 -197q-71 -103 -171 -230q-99 -126 -198 -222q-92 -90 -189 -151q-100 -62 -194 -98q-99 -38 -198 -54q-102 -17 -196 -17q-107 0 -206 33q-98 33 -170 97q-71 63 -109 160q-38 95 -23 216q16 143 101 253
q84 110 204 186q121 77 260 123q144 47 271 65q40 114 127 252q86 137 215 260q146 138 292 221q148 83 283 120q132 36 245 28q114 -8 184 -50q78 -46 93 -119q15 -74 -2 -145q-19 -77 -50 -135q-32 -60 -50 -86q-35 -46 -87 -90q-52 -43 -113 -70q-31 -15 -58 -22
q-26 -7 -38 -7q-11 0 -25 6q-10 5 -21 15q-17 15 1 43q16 26 50 58q33 31 68 51t60 18q42 -4 70 4q23 7 52 39q20 23 49 74q28 49 47 114q18 60 7 123q-11 62 -72 99q-59 36 -162 36q-102 0 -223 -40q-131 -43 -260 -124q-135 -85 -272 -217q-96 -93 -176 -218
q-80 -124 -119 -226q156 10 280 -6q127 -17 181 -43q56 -28 76 -54t16 -42q-5 -31 -54 12q-16 16 -16 29q0 12 -18 22zM913 264q-71 60 -88 159t21 222q-72 -7 -161 -32q-92 -26 -170 -60q-84 -37 -163 -87q-71 -45 -140 -114q-61 -61 -104 -141q-43 -79 -53 -168
q-12 -113 25 -198t105 -141q67 -56 160 -86q92 -30 185 -30q172 -2 357 78q184 79 360 260q95 95 161 179q87 111 127 165q54 74 87 123q32 48 39 55q14 14 5 19q-9 4 -15 -2q-73 -61 -172 -121q-94 -57 -202 -96q-101 -36 -200 -38q-96 -2 -164 54z" />
    <glyph glyph-name="H" unicode="H" horiz-adv-x="1998" 
d="M2535 1450q17 -22 15 -51q-1 -27 -31 -72q-28 -41 -75 -79q-43 -34 -72 -34q-52 0 -128 -69q-77 -70 -169 -184q-44 -56 -128 -168q-47 -63 -122 -177q29 -18 47 -28q12 -7 35 -23q19 -12 28 -20q4 -15 4 -25q0 -8 -5 -13t-15 5q-2 2 -14.5 11.5t-22.5 16.5
q-29 21 -74 50q-40 -63 -92 -163q-34 -65 -80 -162q-37 -78 -67 -149q-29 -67 -51 -128q-7 -21 -25 -19q-15 1 -31 19q-13 14 -21 42q-8 26 3 50q46 108 127 246q91 156 188 295q-128 81 -258 143q-140 66 -278 123q-72 -113 -147 -231q-61 -97 -177 -267
q-116 -171 -240 -335q-113 -149 -209 -260q-89 -104 -168 -174q-73 -66 -116 -73q-54 -12 -99 -2q-48 11 -49 33q0 8 19 33q18 24 45 51q25 25 58 47q31 21 59 21q42 0 107 52q71 56 152 146q75 83 183 222q106 136 205 276q74 105 161 233q61 90 160 250q-217 80 -345 116
q-134 38 -169 15q-18 -13 -28 -18q-11 -5 -26 -7q-14 -2 -32 0q-35 3 -49 5q-59 7 -73 26q-13 17 4 35q28 31 53 38q27 7 73 -3q55 -11 88 -17t121 -28q63 -16 169 -50q89 -29 231 -83q53 90 85 159q29 63 43 110q13 45 13 79q0 24 -2 64q-2 19 16 50q17 30 45 61
q27 30 57 51q31 21 54 20q52 -5 73 -10q23 -6 1 -43q-25 -38 -104 -183q-73 -134 -224 -381q146 -62 264 -122q144 -74 271 -148q71 102 122 168q58 76 140 174q111 135 230 262q112 119 196 187q13 12 37 24q20 10 34 -10z" />
    <glyph glyph-name="I" unicode="I" horiz-adv-x="1531" 
d="M813 -12q-11 -25 -32 -17q-20 7 -36 33q-87 -12 -185 -42q-101 -31 -226 -95q-32 -18 -44 -31q-25 -28 -26 -29q-7 -9 -34 -28q-21 -15 -68 -27q-45 -11 -82 -21q-33 -9 -49 -6q-17 3 -16 22q1 18 20 63q15 29 35 43q17 12 49 24q116 45 191 68q73 23 162 44
q66 16 139 26q91 13 124 16q-6 27 4 49q20 47 73 147q42 79 99 172q66 107 121 187q77 112 137 192q118 158 245 305q120 139 233 250q-109 -34 -162 -50q-90 -27 -185 -47q-111 -23 -208 -34q-114 -12 -234 -8q-28 0 -54 6q-25 6 -48 29q-34 34 -41 51q-8 20 6 28
q15 9 48 12q9 1 37.5 3t47.5 4q50 5 75 0t42 -12q6 -3 34 -19q18 -11 52 -18q87 -18 167 -11q83 8 160 28q65 17 163 51q70 24 171 55q47 41 74 53t47 -20q38 10 107.5 27t100.5 25q93 24 176 39q81 15 149 18q70 3 125 -7q61 -12 82 -48q22 -37 23 -76q2 -40 -9 -75
q-10 -35 -17 -41q-10 -14 -21 -11q-12 3 -7 20q10 50 -17 85q-27 34 -82 52q-118 40 -266 19q-154 -22 -340 -70q-5 -26 -22 -54q-19 -31 -44 -58q-27 -29 -56 -46q-32 -19 -54 -19q-35 0 -84 -34q-44 -30 -107 -97q-64 -67 -125 -145q-89 -114 -137 -180q-52 -73 -117 -180
q-49 -82 -106 -190q-41 -78 -89 -185q-44 -97 -71 -164q84 6 160 3q81 -3 138 -10q37 -4 109 -16q36 -6 75 -14q50 -12 85 -27q34 -15 38 -30q5 -17 -11 -20t-43 7q-21 7 -29 22q-7 12 -28 17q-67 19 -190 35q-128 17 -314 6z" />
    <glyph glyph-name="J" unicode="J" horiz-adv-x="1890" 
d="M1784 635q119 185 191 311q72 127 101 197q33 80 37 121q5 45 3 86q-29 -9 -88 -27.5t-83 -26.5q-99 -31 -196 -53q-107 -24 -222 -39t-253 -10q-28 0 -54 6t-49 29q-34 34 -41 51q-8 19 7 28t48 12q9 1 37.5 3t47.5 4q50 5 75 0q24 -4 41 -12q6 -3 34 -19q18 -10 53 -18
q85 -18 164 -11q91 8 161 27q93 25 163 50q83 30 171 57q11 21 32 45q20 23 41 41q23 19 43 31q22 12 40 14q60 7 76 -6q18 -15 -15 -68q195 48 324 68q131 20 239 2q62 -12 83 -48q22 -37 23 -76q2 -40 -9 -75q-10 -34 -17 -41q-10 -14 -21 -11q-12 3 -8 19q11 51 -16 85
q-28 35 -82 53q-110 37 -244 25q-136 -12 -301 -52q-51 -99 -159 -297q-105 -193 -295 -496q-62 -99 -158 -238q-84 -122 -186 -244q-100 -120 -214 -226q-115 -107 -242 -188q-128 -81 -270 -129t-300 -48q-108 0 -205 35q-96 34 -165 102q-68 66 -101 166q-34 101 -13 226
q18 118 81 217q62 98 153 175q90 77 200 133q105 54 226 89q125 36 249 41q117 4 217 -8q97 -12 166 -36q68 -24 97 -42q48 -29 70 -56t18 -42q-5 -31 -53 12q-17 17 -18 28q-1 12 -17 23q-36 25 -111 50q-67 22 -167 35q-86 11 -209 6q-106 -4 -232 -36q-113 -29 -220 -85
q-111 -58 -195 -134q-84 -75 -146 -173q-59 -92 -74 -201q-17 -116 16 -204q34 -90 99 -151q66 -62 156 -94q91 -33 190 -33q138 0 266 49q132 51 249 131q120 82 228 189q115 114 205 223q90 110 178 236q87 125 150 223z" />
    <glyph glyph-name="K" unicode="K" horiz-adv-x="1294" 
d="M1083 1479q16 -22 18 -51q1 -26 -26 -72q-29 -47 -70 -84q-42 -37 -71 -39q-30 -2 -69 -31q-41 -31 -82 -78q-53 -60 -94 -115q-36 -48 -105 -145q199 -6 373 17q179 24 316 65q142 43 264 107q118 62 220 141q32 24 38 28q13 9 21 18q7 8 10 24q3 15 3 43q0 22 16 42
q20 25 37 40q19 16 41 32q23 16 31 21q17 9 42 10q29 2 53 -4q25 -6 39 -20t-1 -31q-43 -57 -123 -122q-75 -61 -168 -118q-132 -81 -256 -147q-134 -71 -269 -115q-146 -48 -307 -71q-157 -23 -368 -15q-28 0 -4 -12q18 -8 59 -38q35 -25 68 -63q21 -25 64 -95
q25 -41 89 -159q59 -110 107 -205q16 -32 121 -237q73 -143 154 -242q78 -96 168 -156q88 -59 179 -80t187 -9q21 2 27 13q5 11 28 17q61 20 54 -10q-1 -1 -1 -2q-4 -16 -39 -28q-32 -11 -85 -17q-107 -15 -214 4q-104 18 -199 74q-97 57 -181 150q-87 96 -166 235
q-63 109 -111 211q-21 45 -93 196q-41 87 -88 169q-44 78 -95 130q-63 64 -133 82q-65 -90 -124 -193q-60 -105 -108 -202q-44 -89 -89 -191q-38 -87 -67 -163q-7 -21 -24 -19q-15 1 -31 19q-13 14 -21 42q-8 26 3 50q31 72 68 141q38 70 95 165q66 109 114 179
q91 132 130 185q-75 11 -96 24q-24 15 -10 35q17 24 26 34q11 13 32 19q18 5 51 7q32 2 85 -3q18 24 64 84.5t70 93.5q56 76 130 165q102 124 118 142q51 58 104 109q15 15 36 28q19 12 35 -9z" />
    <glyph glyph-name="L" unicode="L" horiz-adv-x="933" 
d="M1030 -289q-58 -6 -114 -2t-123 24q-69 20 -141 55q-75 36 -165 93q-87 55 -131 84q-58 38 -101 59t-75 24t-49 -17q-11 -12 -29 -30q-11 -11 -24 -11t-26 13q-15 15 -32 42q-12 20 -7 52q4 27 21 65q14 31 37 57q22 25 40 31q25 9 32 11q13 4 36 21q18 14 47 46
q33 36 66 83q44 62 89 133q68 108 121 199q56 95 110 197q48 90 68 140q25 61 35 98q9 35 11 67q1 25 -2 52q-4 31 -5 53q-2 19 16 50q17 30 45 61q27 30 57 51q31 21 54 20q50 -5 71 -9q21 -5 3 -44q-5 -10 -17.5 -37t-20.5 -44q-30 -62 -70 -138q-47 -88 -120 -219
q-61 -109 -186 -320q-63 -106 -129 -214q-41 -66 -103 -164q-69 -108 -78 -121q-41 -58 -59 -87q38 -12 66 -26q35 -18 73 -40q41 -24 93 -57q27 -17 129 -75q104 -61 164 -95q71 -40 124 -63q60 -26 102 -34q46 -9 95 -3q50 6 73 11q33 8 58 19q35 15 50 25q24 15 51 33
q14 10 27 39q12 26 28 41q48 38 63 12q21 -33 -8 -60q-31 -29 -72 -52q-64 -37 -117 -60q-64 -28 -151 -39z" />
    <glyph glyph-name="M" unicode="M" horiz-adv-x="2482" 
d="M999 684q-71 -82 -146 -183q-58 -78 -128 -185q-60 -92 -108 -177q-45 -80 -82 -159q-11 -21 -26 -18q-14 3 -27 22q-11 16 -14 45q-3 28 11 51q26 49 76 133q18 29 91 145q16 25 52.5 82t57.5 90q38 60 133 213q163 265 210 449q46 183 -5 246q-17 21 -64 32t-104 8
q-54 -3 -128 -22q-67 -17 -134 -51q-115 -59 -168 -88q-63 -34 -121 -71q-51 -32 -78 -61q-29 -30 -39 -63q-10 -27 -15 -49q-3 -12 -15 -36q-9 -18 -27 -39q-6 -7 -23.5 -26.5t-28.5 -31.5q-8 -9 -46 -47q-21 -21 -38 -25t-30 12q-14 17 -21 60q-6 31 9 66q16 36 36 55
q17 17 70 62q55 47 124 95q76 53 173 109q114 66 219 111q74 32 158 58q75 23 144 31q65 7 117 -2q50 -9 79 -40q83 -92 45 -287q-37 -193 -230 -487q-10 -19 -3 -19q10 2 20 12q1 1 5.5 6.5t14.5 17t19 22.5q40 47 93 104q72 78 137 145q80 83 171 168q105 98 177 160
q89 76 161 123q79 51 142 71q66 21 124 3q56 -17 65 -76q9 -62 -11 -143q-22 -88 -64 -185q-39 -89 -93 -198q-42 -85 -100 -186q-21 -37 -83 -144q-4 -7 1 -14q5 -6 15 8l45 60q36 48 70 89q93 113 103 124q54 64 147 163q228 246 374 338q150 95 242 33q53 -38 60 -103
q7 -66 -24 -160q-32 -96 -97 -217q-61 -114 -156 -272q-92 -155 -165 -295q-75 -144 -115 -267q-39 -120 -33 -222q6 -99 79 -156q27 -25 69 -38q29 -9 71 -15q39 -6 78 -2q0 8 8 16q9 11 17 16q17 11 30 15q37 12 58 12q23 0 31 -7q9 -8 8 -18t-9 -18q-30 -29 -64 -44
q-33 -15 -79 -15q-16 0 -56 2q-24 1 -63 10q-32 7 -67 21q-32 13 -64 38q-87 70 -105 178q-18 107 12 239q29 126 102 282q67 142 163 303q85 143 148 268q55 109 82 193q25 78 24 123q-1 43 -27 59q-78 45 -198 -36t-312 -288q-79 -84 -186 -208q-95 -110 -176 -226
q-111 -156 -193 -302q-87 -155 -135 -251q-12 -24 -28 -22q-13 1 -26 17t-17 39q-5 25 5 40q35 65 78 140q25 43 73 127q11 19 36 62t38 66q14 25 42.5 76t37.5 68q23 42 69 128q40 76 79 161q43 94 75 173t56 161q20 70 22 124q1 50 -28 66q-38 18 -85 11q-49 -8 -113 -42
q-61 -33 -145 -101q-71 -58 -185 -167q-85 -81 -157 -153q-61 -61 -105 -108q-56 -60 -82 -90q-14 -16 -44.5 -51t-42.5 -49z" />
    <glyph glyph-name="N" unicode="N" horiz-adv-x="1859" 
d="M1440 1145q-102 -103 -164 -167q-84 -86 -110 -112q-46 -46 -84 -87q-62 -67 -87 -95q-76 -83 -147 -179q-72 -97 -129 -184q-56 -86 -108 -178q-51 -91 -83 -159q-10 -21 -25 -18t-27 20q-11 15 -14 43t11 51q33 62 66 120q43 77 76 132q30 51 109 172q38 59 161 239
q81 119 131 228q52 114 77 204q25 93 24 162q-2 72 -25 101q-16 20 -66 33q-46 12 -108 9q-59 -3 -132 -22q-69 -18 -135 -51q-117 -61 -166 -88q-69 -39 -117 -72q-50 -35 -75 -62q-26 -29 -37 -63q-10 -27 -15 -49q-3 -12 -15 -36q-9 -18 -27 -39q-6 -7 -23.5 -26.5
t-28.5 -31.5q-8 -9 -46 -47q-20 -20 -39 -25q-16 -4 -29 12q-14 17 -21 60q-7 33 8 66q15 34 37 55q17 17 70 62q55 47 124 95q76 53 173 109q114 66 219 111q77 34 157 57q79 23 141 29q65 6 117 -3q53 -9 83 -36q59 -50 71 -128q12 -79 -14 -175q-28 -102 -89 -217
q-64 -121 -153 -254q-7 -8 -3 -14t12 5q44 52 98 111q52 57 99 104l113 113q19 18 65 63.5t73 73.5q93 96 183 164q95 72 173 110q80 39 150 47q66 7 115 -24q64 -42 76 -118q12 -74 -19 -183q-30 -107 -99 -240q-72 -140 -161 -294q-89 -151 -162 -294q-74 -144 -114 -263
q-39 -118 -33 -217q6 -97 80 -154q32 -26 69 -38q30 -9 72 -15q39 -6 78 -2q0 8 8 16q9 11 17 16q17 11 30 15q38 12 58 12q23 0 31 -7q9 -8 8 -17q-2 -12 -9 -19q-31 -29 -63 -44q-33 -15 -80 -15q-16 0 -56 2q-24 1 -63 10q-32 7 -67 21q-32 12 -62 38q-88 69 -108 178
q-19 106 11 239q30 134 100 282q67 142 163 303q72 122 141 258q59 117 90 211q31 95 31 154q0 63 -35 92q-72 55 -213 -8t-313 -238z" />
    <glyph glyph-name="O" unicode="O" horiz-adv-x="1220" 
d="M1325 1296q-49 31 -102 30q-60 -2 -106 -21q-46 -20 -90 -52q-37 -28 -54 -61q-16 -30 -21 -50q-5 -23 -10 -36q-6 -17 -19 -37t-51 -55q-43 -43 -59 -58q-24 -22 -41 -27q-18 -5 -26 12q-10 19 -11 65q-5 33 7 55q15 28 28 47q36 48 109 104q76 59 155 94q85 38 171 47
q87 9 155 -32q72 -43 79 -142q8 -100 -30 -223q-38 -124 -108 -254q-70 -129 -156 -241q-78 -101 -198 -218q-113 -110 -236 -181q-127 -73 -257 -94q-132 -21 -259 40q-82 39 -127 111q-44 70 -53 156q-9 88 12 187q22 104 62 201t102 198q57 93 128 181q104 127 216 218
q113 92 221 152t207 90q97 29 174 34q80 2 130 -11q54 -13 90 -33q34 -18 53 -39q13 -14 22 -26q5 -14 1 -24q-5 -11 -26 6q-26 18 -30 21q-19 12 -51 21q-34 10 -79 14q-49 5 -114 -1q-68 -6 -155 -42q-89 -37 -183 -100q-98 -66 -196 -155q-99 -90 -189 -204
q-63 -78 -117 -166q-52 -85 -99 -183q-46 -96 -70 -182q-26 -90 -27 -168q-1 -76 28 -138q29 -60 96 -93q68 -33 146 -30q76 3 160 32q80 28 167 79q86 51 161 111q79 63 144 130q74 75 119 134q56 72 102 153q42 73 80 164q36 85 56 161q19 71 24 144q5 67 -9 115
q-13 48 -46 70z" />
    <glyph glyph-name="P" unicode="P" horiz-adv-x="1232" 
d="M1106 670q-27 0 -44 -1q-26 -1 -54 0q-9 1 -28.5 2t-29.5 1q-26 1 -49 8q-26 6 -30 16q-5 11 1 21q3 5 19 21q8 8 24 22q14 10 50 10q31 0 71 -8q24 -5 40 -16q16 -10 23 -19q8 -9 18 -16q9 -6 28 -6q115 8 254 48q140 41 265 112q125 72 218 175q92 103 115 234
q8 58 -12 103q-20 47 -91 82q-68 34 -194 49q-128 15 -322 8q-188 -10 -371 -41q-164 -28 -323 -69q-134 -35 -241 -76q-97 -37 -124 -60q-22 -18 -37 -39q-16 -22 -24 -32q-11 -13 -34 -30q-16 -12 -68 -30q-11 -4 -28 -10t-29.5 -10t-21.5 -8q-28 -11 -48 -9q-17 2 -18 21
q-1 17 16 63q11 32 30 48q22 19 47 30q22 11 122 51q99 39 259 84q169 47 386 86q225 41 505 57q234 12 372 -5q146 -18 226 -56q82 -39 108 -97q25 -55 17 -122q-16 -106 -68 -186q-53 -81 -135 -146q-80 -64 -179 -110q-97 -46 -205 -78q-101 -30 -210 -49
q-95 -16 -196 -23zM1405 1450q16 -21 14 -51q-1 -29 -30 -72q-28 -41 -75 -79q-43 -34 -73 -34q-35 0 -84 -34q-44 -30 -107 -97q-64 -67 -125 -145q-89 -114 -137 -180q-68 -93 -128 -197q-58 -101 -112 -208q-55 -109 -93 -197q-44 -103 -68 -168q-7 -21 -25 -19
q-14 1 -30 19q-14 16 -22 42t3 50q20 47 73 147q42 79 99 172q66 107 121 187q77 112 137 192q82 109 157 201q77 94 159 184q95 104 148 156q81 79 126 117q13 12 37 24q21 10 35 -10z" />
    <glyph glyph-name="Q" unicode="Q" horiz-adv-x="1449" 
d="M41 174q17 17 62 43q42 24 112 53q-10 87 11 188q21 97 65 201q47 110 102 201q58 95 129 182q105 128 214 218q113 93 219 152q109 61 206 90t174 34q80 2 130 -11q54 -13 90 -33t54 -39q8 -9 21 -26q5 -14 1 -24t-25 6q-26 18 -30 21q-20 12 -51 21q-34 10 -79 14
q-50 5 -115 -1q-67 -6 -153 -42q-93 -39 -182 -100q-94 -64 -194 -155q-103 -93 -190 -204q-61 -77 -110 -157q-54 -88 -96 -172q-44 -87 -72 -174q-29 -89 -35 -163q91 31 175 31t170 -22q85 -22 163 -60q85 -41 154 -84q108 76 192 156q90 86 156 171q53 69 103 153
q47 79 85 163q33 73 60 160q23 76 31 143q7 65 -5 114q-12 47 -45 70q-47 31 -105 32q-60 2 -114 -16q-56 -18 -98 -47t-58 -61q-16 -29 -19 -51q-4 -26 -7 -39q-5 -18 -17 -40q-13 -23 -49 -56q-43 -43 -59 -58q-24 -22 -41 -27q-18 -5 -26 12q-10 19 -11 65q-5 33 7 55
q15 28 28 47q25 34 66 71q37 33 93 71q46 31 109 61q54 26 115 40q56 13 110 7q52 -6 97 -37q59 -43 65 -141q6 -100 -28 -222q-35 -125 -100 -255q-62 -124 -153 -242q-69 -89 -153 -174q-86 -87 -180 -158q69 -46 158 -119q105 -86 167 -141q172 -149 323 -181t279 44
q27 16 38 5t-23 -38q-74 -58 -143 -83q-68 -25 -144 -13q-75 12 -166 65q-88 51 -209 154q-111 94 -182 155q-92 79 -143 119q-66 -44 -140 -78q-70 -32 -144 -46q-72 -14 -145 -6q-75 8 -143 42q-70 33 -111 90q-40 55 -61 127q-13 -13 -18 -19q-9 -10 -10 -22
q-1 -17 -19 -33q-20 -18 -65 -40q-10 -6 -27 -1t-29 15q-13 12 -17 23q-5 15 5 26zM420 33q55 -25 113 -28q64 -3 124 11q68 16 129 44q59 27 131 71q-67 49 -144 87q-75 37 -157 57q-83 20 -160 19q-81 -2 -159 -30q-1 -78 27 -138t96 -93z" />
    <glyph glyph-name="R" unicode="R" horiz-adv-x="1705" 
d="M1065 711q61 -43 108 -120q50 -83 90 -172q35 -78 85 -203q41 -103 96 -212q74 -145 149 -245t161 -162q85 -61 181 -82q94 -20 209 -2q22 2 29 21q8 20 31 26q26 10 50 8q21 -2 9 -37q-6 -16 -46 -28q-35 -11 -89 -17q-111 -15 -213 0q-104 15 -197 67q-94 52 -181 148
q-85 94 -169 248q-59 108 -106 224q-33 82 -86 209q-36 86 -85 176q-42 77 -104 128q-14 10 -37 13q-15 2 -45 8q-25 5 -32 13t-2 19q4 10 17 21q4 3 11.5 10t11.5 10q15 10 57 9q47 -2 83 -7q26 -4 36 -10q12 -7 17 -12q6 -6 12 -9t25 -3q82 5 166 30q89 27 181 69t177 96
q87 55 156 115q66 57 115 124q46 63 57 123q7 42 -14 85q-21 42 -89 72q-71 32 -191 46q-128 15 -321 8q-188 -10 -371 -41q-164 -28 -323 -69q-134 -35 -241 -76q-97 -37 -124 -60q-22 -18 -37 -39q-16 -22 -24 -32q-11 -13 -34 -30q-16 -12 -68 -30q-11 -4 -28 -10
t-29.5 -10t-21.5 -8q-28 -11 -48 -9q-17 2 -18 21q-1 17 16 63q11 32 30 48q22 19 47 30q27 14 122 53q106 44 259 88q173 50 386 88q229 41 505 53q228 8 360 -6q144 -15 225 -49q83 -35 113 -87q29 -51 17 -118q-12 -73 -65 -143q-54 -71 -131 -132q-82 -65 -178 -116
q-101 -53 -209 -92q-117 -42 -223 -64q-111 -23 -220 -28zM1368 1450q16 -21 14 -51q-2 -29 -30 -72q-28 -41 -75 -79q-43 -34 -73 -34q-35 0 -84 -34q-44 -30 -107 -97q-64 -67 -125 -145q-78 -99 -136 -180q-68 -93 -128 -197q-67 -117 -113 -208q-55 -109 -93 -197
q-44 -103 -68 -168q-7 -21 -24 -19q-15 1 -31 19q-14 16 -22 42t3 50q20 47 73 147q42 79 99 172q66 107 121 187q66 96 138 192q93 124 156 201q77 94 159 184q95 104 148 156q81 79 126 117q13 12 37 24q21 10 35 -10z" />
    <glyph glyph-name="S" unicode="S" horiz-adv-x="1632" 
d="M1667 1542q95 6 134 -26q40 -33 46 -82q6 -52 -14 -104q-22 -58 -47 -89q-33 -45 -71 -92q-37 -47 -95 -74q-58 -28 -84 -23q-25 5 -49 27q-15 12 2 37t47 49t67 41q36 16 58 15q21 -4 37 2q10 4 24 14q12 8 19 20q23 28 50 77q24 44 24 84t-31 66q-29 25 -111 23
q-63 -2 -145 -28q-84 -27 -162 -72t-133 -103q-54 -57 -59 -124q-4 -50 36 -93q32 -34 96 -93q52 -48 108 -113q54 -62 81 -154q50 -5 104 -14q15 -2 82 -17q55 -12 82 -23q35 -13 39 -30t-16 -17q-14 0 -39 7q-23 6 -26 16q-3 11 -25 17q-34 10 -84 18q-59 9 -111 14
q30 -129 6 -253q-23 -119 -85 -234q-60 -111 -146 -206q-82 -91 -178 -171q-133 -106 -295 -175q-159 -68 -315 -89q-152 -21 -272 12q-119 33 -169 129q-56 108 -36 231q19 122 99 240q83 123 212 225q134 106 307 183q221 98 406 124q192 27 341 23q-38 80 -96 136
q-65 64 -115 108q-55 49 -92 95q-37 45 -24 100q18 81 89 148q72 67 162 113q83 42 192 72q99 27 175 33zM645 567q-164 -74 -285 -172q-122 -99 -200 -213q-77 -114 -98 -225q-21 -114 22 -209q25 -54 84 -78q60 -24 140 -27q83 -3 178 16q100 20 195 55t189 86
q91 49 166 112q79 65 165 162q80 91 136 196q56 106 74 216q18 113 -22 219q-155 4 -352 -23q-196 -27 -392 -115z" />
    <glyph glyph-name="T" unicode="T" horiz-adv-x="737" 
d="M1135 1419q10 10 19 18q10 9 28 18q15 7 27 6q14 -2 20 -17q28 7 82.5 21t81.5 21q88 22 156 36q71 14 139 19q63 5 108 -3q61 -12 82 -47q20 -33 20 -74q0 -40 -11 -72q-12 -35 -17 -40q-10 -15 -22 -12t-7 20q12 66 -40 103t-141 49t-201 -3q-116 -16 -218 -53
q0 -35 -31 -82q-29 -43 -74 -79q-43 -34 -73 -34q-35 0 -84 -34q-47 -33 -108 -97q-64 -67 -125 -145q-78 -99 -136 -180q-68 -93 -128 -197q-58 -101 -112 -208q-62 -122 -94 -197q-37 -86 -67 -168q-7 -21 -25 -19q-14 1 -30 19q-14 16 -22 42t3 50q20 47 73 147
q42 79 99 172q66 107 121 187q77 112 137 192q88 114 134 171q55 68 136 162q61 71 130 143q74 78 118 118q-100 -27 -197 -60q-99 -34 -198 -59q-106 -27 -233 -42q-133 -15 -305 -11q-30 0 -55 6t-48 29q-34 34 -41 51q-8 20 6 28q15 9 48 12q9 1 37.5 3t47.5 4q49 5 75 0
t42 -12q14 -6 34 -18q21 -12 52 -19q91 -20 173 -17t166 22q99 22 194 53q66 21 254 77z" />
    <glyph glyph-name="U" unicode="U" 
d="M817 713q-89 -144 -138 -254q-47 -107 -63 -186q-15 -74 1 -126q14 -47 55 -75q39 -28 87 -27q47 1 108 29q59 27 137 77q62 40 170 119q41 30 103 81q42 34 116 99q43 38 118 107q39 36 112 107q48 46 93 95q43 46 64 77q69 97 136 196q83 124 124 183q99 143 111 160
q54 74 100 126q16 18 33 29q18 12 34 -4q19 -22 22 -49q3 -28 -20 -76q-14 -29 -27 -49q-16 -26 -33 -44q-18 -20 -35 -31q-16 -11 -32 -9q-21 4 -58 -34q-32 -33 -82 -106q-43 -62 -100 -159q-50 -85 -116 -199q-50 -87 -98 -199q-45 -106 -74 -201q-33 -109 -52 -193
q-22 -96 -36 -169q-2 -12 -6.5 -17t-11.5 -4q-14 1 -29 16t-24 41q-9 25 -3 52q33 137 90 296q55 155 160 345q4 4 1 6t-7 -2q-49 -52 -115 -115q-40 -38 -138 -128q-76 -70 -148 -129q-91 -75 -144 -115q-95 -72 -186 -133q-85 -57 -159 -89q-72 -31 -133 -36
q-58 -4 -110 27q-126 76 -89 251q37 174 208 469q93 161 167 277q77 121 123 202q47 84 64 139q17 54 -6 87q-21 29 -68 39q-46 10 -111 4q-61 -6 -132 -29q-72 -23 -135 -55q-117 -61 -166 -88q-71 -40 -116 -72t-72 -62q-26 -29 -37 -63q-13 -37 -16 -49q-4 -16 -14 -36
q-8 -15 -28 -39q-2 -2 -51 -58q-8 -9 -46 -47q-20 -20 -39 -25q-17 -4 -30 12t-20 60q-7 33 8 66q15 34 37 55q17 17 70 62q55 47 124 95q76 53 173 109q114 66 219 111q77 33 163 60q82 26 153 36q67 10 126 2q56 -8 80 -41q39 -50 31 -116q-7 -58 -56 -155
q-43 -84 -127 -216q-42 -66 -184 -295z" />
    <glyph glyph-name="V" unicode="V" horiz-adv-x="1548" 
d="M969 672q80 188 123 310t58 205q15 80 7 129q-7 48 -29 83q-21 33 -71 48q-51 15 -117 15q-71 0 -138 -14q-77 -16 -138 -41q-98 -40 -170 -77q-79 -41 -114 -69q-47 -37 -69 -65q-25 -31 -35 -63q-16 -47 -18 -51q-7 -18 -21 -40q-14 -21 -34 -43q-36 -39 -54 -59
q-8 -9 -46 -47q-21 -21 -38 -25t-30 12q-14 17 -21 60q-6 31 9 66q16 36 36 55q17 17 70 62q55 47 124 95q76 53 173 109q114 66 219 111q78 34 163 57q82 22 156 30q73 8 130 -3q59 -11 88 -37q43 -39 68 -101q24 -60 15 -156q-9 -93 -58 -243q-49 -149 -146 -356
q-10 -21 -45.5 -96.5t-52.5 -110.5q-43 -90 -72 -150l-21 -42t-22.5 -44.5t-16.5 -33.5q-2 -6 0 -11q5 -11 21 0q5 4 76 45q62 36 164 106q78 54 209 157q114 90 219 198q139 145 230 258q81 101 128 177q42 69 52 112q9 40 3 63q-6 21 3 50t27 57q21 33 38 55q13 16 39 47
q42 45 62 57q26 15 75 11q27 -1 39 -10q10 -7 7 -23q-3 -14 -15 -34q-10 -16 -27 -40q-57 -85 -78 -117q-44 -68 -78 -116q-63 -89 -174 -227q-117 -144 -309 -344q-96 -101 -209 -194q-100 -83 -218 -172q-90 -68 -192 -142q-77 -56 -130 -105q-21 -20 -38 -23
q-16 -3 -28 4q-13 8 -21 23q-11 20 -16 35q-7 20 -8 29t3 21q4 10 17 30q14 21 33 55q32 57 90 173q50 101 144 315z" />
    <glyph glyph-name="W" unicode="W" horiz-adv-x="2605" 
d="M2071 1208q19 -31 4 -88t-76 -145q-109 -155 -170 -313q-59 -154 -73 -282q-13 -124 19 -209q31 -82 101 -97q67 -15 161 16q91 30 184 93t181 151q91 91 150 186q74 118 120 237q44 112 68 213q24 99 25 159q1 64 -17 75q-42 23 -49 71q-8 51 -8 101q1 20 5 47
q3 21 9 36t19 31q15 18 33 34q24 27 43 14q17 -12 28 -51q11 -41 14 -97q3 -63 -1 -126t-14 -152q-9 -77 -35 -173q-27 -100 -74 -203q-50 -110 -135 -240q-69 -107 -158 -208q-83 -95 -182 -166q-95 -68 -198 -103q-99 -33 -202 -15q-93 17 -133 76q-41 61 -47 144
q-6 89 17 188q23 97 62 205q39 107 84 199q48 98 87 167q6 10 1 15t-15 -7q-20 -27 -40 -51q-27 -32 -65 -70q-48 -48 -105 -101q-71 -66 -165 -146q-113 -100 -239 -191q-143 -104 -242 -172q-49 -34 -208 -144q-88 -61 -143 -106q-22 -20 -41 -23q-16 -3 -27 4
q-12 8 -18 23q-4 11 -12 35q-4 16 -4 29q0 9 6 21q8 15 20 30q16 20 39 55q28 38 51 73q34 53 63 100q13 21 40.5 67t41.5 69q37 61 103 179q106 187 153 310q48 125 60 205q12 83 -2 129q-17 56 -34 83q-20 32 -71 49q-46 15 -115 17q-67 2 -137 -13q-76 -16 -136 -43
q-192 -84 -285 -160q-90 -74 -111 -139q-10 -28 -15 -47q-4 -16 -14 -32t-27 -35q-15 -17 -50 -56q-16 -19 -46 -49q-20 -20 -38 -25q-15 -4 -30 12q-14 15 -21 58q-8 32 5 66q14 36 36 57q12 15 65 62q37 34 120 94q70 51 170 111q104 62 216 112q90 40 175 63t154 29
q71 6 124 -6q55 -12 84 -39q46 -42 76 -101q30 -60 24 -156q-6 -98 -60 -243q-52 -141 -182 -356q-62 -101 -124 -207q-39 -68 -93 -150q-17 -26 -43 -67t-34 -53q-2 -6 0 -11q4 -7 20 0q40 19 118 63q79 45 171 106q94 63 208 151q107 82 232 192q183 165 283 288
q97 119 102 167q5 46 36 76q35 33 52 43q19 12 41 18q15 4 28 -1q9 -3 18 -14q7 -9 14 -22z" />
    <glyph glyph-name="X" unicode="X" horiz-adv-x="1400" 
d="M1288 -98q16 -10 29 -2t33 2q59 -17 45 -35q-12 -15 -50 -21t-85 23q-110 66 -209 251q-99 187 -183 460q-32 -29 -103 -94t-111 -101q-100 -91 -240 -209q-124 -105 -255 -198q-127 -90 -256 -158q-126 -66 -242 -93q-117 -27 -212 1q-21 6 -23 21t9 32q12 19 27 30
q15 12 30 17q7 3 39 8q18 3 55 5q26 1 55 -2q24 -3 35 -15q33 -36 111 -12q76 24 175 90q104 69 215 163q134 113 234 203q119 107 229 214q113 110 200 194q-48 164 -89 288q-34 104 -62 171q-25 60 -44 84q-17 22 -39 28q-43 15 -66 44t-40 83l-11 44q-4 16 -4 33t4 32
q2 6 6.5 21t6.5 20q8 22 21 24q15 2 28 -9q15 -12 30 -33q13 -18 25 -46q51 -108 57 -121q34 -78 50 -120q8 -21 16 -43t16 -45t12 -33q14 -39 34 -102q7 -23 35 -117q6 -21 23.5 -76t27.5 -90q115 120 172 182q85 95 153 177q68 83 107 149q38 65 32 96q-16 82 58 156
q14 14 32 30q19 17 27 21q20 10 31 13q15 4 41 9q22 4 30 -6q7 -10 4 -29q-3 -16 -14 -42q-12 -26 -22 -46q-49 -98 -118 -200q-78 -115 -149 -206q-78 -99 -171 -205q-83 -94 -183 -194q84 -272 173 -457q87 -181 208 -259z" />
    <glyph glyph-name="Y" unicode="Y" horiz-adv-x="1705" 
d="M1958 868q-36 -62 -118 -209q-69 -125 -156 -264q-86 -137 -190 -281q-105 -144 -224 -259q-80 -77 -166 -140t-197 -110q-107 -45 -227 -63t-256 5q-94 16 -175 60q-82 44 -136 110q-56 68 -80 156q-24 90 -2 197q21 100 78 172t125 118q72 48 134 73q67 26 97 36
q112 30 133 2q10 -12 -3 -24q-12 -11 -42 -11q-24 0 -32 7q-9 7 -29 3q-47 -8 -113 -36q-61 -26 -130 -76q-64 -46 -116 -115q-50 -67 -67 -153q-18 -97 9 -178q26 -78 82 -142q51 -58 127 -101q73 -41 146 -53q112 -21 222 0t212 69t195 118q96 72 172 147q99 98 192 224
q101 137 172 250q79 125 143 241q24 43 58.5 106.5t44.5 81.5q5 6 0 8q-3 1 -8 -6q-90 -105 -184 -199q-101 -101 -207 -190q-102 -85 -178 -137q-84 -58 -152 -89q-71 -33 -130 -37t-116 20q-49 21 -83 59q-33 38 -41 103q-7 61 18 158q24 94 96 224q26 49 112 203
q63 114 107 207q50 106 70 176q23 78 -2 109q-18 23 -64 35q-43 12 -104 10q-57 -1 -128 -20t-134 -50q-117 -61 -168 -89q-77 -43 -121 -74q-51 -35 -78 -64q-28 -29 -39 -64q-10 -27 -15 -49q-4 -16 -14 -36q-8 -15 -28 -39q-1 -2 -51 -58q-8 -9 -46 -47q-20 -20 -39 -25
q-17 -4 -30 12q-14 17 -21 60q-6 31 9 66q15 34 37 55q23 23 69 62q55 47 124 95q76 53 173 109q114 66 219 111q83 36 159 59q82 25 145 32q65 7 117 -2q50 -9 77 -42q38 -46 46 -97q8 -50 -21 -133q-26 -74 -97 -209q-68 -128 -180 -333q-68 -125 -89 -210t-16 -144
q5 -57 24 -84q20 -27 34 -33q100 -41 224 20q123 60 310 209q62 49 131 118q85 85 145 150q73 79 134 152t96 123q72 100 117 165q37 53 80 111q38 51 68 88q59 73 79 95q7 9 21 20q20 16 30 23q12 9 30 14q15 5 24 -4q18 -21 21 -49q3 -30 -19 -76q-10 -20 -28 -47
q-16 -24 -33 -41q-25 -25 -34 -31q-19 -13 -32 -14q-35 -6 -69 -39q-32 -31 -68 -87q-27 -43 -75 -124q-14 -24 -43 -74t-44 -76z" />
    <glyph glyph-name="Z" unicode="Z" horiz-adv-x="1368" 
d="M27 -297q1 -6 51 9q19 6 63 20t61 20q29 9 88.5 29t78.5 26q148 49 178 58q241 73 411 85q166 12 240 -22q48 -22 68 -55t25 -72q5 -40 -2 -71q-8 -39 -17 -56q-7 -16 -22 -14q-14 2 -9 18q10 51 -14 89q-21 33 -72 71q-32 25 -93 34q-60 9 -142 7q-80 -1 -171 -15
t-180 -36q-191 -49 -322 -108q-137 -62 -204 -101q-36 -22 -62 -14t-41 30q-16 24 -22 54t-6 55q0 24 33 92q35 72 113 173q81 105 220 250q143 149 349 323q216 183 370 300q169 129 280 211q121 90 205 157q82 66 146 141q-89 -38 -227 -66q-144 -29 -303 -44
q-168 -15 -342 -14q-185 2 -344 23q-21 3 -56 13q-26 7 -49 30q-34 34 -41 51q-8 20 6 28q15 9 49 12q11 1 39 3.5t46 4.5q46 4 72 -4t39 -20q15 -14 30 -30t47 -28q65 -25 154 -34q95 -9 195 -5q113 5 213 20q106 16 207 44q93 26 176 65q79 37 122 82q16 16 35 13
q18 -3 36 -18q14 -12 33 -39q18 -27 27 -44q21 -44 -13 -71q-43 -34 -98 -69q-40 -27 -132 -83q-105 -64 -240 -157q-149 -103 -312 -230q-167 -130 -342 -296q-169 -160 -296 -304q-123 -139 -200 -248q-79 -111 -110 -178q-33 -70 -22 -95z" />
    <glyph glyph-name="bracketleft" unicode="[" horiz-adv-x="442" 
d="M80 -344q-21 0 -27 8t-6 27v71v157v216q0 164 -1 251t-1 261v248v211v149q0 11 12 21q11 10 23 10h272q16 0 24 -12t6 -28t-10 -27q-10 -13 -24 -13h-27q-14 0 -23 -1t-42 -1h-86v-1466h182q16 0 24 -12t6 -28q-2 -17 -10 -28q-9 -12 -24 -12h-63q-55 0 -84 -1t-78 -1
h-43z" />
    <glyph glyph-name="backslash" unicode="\" horiz-adv-x="507" 
d="M-246 1270q-6 15 4 26q13 14 27 21q18 8 33 7q16 -1 22 -13q35 -78 84 -182q16 -35 56.5 -121t64.5 -137q88 -188 134 -286q24 -52 65.5 -141t59.5 -127q62 -133 94 -200q38 -81 42 -86q6 -17 -4 -28t-26 -17q-15 -6 -33 -4q-17 2 -23 14q-14 28 -44 94q-21 46 -95 202
q-106 224 -124 262q-77 166 -132 280q-71 147 -120 253q-17 36 -45.5 98t-39.5 85z" />
    <glyph glyph-name="bracketright" unicode="]" horiz-adv-x="458" 
d="M362 1286q21 0 27 -8t6 -27v-71v-157v-216q0 -164 1 -251t1 -261v-248v-211v-149q0 -11 -12 -21q-11 -10 -23 -10h-272q-16 0 -23 12q-8 14 -7 28q2 15 11 28q9 12 23 12h28q13 0 22 1t41 1h87v1466h-182q-15 0 -23 13t-7 27q2 15 11 28q9 12 23 12h64q55 0 84 1t77 1h43
z" />
    <glyph glyph-name="asciicircum" unicode="^" horiz-adv-x="1064" 
d="M1022 713q8 -13 1 -27q-7 -15 -22 -25q-15 -11 -30 -12q-18 -2 -25 10q-60 85 -103 144q-63 86 -113 152q-32 42 -106 143q-18 24 -45.5 61.5t-37.5 50.5q-90 -126 -129 -178q-68 -92 -126 -171q-21 -29 -55 -73.5t-46 -61.5q-12 -16 -24 -32.5t-19.5 -26t-10.5 -14.5
q-8 -13 -26 -11q-18 1 -32 10q-17 10 -24 24q-8 15 2 29q3 3 51 71q74 104 110 153q94 129 137 189q66 92 134 185q23 30 51 32t44 -20q7 -11 59 -81q3 -4 44.5 -59.5t66.5 -90.5q21 -30 67 -91.5t69 -93.5q28 -39 138 -186z" />
    <glyph glyph-name="underscore" unicode="_" horiz-adv-x="1236" 
d="M1167 -61q15 0 21 -16q6 -14 4 -34q-1 -16 -10 -33q-8 -16 -23 -16h-175q-144 0 -223 -1t-237 -1h-216h-161q-61 0 -69 2q-14 1 -22 17q-7 15 -6 31q2 19 8 32q7 14 24 14q30 3 81 3q99 0 162 1t212 1h232h220h178z" />
    <glyph glyph-name="grave" unicode="`" horiz-adv-x="243" 
d="M29 1497q7 15 21 34q11 15 26 28q11 8 22 2q12 -6 17 -23q16 -51 44 -91q32 -46 64 -67q10 -6 1 -22t-34 -10q-9 1 -29 12q-23 13 -42 25q-19 13 -44 34q-23 19 -34 35q-8 14 -11 22q-5 12 -1 21z" />
    <glyph glyph-name="a" unicode="a" horiz-adv-x="888" 
d="M424 0q-47 28 -40 77q8 49 60 156q5 7 0 10q-4 3 -10 -3q-22 -25 -62 -60q-23 -20 -80 -65q-47 -37 -88 -62q-46 -28 -89 -46q-41 -17 -82 -20q-40 -3 -66 17q-41 28 -39 81q1 52 32 110q29 56 79 113q49 56 104 95q83 60 168 90q81 28 161 30q76 2 132 -25
q57 -27 84 -80q6 -10 3 -27q-3 -16 -19 -22q-17 -6 -25 6q-7 11 -18 35q-16 37 -51 58t-89 18q-56 -3 -122 -32q-67 -29 -152 -94q-59 -46 -104 -96q-49 -54 -77 -97q-31 -48 -38 -83q-8 -38 12 -53q24 -21 77 -3q59 20 113 54q58 36 119 85q62 49 99 91q35 38 56 65
q23 30 34 46q13 19 20 39q4 7 15 18q16 16 32 -4q17 -23 27 -52q11 -30 0 -59q-7 -25 -20 -52q-16 -33 -37 -34q-15 0 -34 -28q-20 -29 -35 -64q-16 -36 -20 -66q-5 -33 7 -40q27 -17 93 0t138 51q73 35 121 67q49 33 72 54q16 16 16 27t17 26q50 39 51 12q1 -16 -21 -37
q-20 -19 -59 -53q-17 -16 -68 -50q-44 -29 -125 -69q-26 -12 -80 -32q-45 -17 -77 -23q-37 -7 -68 -9q-30 -2 -47 9z" />
    <glyph glyph-name="b" unicode="b" horiz-adv-x="708" 
d="M47 190q25 22 77 70q48 45 95 82q48 38 106 80q50 36 104 64q51 26 93 35q44 9 72 -7q27 -16 36 -45t3 -65q-6 -34 -24 -75q-17 -37 -42 -77q39 -7 71 -20q33 -13 58 -29q44 -27 60 -63q16 -35 10 -50q-8 -15 -22 -1q-11 11 -29 42q-11 18 -5 24q4 4 -12 19
q-36 26 -65 38q-33 13 -80 21q-33 -45 -73 -85q-42 -42 -77 -70q-63 -51 -146 -75q-81 -23 -157 -11q-58 11 -65 47q-8 38 22 76q32 41 84 72q46 28 105 47q54 17 114 25q54 7 113 5q26 33 48 71t33 65q10 26 12 54q1 23 -13 33q-28 21 -94 -12q-70 -35 -146 -91
q-69 -51 -158 -128q-77 -67 -132 -125q-13 -13 -31 -38q-9 -13 -25 -40q-8 -15 -22 -45q-7 -16 -19 -14q-10 2 -18 12q-11 16 -15 24q-6 13 -4 21q1 4 15 34q21 45 29 60q6 12 18.5 36t18.5 36q24 47 36 68q17 30 48 80q1 2 89 144q2 3 109 175q20 32 55 89.5t51 82.5
q50 80 84 135q17 28 39 64q23 45 27 55q8 23 4 55q-5 35 19 72t51 72q27 34 46 24t40 -51q8 -17 3 -32q-4 -13 -10 -23q-12 -21 -20 -33q-5 -8 -16.5 -26t-17.5 -27q-7 -11 -40 -65q-4 -7 -39 -62q-61 -100 -98 -162q-10 -17 -48 -80t-58 -98q-19 -33 -54.5 -91.5
t-49.5 -82.5q-18 -31 -48.5 -81.5t-40.5 -68.5q-56 -95 -63 -107t-13.5 -23t-10 -16.5t-3.5 -6.5q-4 -6 -2 -10q2 -3 8 3zM352 135q25 21 56 52q19 19 49 57q-43 2 -99 -6q-46 -6 -110 -27q-56 -18 -103 -47q-45 -28 -73 -68q-19 -28 -13 -50q6 -23 56 -28q59 -4 122 33
q61 37 115 84z" />
    <glyph glyph-name="c" unicode="c" horiz-adv-x="679" 
d="M489 475q2 4 19 27q7 10 43 18q35 8 38 -5t-20 -48q-37 -55 -81 -96t-78 -37q-17 2 -13 6l18 16q11 10 31 33q19 23 29 53q4 16 -20 31q-23 15 -68 10q-49 -4 -118 -42q-69 -37 -140 -113q-51 -52 -80 -103q-30 -52 -38 -89q-9 -40 0 -68t34 -41q46 -23 124 -10
q81 14 169 46q95 35 179 79q94 50 151 91q16 12 18 24q1 10 19 26q50 43 55 10q1 -16 -27 -40q-25 -21 -69 -52q-63 -42 -149 -86q-89 -46 -179 -80q-94 -35 -177 -50q-87 -15 -141 5q-49 18 -70 57q-22 41 -18 90q5 52 36 110q30 56 89 115q88 88 173 121q86 33 157 33
q41 0 67 -13q27 -13 37 -28z" />
    <glyph glyph-name="d" unicode="d" horiz-adv-x="876" 
d="M412 0q-30 16 -38 41t-4 60q5 35 22 74q18 41 42 81q2 2 0 3t-4 -1q-33 -33 -106 -99q-58 -53 -130 -100q-61 -40 -125 -60q-59 -18 -94 15t-37 85q-2 51 21 105q21 51 64 108q41 54 92 98q85 71 153 94q72 24 127 21q57 -3 91 -26q38 -25 49 -50q44 74 91 146
q62 94 93 142q47 72 96 150q47 73 102 170q20 37 25 54q6 22 2 56t20 72q28 45 50 72q27 34 46 24t40 -51q8 -17 3 -32q-5 -16 -9 -23q-6 -11 -21 -33q-12 -18 -33 -53q-28 -47 -39 -64q-10 -16 -36 -63q-85 -149 -185 -301q-82 -124 -198 -320q-111 -190 -138 -271
q-27 -82 2 -97q28 -16 96 -1q64 15 138 50q75 36 121 68q48 33 71 55q17 17 17 27q0 11 16 26q49 39 51 12q2 -17 -19 -39q-23 -24 -60 -53q-25 -20 -67 -49q-46 -32 -124 -70q-34 -16 -80 -31q-46 -16 -79 -22q-40 -8 -68 -8q-29 0 -47 8zM8 35q27 -24 83 -1q59 25 118 68
q58 43 117 95q58 52 82 77q27 29 64 78q29 38 48 72q-12 22 -42 37q-29 15 -75 10t-103 -31q-60 -28 -126 -88q-46 -44 -87 -90q-36 -41 -63 -92q-24 -45 -30 -81q-6 -37 14 -54z" />
    <glyph glyph-name="e" unicode="e" horiz-adv-x="657" 
d="M469 489q14 -21 9 -49q-4 -27 -25 -53q-21 -27 -55 -52q-35 -26 -74 -46q-38 -21 -80 -33q-43 -13 -78 -17q-49 -6 -68 -5q-29 1 -49 8q-18 -24 -32 -55q-12 -27 -17 -58q-4 -28 3 -52q7 -23 26 -34q44 -24 124 -19q82 5 168 31q87 27 176 71q86 43 148 93q17 16 20 30
q3 16 19 30q50 43 55 10q2 -18 -27 -45q-33 -31 -71 -58q-61 -44 -147 -87q-79 -40 -176 -73q-86 -29 -173 -37q-82 -7 -143 23q-42 20 -60 64q-18 42 -10 95q7 50 43 111q33 56 99 111q63 55 129 84q68 29 120 38t94 1q39 -7 52 -27zM307 305q31 19 51 35q27 21 45 42
q20 23 28 42q9 20 1 35q-18 32 -97 10q-78 -22 -196 -125q-32 -30 -43 -41q-18 -18 -33 -39q36 -10 110 -2q69 7 134 43z" />
    <glyph glyph-name="f" unicode="f" horiz-adv-x="598" 
d="M250 57q10 -40 -11 -127q-19 -79 -64 -189q-44 -109 -100 -212q-58 -108 -125 -194q-66 -85 -135 -132t-132 -30q-59 16 -80 68q-21 53 -11 132q11 80 48 185q40 111 93 222q60 124 128 245q82 145 149 256q44 73 106 165q15 23 50 75t53 78q5 8 40 59t52 75
q43 61 72 111q28 45 36 69q9 28 12 44q2 11 4 33q2 19 7 38q8 32 29 62q25 36 44 56q26 27 47 42q24 16 42 18q56 8 66 -8q10 -15 -21 -61l-64 -96q-17 -25 -58.5 -88t-65.5 -100q-52 -78 -176 -271q-110 -170 -219 -346q-123 -198 -211 -368q-95 -184 -145 -318
q-52 -140 -55 -231q-3 -92 56 -110q43 -12 101 29q55 39 115 116q60 78 114 173q57 101 96 200q43 108 61 196q19 94 7 163q-6 38 -18 61q-11 20 -19 40q-10 24 -13 37q-5 21 1 50q6 31 16 37q11 6 25 -5q13 -10 30 -37q17 -25 33 -60q10 -20 10 -36t-3 -28q-2 -9 -4 -23
q-1 -10 7 -22q51 -71 136 -69q49 1 99 29q48 26 87 81q10 17 12 30q1 12 19 30q55 52 59 20q4 -20 -11 -40q-10 -13 -63 -66q-46 -46 -95 -74q-54 -31 -105 -35q-82 -6 -158 51z" />
    <glyph glyph-name="g" unicode="g" horiz-adv-x="815" 
d="M461 233q5 11 1 13q-3 2 -9 -4q-38 -37 -107 -90q-72 -56 -135 -94q-69 -42 -132 -60t-97 6q-41 30 -38 82t33 109q27 52 81 112q47 52 106 94q82 59 166 88q87 30 155 31q72 2 128 -22q55 -23 85 -70q15 -22 10 -38q-4 -15 -22 -21q-16 -6 -24 6q-11 17 -19 35
q-16 37 -51 58t-88 18q-57 -3 -123 -32q-67 -29 -152 -94q-59 -46 -104 -96q-49 -54 -77 -97q-31 -48 -38 -83q-7 -37 13 -53q23 -18 77 2q58 22 118 59q57 35 124 86q62 46 96 84q68 71 90 107q19 32 25 45q1 7 8 14q10 10 27 -8q16 -21 22 -59q6 -37 -4 -64q-4 -6 -9 -22
q-4 -12 -12 -25t-16 -21t-16 -6q-5 0 -19 -21q-7 -11 -34 -61q-21 -39 -48 -93q-17 -34 -61 -118q180 56 281 117t143 92q16 12 21 40t20 42q20 18 43 31q18 11 23 -19q4 -16 -25 -54q-27 -36 -70 -66q-5 -4 -13 -9t-19.5 -13.5t-20.5 -14.5q-34 -24 -90 -54
q-59 -32 -132 -62q-81 -33 -177 -62q-39 -75 -116 -214q-74 -135 -134 -229q-82 -130 -198 -255q-111 -120 -228 -192q-118 -73 -227 -86q-112 -14 -195 62q-60 53 -68 128q-7 74 23 156q30 81 95 161q62 76 151 145q88 68 171 114q74 42 178 83q90 36 209 67q160 42 265 66
q66 132 92 188q33 70 68 141zM51 -522q66 102 130 210t104 187q-132 -29 -244 -62t-202 -69q-95 -38 -175 -82q-85 -46 -162 -106q-66 -50 -124 -123q-57 -71 -87 -146t-29 -138q1 -64 46 -103q69 -61 168 -43q97 18 201 87q105 70 202 173q100 106 172 215z" />
    <glyph glyph-name="h" unicode="h" horiz-adv-x="841" 
d="M377 0q-33 18 -36 52t12 77q15 42 45 91q9 14 61 95q34 51 39 80t-11 41q-18 17 -89 -12q-70 -28 -165 -102q-54 -43 -94 -81q-54 -51 -88 -87q-51 -54 -74 -82q-27 -32 -49 -64q-10 -15 -20 -14q-12 2 -19 12q-9 13 -13 24q-4 14 -3 21q2 8 15 35q7 14 33 60
q5 9 19 33.5l22 38.5q18 32 40 67q17 30 48 80q3 5 35.5 58t52.5 86q41 68 107 176q22 36 58.5 97.5t45.5 75.5q65 108 82 135q10 16 18.5 30.5t14.5 24.5l5 9q23 45 27 55q8 23 4 55q-5 35 19 72q28 45 50 72q27 34 46 24t40 -51q8 -17 3 -32q-5 -16 -9 -23
q-12 -21 -20 -33q-5 -8 -16.5 -26t-17.5 -27q-7 -11 -40 -65q-4 -7 -39 -62q-49 -81 -98 -164q-19 -33 -56 -94t-52 -87q-54 -91 -105 -177q-33 -55 -90 -154q-23 -40 -64 -109l-24 -41q-4 -4 -2 -7t6 1q29 29 56 52q33 28 132 106q64 49 94 70q40 28 97 61q46 27 90 39
q42 12 73 4q40 -12 44 -42q5 -32 -9 -66q-16 -39 -40 -75q-40 -59 -46 -67q-13 -21 -53 -73q-29 -37 -48 -69q-21 -34 -25 -57q-4 -25 18 -40q26 -16 93 -1q64 15 138 50q75 36 121 68q52 36 72 55q16 16 16 27t16 26q50 40 52 12q1 -16 -20 -39q-23 -24 -60 -53
q-25 -20 -67 -49q-46 -32 -124 -70q-37 -17 -80 -33q-32 -12 -78 -21q-30 -6 -69 -8q-30 -2 -47 9z" />
    <glyph glyph-name="i" unicode="i" horiz-adv-x="432" 
d="M332 750l12 -20t14 -29q7 -17 8 -31q1 -13 -6 -31q-22 -42 -49 -53q-27 -10 -49 18q-23 29 -18 47q5 21 32 62q11 17 11 20q0 6 4 15q5 13 17 14q14 2 24 -12zM33 293q17 23 24 39q8 17 2 39q-10 33 12 62q42 54 52 67q17 21 34 23q7 1 17.5 -13t24.5 -43q8 -18 7 -32
q-2 -18 -5 -23q-12 -20 -16 -26q-3 -4 -11 -17.5t-14 -21.5l-30 -42q-22 -30 -24 -35q-27 -42 -33 -51q-21 -31 -43 -74q-21 -43 -29 -72q-9 -33 9 -48q25 -19 89 -1q68 19 137 52q72 34 120 68q52 36 72 55q16 16 16 27t17 26q49 39 51 12q2 -17 -19 -39q-20 -22 -61 -53
q-32 -25 -66 -49q-46 -32 -124 -70q-76 -37 -156 -55q-78 -18 -113 0q-54 29 -39 95q15 67 99 200z" />
    <glyph glyph-name="j" unicode="j" horiz-adv-x="382" 
d="M-958 -444q-70 -53 -121 -123q-55 -76 -81 -146q-28 -76 -25 -138q3 -64 48 -103q69 -61 168 -43q98 18 202 87q105 70 202 173q100 106 172 215q65 97 125 198q58 97 112 199q-124 -28 -247 -62q-114 -32 -209 -69q-102 -40 -182 -82q-84 -44 -164 -106zM47 248
q14 26 19 48q6 27 2 60q-5 35 19 72q28 45 50 72q27 34 46 24t40 -51q7 -17 3 -33t-9 -24q-24 -43 -69 -125.5t-66 -120.5q-56 -101 -131 -238q171 51 277 115q101 61 143 92q15 11 20 40q5 27 21 42q20 18 43 31q17 10 22 -19q5 -17 -24 -54q-27 -36 -70 -66q-5 -4 -13 -9
t-19.5 -13.5t-20.5 -14.5q-36 -25 -89 -53q-64 -34 -130 -61q-81 -33 -177 -62q-43 -84 -114 -212q-68 -123 -139 -233q-82 -130 -198 -255q-111 -120 -228 -192q-118 -73 -228 -86q-111 -14 -194 62q-59 51 -71 128q-12 73 16 156q27 82 90 161q61 77 149 145
q89 68 174 114q81 44 184 83q94 35 216 68q145 38 270 67q90 166 98 182q28 54 88 160zM322 750l12 -20t14 -29t7 -31q1 -15 -5 -31q-22 -42 -49 -53q-27 -10 -49 18q-23 30 -19 47q5 19 33 62q10 16 10 20q0 3 5 15q5 13 17 14q14 2 24 -12z" />
    <glyph glyph-name="k" unicode="k" horiz-adv-x="845" 
d="M428 45q54 -14 116 -8q57 6 113 30q60 26 105 60q47 36 86 84q12 16 10 30t10 31q39 43 49 21q5 -15 -16 -45q-26 -38 -55 -70q-38 -44 -87 -81q-48 -36 -109 -63q-58 -26 -123 -36q-63 -10 -130 2q-54 11 -92 43q-36 31 -62 71q-25 39 -32 70q-7 33 0 45q17 23 35 18
q24 -6 49 -11q14 -4 39 2q30 7 50 17q23 11 49 27q24 15 40 31q35 39 39 76t-12 47t-81 -11q-64 -21 -169 -99q-28 -21 -81 -67q-43 -37 -87 -81t-81 -87q-37 -42 -60 -83q-10 -16 -21 -14q-10 1 -18 11q-11 13 -14 24q-4 15 -3 22q1 6 16 34q28 53 32 60q5 9 19 33.5
l22 38.5q34 60 38 68q39 67 47 80q37 61 87 144q53 88 107 175q25 39 104 171q44 73 82 134q10 16 18.5 30.5t14.5 24.5l5 9q23 45 27 55q8 23 4 55q-5 35 19 72t51 72q27 34 46 24t40 -51q8 -17 3 -32q-4 -13 -10 -23q-12 -21 -20 -33q-5 -8 -16.5 -26t-17.5 -27
q-7 -11 -40 -65q-4 -7 -39 -62q-29 -47 -97 -162l-105 -177q-16 -28 -51.5 -86t-52.5 -87q-82 -140 -89 -151q-43 -73 -63 -109q-24 -43 -29 -50q-5 -6 0 -8t8 2q10 7 66 58q54 49 129 104q40 30 91 67q41 30 93 59q47 27 87 38q42 12 73 4q46 -12 50 -45q5 -34 -13 -72
q-15 -33 -51 -74q-32 -36 -60 -57q-51 -36 -103 -52q-46 -14 -92 -19q-9 0 -8 -21q1 -20 17 -45q17 -28 40 -49q26 -25 64 -35z" />
    <glyph glyph-name="l" unicode="l" horiz-adv-x="460" 
d="M-4 0q-33 18 -37 58t9 89q14 51 39 104q23 48 56 103q10 14 54 85q13 21 40.5 66.5t42.5 68.5q46 75 96 156q69 114 93 151q17 27 43.5 69.5t29.5 47.5q9 14 16.5 27t12.5 21l5 9q20 39 26 55q8 23 4 55q-4 34 20 72q28 45 50 72q27 34 46 24t40 -51q8 -17 3 -32
q-5 -16 -9 -23q-6 -11 -21 -33q-5 -8 -16 -25.5t-17 -27.5q-7 -11 -40 -65q-4 -7 -39 -62q-26 -43 -73.5 -120.5t-60.5 -98.5q-63 -102 -124 -201q-61 -98 -100 -162q-16 -26 -36.5 -60.5t-25.5 -43.5q-16 -30 -50 -92q-23 -43 -42 -90q-18 -45 -19 -73q-1 -31 21 -46
q26 -16 93 -1q64 15 138 50q75 36 121 68q52 36 72 55q16 16 16 27t16 26q50 40 52 12q1 -16 -20 -38q-25 -25 -60 -52q-20 -16 -67 -50q-44 -32 -124 -71q-37 -17 -80 -33q-32 -12 -78 -21q-30 -6 -69 -8q-30 -2 -47 9z" />
    <glyph glyph-name="m" unicode="m" horiz-adv-x="1273" 
d="M809 0q-33 18 -39 46q-7 30 8 66q18 45 44 88q42 69 69 115q33 53 38 81q5 29 -9 40q-25 22 -89 -9q-66 -32 -143 -101q-28 -24 -84 -76q-14 -14 -83 -82q-28 -28 -74 -82q-31 -37 -56 -78q-11 -18 -21 -17q-13 2 -21 12q-10 14 -14 26q-5 16 -1 22q7 17 19 40
q13 25 30 57q5 10 16.5 32.5t17.5 34.5q1 1 31 68q34 74 38 106q5 36 -9 47q-18 16 -79 -11q-57 -26 -156 -106q-34 -26 -79 -66q-28 -25 -84 -79q-42 -40 -78 -84q-37 -45 -60 -82q-10 -16 -21 -14q-10 1 -19 12q-11 13 -16 24q-6 13 -4 21q1 5 19 38q15 27 38 65
q21 34 42 66q16 24 26 44q16 24 20 40q5 20 1 52q-5 35 19 72q28 45 50 72q27 34 46 24t40 -51q8 -17 3 -32q-5 -16 -9 -23q-12 -21 -26 -44q-21 -34 -45 -72q-4 -6 -44 -72q-6 -9 -11.5 -19t-8.5 -14.5t-4 -6.5q-4 -4 -2 -7t6 1q29 21 70 57q18 15 118 99q30 23 92 71
q44 34 89 62q44 28 83 39q39 12 70 4q41 -12 41 -53q0 -43 -19 -91q-21 -54 -48 -99q-29 -49 -43 -74q-4 -7 -2 -12q2 -3 6 1q35 35 62 58q51 44 114 100q31 27 79 65q36 29 90 60q46 27 89 40q42 13 74 5q39 -12 45 -40q6 -27 -8 -62q-15 -40 -38 -74q-7 -11 -51 -74
q-44 -65 -67 -97q-27 -38 -43 -69q-15 -28 -15 -46q0 -16 17 -27q26 -16 93 -1q64 15 138 50q75 36 121 68q52 36 72 55q16 16 16 27t17 26q49 39 51 12q1 -16 -20 -39q-23 -24 -60 -53q-25 -20 -67 -49q-46 -32 -124 -70q-41 -19 -79 -33q-31 -11 -79 -21q-30 -6 -69 -8
q-30 -2 -47 9z" />
    <glyph glyph-name="n" unicode="n" horiz-adv-x="886" 
d="M422 0q-32 18 -34 54q-1 32 18 82q16 42 49 96q34 57 61 98q36 53 40 80q5 30 -11 41q-22 16 -92 -14q-71 -31 -168 -97q-49 -34 -99 -75q-55 -45 -93 -83q-43 -44 -81 -87q-32 -37 -63 -87q-10 -16 -21 -14q-10 2 -18 12q-9 13 -13 24q-5 14 -3 21q2 9 18 40
q17 33 38 70q14 25 42 71q8 13 17 28.5t11 18.5q17 23 27 46t4 46q-10 34 11 62q5 7 23.5 29.5t29.5 37.5q17 21 33 23q7 1 17.5 -13t24.5 -43q8 -18 4 -32q-4 -13 -10 -23q-12 -21 -26 -42q-21 -32 -45 -69q-8 -13 -23.5 -36t-22.5 -34q-24 -39 -26 -41q-5 -6 -1 -8
q3 -2 7 2q26 26 75 66q68 55 142 110q33 23 103 69q44 29 102 57q51 25 90 32q43 8 64 -6q33 -22 38 -53q5 -30 -8 -63q-12 -30 -33 -61q-7 -10 -40 -54q-16 -23 -56 -73q-33 -41 -52 -74q-22 -38 -29 -64q-7 -28 16 -43q26 -16 93 -1q64 15 138 50q75 36 121 68
q52 36 72 55q16 16 16 27t16 26q50 40 52 12q1 -16 -20 -39q-23 -24 -60 -53q-25 -20 -67 -49q-46 -32 -124 -70q-37 -17 -80 -33q-32 -12 -78 -21q-30 -6 -69 -8q-30 -2 -47 9z" />
    <glyph glyph-name="o" unicode="o" horiz-adv-x="649" 
d="M514 401q-17 -72 -61 -136q-44 -63 -111 -124q77 -35 160 -20q85 15 149 69q15 14 16 25q2 11 17 25q23 20 41 25q17 5 18 -11q2 -17 -25 -41q-24 -21 -69 -53q-69 -49 -152 -63q-82 -13 -175 28q-29 -27 -76 -62q-43 -32 -93 -55q-45 -21 -94 -26q-44 -4 -77 26
q-22 21 -33 60q-10 39 -3 88t36 103q29 55 84 110q77 74 153 108q38 62 95 91q59 30 111 23q53 -8 81 -53q29 -47 8 -137zM414 481q12 -6 9 -14t-20 -8q-43 0 -91 -18q-50 -19 -107 -60q-8 -67 23 -128q31 -62 87 -97q59 62 92 124q32 60 50 128q12 58 -4 95q-17 38 -49 50
q-31 12 -73 -3q-40 -14 -81 -63q53 17 94 12q37 -4 70 -18zM20 33q25 -24 63 -19t77 24q38 19 76 48q33 25 61 53q-55 37 -85 100q-30 64 -26 128q-55 -37 -94 -88q-35 -46 -59 -102q-20 -48 -25 -90q-4 -39 12 -54z" />
    <glyph glyph-name="p" unicode="p" horiz-adv-x="704" 
d="M352 135q25 21 56 52q19 19 49 57q-43 1 -100 -6q-48 -6 -110 -27q-55 -19 -102 -47q-45 -28 -73 -68q-19 -28 -13 -50q6 -23 56 -28q59 -4 122 33q61 37 115 84zM-10 141q-1 -4 1 -5q3 -1 5 1q33 33 81 78q52 49 105 92q68 55 117 91q70 50 115 75q56 30 100 42
q45 12 74 -5q28 -18 39 -46q11 -27 6 -63q-5 -35 -22 -73q-17 -37 -42 -76q39 -6 60 -16q31 -14 51 -25q46 -23 72 -49t24 -43q-2 -27 -51 12q-16 15 -19 28q-3 12 -22 23q-43 23 -60 31q-28 12 -69 20q-31 -43 -72 -85q-40 -41 -75 -68q-65 -52 -149 -76q-85 -24 -159 -12
q-58 11 -65 47q-8 38 22 76q32 41 84 72q49 30 105 48q49 16 114 24q54 7 113 5q56 77 78 134q24 63 -4 85q-19 13 -58 -2q-40 -16 -89 -45q-50 -30 -106 -73q-35 -27 -109 -88q-47 -39 -95 -82q-31 -28 -65 -64q-10 -11 -29 -30.5t-27 -28.5q-25 -28 -41 -50
q-45 -71 -84 -140q-14 -25 -47.5 -82.5t-51.5 -89.5q-54 -94 -106 -188q-72 -130 -106 -193q-42 -78 -96 -184q-50 -97 -80 -161q-12 -25 -20 -50q-10 -29 -18 -47q-10 -21 -20 -26q-11 -5 -26 13q-32 41 -33 57q-2 18 15 47q85 143 127 217l78 138t77 137q110 194 165 294
q55 99 157 279q10 17 35 62.5t38 67.5q42 72 60 108q11 22 21 47q9 22 3 45q-10 33 12 62q42 54 52 67q17 21 34 23q7 1 17.5 -13t24.5 -43q8 -17 3 -32q-5 -16 -9 -23q-22 -44 -38 -71q-8 -14 -24.5 -40t-24.5 -40q-20 -33 -45 -73q-21 -33 -28 -47z" />
    <glyph glyph-name="q" unicode="q" horiz-adv-x="718" 
d="M-76 -924q7 10 42 61q14 21 59 84q41 58 71 97q43 57 82 98q37 41 65 68q20 20 48 44q16 14 37 29q18 13 30 19q41 24 51 18q9 -6 13 -28q2 -22 -6 -42q-7 -18 -25 -36q-17 -17 -37 -30q-22 -14 -41 -21q-17 -6 -26 -5q-7 1 -20 1q-8 0 -21 -5q-12 -4 -31 -22
q-51 -46 -96 -103q-55 -70 -88 -118q-49 -73 -72 -114q-31 -55 -45 -91q-10 -22 -24 -21q-13 1 -24 15t-19 33q-7 18 -3 28q4 14 14.5 52t17.5 60q23 78 44 134q31 85 64 161q34 80 90 191q61 123 124 237q53 95 98 167q50 79 78 117q8 10 29.5 40t32.5 44q5 6 1 8
q-3 2 -7 -2q-47 -44 -101 -86q-66 -52 -134 -95q-62 -39 -134 -63q-62 -21 -96 4q-41 30 -38 82q3 50 34 109q27 52 81 112q48 54 105 94q81 59 167 89q84 29 158 31q71 1 128 -26q54 -26 82 -81q6 -11 5 -25t-17 -20q-17 -6 -25 6q-7 11 -18 35q-16 36 -52 58
q-35 21 -88 18q-56 -3 -122 -32q-67 -29 -152 -94q-59 -46 -104 -96q-49 -54 -77 -97q-31 -48 -38 -83q-8 -38 12 -53q24 -19 76 2q59 24 115 59q50 32 120 86q58 45 97 84q69 69 95 109q9 14 20.5 30.5t13.5 20.5q4 7 14 17q8 8 21 -11q8 -13 25 -50q12 -28 -3 -75
q-10 -33 -29 -55q-18 -21 -34 -25q-54 -17 -154 -169q-104 -159 -254 -464q-87 -176 -134 -308q-51 -141 -71 -206z" />
    <glyph glyph-name="r" unicode="r" horiz-adv-x="567" 
d="M274 383l-165 -166q-91 -91 -168 -209q-10 -16 -21 -14q-10 2 -18 12q-11 16 -14 24q-4 14 -3 21q1 5 19 38q25 45 37 66q24 41 40 67q7 11 16 26t11 18q18 25 22 39q5 19 1 51q-5 35 19 72q28 45 50 72q27 34 46 24t40 -51q8 -17 3 -32q-5 -16 -9 -23q-12 -21 -25 -42
q-34 -55 -43 -69q-28 -43 -43 -68q-21 -33 -26 -40q-4 -4 -1 -6t7 2q34 31 70 70q43 47 139 136q62 59 113 88q54 31 94 31q82 0 78 -98q0 -18 -9 -45q-8 -24 -22 -45q-13 -19 -26 -25q-14 -6 -21 15q-19 46 -19 65q0 23 15 41q10 15 8 31q-1 13 -14 18q-24 8 -73 -14
q-51 -23 -108 -80z" />
    <glyph glyph-name="s" unicode="s" horiz-adv-x="653" 
d="M-43 119q-4 -22 11 -51q15 -28 75 -39q37 -6 72 6q32 11 63 34q26 19 51 49q22 27 35 52q31 61 35 113q5 53 0 114q-43 -50 -92 -96q-46 -43 -98 -72q1 -10 -6 -28q-10 -24 -21 -37q-18 -21 -33 -34q-18 -15 -39 -21q-10 -4 -23 4q-10 6 -16 14q-12 16 -14 -8zM334 401
q13 -45 16 -61q9 -40 10 -71q2 -41 -2 -70q-5 -39 -18 -62q-30 -52 -59 -78q-33 -30 -58 -41q35 -2 96 13q67 16 138 45q71 30 121 66q45 33 71 57q17 17 17 27q0 11 16 26q50 39 51 12q2 -17 -19 -40q-19 -22 -61 -54q-38 -30 -65 -49q-48 -33 -125 -68q-47 -23 -105 -38
t-115 -24q-59 -9 -115 -9q-58 0 -101 10q-32 6 -52 22q-18 14 -30 36q-11 20 -15 40q-4 18 -2 37q5 45 38 91q35 49 87 65q43 12 53 -25q43 22 91 66q49 45 90 102q43 57 71 78q35 26 68 37q8 2 18 -4q10 -5 18 -19q7 -11 7 -25q0 -13 -8 -26q-73 -92 -127 -66z" />
    <glyph glyph-name="t" unicode="t" horiz-adv-x="329" 
d="M653 831q60 -8 120 -4q63 4 97 23q23 15 20 25t9 20q28 23 47 23q8 0 11 -16q3 -15 -5 -23q-19 -19 -30 -27q-18 -13 -39 -23q-44 -20 -114 -25q-69 -4 -132 3q-57 7 -111 20q-80 19 -96 23q-42 -71 -71 -115q-24 -38 -57 -94q-59 -101 -61 -105q-16 -27 -83 -151
q-33 -59 -59 -111q-30 -59 -55 -113q-20 -43 -43 -96q-17 -40 -19 -57q-2 -9 -6 -13.5t-10 -3.5q-11 1 -22 12q-14 14 -21 26q-9 14 -7 22q1 3 21 47q16 34 47 95q16 31 63 117q7 12 66 116q79 130 136 233q26 47 116 203q-56 15 -91 15q-26 0 -48 -8q-24 -8 -40 -29
q-22 -24 -48 -28q-30 -5 -50 -1q-35 5 -39 14q-5 11 6 39q8 23 34 35q24 11 58 16q38 5 66 4l32.5 -2.5t22.5 -1.5q37 -5 58 -9q25 -5 59 -15q38 66 55 94q21 35 30 57q10 24 11 37q1 15 0 33q-4 34 20 72q25 39 50 71q27 35 46 25t40 -51q8 -17 3 -32q-5 -16 -9 -23
q-42 -75 -90 -146q-61 -90 -97 -151q12 -3 27 -7t36 -9t33 -8q63 -16 113 -22z" />
    <glyph glyph-name="u" unicode="u" horiz-adv-x="843" 
d="M-18 236q11 15 37 54q22 33 18 66q-5 35 19 72q28 45 50 72q27 35 47 24q19 -10 40 -51q8 -17 3 -32q-4 -13 -10 -23l-24 -41q-6 -9 -19.5 -32.5t-21.5 -36.5q-9 -14 -24.5 -39.5t-19.5 -32.5q-20 -33 -32 -50q-36 -53 -43 -87q-8 -36 8 -46q15 -11 74 10t182 109
q99 70 176 151q71 76 105 134q16 30 26 46q15 23 31 13q9 -7 14 -15q12 -19 15 -27q6 -15 6 -34q0 -17 -8 -39l-14 -28q-8 -18 -16 -31q-9 -15 -20 -26t-24 -11q-9 0 -21 -13q-13 -14 -24 -34q-19 -30 -31 -47q-17 -25 -37 -66q-16 -33 -22 -64q-6 -30 12 -42q27 -17 84 -6
t129 45q75 36 121 68q52 36 72 55q16 16 16 27t16 26q50 40 52 12q1 -16 -20 -39q-23 -24 -60 -53q-25 -20 -67 -49q-46 -32 -124 -70q-26 -12 -80 -32q-38 -14 -78 -22q-30 -6 -69 -8q-30 -2 -47 9q-39 22 -18 100q20 73 92 183q4 4 1 7q-4 4 -8 -1q-10 -10 -47 -44
q-39 -35 -125 -97q-10 -6 -33.5 -23t-36.5 -26q-37 -25 -93 -56q-48 -26 -97 -42q-46 -15 -77 -7q-40 11 -41 43q-2 34 13 72q14 37 39 74l14 21t12.5 19t7.5 11z" />
    <glyph glyph-name="v" unicode="v" horiz-adv-x="462" 
d="M-18 408q-10 39 -11 51q-2 23 1 37q3 16 20 16q64 0 80 -39q17 -44 18 -101q2 -65 -5 -117q-9 -74 -18 -109q-12 -48 -24 -76q-3 -11 1 -13t15 4q54 29 100 70q56 49 92 89q43 48 72 91t37 76q4 21 0 34q-5 14 -6 34q0 15 1 31q1 23 6 46q4 19 15 36q9 13 23 3
q19 -19 22 -23q9 -12 12 -26q3 -13 1 -35q-1 -20 -12 -53q-33 -116 -141 -226q-106 -108 -275 -208q-15 -7 -24 -6q-10 2 -18 9q-6 7 -11 17q-4 10 -6 19q-5 11 0 18l10 21q12 24 26 66q10 32 19 76q7 36 12 71q4 28 2 49q-2 12 -6 18q-1 1 -2.5 3t-2 3.5t-2 3l-2.5 2.5
q-7 7 -10 12q-4 7 -9 26z" />
    <glyph glyph-name="w" unicode="w" horiz-adv-x="880" 
d="M12 61q-6 -10 -4 -15q2 -6 15 1q29 15 73 47q42 31 82 71q43 43 81 88q43 51 71 97q19 30 26 39q12 15 25 23q14 9 28 13q20 6 40 11q11 3 19.5 4t14 0.5t8 -2.5t2.5 -6q-1 -15 -24 -45q-42 -59 -70 -121q-28 -63 -39 -116q-11 -55 1 -92q12 -38 51 -44q52 -8 108 24
q54 30 102 85q45 51 76 119q31 69 37 125q0 14 -1 19q-2 8 -4 14t-4 19q-1 8 -1 32l3 42q2 25 5 36q5 17 11 22q7 6 22 -2q31 -17 41 -51t-14 -129q-16 -66 -58 -139q-40 -69 -95 -126q-52 -53 -118 -88q-61 -32 -125 -24q-52 6 -75 38q-23 33 -29 73q-6 42 0 85q6 40 14 74
q1 6 -1 7t-7 -5q-48 -64 -129 -142q-80 -77 -205 -122q-33 -11 -41 3q-8 13 -12 30q-6 23 14 43q16 16 39 49q21 30 36 66q18 43 24 76q8 44 4 79q-2 14 -6 18q-3 3 -11 9t-11 10q-4 5 -9 25q-9 34 -10 51q-2 23 1 37q3 16 19 16q64 0 80 -39q9 -23 14 -71q4 -39 4 -80
q-1 -82 -30 -151q-28 -67 -58 -110z" />
    <glyph glyph-name="x" unicode="x" horiz-adv-x="573" 
d="M156 45q28 -16 89 -10q59 6 132 41q75 36 121 68q48 33 71 55q17 17 17 27q0 11 16 26q50 39 51 12q5 -30 -80 -92q-23 -16 -66 -48q-44 -32 -124 -71q-34 -16 -80 -31q-41 -14 -78 -21q-35 -7 -67 -7q-31 0 -49 6q-47 18 -68 61t-33 113q-20 -14 -83 -54
q-65 -40 -144 -73q-42 -18 -80 -29q-35 -10 -78 -19q-37 -7 -66 -6q-31 2 -46 11q-33 21 -25 42q8 22 27 24q18 0 21 -14t7 -23q11 -9 36 -11q21 -1 56 5q33 6 69 18q29 10 73 29q29 14 72 39t66 40q37 24 51 35q31 24 34 27q-11 84 -25 118q-13 31 -22 60q-6 15 -16 24
q-3 3 -9 7t-8 6l-16 12q-10 8 -11 19q-8 35 19 51q26 16 55 10q32 -6 47 -26q16 -20 31 -72q10 -40 15 -71q2 -10 7.5 -41.5t8.5 -51.5q57 41 109 86q46 40 63 76q7 16 6 34q-2 18 16 40q28 34 60 45q30 11 51 -4q22 -16 10 -41q-13 -26 -47 -66q-30 -35 -59 -62
q-34 -32 -60 -53q-32 -26 -65 -50q-34 -25 -78 -54q8 -66 21 -105q13 -38 55 -61z" />
    <glyph glyph-name="y" unicode="y" horiz-adv-x="794" 
d="M-547 -444q-70 -53 -121 -123q-55 -76 -81 -146q-27 -73 -24 -138q3 -64 48 -103q69 -61 168 -43q98 18 202 87q102 68 201 173q100 106 172 215q57 90 120 195q62 104 116 202q-137 -31 -237 -58q-102 -28 -206 -68q-94 -36 -187 -85q-88 -46 -171 -108zM-8 233
q12 16 39 56q22 33 18 67t20 72q28 45 50 72q27 34 46 24t40 -51q8 -17 3 -32q-5 -16 -9 -23q-2 -3 -5.5 -8.5t-9.5 -15.5t-11 -18q-19 -32 -42 -69q-6 -10 -21 -34.5t-23 -37.5q-18 -32 -32 -51q-35 -51 -48 -87t3 -46q8 -6 26 -6q20 0 48 11q34 14 76 36q38 20 106 70
q104 75 170 141q69 69 103 125q24 42 38 71q15 32 37 17q9 -7 15 -16q7 -11 15 -29q6 -14 8 -37q1 -18 -7 -41q-17 -40 -22 -49q-13 -25 -41 -31q-24 -5 -38 -29q-17 -28 -32 -59q-18 -34 -50 -99q-54 -110 -97 -194q169 51 275 115q96 58 142 92q16 12 21 40t20 42
q20 18 43 31q18 11 23 -19q4 -16 -25 -54q-28 -37 -69 -66q-19 -13 -54 -37q-36 -25 -89 -53q-63 -33 -129 -61q-80 -34 -175 -62q-44 -86 -120 -216q-73 -126 -136 -229q-84 -133 -197 -255q-110 -119 -229 -192q-118 -73 -227 -86q-112 -14 -195 62q-58 50 -70 128
q-12 73 16 156q27 82 90 161q61 77 149 145q89 68 174 114q81 44 184 83q94 35 216 68q151 40 269 67q71 131 111 209q51 98 88 176q2 7 0.5 8t-6.5 -4q-25 -24 -65 -56q-84 -65 -111 -85q-8 -5 -19 -13t-26.5 -19.5t-27.5 -19.5q-37 -26 -96 -62q-44 -27 -98 -47
q-48 -18 -79 -7q-41 15 -42 49q-2 35 15 74q15 36 41 73q30 43 35 51z" />
    <glyph glyph-name="z" unicode="z" horiz-adv-x="495" 
d="M78 516q29 -9 78 -19q58 -12 87 -17q43 -7 83 -9q41 -2 67 4q25 6 44 15q14 7 28 17q9 7 16 10t13 -1q24 -16 22 -30q-1 -11 -31 -33q-59 -39 -112 -64q-40 -19 -118 -55q-24 -11 -114 -50q-52 -23 -98 -51q-55 -31 -81 -62q-28 -33 -38 -55q-10 -24 -6 -36q5 -12 16 -2
q28 21 60 28q28 6 53 -2q43 -15 74 -30q45 -22 82 -36q43 -16 69 -19q31 -3 37 22q5 18 16 25q12 8 29 2q23 -8 8 -34t-55 -36q-37 -10 -76 -9q-37 1 -75 9q-40 8 -69 19q-44 17 -56 22q-48 19 -88 7q-42 -12 -76 -42q-25 -23 -38 -11t-19 44q-5 17 7 46q11 28 40 66
q28 37 76 76q49 40 120 74q39 18 104 43q10 4 48 18.5t58 22.5q63 25 96 40q46 21 71 40q-53 -14 -97 -16q-19 -1 -73 2q-12 1 -31 3l-19 1q-20 2 -26 -4q-19 -17 -26 -23q-8 -6 -18 -8q-9 -2 -24 0q-33 3 -48 4q-56 5 -69 13q-13 9 5 38q22 30 44 37q24 8 30 6z" />
    <glyph glyph-name="braceleft" unicode="{" horiz-adv-x="557" 
d="M469 -121q-8 0 -41 4q-36 4 -83 21q-46 16 -89 49q-42 32 -57 90q-11 43 -26 122q-7 40 -20 128q-3 19 -9 59l-9 60q-5 37 -16 92q-12 46 -47 84q-33 36 -88 41q-21 5 -24 9t-3 11q6 8 27 15q55 5 88 39q35 37 47 83q11 53 16 93q3 20 9 59.5t9 58.5q13 94 19 129
q11 71 25 123q15 58 57 90q46 35 89 50q42 15 84 20q33 4 42 4q30 5 37 -2q2 -8 3 -11q1 -2 -5 -5t-17 -6q-66 -18 -118 -65q-51 -46 -72 -93q-9 -20 -22 -72q-4 -15 -12.5 -51.5t-13.5 -58.5q-13 -54 -33 -130q-22 -84 -38 -131q-22 -72 -56 -101q-35 -30 -73 -42
q40 -12 72 -46q33 -34 55 -105q21 -62 39 -126q7 -24 19 -66t16 -57q23 -82 29 -104q12 -46 22 -67q22 -49 71 -98q50 -50 115 -72q11 -3 17 -6.5t5 -5.5q-1 -3 -3 -11q-7 -7 -37 -2z" />
    <glyph glyph-name="bar" unicode="|" horiz-adv-x="417" 
d="M152 1255q0 15 14 22t33 7q18 0 32 -7q15 -7 15 -22v-1568q0 -17 -15 -24t-31 -6q-18 1 -32 10q-14 8 -14 24v71v157v216q0 164 -1 251t-1 261v248v211v149z" />
    <glyph glyph-name="braceright" unicode="}" horiz-adv-x="565" 
d="M2 1411q8 0 41 -4q36 -4 83 -21t88 -49t58 -90q12 -45 26 -123q8 -44 20 -128q2 -15 8 -55.5t9 -61.5q8 -62 17 -93q12 -46 47 -83q33 -35 88 -41q20 -4 24 -10q3 -4 3 -11q-4 -9 -27 -14q-52 -11 -87 -43q-36 -33 -48 -80q-9 -32 -17 -92q-2 -16 -5 -35.5t-6.5 -44.5
t-5.5 -39q-13 -89 -20 -129q-14 -78 -26 -123q-17 -58 -58 -90t-88 -49t-83 -21q-33 -4 -41 -4q-30 -5 -37 2q-2 8 -3 11q-1 2 5 5.5t17 6.5q68 18 118 64q51 46 72 93q13 39 21 72l27 111q13 54 33 130q21 79 38 130q22 72 56 101q35 30 73 42q-40 12 -72 46t-55 106
q-21 61 -39 126q-7 24 -19 66t-16 57q-14 50 -30 103q-15 50 -21 68q-21 47 -71 97t-115 72q-11 3 -17 6.5t-5 5.5q1 3 3 11q7 7 37 2z" />
    <glyph glyph-name="asciitilde" unicode="~" horiz-adv-x="1105" 
d="M1065 457q-1 -2 -21 -29q-16 -21 -49 -51q-29 -26 -73 -46q-45 -20 -97 -14q-55 6 -141 32q-37 11 -164 53q-113 37 -153 47q-71 18 -109 10q-43 -10 -103 -29q-52 -16 -81 -47q-20 -20 -32 -10t7 35q4 6 30 34q21 23 53 47q36 27 72 46q37 19 83 24q63 6 128 -7
q62 -13 132 -35q16 -5 127 -43q66 -23 112 -32q27 -6 62 -9t71 0q35 3 68 12q32 9 51 32q16 16 31 10q14 -6 -4 -30z" />
    <glyph glyph-name="exclamdown" unicode="&#xa1;" horiz-adv-x="419" 
d="M485 922q-22 -54 -74 -145q-62 -107 -133 -226q-59 -98 -165 -269q-89 -142 -168 -276q-21 -33 -47 -76q-13 -22 -49 -76q-9 -14 -22.5 -36.5t-17.5 -28.5q-18 -29 -24 -39t-12 -29t4 -36q25 -48 48 -61t56 28q37 50 60 85q28 43 22 87q-4 42 5 67q10 26 32 66q1 2 5 8
t10.5 17t13.5 22q16 26 61 98q9 14 37 60t46 74q14 22 45.5 72.5t49.5 78.5q66 104 97 155q36 59 86 140q25 40 66 111q11 19 25 42l13 23q9 14 14 33q4 16 -14 41q-3 4 -9 11t-7 8q-9 10 -17 12q-7 1 -17 -8q-10 -10 -20 -33zM631 1012q-35 6 -51 32q-17 28 -7 52
q17 45 43 60q28 15 60 -5q19 -11 25 -21q5 -8 1 -18q-6 -13 -15 -25q-13 -16 -23 -34q-6 -7 -4 -15t0 -15q-1 -7 -7 -10q-5 -3 -22 -1z" />
    <glyph glyph-name="cent" unicode="&#xa2;" horiz-adv-x="706" 
d="M315 608q0 11 11 16q12 5 21 5q10 0 22 -5q10 -4 10 -16v-106q33 9 56 10q36 2 50 2q42 -2 68 -13q27 -12 37 -26q5 13 12 23t20 18t29 12q35 8 36 -8q1 -15 -17 -53q-10 -18 -30 -45q-21 -29 -43 -51q-28 -28 -47 -41q-24 -16 -40 -15q-5 0 -8.5 1.5t-4.5 2.5t0 3
q3 4 16 16q13 11 32 37q18 24 30 67q4 16 -22 31q-26 14 -70 16q-48 0 -104 -28v-426q80 30 166 92q17 12 18 24q1 9 19 25q50 43 55 10q2 -17 -27 -41q-32 -27 -69 -53q-41 -27 -81 -48q-45 -23 -81 -38v-135q0 -11 -9 -16q-10 -5 -22 -5q-10 0 -21 7q-10 7 -10 16v115
q-66 -21 -122 -21q-58 0 -99 23q-47 27 -63 70q-17 44 -9 96q8 54 35 105q28 54 74 101q46 48 89 74q49 30 93 47v125zM121 25q36 -24 85 -25q53 -2 111 14q0 124 -1 196t-1 212q-54 -35 -108 -94q-50 -51 -80 -102q-29 -50 -38 -88q-9 -40 0 -69q8 -28 32 -44z" />
    <glyph glyph-name="sterling" unicode="&#xa3;" horiz-adv-x="1527" 
d="M1473 1161q-34 -77 -68 -142q-21 -40 -55 -93q-25 -39 -45 -62q-28 -32 -41 -45q-28 -32 -46 -17q-16 13 -32 42q-23 45 -13 79q11 37 54 89q16 20 36 28q15 6 40 20q22 13 43 35q24 26 47 76q16 33 29 82q11 43 2 85q-9 40 -48 67t-123 27q-55 0 -127 -39
q-69 -37 -149 -105q-83 -70 -156 -153q-79 -90 -141 -187q-54 -84 -70 -111q-11 -20 -31.5 -54.5t-27.5 -47.5h221q14 0 22 -15t6 -34t-9 -34t-23 -15h-154q-50 0 -120 -2q-72 -123 -144 -243q-74 -123 -168 -257q38 -12 66 -26q35 -18 73 -40q41 -24 93 -57q27 -17 129 -75
q111 -65 164 -94q73 -40 124 -59q62 -24 102 -30q48 -8 95 -2q50 6 73 11q33 8 58 19q35 15 50 25q24 15 51 33q14 10 27 39q12 26 28 41q48 38 63 12q21 -33 -8 -60q-31 -29 -72 -52q-66 -37 -117 -59q-68 -28 -151 -40q-67 -10 -127 -9q-62 2 -123 19q-69 20 -134 53
q-73 37 -159 97q-149 101 -231 146q-86 47 -125 4q-11 -12 -29 -30q-11 -11 -24 -11t-26 13q-15 15 -32 42q-12 20 -7 52q4 27 21 65q14 31 37 57q22 25 40 31q15 4 44 38q24 27 69 86q31 40 86 120q46 68 96 141h-65q-24 0 -34 2q-14 1 -20 17t-5 33t9 32q7 14 24 14
q37 0 66 1t90 1q55 83 86 133q11 18 37 60l39 63q61 98 133 186q79 96 166 174q89 80 178 129q92 51 170 52q76 1 122 -21q45 -22 69 -59q25 -38 29 -81q5 -47 2 -86q-3 -43 -13 -76t-16 -48z" />
    <glyph glyph-name="yen" unicode="&#xa5;" horiz-adv-x="2170" 
d="M1606 -115q14 0 20 -15q6 -14 4 -34q-2 -18 -11 -34q-9 -15 -24 -15h-193q-70 0 -206 -2q-77 -65 -162 -112q-93 -52 -186 -83q-95 -32 -206 -44q-103 -11 -218 1q-91 11 -176 55q-82 42 -137 110t-79 159q-24 89 -1 199q21 100 78 172t125 118q72 48 134 73q67 26 97 36
q112 30 133 2q10 -12 -3 -24q-12 -11 -42 -11q-24 0 -32 7q-9 7 -29 3q-47 -8 -113 -36q-61 -26 -130 -76q-64 -46 -116 -115q-50 -67 -67 -153q-18 -96 9 -179q26 -79 82 -143q51 -58 127 -101q72 -40 146 -51q80 -12 163 -3q84 9 163 36q75 26 157 68q75 39 150 92h-153
q-58 0 -72 2q-15 1 -22 16t-6 32t9 32q7 14 25 14q23 1 120 3q63 1 222 1l112 113h-116h-98q-50 0 -68 1t-33 1q-14 1 -21 16q-8 17 -7 32q1 14 10 32q7 14 24 14q24 0 49 1q13 1 43 1.5t46 0.5q35 1 118 1h137q80 102 161 221q76 112 147 227q61 98 121 204q32 56 87 151
q4 6 2 7q-3 2 -8 -3q-84 -101 -168 -192q-88 -95 -202 -191q-97 -80 -179 -137q-86 -59 -151 -89q-71 -33 -130 -37t-116 20q-49 21 -83 59q-33 38 -41 103q-7 61 18 158q24 94 96 224q42 78 99 190q49 97 80 179q32 85 42 149q11 66 -14 97q-18 23 -64 35q-43 12 -104 10
q-57 -1 -128 -20t-134 -50q-117 -61 -168 -89q-77 -43 -121 -74q-51 -35 -78 -64q-28 -29 -39 -64q-10 -27 -15 -49q-4 -16 -14 -36q-8 -15 -28 -39q-1 -2 -51 -58q-8 -9 -46 -47q-20 -20 -39 -25q-17 -4 -30 12q-14 17 -21 60q-6 31 9 66q15 34 37 55q23 23 69 62
q55 47 124 95q76 53 173 109q114 66 219 111q83 36 159 59q82 25 145 32q65 7 117 -2q50 -9 77 -42q24 -29 43 -57q19 -27 25 -57q6 -29 -4 -75q-9 -42 -36 -109q-27 -66 -77 -163q-49 -96 -123 -231q-68 -125 -89 -210q-21 -89 -17 -144t25 -84q20 -27 34 -33
q100 -41 224 20q123 60 310 209q62 49 118 105q70 70 118 123q56 62 106 124q49 61 84 111q72 100 117 165q37 53 80 111q38 51 68 88q59 73 79 95q7 9 21 20q20 16 30 23q12 9 30 14q15 5 24 -4q18 -21 21 -49q3 -30 -19 -76q-10 -20 -28 -47q-16 -24 -33 -41
q-25 -25 -34 -31q-19 -13 -32 -14q-35 -6 -70 -38q-30 -27 -71 -85q-33 -46 -76 -124q-28 -51 -82 -153q-29 -56 -84 -155q-50 -89 -111 -189q-55 -90 -134 -210q-75 -114 -154 -216h276q15 0 21 -15q6 -14 4 -34q-1 -16 -12 -34q-9 -15 -23 -15q-108 0 -167 -1t-179 -1
l-97 -113h308z" />
    <glyph glyph-name="brokenbar" unicode="&#xa6;" horiz-adv-x="212" 
d="M57 1272q0 13 14 21q13 7 31 7q20 0 35 -7q17 -8 17 -23v-615q0 -13 -15 -21q-14 -7 -30 -7q-15 0 -33 8q-17 8 -17 24v89q0 94 -1 151t-1 184v189zM55 317q0 15 15 22q14 7 32 7q20 0 35 -7q17 -8 17 -24q0 -186 1 -277t1 -226v-74q0 -27 -2 -37q-1 -14 -16 -22
q-13 -7 -29 -7q-14 0 -32 9q-17 8 -18 24q-1 22 -3 80q-1 38 -1 139v182v211z" />
    <glyph glyph-name="section" unicode="&#xa7;" horiz-adv-x="1073" 
d="M635 340q-17 40 -62 67q-50 30 -100 49q-74 28 -112 42q-53 20 -93 45q-41 27 -47 71t19 94q24 47 77 93q50 43 127 71l-18 13q-45 28 -48 79q-3 49 29 102q31 52 94 97q65 46 150 68q84 20 162 12q70 -7 122 -30q47 -20 65 -48q17 -26 -7 -41q-74 -48 -112 -106
q-11 -13 -17 4t4 29q12 19 16 41q5 27 1 53q-1 10 -13 27q-12 16 -36 26q-26 10 -70 10q-43 0 -109 -18q-64 -17 -108 -50q-48 -36 -70 -72q-23 -38 -15 -73t52 -53q39 -16 96 -33t114 -42q54 -24 102 -63q46 -37 63 -95q15 -54 4 -102t-37 -84q-27 -37 -64 -67
q-33 -26 -77 -50q1 -3 3.5 -10t4.5 -10t4.5 -10t3.5 -9q15 -56 -4 -115t-61 -107q-44 -50 -109 -87t-145 -52q-47 -9 -86 -10q-52 -2 -91 2q-52 5 -89 17q-39 13 -74 38q-8 5 -26 19q-14 12 -26 26q-13 17 -17 29q-4 15 7 25q40 38 57 65q22 35 31 45q10 14 22 9
q12 -4 1 -21q-17 -29 -17 -78q0 -48 23 -82q18 -27 53 -39q36 -13 74 -14q41 -2 79 4q34 5 68 14q58 17 106 45q50 29 85 67t47 82t-6 91zM500 848q-62 -11 -105 -40q-42 -29 -63 -67q-21 -37 -15 -75q6 -39 41 -66q21 -18 66 -35q15 -5 44.5 -15t42.5 -15q44 -16 91 -36
q45 -19 78 -48q63 40 97 100q34 59 16 131q-11 35 -41 59q-29 23 -73 42q-40 17 -89 33q-38 12 -90 32z" />
    <glyph glyph-name="dieresis" unicode="&#xa8;" horiz-adv-x="385" 
d="M92 1530q34 -6 51 -33q17 -28 7 -51q-17 -46 -44 -61q-26 -15 -59 6q-20 11 -25 20q-5 8 0 19q4 8 15 23q9 11 22 36q2 8 2 14q0 11 1 16q1 7 8 10q5 3 22 1zM299 1530q35 -6 51 -33t6 -51q-17 -47 -43 -61q-26 -15 -59 6q-21 12 -26 20t0 19q2 5 16 23q9 11 22 36
q2 8 2 14q0 11 1 16q1 7 7 10q5 3 23 1z" />
    <glyph glyph-name="copyright" unicode="&#xa9;" horiz-adv-x="1236" 
d="M92 723q0 110 42 209q41 96 115 172q73 74 171 116q99 42 209 42t209 -42q97 -41 172 -116q73 -73 115 -172t42 -209t-42 -209q-42 -100 -115 -171q-76 -74 -172 -115q-99 -42 -209 -42t-209 42q-97 41 -171 115t-115 171q-42 99 -42 209zM150 723q0 -99 37 -186
t103 -153q65 -65 152 -102q90 -38 187 -38q96 0 186 38q89 38 153 102t102 153q38 90 38 186t-38 186q-38 89 -102 153t-153 102q-90 38 -186 38q-97 0 -187 -38q-87 -37 -152 -102q-66 -66 -103 -153t-37 -186zM864 864q14 17 27 41q12 21 21 56q7 27 1 55q-6 26 -34 41
q-27 12 -81 3q-55 -9 -122 -42q-69 -34 -140 -90q-76 -60 -137 -140q-48 -60 -71 -118t-26 -105q-3 -49 11 -82q15 -35 39 -51q23 -17 61 -25q40 -8 75 -7q32 1 80 10q37 7 75 20q23 9 59 27q44 22 65 34q8 4 19.5 10.5t21 12t17.5 10.5q26 16 39 29q8 8 7 14q-2 6 10 13
q9 9 18 11q8 2 10 -7q1 -16 -45 -54q-17 -12 -38 -25q-48 -30 -53 -33t-61 -35q-22 -13 -63 -29q-27 -12 -77 -26q-37 -11 -87 -14q-47 -3 -89 4q-46 8 -79 31q-34 22 -55 66q-20 41 -20 99q0 57 25 125q26 71 85 143q66 84 146 137q86 56 155 81q75 26 140 31q64 5 98 -10
q37 -18 46 -49q9 -29 4 -64q-4 -33 -20 -66q-13 -28 -28 -50q-17 -23 -35 -43q-22 -24 -49 -35q-37 -16 -53 -12q-17 5 -27 16q-6 6 2 20q6 11 25 25q21 15 36 21q19 7 35 6q17 -2 27 8q4 4 10 12z" />
    <glyph glyph-name="ordfeminine" unicode="&#xaa;" horiz-adv-x="905" 
d="M440 805q-47 28 -40 77q7 47 61 156q5 7 0 10q-4 2 -10 -4q-15 -15 -63 -59q-32 -29 -79 -65q-51 -39 -89 -62q-46 -28 -89 -46q-41 -17 -82 -20q-39 -3 -65 17q-40 29 -39 81q2 53 31 109q31 58 79 114q47 54 105 95q80 58 168 89q84 29 160 31q77 2 133 -25
q57 -27 84 -80q6 -11 3 -27t-20 -22q-16 -6 -24 6q-12 20 -19 34q-17 38 -51 59q-35 21 -88 18q-54 -3 -123 -33q-70 -31 -152 -93q-59 -46 -104 -96q-49 -54 -77 -97q-31 -48 -38 -83q-7 -37 13 -53q24 -21 76 -3q59 20 113 54q63 39 120 85q58 46 98 91q70 78 96 115
q17 24 27 43q1 7 8 14q10 10 27 -8q16 -22 24 -58t-2 -63q-5 -18 -18 -47q-12 -27 -35 -29q-14 0 -34 -29q-21 -31 -35 -63q-16 -36 -20 -67q-5 -33 7 -40q27 -17 93 0q64 16 139 52q69 33 120 67q49 33 72 54q17 17 17 27q0 11 16 26q50 39 51 12q2 -17 -20 -37
q-4 -4 -60 -53q-20 -19 -67 -50q-44 -29 -125 -69q-37 -17 -80 -33q-38 -14 -78 -22q-37 -7 -68 -9q-30 -2 -47 9z" />
    <glyph glyph-name="guillemotleft" unicode="&#xab;" horiz-adv-x="915" 
d="M451 938q11 8 22 1q15 -9 21 -20q9 -16 10 -30q2 -18 -8 -25q-87 -70 -157 -134q-75 -69 -138 -138q-23 -23 -44 -53q-23 -32 -24 -66q-1 -45 20 -71q19 -23 46 -50q43 -43 92 -89q19 -17 50.5 -46.5t42.5 -39.5q19 -18 78 -69q42 -37 44 -38q11 -8 9 -25t-10 -30
q-9 -13 -23 -21t-25 2q-13 10 -45 38q-63 56 -95 86q-40 38 -121 117q-71 69 -128 132q-16 18 -24 45q-7 25 -4 56q3 32 14 58q13 31 30 52q32 41 126 136q94 96 241 222zM805 938q11 8 22 1q15 -9 21 -20q9 -16 10 -30q2 -18 -8 -25q-87 -70 -157 -134q-75 -69 -138 -138
q-23 -23 -44 -53q-23 -32 -24 -66q-1 -45 20 -71q19 -23 46 -50q42 -43 92 -89q19 -17 50.5 -46.5t42.5 -39.5q19 -18 78 -69q42 -37 44 -38q11 -8 9 -25t-10 -30q-9 -14 -22 -21q-15 -8 -26 2q-13 10 -45 38q-48 42 -94 86q-71 67 -122 117q-71 69 -128 132q-16 18 -24 45
q-7 25 -4 56q3 29 15 58q14 33 29 52q32 41 126 136q94 96 241 222z" />
    <glyph glyph-name="logicalnot" unicode="&#xac;" horiz-adv-x="933" 
d="M45 846q-14 0 -21 14q-8 16 -8 33t8 33q7 14 21 14h786q37 0 48 -15q10 -14 10 -28v-352q0 -17 -15 -24t-31 -6q-18 1 -32 10q-14 8 -14 24v39q0 29 -1 49t-1 80v131h-133q-121 0 -191 -1t-216 -1h-210z" />
    <glyph glyph-name="registered" unicode="&#xae;" horiz-adv-x="1228" 
d="M1167 723q0 -108 -42 -206q-42 -97 -114 -171t-171 -117q-98 -43 -211 -43q-110 0 -209 42q-97 41 -171 115t-115 171q-42 99 -42 209t42 209q41 96 115 172q73 74 171 116q99 42 209 42t209 -42q97 -41 172 -116q73 -73 115 -172t42 -209zM569 743q26 -19 46 -51
q25 -39 43 -74q21 -40 42 -87q21 -46 43 -89q49 -101 97 -149q56 26 108 74q49 45 85 100q37 57 56 120t19 136q0 96 -38 186q-38 89 -102 153t-153 102q-90 38 -186 38q-131 0 -236 -62q-106 -63 -172 -165q63 25 177 57q121 34 292 41q86 4 150 -8q60 -12 98 -33
q35 -20 51 -48q15 -26 10 -54q-7 -44 -53 -84q-45 -39 -108 -66q-59 -25 -136 -38q-69 -11 -133 1zM231 455l31 62q16 33 42 76q24 41 51 81q15 23 57 80q61 83 133 158q68 71 117 112q10 8 15 11q8 5 13 -5q18 -23 -4 -53q-10 -15 -28 -33q-14 -14 -25 -14q-29 0 -84 -52
q-57 -54 -111 -130q-63 -86 -104 -185q-38 -93 -60 -164q64 -70 158 -113q92 -42 197 -42q91 0 170 30q-58 46 -109 140q-22 42 -42 91q-26 63 -34 81q-18 41 -33 66q-18 30 -42 48q-17 10 -23 12t-19 10q-8 5 -6 11q2 8 17 19q26 18 51 13q26 -5 41 -9q53 -11 112 6
q58 16 107 46q47 29 83 69q34 39 40 75q2 20 -5 39q-8 21 -34 36q-29 16 -77 25q-52 9 -132 5q-83 -5 -152 -19q-94 -19 -130 -31q-67 -21 -97 -35q-36 -16 -49 -26q-19 -15 -39 -37q-17 -18 -51 -30q-26 -69 -26 -156q0 -75 21 -143t60 -125z" />
    <glyph glyph-name="macron" unicode="&#xaf;" horiz-adv-x="591" 
d="M526 674q14 0 22 -14q7 -13 6 -30t-9 -31q-7 -13 -23 -13q-172 0 -324 -2q-119 -2 -137 2q-14 1 -20 15q-6 15 -5 29t9 28t25 14q35 0 57 1t85 1h128h186z" />
    <glyph glyph-name="degree" unicode="&#xb0;" horiz-adv-x="589" 
d="M104 1155q23 42 64 75q38 31 85 49q45 17 95 19q52 2 94 -14q44 -17 72 -49q29 -34 41 -74q12 -39 7 -87q-4 -42 -30 -89q-24 -46 -64 -78q-41 -33 -85 -51q-46 -19 -94 -20q-50 -2 -92 16q-45 18 -75 51t-42 74q-12 39 -7 87q5 47 31 91zM176 1049q0 -73 39 -126t98 -53
q31 0 57 18q26 19 44 45q17 26 28 64q11 39 11 78q0 34 -13 70q-12 33 -32 56t-47 37q-24 13 -52 11q-30 -2 -53 -19q-24 -18 -42 -45q-16 -24 -28 -63q-10 -33 -10 -73z" />
    <glyph glyph-name="plusminus" unicode="&#xb1;" horiz-adv-x="942" 
d="M877 106q13 0 21 -15q7 -14 7 -34q0 -17 -8 -33t-23 -16h-155h-175q-117 0 -174 1q-27 0 -78 0.5t-75 1.5q-45 1 -113 1q-43 0 -51 2q-14 1 -20 17t-5 31q1 17 9 31q7 13 24 13q45 3 112 3h209q164 0 252 -1q176 -2 243 -2zM850 639q14 0 20 -15q6 -14 4 -34
q-2 -18 -11 -34q-9 -15 -23 -15h-303v-99v-74v-68v-77q0 -14 -16 -20q-14 -6 -34 -4q-17 1 -33 11t-16 23v308h-136h-91q-41 0 -53 1t-25 1q-14 1 -20 17t-5 33q2 19 10 33q9 15 25 15q19 0 31 1t51 1q50 0 84 -1t129 -1q0 98 -1 135t-1 90q0 41 1 53q1 17 3 23q1 14 18 21
q16 6 32 5q17 -1 33 -11t16 -25v-31v-51q0 -50 -1 -84t-1 -127h313z" />
    <glyph glyph-name="twosuperior" unicode="&#xb2;" horiz-adv-x="761" 
d="M674 756q0 2 2 10q0 2 2 5l3 6q3 8 11 14q32 26 44 18q11 -7 5 -18q-10 -21 -25 -34q-14 -13 -38 -24q-89 -44 -189 -23q-98 21 -186 76q-61 37 -86 48q-34 15 -64 20q-25 4 -49 -1q-16 -4 -40 -17q-17 -6 -23 -2q-7 5 -8 14q-2 38 8 46q11 10 23 17q41 24 95 45
q15 6 56 22.5t66 26.5q69 27 137 55q72 30 143 70q73 40 107 91t38 95q4 45 -11 84q-14 36 -38 58q-38 33 -110 36q-74 3 -152 -36q7 -7 11 -15q6 -11 -11 -44q-23 -42 -54 -58t-46 0q-7 8 -8 23q-2 17 5 33q9 22 26 40q22 23 57 46q33 22 81 37q45 14 92 16q49 2 90 -7
q43 -9 77 -32q36 -27 56 -80q19 -49 11 -109q-7 -58 -50 -116q-42 -57 -130 -96q-107 -44 -161 -63q-93 -33 -143 -51q-20 -7 -60.5 -21.5t-59.5 -21.5q-56 -21 -86 -40q-5 -2 -3 -4t5 -2q57 21 114 3t134 -58q40 -22 82 -44q38 -20 82 -36q42 -16 83 -17q42 -1 85 15z" />
    <glyph glyph-name="threesuperior" unicode="&#xb3;" horiz-adv-x="720" 
d="M66 606q44 -50 102 -65q57 -15 116 -3q60 12 109 41q54 32 86 68q58 67 71 127q12 56 -7 96q-12 24 -37 41t-66 17q-32 0 -60 -4q-31 -4 -52 -15q-8 -4 -12.5 -3t-3.5 7q2 20 5 29q4 15 10 21q3 3 19 8l51 10q33 7 52 12q47 16 88 33q38 16 65 37q44 34 46 83
q2 48 -21 81q-17 23 -60 38q-44 15 -94 18q-54 3 -102 -8q-51 -12 -84 -42l11 -23q7 -14 -11 -49q-22 -42 -58 -61q-35 -18 -47 -2q-6 8 -9 24q-3 17 3 38q6 20 25 46q19 25 55 51q48 33 111 47q70 15 135 14q66 -1 125 -20q58 -18 80 -57q34 -60 9 -116t-87 -89
q-30 -18 -80 -38q-51 -21 -129 -33q-4 0 -3 -4t5 -3q64 10 110 -2q44 -12 78 -53q19 -26 28 -59q9 -36 5 -75q-5 -43 -23 -82q-19 -41 -57 -79q-37 -39 -103 -67q-69 -30 -142 -37q-79 -8 -147 9q-73 18 -122 73q-17 21 -25 42q-9 23 -10 44q0 14 15 15q7 1 15 -9t19 -31
q5 -11 6 -18q1 -5 1 -13q-1 -2 -2.5 -5.5t-1.5 -4.5z" />
    <glyph glyph-name="acute" unicode="&#xb4;" horiz-adv-x="266" 
d="M229 1499q4 -9 -1 -21q-3 -8 -11 -22q-11 -16 -34 -35q-19 -17 -44 -33q-26 -18 -42 -26q-20 -11 -29 -12q-25 -6 -34 10t1 22q32 21 64 67q28 40 44 91q5 17 17 23q11 6 22 -2q15 -13 26 -28q14 -19 21 -34z" />
    <glyph glyph-name="mu" unicode="&#xb5;" horiz-adv-x="1705" 
d="M23 233q6 9 20 29.5t18 26.5q23 34 19 67q-5 35 19 72q28 45 50 72q27 35 47 24q19 -10 40 -51q8 -17 3 -32q-4 -13 -10 -23q-12 -21 -25 -42q-20 -32 -42 -69q-4 -7 -20 -33t-24 -40q-15 -26 -32 -50q-42 -64 -55 -93q-12 -28 4 -38q15 -11 74 10t182 109
q102 72 177 151q71 76 105 134q5 9 14.5 26t11.5 20q13 24 30 13q9 -7 14 -15q9 -14 14 -27q7 -17 7 -34q0 -14 -9 -39q-3 -6 -13 -28q-8 -18 -16 -31q-7 -12 -21 -26q-11 -11 -23 -11q-10 0 -22 -13q-10 -11 -23 -34q-19 -30 -31 -47q-17 -25 -37 -66q-18 -37 -23 -64
q-6 -29 13 -42q27 -17 84 -6t129 45q75 36 121 68q48 33 71 55q17 17 17 27q0 11 16 26q49 39 51 12q2 -29 -80 -90q-42 -31 -66 -49q-42 -32 -124 -72q-26 -12 -80 -32q-36 -13 -79 -22q-31 -6 -68 -8q-31 -2 -48 9q-38 22 -16 100q23 80 88 185q2 5 1 6q-2 1 -5 -2
q-10 -10 -47 -44q-39 -35 -125 -97q-22 -15 -77 -53q-46 -32 -104 -61q-56 -28 -105 -40t-76 12q-39 -60 -67 -106q-33 -56 -74 -105q-43 -52 -97 -96t-135 -82q-19 -10 -37 -8q-15 1 -27 10q-8 6 -14 21q-4 11 2 22q12 25 35 25t31 -15q46 10 93 45q45 33 88 84
q37 43 82 107q30 42 74 115q21 30 26 38q4 7 15 25.5t18 28.5q12 19 36 59q9 15 37 57z" />
    <glyph glyph-name="periodcentered" unicode="&#xb7;" horiz-adv-x="178" 
d="M92 719q34 -6 51 -33q17 -28 7 -51q-17 -47 -43 -61q-27 -15 -60 6q-20 11 -25 20q-6 9 -2 18q5 12 16 24q10 11 23 36q2 8 2 14q0 11 1 16q1 7 8 10q5 3 22 1z" />
    <glyph glyph-name="cedilla" unicode="&#xb8;" horiz-adv-x="464" 
d="M182 8h72q-14 -27 -14 -43q0 -33 51 -33q23 0 54 7q27 6 42 6q22 0 36 -23q13 -22 -5 -61q-18 -41 -54 -78q-35 -36 -108 -59q-38 -11 -71 -12q-29 -1 -62 4q-22 4 -51 15q-23 9 -35 21q-12 10 -3 31q8 19 25 24q11 2 17 -4q2 -2 6 -6.5t7 -7.5q9 -9 20 -16q15 -9 32 -13
q15 -3 47 -5q24 -1 53 2q25 3 50 14q27 12 43 28q38 39 33 74t-56 27q-26 -5 -53 -12q-28 -8 -51 -9t-36 3q-14 5 -9 28z" />
    <glyph glyph-name="onesuperior" unicode="&#xb9;" horiz-adv-x="335" 
d="M377 1184q3 4 2 8q-2 5 -19 -6q-31 -15 -55 0q-10 6 -17 17q-8 12 17 20q10 1 31 10q17 7 38 20t38 27q18 15 28 25q20 19 52 26q30 6 61 6q14 0 8 -14q-27 -41 -55 -77q-30 -38 -70 -91q-50 -66 -76 -101q-34 -46 -71 -108q-70 -109 -129 -215q-57 -103 -86 -199
q-2 -7 -5 -10.5t-7 -2.5q-6 1 -23 20q-14 14 -13 26q2 13 3 17q31 78 77 166q47 90 121 210q23 38 55 84q8 12 21.5 32.5t19.5 28.5q7 9 16.5 24.5t13.5 20.5q13 20 24 36z" />
    <glyph glyph-name="ordmasculine" unicode="&#xba;" horiz-adv-x="614" 
d="M408 881q-29 -27 -76 -62q-41 -30 -96 -56q-49 -23 -103 -31q-49 -7 -94 16q-29 15 -39 52t-1 88q9 50 39 107q31 59 85 113q79 76 153 109q37 61 96 91q58 29 110 22q53 -8 81 -53q29 -47 8 -136q-34 -143 -163 -260zM471 1221q13 -6 9 -15q-3 -8 -19 -8q-46 0 -91 -17
q-49 -19 -108 -61q-7 -65 24 -128q31 -62 87 -97q56 59 91 124q32 60 50 128q12 58 -4 95q-17 38 -48 50q-32 12 -74 -3q-41 -15 -81 -62q50 16 94 11q40 -4 70 -17zM78 772q24 -22 64 -15q41 8 82 28q34 17 78 50q32 24 52 44q-56 38 -85 99q-30 62 -25 128
q-55 -37 -94 -88q-38 -49 -60 -102q-19 -45 -24 -90q-4 -39 12 -54z" />
    <glyph glyph-name="guillemotright" unicode="&#xbb;" horiz-adv-x="925" 
d="M461 938q140 -121 240 -222q94 -95 126 -136q17 -21 30 -52q11 -26 14 -58q3 -31 -4 -56q-8 -29 -23 -45q-57 -63 -128 -132q-51 -50 -122 -117q-46 -44 -94 -86q-32 -28 -45 -38q-11 -10 -26 -2q-13 7 -22 21q-10 14 -11 30q-2 17 9 25q10 7 44 38q12 11 38 34t39 35
q82 74 95 86q50 46 92 89q27 27 46 50q21 25 19 71q-2 35 -23 66q-21 30 -44 53q-58 63 -139 138q-77 71 -156 134q-10 7 -8 25q1 14 10 30q6 11 20 20q12 7 23 -1zM106 938q147 -126 241 -222q94 -95 126 -136q17 -21 30 -52q11 -26 14 -58q3 -31 -4 -56q-7 -27 -24 -45
q-57 -63 -128 -132q-81 -79 -121 -117q-32 -30 -95 -86q-32 -28 -45 -38q-11 -10 -25 -2t-23 21q-8 13 -10 30t9 25q6 4 43 38q11 10 37 33t41 36q58 53 94 86q50 46 92 89q27 27 46 50q21 26 20 71q-1 34 -24 66q-21 30 -44 53q-63 69 -138 138q-70 64 -157 134
q-10 7 -8 25q1 14 10 30q6 11 21 20q11 7 22 -1z" />
    <glyph glyph-name="onequarter" unicode="&#xbc;" horiz-adv-x="1439" 
d="M547 1225q4 7 1 12t-24 -6q-39 -18 -69 -2q-17 8 -24 22q-4 7 2.5 13t21.5 10q14 1 39 14q16 8 50 28q26 15 48 33q30 24 35 29q24 29 64 36q38 7 79 7q18 0 10 -18q-8 -9 -80 -99q-25 -31 -88 -115q-25 -33 -91 -127q-31 -44 -89 -136q-99 -160 -163 -276
q-72 -130 -109 -251q-3 -9 -7 -13.5t-9 -3.5q-8 1 -29 24q-17 19 -16 33q2 16 3 20q33 90 98 214q66 125 154 267q47 74 69 106q42 60 53 76q2 3 40 58q29 43 31 45zM1104 1274q-8 -11 -25.5 -34t-35.5 -47t-36 -47q-22 -29 -68 -88.5t-67 -86.5q-13 -17 -68 -89.5
t-87 -113.5q-55 -71 -163 -211q-147 -191 -155 -201q-24 -32 -68 -89t-64 -83q-18 -23 -50.5 -65t-45.5 -60q-11 -14 -21.5 -27.5t-16.5 -21t-8 -10.5q-10 -12 -26 -12q-15 0 -28 7q-15 8 -19 21q-4 15 7 29q2 2 40 51q63 81 94 123q49 66 132 172q23 29 155 203
q108 142 163 214q105 137 157 204q64 82 135 176q79 105 97 127q10 11 27 13q15 1 30 -7q12 -7 19 -21q6 -12 -4 -26zM1026 795q-11 0 -25 14q-12 12 -28 55q-18 53 -6 72q13 19 30 29q12 8 31 0q18 -7 33 -32q13 -21 21 -61q7 -34 -1 -86q-7 -55 -53 -102q-47 -48 -101 -84
q-57 -37 -113 -64q-81 -38 -89 -42q117 16 240 24q126 8 243 -14q103 168 168 250q60 76 92 114q22 24 41 29q23 7 62 8q11 0 12 -6q2 -6 -2 -10l-34 -34q-22 -22 -69 -79q-44 -54 -94 -124t-102 -167q78 -29 100 -68q23 -41 23 -97q0 -13 -7 -13q-8 0 -14 10q-24 43 -58 67
q-35 25 -77 42q-34 -63 -65 -133q-46 -104 -69 -157q-21 -49 -60 -148q-26 -65 -39 -109q-6 -15 -16 -7q-11 9 -17 19q-15 21 -17 34q-1 8 -1 16q8 33 29 86q19 48 56 135q35 82 68 149q27 56 68 131q-55 11 -134 14q-81 3 -166 -3q-86 -6 -165 -24q-83 -19 -129 -44
q-17 -8 -21 16q-5 25 0 54q2 18 26 20q22 1 67 23q29 14 99 49q53 27 110 66q56 39 97 83q40 43 56 99z" />
    <glyph glyph-name="onehalf" unicode="&#xbd;" horiz-adv-x="1458" 
d="M547 1225q4 7 1 12t-24 -6q-39 -18 -69 -2q-17 8 -24 22q-4 7 2.5 13t21.5 10q14 1 39 14q16 8 50 28q26 15 48 33q30 24 35 29q24 29 64 36q38 7 79 7q18 0 10 -18q-8 -9 -80 -99q-25 -31 -88 -115q-25 -33 -91 -127q-31 -44 -89 -136q-99 -160 -163 -276
q-72 -130 -109 -251q-3 -9 -7 -13.5t-9 -3.5q-8 1 -29 24q-17 19 -16 33q2 16 3 20q33 90 98 214q66 125 154 267q47 74 69 106q42 60 53 76q2 3 40 58q29 43 31 45zM1104 1274q-8 -11 -25.5 -34t-35.5 -47t-36 -47q-22 -29 -68 -88.5t-67 -86.5q-13 -17 -68 -89.5
t-87 -113.5q-55 -71 -163 -211q-147 -191 -155 -201q-24 -32 -68 -89t-64 -83q-18 -23 -50.5 -65t-45.5 -60q-11 -14 -21.5 -27.5t-16.5 -21t-8 -10.5q-10 -12 -26 -12q-15 0 -28 7q-15 8 -19 21q-4 15 7 29q2 2 40 51q63 81 94 123q49 66 132 172q23 29 155 203
q108 142 163 214q105 137 157 204q64 82 135 176q79 105 97 127q10 11 27 13q15 1 30 -7q12 -7 19 -21q6 -12 -4 -26zM1288 -90q0 2 2 12q4 14 21 29q38 32 54 23q15 -9 7 -21q-12 -27 -32 -39q-25 -15 -48 -25q-112 -47 -235 -29q-125 18 -236 87q-60 38 -106 58
q-47 20 -80 26q-36 6 -62 -1q-27 -7 -53 -22q-32 -16 -37 15q-1 46 11 58q9 9 28 21q55 31 121 58q63 26 152 60q48 18 172 70q90 38 180 87q92 51 134 114t48 120q6 60 -13 107q-20 50 -48 73q-22 19 -61 32q-38 13 -79 14t-92 -11q-52 -13 -98 -35q8 -5 14 -21
q6 -17 -14 -53q-29 -52 -68 -73t-55 -1q-8 12 -11 28q-3 18 6 40q9 23 33 50q28 31 68 58q42 27 103 46q55 17 115 22q57 4 113 -8q54 -12 95 -41q45 -35 71 -100q26 -64 15 -138q-11 -75 -62 -144q-53 -71 -163 -120q-114 -49 -202 -80q-46 -16 -180 -65q-29 -10 -78.5 -28
t-70.5 -26q-66 -24 -108 -49q-13 -8 2 -8q71 27 144 4q67 -21 167 -74q16 -9 103 -55q45 -24 102 -44q52 -19 104 -20q53 -2 107 19z" />
    <glyph glyph-name="threequarters" unicode="&#xbe;" horiz-adv-x="1792" 
d="M86 643q56 -64 130 -83q71 -18 146 -4q76 14 141 51t109 87q75 87 89 161q14 72 -9 122q-15 31 -47 53q-30 21 -82 21q-32 0 -79 -7q-40 -6 -64 -18q-7 -4 -11.5 -4.5t-6.5 1.5t-1 7q0 4 7 37q5 21 10 28q5 6 22 11q1 0 26 4t41 7q25 5 66 16q86 29 111 40q47 20 82 50
q58 44 63 95q4 49 -20 101q-17 36 -72 57q-54 20 -124 25q-67 4 -136 -11q-66 -15 -110 -54q-2 -2 4 -5q5 -2 10 -13q4 -9 3 -26q-2 -19 -17 -46q-16 -28 -34 -48q-17 -18 -39 -30q-19 -10 -35 -12q-15 -1 -23 10q-9 15 -13 31q-4 19 3 46q8 29 31 58q24 30 71 65
q55 40 138 61q87 21 172 20q90 -2 161 -29q72 -28 106 -86q41 -75 7 -140q-35 -66 -111 -106q-37 -18 -102 -45q-64 -27 -162 -43q-5 -2 -5 -6q0 -5 7 -5q80 14 140 -1q59 -15 99 -66q24 -30 36 -76q11 -41 6 -95q-5 -51 -29 -104q-24 -52 -72 -100t-133 -86
q-81 -36 -178 -47q-95 -11 -187 12t-155 92q-23 27 -32 52q-10 25 -11 59q0 9 4 13t13 3q8 -1 20 -13t24 -36q8 -27 6 -39zM1407 1274q-8 -11 -25.5 -34t-35.5 -47t-36 -47q-18 -24 -39.5 -51.5t-49.5 -64.5t-45 -59q-106 -139 -156 -203q-55 -71 -163 -211
q-147 -191 -155 -201q-24 -32 -68 -89t-64 -83q-18 -23 -50.5 -65t-45.5 -60q-11 -14 -21.5 -27.5t-16.5 -21t-8 -10.5q-10 -12 -26 -12q-15 0 -28 7q-15 8 -19 21q-4 15 7 29q2 2 40 51q63 81 94 123q49 66 132 172q23 29 155 203q108 142 163 214q105 137 157 204
q64 82 135 176q79 105 97 127q10 11 27 13q15 1 30 -7q12 -7 19 -21q6 -12 -4 -26zM1376 795q-16 1 -26 13q-11 13 -27 56q-18 53 -6 72q12 18 31 29q12 7 30 0t33 -32q14 -23 22 -61q7 -34 -1 -86q-7 -54 -54 -102t-101 -84q-57 -37 -113 -64q-81 -38 -89 -42
q117 16 240 24q127 8 244 -14q107 174 167 250q45 57 93 114q22 24 41 29q23 7 61 8q11 0 12 -6q2 -6 -2 -10l-34 -34q-22 -22 -69 -79q-37 -45 -93 -124q-54 -76 -103 -167q79 -29 101 -68q22 -40 22 -98q0 -12 -7 -12t-13 10q-23 42 -59 67q-35 25 -77 42
q-34 -63 -65 -133q-46 -104 -69 -157q-21 -49 -60 -148q-26 -65 -39 -109q-6 -15 -15 -7q-13 11 -18 19q-15 21 -17 34q-1 8 -1 16q6 25 30 86q29 75 55 135q35 82 68 149q27 56 68 131q-55 11 -134 14q-81 3 -166 -3q-86 -6 -165 -24q-83 -19 -129 -44q-16 -7 -20 16
q-5 25 0 54q2 19 25 20q22 1 67 23q29 14 99 49q57 29 111 66q53 37 96 83q40 43 56 99z" />
    <glyph glyph-name="questiondown" unicode="&#xbf;" horiz-adv-x="1179" 
d="M817 -35q2 2 -7 7q-8 4 -16 17t-8 34q0 22 23 63q22 41 45 64q22 22 48 35q24 12 42 9t29 -20q14 -23 19 -47t-7 -50q-13 -29 -45 -64q-35 -38 -96 -89q-75 -62 -169 -110q-91 -47 -176 -64q-90 -19 -167 -7q-80 12 -139 58q-100 78 -115 180q-15 101 44 216
q60 116 182 237q126 124 298 246q55 37 109 91q49 49 87 99q32 43 61 91q25 42 32 63q3 9 6.5 12.5t7.5 1.5q11 -6 18 -20q8 -14 16 -39q7 -22 9 -41t-22 -57q-20 -32 -66 -87q-45 -54 -92 -99q-53 -51 -100 -87q-135 -102 -237 -201q-101 -98 -156 -193q-54 -92 -52 -177
t74 -154q40 -40 104 -54q63 -14 136 -3q71 10 145 45t135 94zM1065 1120q-35 6 -51 33t-6 51q17 47 43 61q27 15 59 -5q20 -12 26 -21q5 -8 1 -18q-5 -11 -16 -25q-11 -13 -23 -35q-5 -6 -3 -14q1 -7 0 -15q-2 -8 -8 -11q-5 -3 -22 -1z" />
    <glyph glyph-name="Agrave" unicode="&#xc0;" 
d="M446 1049q28 31 54 35q28 5 73 -1l101 -14q44 -6 139 -30q80 -20 194 -62q99 -36 265 -111q178 137 318 229q146 96 262 163q123 71 186 104q72 38 90 45q1 16 6 34q4 17 47 38q12 6 48 22t53 23q4 2 47 17q20 7 30 7q9 0 19 -6q9 -5 14 -16q4 -9 2 -23q-1 -11 -14 -24
q-37 -33 -93 -95q-67 -75 -116 -133q-66 -79 -126 -157q-48 -63 -124 -167q-49 -67 -112 -161q-54 -81 -87 -139q105 -64 127 -82q7 -5 8 -15q1 -4 -2 -17q-1 -7 -8 -10q-6 -3 -14 9q-8 11 -41 32q-25 16 -86 56q-76 -128 -119 -227q-51 -117 -76 -189q-30 -85 -42 -134
q-13 -51 -13 -66q0 -8 -12 -7q-10 1 -26 12q-13 8 -25 27q-14 20 -15 43q-4 42 64 186q67 141 215 386q-61 41 -152 86q-72 35 -190 98q-61 -49 -94 -79q-18 -16 -54 -47.5t-45 -39.5q-491 -423 -823 -639t-516 -243q-91 -14 -152 -16q-57 -1 -82 24q-41 45 -18 66
q23 22 121 32q41 5 65 -15t45 -24q70 -11 189 45q114 54 283 167q157 106 372 277q227 181 455 373q17 14 48 39.5t44 36.5q45 38 90 72q-105 47 -197 81q-82 30 -179 59q-78 23 -138 31q-58 8 -78 -7q-22 -16 -28 -19q-11 -5 -26 -7q-14 -2 -32 0q-35 3 -49 5q-59 7 -73 26
q-13 18 3 36zM2062 1268q6 12 6 20q0 20 -30 10q-39 -13 -214 -121q-175 -107 -474 -335q103 -52 186 -103q88 -54 133 -82q94 163 193 311q33 50 100 150t100 150zM2232 1769q5 12 22 34q13 18 25 28q11 8 23 2q11 -6 16 -23q16 -51 44 -91q30 -43 65 -66q10 -6 1 -23
q-9 -16 -34 -10q-10 2 -30 12q-16 8 -42 26q-20 13 -44 34q-22 19 -33 34q-11 19 -12 22q-5 12 -1 21z" />
    <glyph glyph-name="Aacute" unicode="&#xc1;" 
d="M446 1049q28 31 54 35q28 5 73 -1l101 -14q44 -6 139 -30q80 -20 194 -62q99 -36 265 -111q178 137 318 229q146 96 262 163q123 71 186 104q72 38 90 45q1 16 6 34q4 17 47 38q12 6 48 22t53 23q4 2 47 17q20 7 30 7q9 0 19 -6q9 -5 14 -16q4 -9 2 -23q-1 -11 -14 -24
q-37 -33 -93 -95q-67 -75 -116 -133q-66 -79 -126 -157q-48 -63 -124 -167q-49 -67 -112 -161q-54 -81 -87 -139q105 -64 127 -82q7 -5 8 -15q1 -4 -2 -17q-1 -7 -8 -10q-6 -3 -14 9q-8 11 -41 32q-25 16 -86 56q-76 -128 -119 -227q-51 -117 -76 -189q-30 -85 -42 -134
q-13 -51 -13 -66q0 -8 -12 -7q-10 1 -26 12q-13 8 -25 27q-14 20 -15 43q-4 42 64 186q67 141 215 386q-61 41 -152 86q-72 35 -190 98q-61 -49 -94 -79q-18 -16 -54 -47.5t-45 -39.5q-491 -423 -823 -639t-516 -243q-91 -14 -152 -16q-57 -1 -82 24q-41 45 -18 66
q23 22 121 32q41 5 65 -15t45 -24q70 -11 189 45q114 54 283 167q157 106 372 277q227 181 455 373q17 14 48 39.5t44 36.5q45 38 90 72q-105 47 -197 81q-82 30 -179 59q-78 23 -138 31q-58 8 -78 -7q-22 -16 -28 -19q-11 -5 -26 -7q-14 -2 -32 0q-35 3 -49 5q-59 7 -73 26
q-13 18 3 36zM2062 1268q6 12 6 20q0 20 -30 10q-39 -13 -214 -121q-175 -107 -474 -335q103 -52 186 -103q88 -54 133 -82q94 163 193 311q33 50 100 150t100 150zM2423 1743q4 -9 -1 -22l-12 -21q-13 -18 -33 -35q-25 -21 -44 -34q-19 -12 -42 -25q-22 -12 -30 -13
q-25 -6 -34 11q-9 16 1 22q34 22 65 67q28 40 44 91q4 16 16 22t23 -2q14 -12 25 -27q17 -22 22 -34z" />
    <glyph glyph-name="Acircumflex" unicode="&#xc2;" 
d="M446 1049q28 31 54 35q28 5 73 -1l101 -14q44 -6 139 -30q80 -20 194 -62q99 -36 265 -111q178 137 318 229q146 96 262 163q123 71 186 104q72 38 90 45q1 16 6 34q4 17 47 38q12 6 48 22t53 23q4 2 47 17q20 7 30 7q9 0 19 -6q9 -5 14 -16q4 -9 2 -23q-1 -11 -14 -24
q-37 -33 -93 -95q-67 -75 -116 -133q-66 -79 -126 -157q-48 -63 -124 -167q-49 -67 -112 -161q-54 -81 -87 -139q105 -64 127 -82q7 -5 8 -15q1 -4 -2 -17q-1 -7 -8 -10q-6 -3 -14 9q-8 11 -41 32q-25 16 -86 56q-76 -128 -119 -227q-51 -117 -76 -189q-30 -85 -42 -134
q-13 -51 -13 -66q0 -8 -12 -7q-10 1 -26 12q-13 8 -25 27q-14 20 -15 43q-4 42 64 186q67 141 215 386q-61 41 -152 86q-72 35 -190 98q-61 -49 -94 -79q-18 -16 -54 -47.5t-45 -39.5q-491 -423 -823 -639t-516 -243q-91 -14 -152 -16q-57 -1 -82 24q-41 45 -18 66
q23 22 121 32q41 5 65 -15t45 -24q70 -11 189 45q114 54 283 167q157 106 372 277q227 181 455 373q17 14 48 39.5t44 36.5q45 38 90 72q-105 47 -197 81q-82 30 -179 59q-78 23 -138 31q-58 8 -78 -7q-22 -16 -28 -19q-11 -5 -26 -7q-14 -2 -32 0q-35 3 -49 5q-59 7 -73 26
q-13 18 3 36zM2062 1268q6 12 6 20q0 20 -30 10q-39 -13 -214 -121q-175 -107 -474 -335q103 -52 186 -103q88 -54 133 -82q94 163 193 311q33 50 100 150t100 150zM2337 1835q29 0 66 -26q36 -25 69 -60q31 -33 58 -72q27 -40 36 -59q6 -12 3 -24q-3 -10 -12 -18
q-8 -7 -21 -7q-10 0 -21 12q-12 15 -23 27q-2 3 -15 17.5t-21 22.5q-15 15 -39 41l-29 29q-31 31 -60 30q-30 -2 -57 -30q-22 -23 -61 -69q-34 -40 -64 -62q-28 -22 -46 -7t-1 46q8 16 38 56q24 32 62 70q37 37 70 58q39 25 68 25z" />
    <glyph glyph-name="Atilde" unicode="&#xc3;" 
d="M446 1049q28 31 54 35q28 5 73 -1l101 -14q44 -6 139 -30q80 -20 194 -62q99 -36 265 -111q178 137 318 229q146 96 262 163q123 71 186 104q72 38 90 45q1 16 6 34q4 17 47 38q12 6 48 22t53 23q4 2 47 17q20 7 30 7q9 0 19 -6q9 -5 14 -16q4 -9 2 -23q-1 -11 -14 -24
q-37 -33 -93 -95q-67 -75 -116 -133q-66 -79 -126 -157q-48 -63 -124 -167q-49 -67 -112 -161q-54 -81 -87 -139q105 -64 127 -82q7 -5 8 -15q1 -4 -2 -17q-1 -7 -8 -10q-6 -3 -14 9q-8 11 -41 32q-25 16 -86 56q-76 -128 -119 -227q-51 -117 -76 -189q-30 -85 -42 -134
q-13 -51 -13 -66q0 -8 -12 -7q-10 1 -26 12q-13 8 -25 27q-14 20 -15 43q-4 42 64 186q67 141 215 386q-61 41 -152 86q-72 35 -190 98q-61 -49 -94 -79q-18 -16 -54 -47.5t-45 -39.5q-491 -423 -823 -639t-516 -243q-91 -14 -152 -16q-57 -1 -82 24q-41 45 -18 66
q23 22 121 32q41 5 65 -15t45 -24q70 -11 189 45q114 54 283 167q157 106 372 277q227 181 455 373q17 14 48 39.5t44 36.5q45 38 90 72q-105 47 -197 81q-82 30 -179 59q-78 23 -138 31q-58 8 -78 -7q-22 -16 -28 -19q-11 -5 -26 -7q-14 -2 -32 0q-35 3 -49 5q-59 7 -73 26
q-13 18 3 36zM2062 1268q6 12 6 20q0 20 -30 10q-39 -13 -214 -121q-175 -107 -474 -335q103 -52 186 -103q88 -54 133 -82q94 163 193 311q33 50 100 150t100 150zM2613 1698l-1 -2q-2 -3 -5.5 -7.5t-6.5 -8.5q-13 -16 -31 -30q-22 -17 -48 -28q-29 -12 -65 -8
q-79 11 -139 36q-58 25 -103 31q-35 5 -62 -12q-6 -4 -24 -14.5t-27 -16.5q-16 -10 -23 0t5 27q2 2 8 9.5t10 13.5q7 9 32 28q19 15 45 24q24 9 54 7q43 -5 63 -11q17 -5 49 -17t49 -18q31 -11 60 -16q36 -8 72 -2t64 35q10 11 23 4t1 -24z" />
    <glyph glyph-name="Adieresis" unicode="&#xc4;" 
d="M446 1049q28 31 54 35q28 5 73 -1l101 -14q44 -6 139 -30q80 -20 194 -62q99 -36 265 -111q178 137 318 229q146 96 262 163q123 71 186 104q72 38 90 45q1 16 6 34q4 17 47 38q12 6 48 22t53 23q4 2 47 17q20 7 30 7q9 0 19 -6q9 -5 14 -16q4 -9 2 -23q-1 -11 -14 -24
q-37 -33 -93 -95q-67 -75 -116 -133q-66 -79 -126 -157q-48 -63 -124 -167q-49 -67 -112 -161q-54 -81 -87 -139q105 -64 127 -82q7 -5 8 -15q1 -4 -2 -17q-1 -7 -8 -10q-6 -3 -14 9q-8 11 -41 32q-25 16 -86 56q-76 -128 -119 -227q-51 -117 -76 -189q-30 -85 -42 -134
q-13 -51 -13 -66q0 -8 -12 -7q-10 1 -26 12q-13 8 -25 27q-14 20 -15 43q-4 42 64 186q67 141 215 386q-61 41 -152 86q-72 35 -190 98q-61 -49 -94 -79q-18 -16 -54 -47.5t-45 -39.5q-491 -423 -823 -639t-516 -243q-91 -14 -152 -16q-57 -1 -82 24q-41 45 -18 66
q23 22 121 32q41 5 65 -15t45 -24q70 -11 189 45q114 54 283 167q157 106 372 277q227 181 455 373q17 14 48 39.5t44 36.5q45 38 90 72q-105 47 -197 81q-82 30 -179 59q-78 23 -138 31q-58 8 -78 -7q-22 -16 -28 -19q-11 -5 -26 -7q-14 -2 -32 0q-35 3 -49 5q-59 7 -73 26
q-13 18 3 36zM2062 1268q6 12 6 20q0 20 -30 10q-39 -13 -214 -121q-175 -107 -474 -335q103 -52 186 -103q88 -54 133 -82q94 163 193 311q33 50 100 150t100 150zM2281 1749q36 -6 52 -33q17 -27 6 -51q-17 -45 -43 -60q-28 -15 -60 5q-20 11 -25 20q-5 8 0 19q4 8 15 23
q12 16 23 36q2 8 2 14q0 11 1 16q1 7 7 10q5 3 22 1zM2488 1749q36 -6 52 -33t6 -51q-17 -45 -43 -60q-28 -15 -60 5q-20 11 -25 20q-5 8 0 19q4 8 15 23q12 16 23 36q2 8 2 14q0 11 1 16q1 7 7 10q5 3 22 1z" />
    <glyph glyph-name="Aring" unicode="&#xc5;" 
d="M446 1049q28 31 54 35q28 5 73 -1l101 -14q44 -6 139 -30q80 -20 194 -62q99 -36 265 -111q178 137 318 229q146 96 262 163q123 71 186 104q72 38 90 45q1 16 6 34q4 17 47 38q12 6 48 22t53 23q4 2 47 17q20 7 30 7q9 0 19 -6q9 -5 14 -16q4 -9 2 -23q-1 -11 -14 -24
q-37 -33 -93 -95q-67 -75 -116 -133q-66 -79 -126 -157q-48 -63 -124 -167q-49 -67 -112 -161q-54 -81 -87 -139q105 -64 127 -82q7 -5 8 -15q1 -4 -2 -17q-1 -7 -8 -10q-6 -3 -14 9q-8 11 -41 32q-25 16 -86 56q-76 -128 -119 -227q-51 -117 -76 -189q-30 -85 -42 -134
q-13 -51 -13 -66q0 -8 -12 -7q-10 1 -26 12q-13 8 -25 27q-14 20 -15 43q-4 42 64 186q67 141 215 386q-61 41 -152 86q-72 35 -190 98q-61 -49 -94 -79q-18 -16 -54 -47.5t-45 -39.5q-491 -423 -823 -639t-516 -243q-91 -14 -152 -16q-57 -1 -82 24q-41 45 -18 66
q23 22 121 32q41 5 65 -15t45 -24q70 -11 189 45q114 54 283 167q157 106 372 277q227 181 455 373q17 14 48 39.5t44 36.5q45 38 90 72q-105 47 -197 81q-82 30 -179 59q-78 23 -138 31q-58 8 -78 -7q-22 -16 -28 -19q-11 -5 -26 -7q-14 -2 -32 0q-35 3 -49 5q-59 7 -73 26
q-13 18 3 36zM2062 1268q6 12 6 20q0 20 -30 10q-39 -13 -214 -121q-175 -107 -474 -335q103 -52 186 -103q88 -54 133 -82q94 163 193 311q33 50 100 150t100 150zM2228 1788q28 46 81 67q52 21 101 3q47 -18 62 -67q15 -48 -12 -95q-28 -48 -82 -70q-52 -21 -101 -2
q-47 21 -62 68t13 96zM2267 1731q0 -42 21 -69q22 -28 53 -28q33 0 55 34t21 77q0 40 -25 68q-24 28 -53 26q-30 -5 -51 -36t-21 -72z" />
    <glyph glyph-name="AE" unicode="&#xc6;" horiz-adv-x="3010" 
d="M1481 88q-34 -52 -59 -117q-23 -59 -29 -125q-6 -62 6 -114q12 -53 49 -90t114 -55q74 -17 186 -5q103 11 249 60q134 45 301 139q193 112 311 219q120 109 174 184q5 7 7 22q2 14 3 30q1 8 7 35q5 21 16 38q30 49 56 56q28 8 44 -31q6 -17 -10 -46t-47 -71
q-40 -52 -88 -109q-49 -58 -114 -120q-62 -59 -147 -124q-76 -58 -188 -122q-174 -99 -321 -150t-265 -63q-121 -12 -204 11q-86 24 -137 75q-72 72 -75 209q-3 138 73 305q27 62 92 194q61 125 172 308q-61 41 -152 86q-72 35 -190 98q-153 -120 -277 -231
q-121 -108 -268 -228q-350 -278 -594 -422t-393 -167q-91 -14 -152 -16q-57 -1 -82 24q-41 45 -18 66q23 22 121 32q41 5 65 -15t45 -24q118 -17 362 139q247 158 609 451q146 120 258 217q127 110 252 203q-105 47 -197 81q-82 30 -179 59q-78 23 -138 31q-58 8 -78 -7
q-22 -16 -28 -19q-11 -5 -26 -7q-14 -2 -32 0q-35 3 -49 5q-59 7 -73 26q-13 18 3 36q28 31 54 35q28 5 73 -1l101 -14q44 -6 139 -30q80 -20 194 -62q99 -36 265 -111q178 137 318 229q159 104 262 164q105 61 186 103q72 38 90 45q1 15 11 44q9 27 52 48q26 13 46 20
q22 8 51 15q9 2 23.5 5.5t19.5 4.5q16 4 28 4q9 0 19 -6q9 -5 14 -16q4 -9 2 -23q-1 -11 -14 -24q-38 -36 -68 -66q-36 -36 -82 -90q87 47 180 80q91 33 198 61q97 26 204 43q106 17 199 23q38 2 54 2q24 0 54 -19q38 -26 49 -42q10 -15 -2 -27q-13 -13 -44 -22
q-7 -2 -21.5 -6t-29.5 -8.5t-30 -8.5q-47 -15 -72 -15q-20 0 -44 6q-19 5 -38 12q-18 7 -55 7q-68 0 -147 -17q-76 -16 -174 -49q-92 -31 -179 -72q-94 -45 -163 -91q-75 -50 -125 -102q-52 -54 -68 -103q-16 -52 -1 -89q15 -36 53 -59q36 -22 87 -31q55 -10 102 -10
q48 0 98 8q53 9 77 17q65 22 85 13q18 -9 11 -52q-1 -6 -3.5 -18.5l-3.5 -17.5q-3 -12 -13 -24q-9 -10 -33 -23q-14 -7 -65 -25q-32 -10 -89 -29q-74 -25 -151 -56q-87 -35 -191 -92q-103 -56 -206 -131q-84 -62 -146 -131q-58 -65 -106 -137zM2062 1268q6 12 6 20
q0 20 -30 10q-39 -13 -214 -121q-175 -107 -474 -335q103 -52 186 -103q88 -54 133 -82q94 163 193 311q33 50 100 150t100 150zM1722 627q-32 -53 -76 -141q-34 -69 -63 -132q19 17 38 32q33 26 42 32q107 77 221 135q116 59 212 98q109 44 178 68q112 38 120 41
q8 2 11.5 5t1.5 7q-3 8 -19 4q-47 -15 -129 -23q-76 -7 -152 5q-74 12 -130 49q-57 37 -64 108q-62 -82 -108 -154q-59 -92 -83 -134z" />
    <glyph glyph-name="Ccedilla" unicode="&#xc7;" horiz-adv-x="1230" 
d="M1384 1049q33 36 64 93q33 60 48 126q15 68 1 126q-15 60 -78 93q-60 30 -182 9q-123 -21 -276 -96q-154 -76 -320 -204q-164 -127 -311 -315q-111 -139 -165 -273q-55 -136 -65 -243t18 -192q27 -80 81 -120q58 -41 142 -56q83 -15 180 -10q100 5 191 25q96 21 173 54
q62 24 137 61q79 39 147 77q81 45 130 77q66 43 88 63q15 15 17 27q1 10 17 24q48 46 54 15q4 -22 -20 -46q-26 -26 -73 -63q-27 -21 -84 -59q-66 -43 -117 -73q-68 -40 -138 -76q-68 -36 -142 -66q-85 -35 -183 -58q-100 -23 -210 -31q-104 -7 -204 8q-96 15 -163 62
q-73 52 -111 152t-29 225t71 274q64 152 184 302q151 187 329 313q176 125 340 192q166 68 302 80q137 12 213 -22q57 -28 80 -70t28 -93q5 -52 -10 -104q-16 -56 -33 -100q-17 -43 -40 -83q-23 -39 -31 -52q-36 -48 -81 -92q-48 -46 -106 -74t-92 -20q-35 8 -68 28
q-18 10 5 35q25 27 61 49q40 25 82 42q42 18 65 16q22 -4 38 2q17 7 26 16q13 12 20 25zM414 -57h71q-14 -27 -14 -43q0 -33 51 -33q28 0 55 6t41 6q23 0 36 -22t-5 -62q-18 -41 -54 -78q-35 -36 -108 -59q-34 -9 -70 -11q-30 -1 -63 4q-26 4 -51 14q-22 9 -35 22
q-12 10 -3 30t26 25q11 2 16 -4l14 -14q14 -14 19 -17q12 -7 33 -12q15 -3 47 -5q24 -1 52 2t50 13q25 11 43 29q37 39 33 73t-55 27q-42 -8 -54 -11q-29 -7 -51 -9t-36 3t-9 27z" />
    <glyph glyph-name="Egrave" unicode="&#xc8;" horiz-adv-x="1728" 
d="M166 -358q-50 50 -57 133q-8 87 27 183q36 99 114 204q76 103 201 194q103 75 206 131q104 57 191 92q77 31 151 56q72 24 88 29q54 19 66 25q24 13 33 23q10 12 13 24l3.5 17.5t3.5 18.5q7 43 -11 52q-20 9 -85 -13q-24 -9 -82 -17q-54 -8 -110 -8q-53 0 -118 10
q-61 9 -103 31t-64 59q-21 36 -4 89q17 51 67 103t125 102q69 46 163 91q87 41 179 72q98 33 174 49q79 17 148 17q36 0 54 -7q19 -7 38 -12q24 -6 44 -6q26 0 73 15l50 15l31 8q31 9 44 22q12 12 2 27q-11 16 -49 42q-29 18 -55 20q-25 1 -54 -3q-106 -15 -236 -41
q-110 -22 -234 -56q-107 -29 -218 -74q-106 -43 -188 -96q-81 -53 -139 -120q-55 -64 -77 -146q-16 -65 7 -113q23 -47 68 -75q46 -28 110 -42q63 -13 128 -15q71 -2 124 5q61 8 98 19q16 4 19 -4q2 -4 -1.5 -7t-11.5 -5q-8 -3 -120 -41q-69 -24 -178 -68q-96 -39 -212 -98
q-114 -58 -221 -135q-150 -107 -233 -228q-81 -119 -105 -229q-24 -111 -3 -203q21 -91 73 -143q51 -51 137 -75q83 -23 204 -11q118 12 265 63t321 150q112 64 188 122q85 65 147 124q65 62 114 120q48 57 88 109q31 42 47 71t10 46q-16 39 -44 31q-26 -7 -56 -56
q-11 -17 -16 -38q-6 -27 -7 -35q-1 -16 -3 -30q-2 -15 -7 -22q-54 -75 -174 -184q-118 -107 -311 -219q-167 -94 -301 -139q-146 -49 -249 -60q-112 -12 -186 5q-77 18 -114 55zM1358 1733q6 13 21 33q11 15 26 28q11 8 22 2q13 -6 17 -22q17 -53 44 -92q30 -44 64 -66
q10 -6 1 -23q-9 -16 -33 -10q-10 1 -30 12q-16 8 -42 26q-19 13 -44 34q-23 19 -34 35q-9 16 -11 21q-5 13 -1 22z" />
    <glyph glyph-name="Eacute" unicode="&#xc9;" horiz-adv-x="1728" 
d="M1626 1712q4 -9 -1 -21q-3 -8 -11 -22q-11 -16 -34 -35q-19 -16 -44 -33q-26 -18 -42 -26q-20 -11 -30 -12q-24 -6 -33 10t1 22q32 21 64 67q28 40 44 91q5 17 16 23q12 6 23 -2q15 -13 26 -28q14 -19 21 -34zM166 -358q-50 50 -57 133q-8 87 27 183q36 99 114 204
q76 103 201 194q103 75 206 131q104 57 191 92q77 31 151 56q72 24 88 29q54 19 66 25q24 13 33 23q10 12 13 24l3.5 17.5t3.5 18.5q7 43 -11 52q-20 9 -85 -13q-24 -9 -82 -17q-54 -8 -110 -8q-53 0 -118 10q-61 9 -103 31t-64 59q-21 36 -4 89q17 51 67 103t125 102
q69 46 163 91q87 41 179 72q98 33 174 49q79 17 148 17q36 0 54 -7q19 -7 38 -12q24 -6 44 -6q26 0 73 15l50 15l31 8q31 9 44 22q12 12 2 27q-11 16 -49 42q-29 18 -55 20q-25 1 -54 -3q-106 -15 -236 -41q-110 -22 -234 -56q-107 -29 -218 -74q-106 -43 -188 -96
q-81 -53 -139 -120q-55 -64 -77 -146q-16 -65 7 -113q23 -47 68 -75q46 -28 110 -42q63 -13 128 -15q71 -2 124 5q61 8 98 19q16 4 19 -4q2 -4 -1.5 -7t-11.5 -5q-8 -3 -120 -41q-69 -24 -178 -68q-96 -39 -212 -98q-114 -58 -221 -135q-150 -107 -233 -228
q-81 -119 -105 -229q-24 -111 -3 -203q21 -91 73 -143q51 -51 137 -75q83 -23 204 -11q118 12 265 63t321 150q112 64 188 122q85 65 147 124q65 62 114 120q48 57 88 109q31 42 47 71t10 46q-16 39 -44 31q-26 -7 -56 -56q-11 -17 -16 -38q-6 -27 -7 -35q-1 -16 -3 -30
q-2 -15 -7 -22q-54 -75 -174 -184q-118 -107 -311 -219q-167 -94 -301 -139q-146 -49 -249 -60q-112 -12 -186 5q-77 18 -114 55z" />
    <glyph glyph-name="Ecircumflex" unicode="&#xca;" horiz-adv-x="1728" 
d="M166 -358q37 -37 114 -55q74 -17 186 -5q103 11 249 60q134 45 301 139q193 112 311 219q120 109 174 184q5 7 7 22q2 14 3 30q1 8 7 35q5 21 16 38q30 49 56 56q28 8 44 -31q6 -17 -10 -46t-47 -71q-40 -52 -88 -109q-49 -58 -114 -120q-62 -59 -147 -124
q-76 -58 -188 -122q-174 -99 -321 -150t-265 -63q-121 -12 -204 11q-86 24 -137 75q-52 52 -73 143q-21 92 3 203q24 110 105 229q83 121 233 228q107 77 221 135q116 59 212 98q109 44 178 68q112 38 120 41q8 2 11.5 5t1.5 7q-3 8 -19 4q-37 -11 -98 -19q-53 -7 -124 -5
q-65 2 -128 15q-64 14 -110 42q-45 28 -68 75q-23 48 -7 113q22 82 77 146q58 67 139 120q82 53 188 96q111 45 218 74q124 34 234 56q130 26 236 41q29 4 54 3q26 -2 55 -20q38 -26 49 -42q10 -15 -2 -27q-13 -13 -44 -22l-31 -8l-50 -15q-47 -15 -73 -15q-20 0 -44 6
q-19 5 -38 12q-18 7 -54 7q-69 0 -148 -17q-76 -16 -174 -49q-92 -31 -179 -72q-94 -45 -163 -91q-75 -50 -125 -102t-67 -103q-17 -53 4 -89q22 -37 64 -59t103 -31q65 -10 118 -10q56 0 110 8q58 8 82 17q65 22 85 13q18 -9 11 -52q-1 -6 -3.5 -18.5l-3.5 -17.5
q-3 -12 -13 -24q-9 -10 -33 -23q-12 -6 -66 -25q-16 -5 -88 -29q-74 -25 -151 -56q-87 -35 -191 -92q-103 -56 -206 -131q-125 -91 -201 -194q-78 -105 -114 -204q-35 -96 -27 -183q7 -83 57 -133zM1671 1823q30 0 67 -26q33 -23 68 -60q35 -36 59 -72q27 -40 36 -59
q6 -12 3 -24q-2 -9 -13 -18q-10 -8 -20 -8q-11 0 -22 13q-13 16 -22 26q-33 36 -37 40q-15 15 -39 41q-12 13 -29 30q-31 31 -60 30t-56 -30q-24 -25 -62 -70q-33 -39 -63 -61q-28 -22 -46 -7t-1 46q10 20 37 56q24 32 62 70q35 35 71 58q39 25 67 25z" />
    <glyph glyph-name="Edieresis" unicode="&#xcb;" horiz-adv-x="1728" 
d="M166 -358q-50 50 -57 133q-8 87 27 183q36 99 114 204q76 103 201 194q103 75 206 131q104 57 191 92q77 31 151 56q72 24 88 29q54 19 66 25q24 13 33 23q10 12 13 24l3.5 17.5t3.5 18.5q7 43 -11 52q-20 9 -85 -13q-24 -9 -82 -17q-54 -8 -110 -8q-53 0 -118 10
q-61 9 -103 31t-64 59q-21 36 -4 89q17 51 67 103t125 102q69 46 163 91q87 41 179 72q98 33 174 49q79 17 148 17q36 0 54 -7q19 -7 38 -12q24 -6 44 -6q26 0 73 15l50 15l31 8q31 9 44 22q12 12 2 27q-11 16 -49 42q-29 18 -55 20q-25 1 -54 -3q-106 -15 -236 -41
q-110 -22 -234 -56q-107 -29 -218 -74q-106 -43 -188 -96q-81 -53 -139 -120q-55 -64 -77 -146q-16 -65 7 -113q23 -47 68 -75q46 -28 110 -42q63 -13 128 -15q71 -2 124 5q61 8 98 19q16 4 19 -4q2 -4 -1.5 -7t-11.5 -5q-8 -3 -120 -41q-69 -24 -178 -68q-96 -39 -212 -98
q-114 -58 -221 -135q-150 -107 -233 -228q-81 -119 -105 -229q-24 -111 -3 -203q21 -91 73 -143q51 -51 137 -75q83 -23 204 -11q118 12 265 63t321 150q112 64 188 122q85 65 147 124q65 62 114 120q48 57 88 109q31 42 47 71t10 46q-16 39 -44 31q-26 -7 -56 -56
q-11 -17 -16 -38q-6 -27 -7 -35q-1 -16 -3 -30q-2 -15 -7 -22q-54 -75 -174 -184q-118 -107 -311 -219q-167 -94 -301 -139q-146 -49 -249 -60q-112 -12 -186 5q-77 18 -114 55zM1501 1753q35 -6 51 -33q17 -28 7 -51q-17 -45 -43 -60q-28 -15 -60 5q-20 11 -25 20
q-5 8 0 19q4 8 15 23q9 11 22 36q2 8 2 14q0 11 1 16q1 7 8 10q5 3 22 1zM1708 1753q34 -6 51 -33t6 -51q-17 -45 -43 -60q-27 -15 -59 5q-21 12 -26 20t0 19q2 5 16 23q9 11 22 36q2 8 2 14q0 11 1 16q1 7 8 10q5 3 22 1z" />
    <glyph glyph-name="Igrave" unicode="&#xcc;" horiz-adv-x="1531" 
d="M821 12q184 10 316 -8q122 -17 192 -37q22 -5 26 -15q5 -13 27 -20q27 -10 43 -7t11 20q-4 16 -38 28q-44 15 -85 25q-44 9 -70 16q-41 10 -99 18q-53 7 -135 10q-77 3 -178 -3q27 67 71 164q48 107 89 185q57 108 106 190q65 107 117 180q48 66 137 180q61 78 125 145
q63 67 107 97q49 34 84 34q22 0 54 19q29 17 56 46q25 27 44 58q17 28 22 54q186 48 340 70q148 21 266 -19q55 -18 82 -52q27 -35 17 -85q-5 -17 7 -20q11 -3 21 11q7 6 17 41q11 35 9 75q-1 39 -23 76q-21 36 -82 48q-55 10 -125 7q-68 -3 -149 -18q-83 -15 -176 -39
q-31 -8 -100.5 -25t-107.5 -27q-20 32 -47 20t-74 -53q-101 -31 -171 -55q-98 -34 -163 -51q-77 -20 -160 -28q-80 -7 -167 11q-34 7 -52 18q-28 16 -34 19q-17 7 -42 12t-75 0q-19 -2 -47.5 -4t-37.5 -3q-33 -3 -48 -12q-14 -8 -6 -28q7 -17 41 -51q23 -23 48 -29
q26 -6 54 -6q120 -4 234 8q97 11 208 34q95 20 185 47q53 16 162 50q-113 -111 -233 -250q-127 -147 -245 -305q-60 -80 -137 -192q-55 -80 -121 -187q-57 -93 -99 -172q-53 -100 -73 -147q-10 -22 -4 -49q-33 -3 -124 -16q-73 -10 -139 -26q-89 -21 -162 -44
q-75 -23 -191 -68q-32 -12 -49 -24q-20 -14 -35 -43q-19 -45 -20 -63q-1 -19 16 -22q16 -3 49 6q37 10 82 21q47 12 68 27q27 19 34 28q1 1 26 29q12 13 44 31q125 64 226 95q98 30 185 42q16 -26 36 -33q21 -8 32 17zM1696 1671q7 15 21 34q11 15 26 28q11 8 22 2
q12 -6 17 -23q16 -51 44 -91q32 -46 64 -67q10 -6 1 -22t-33 -10q-10 2 -30 12q-16 8 -42 26q-25 16 -44 33q-23 19 -34 35q-8 14 -11 22q-5 12 -1 21z" />
    <glyph glyph-name="Iacute" unicode="&#xcd;" horiz-adv-x="1531" 
d="M821 12q184 10 316 -8q122 -17 192 -37q22 -5 26 -15q5 -13 27 -20q27 -10 43 -7t11 20q-4 16 -38 28q-44 15 -85 25q-44 9 -70 16q-41 10 -99 18q-53 7 -135 10q-77 3 -178 -3q27 67 71 164q48 107 89 185q57 108 106 190q65 107 117 180q48 66 137 180q61 78 125 145
q63 67 107 97q49 34 84 34q22 0 54 19q29 17 56 46q25 27 44 58q17 28 22 54q186 48 340 70q148 21 266 -19q55 -18 82 -52q27 -35 17 -85q-5 -17 7 -20q11 -3 21 11q7 6 17 41q11 35 9 75q-1 39 -23 76q-21 36 -82 48q-55 10 -125 7q-68 -3 -149 -18q-83 -15 -176 -39
q-31 -8 -100.5 -25t-107.5 -27q-20 32 -47 20t-74 -53q-101 -31 -171 -55q-98 -34 -163 -51q-77 -20 -160 -28q-80 -7 -167 11q-34 7 -52 18q-28 16 -34 19q-17 7 -42 12t-75 0q-19 -2 -47.5 -4t-37.5 -3q-33 -3 -48 -12q-14 -8 -6 -28q7 -17 41 -51q23 -23 48 -29
q26 -6 54 -6q120 -4 234 8q97 11 208 34q95 20 185 47q53 16 162 50q-113 -111 -233 -250q-127 -147 -245 -305q-60 -80 -137 -192q-55 -80 -121 -187q-57 -93 -99 -172q-53 -100 -73 -147q-10 -22 -4 -49q-33 -3 -124 -16q-73 -10 -139 -26q-89 -21 -162 -44
q-75 -23 -191 -68q-32 -12 -49 -24q-20 -14 -35 -43q-19 -45 -20 -63q-1 -19 16 -22q16 -3 49 6q37 10 82 21q47 12 68 27q27 19 34 28q1 1 26 29q12 13 44 31q125 64 226 95q98 30 185 42q16 -26 36 -33q21 -8 32 17zM1825 1663q4 -9 -1 -22q-1 -4 -3 -7.5t-5 -7.5t-4 -6
q-13 -18 -33 -35q-25 -21 -44 -34q-19 -12 -42 -25q-22 -12 -30 -13q-25 -6 -34 11q-9 16 1 22q34 22 65 67q28 40 44 91q4 16 16 22t23 -2q14 -12 25 -27q17 -22 22 -34z" />
    <glyph glyph-name="Icircumflex" unicode="&#xce;" horiz-adv-x="1531" 
d="M813 -12q-11 -25 -32 -17q-20 7 -36 33q-87 -12 -185 -42q-101 -31 -226 -95q-32 -18 -44 -31q-25 -28 -26 -29q-7 -9 -34 -28q-21 -15 -68 -27q-45 -11 -82 -21q-33 -9 -49 -6q-17 3 -16 22q1 18 20 63q15 29 35 43q17 12 49 24q116 45 191 68q73 23 162 44
q66 16 139 26q91 13 124 16q-6 27 4 49q20 47 73 147q42 79 99 172q66 107 121 187q77 112 137 192q118 158 245 305q120 139 233 250q-109 -34 -162 -50q-90 -27 -185 -47q-111 -23 -208 -34q-114 -12 -234 -8q-28 0 -54 6q-25 6 -48 29q-34 34 -41 51q-8 20 6 28
q15 9 48 12q9 1 37.5 3t47.5 4q50 5 75 0t42 -12q6 -3 34 -19q18 -11 52 -18q87 -18 167 -11q83 8 160 28q65 17 163 51q70 24 171 55q47 41 74 53t47 -20q38 10 107.5 27t100.5 25q93 24 176 39q81 15 149 18q70 3 125 -7q61 -12 82 -48q22 -37 23 -76q2 -40 -9 -75
q-10 -35 -17 -41q-10 -14 -21 -11q-12 3 -7 20q10 50 -17 85q-27 34 -82 52q-118 40 -266 19q-154 -22 -340 -70q-5 -26 -22 -54q-19 -31 -44 -58q-27 -29 -56 -46q-32 -19 -54 -19q-35 0 -84 -34q-44 -30 -107 -97q-64 -67 -125 -145q-89 -114 -137 -180q-52 -73 -117 -180
q-49 -82 -106 -190q-41 -78 -89 -185q-44 -97 -71 -164q101 6 178 3q82 -3 135 -10q58 -8 99 -18q26 -7 70 -16q41 -10 85 -25q34 -12 38 -28q5 -17 -11 -20t-43 7q-22 7 -27 20q-4 10 -26 15q-70 20 -192 37q-132 18 -316 8zM1776 1776q29 0 66 -26q36 -26 69 -60
q31 -33 58 -72q27 -40 36 -59q6 -12 3 -24q-3 -10 -12 -18q-10 -8 -21 -8q-10 0 -21 13q-6 7 -23 26q-33 36 -37 40q-2 2 -38 41q-12 13 -29 30q-31 31 -61 30q-29 -1 -56 -30q-14 -14 -61 -70q-32 -37 -64 -61q-28 -22 -46 -7t-1 46q8 16 38 56q27 36 61 70q35 35 71 58
q39 25 68 25z" />
    <glyph glyph-name="Idieresis" unicode="&#xcf;" horiz-adv-x="1531" 
d="M821 12q184 10 316 -8q122 -17 192 -37q22 -5 26 -15q5 -13 27 -20q27 -10 43 -7t11 20q-4 16 -38 28q-44 15 -85 25q-44 9 -70 16q-41 10 -99 18q-53 7 -135 10q-77 3 -178 -3q27 67 71 164q48 107 89 185q57 108 106 190q65 107 117 180q48 66 137 180q61 78 125 145
q63 67 107 97q49 34 84 34q22 0 54 19q29 17 56 46q25 27 44 58q17 28 22 54q186 48 340 70q148 21 266 -19q55 -18 82 -52q27 -35 17 -85q-5 -17 7 -20q11 -3 21 11q7 6 17 41q11 35 9 75q-1 39 -23 76q-21 36 -82 48q-55 10 -125 7q-68 -3 -149 -18q-83 -15 -176 -39
q-31 -8 -100.5 -25t-107.5 -27q-20 32 -47 20t-74 -53q-101 -31 -171 -55q-98 -34 -163 -51q-77 -20 -160 -28q-80 -7 -167 11q-34 7 -52 18q-28 16 -34 19q-17 7 -42 12t-75 0q-19 -2 -47.5 -4t-37.5 -3q-33 -3 -48 -12q-14 -8 -6 -28q7 -17 41 -51q23 -23 48 -29
q26 -6 54 -6q120 -4 234 8q97 11 208 34q95 20 185 47q53 16 162 50q-113 -111 -233 -250q-127 -147 -245 -305q-60 -80 -137 -192q-55 -80 -121 -187q-57 -93 -99 -172q-53 -100 -73 -147q-10 -22 -4 -49q-33 -3 -124 -16q-73 -10 -139 -26q-89 -21 -162 -44
q-75 -23 -191 -68q-32 -12 -49 -24q-20 -14 -35 -43q-19 -45 -20 -63q-1 -19 16 -22q16 -3 49 6q37 10 82 21q47 12 68 27q27 19 34 28q1 1 26 29q12 13 44 31q125 64 226 95q98 30 185 42q16 -26 36 -33q21 -8 32 17zM1679 1675q36 -6 52 -33q17 -27 6 -51q-17 -45 -43 -60
q-28 -15 -60 5q-20 11 -25 20q-5 8 0 19q4 8 15 23q12 16 23 36q2 8 2 15q0 10 1 15q1 7 7 10q5 3 22 1zM1886 1675q35 -6 51 -32q17 -28 7 -52q-17 -45 -43 -60q-28 -15 -60 5q-20 11 -25 20q-5 8 0 19q4 8 15 23q9 11 22 36q2 8 2 15q0 5 2 15q1 7 7 10q5 3 22 1z" />
    <glyph glyph-name="Eth" unicode="&#xd0;" horiz-adv-x="2064" 
d="M1989 518q-85 -193 -205 -344q-126 -158 -260 -268q-142 -116 -287 -193q-146 -78 -284 -120q-135 -41 -252 -46q-112 -4 -189 27q-93 40 -118 101q-26 63 -2 139q23 73 87 157q60 78 151 160q85 76 189 145q103 68 203 113q115 51 232 84q114 32 234 52t225 26
q103 6 206 4q82 210 94 391q12 180 -51 310q-63 131 -204 200q-144 70 -363 60q-190 -10 -372 -41q-164 -28 -323 -69q-131 -34 -240 -76q-97 -37 -124 -60q-24 -20 -38 -39q-16 -22 -24 -32q-12 -15 -33 -30q-15 -11 -69 -30q-11 -4 -28 -10t-29.5 -10t-21.5 -8
q-28 -11 -48 -9q-15 1 -17 21q-2 19 15 63q11 31 31 48q22 19 47 30q16 8 122 52q91 38 259 86q164 47 386 87q229 41 505 53q244 11 406 -55q163 -66 241 -196q77 -128 69 -318q-8 -189 -106 -422q54 -6 81 -11q24 -5 68 -16q104 -27 111 -49q9 -26 -40 -18q-9 1 -19 4
q-12 2 -16 6l-10 8l-5 5t-5 4q-5 5 -18 10q-25 10 -73 16q-52 7 -88 8zM1030 358q-110 -54 -201 -114q-93 -62 -179 -140q-83 -76 -138 -149q-59 -79 -80 -144q-23 -69 -2 -124q21 -56 94 -86q69 -29 178 -21q106 7 238 52q128 43 268 123q138 78 270 191q126 108 242 257
q115 149 187 319q-111 2 -208 -5q-103 -7 -223 -26q-114 -18 -228 -51t-218 -82zM1395 1450q-14 20 -35 10q-24 -12 -37 -24q-55 -46 -125 -116q-78 -78 -146 -154q-95 -107 -157 -181q-75 -90 -156 -197q-55 10 -87 15l-72 8q-30 2 -59 2q-31 0 -71 -5q-33 -4 -66 -19
q-31 -14 -38 -35q-12 -35 -9 -47q3 -14 38 -9q22 1 68 9q34 6 55 28q18 22 40 30q20 7 48 7q8 0 46 -3t87 -9q-78 -107 -133 -188q-77 -114 -117 -181q-53 -89 -96 -168q-40 -73 -70 -143q-11 -24 -3 -50t22 -42q16 -18 30 -19q18 -2 25 19q31 84 67 167q19 43 92 194
q43 90 110 206q60 104 128 197h2q18 -2 45.5 -7t28.5 -5l24 -4t26 -4q28 -4 41 -6q25 -4 46 -5q81 -6 128 1q55 8 95 23q17 6 42 21q21 13 38 27q10 6 9 22t-15 16q-21 0 -47 -22q-5 -5 -7 -11q0 -1 -1 -5.5t-2 -5.5q-1 -3 -7 -11q-4 -6 -20 -12q-38 -17 -93 -21
q-54 -4 -120 2q-23 2 -89 13q-26 4 -105 20q76 103 132 172q67 83 121 138q58 60 103 93q44 33 82 33q30 0 73 34q45 36 74 79q30 45 31 72q2 30 -14 51z" />
    <glyph glyph-name="Ntilde" unicode="&#xd1;" horiz-adv-x="1859" 
d="M1440 1145q-102 -103 -164 -167q-84 -86 -110 -112q-46 -46 -84 -87q-62 -67 -87 -95q-76 -83 -147 -179q-72 -97 -129 -184q-56 -86 -108 -178q-51 -91 -83 -159q-10 -21 -25 -18t-27 20q-11 15 -14 43t11 51q33 62 66 120q43 77 76 132q30 51 109 172q38 59 161 239
q81 119 131 228q52 114 77 204q25 93 24 162q-2 72 -25 101q-16 20 -66 33q-46 12 -108 9q-59 -3 -132 -22q-69 -18 -135 -51q-117 -61 -166 -88q-69 -39 -117 -72q-50 -35 -75 -62q-26 -29 -37 -63q-10 -27 -15 -49q-3 -12 -15 -36q-9 -18 -27 -39q-6 -7 -23.5 -26.5
t-28.5 -31.5q-8 -9 -46 -47q-20 -20 -39 -25q-16 -4 -29 12q-14 17 -21 60q-7 33 8 66q15 34 37 55q17 17 70 62q55 47 124 95q76 53 173 109q114 66 219 111q77 34 157 57q79 23 141 29q65 6 117 -3q53 -9 83 -36q59 -50 71 -128q12 -79 -14 -175q-28 -102 -89 -217
q-64 -121 -153 -254q-6 -8 -4 -14q1 -2 2.5 -2t4.5 2t6 5q40 39 105 106q49 50 98 104q36 39 109 116q58 62 136 139q93 96 183 164q95 72 173 110q80 39 150 47q66 7 115 -24q64 -42 76 -118q12 -74 -19 -183q-30 -107 -99 -240q-72 -140 -161 -294q-89 -151 -162 -294
q-74 -144 -114 -263q-39 -118 -33 -217q6 -97 80 -154q32 -26 69 -38q30 -9 72 -15q39 -6 78 -2q0 8 8 16q9 11 17 16q17 11 30 15q38 12 58 12q23 0 31 -7q9 -8 8 -17q-2 -12 -9 -19q-31 -29 -63 -44q-33 -15 -80 -15q-16 0 -56 2q-24 1 -63 10q-32 7 -67 21q-32 12 -62 38
q-88 69 -108 178q-19 106 11 239q30 134 100 282q67 142 163 303q72 122 141 258q59 117 90 211q31 95 31 154q0 63 -35 92q-72 55 -213 -8t-313 -238zM2185 1657l-1 -3q-2 -2 -5.5 -6.5t-6.5 -8.5q-13 -16 -31 -30q-22 -17 -48 -28q-29 -12 -65 -8q-79 11 -139 36
q-58 25 -103 31q-35 5 -62 -12q-6 -4 -24 -14.5t-27 -16.5q-16 -10 -23 0t5 27q2 2 8 9.5t10 13.5q7 9 32 28q19 15 45 24q24 9 54 7q43 -5 63 -11q17 -5 49 -17t49 -18q25 -9 60 -15q38 -8 72 -3q36 6 64 35q10 11 23 4t1 -24z" />
    <glyph glyph-name="Ograve" unicode="&#xd2;" horiz-adv-x="1220" 
d="M1325 1296q-49 31 -102 30q-60 -2 -106 -21q-46 -20 -90 -52q-37 -28 -54 -61q-16 -30 -21 -50q-5 -23 -10 -36q-6 -17 -19 -37t-51 -55q-43 -43 -59 -58q-24 -22 -41 -27q-18 -5 -26 12q-10 19 -11 65q-5 33 7 55q15 28 28 47q36 48 109 104q76 59 155 94q85 38 171 47
q87 9 155 -32q72 -43 79 -142q8 -100 -30 -223q-38 -124 -108 -254q-70 -129 -156 -241q-78 -101 -198 -218q-113 -110 -236 -181q-127 -73 -257 -94q-132 -21 -259 40q-82 39 -127 111q-44 70 -53 156q-9 88 12 187q22 104 62 201t102 198q57 93 128 181q104 127 216 218
q113 92 221 152t207 90q97 29 174 34q80 2 130 -11q54 -13 90 -33q34 -18 53 -39q13 -14 22 -26q5 -14 1 -24q-5 -11 -26 6q-26 18 -30 21q-19 12 -51 21q-34 10 -79 14q-49 5 -114 -1q-68 -6 -155 -42q-89 -37 -183 -100q-98 -66 -196 -155q-99 -90 -189 -204
q-63 -78 -117 -166q-52 -85 -99 -183q-46 -96 -70 -182q-26 -90 -27 -168q-1 -76 28 -138q29 -60 96 -93q68 -33 146 -30q76 3 160 32q80 28 167 79q86 51 161 111q79 63 144 130q74 75 119 134q56 72 102 153q42 73 80 164q36 85 56 161q19 71 24 144q5 67 -9 115
q-13 48 -46 70zM1120 1724q5 12 22 34q13 18 25 28q11 8 23 2q11 -6 16 -23q16 -51 44 -91q30 -43 65 -66q10 -6 1 -23q-9 -16 -34 -10q-10 1 -30 12q-16 8 -42 26q-19 13 -44 34q-22 19 -33 34q-11 19 -12 22q-5 12 -1 21z" />
    <glyph glyph-name="Oacute" unicode="&#xd3;" horiz-adv-x="1220" 
d="M1325 1296q-49 31 -102 30q-60 -2 -106 -21q-46 -20 -90 -52q-37 -28 -54 -61q-16 -30 -21 -50q-5 -23 -10 -36q-6 -17 -19 -37t-51 -55q-43 -43 -59 -58q-24 -22 -41 -27q-18 -5 -26 12q-10 19 -11 65q-5 33 7 55q15 28 28 47q36 48 109 104q76 59 155 94q85 38 171 47
q87 9 155 -32q72 -43 79 -142q8 -100 -30 -223q-38 -124 -108 -254q-70 -129 -156 -241q-78 -101 -198 -218q-113 -110 -236 -181q-127 -73 -257 -94q-132 -21 -259 40q-82 39 -127 111q-44 70 -53 156q-9 88 12 187q22 104 62 201t102 198q57 93 128 181q104 127 216 218
q113 92 221 152t207 90q97 29 174 34q80 2 130 -11q54 -13 90 -33q34 -18 53 -39q13 -14 22 -26q5 -14 1 -24q-5 -11 -26 6q-26 18 -30 21q-19 12 -51 21q-34 10 -79 14q-49 5 -114 -1q-68 -6 -155 -42q-89 -37 -183 -100q-98 -66 -196 -155q-99 -90 -189 -204
q-63 -78 -117 -166q-52 -85 -99 -183q-46 -96 -70 -182q-26 -90 -27 -168q-1 -76 28 -138q29 -60 96 -93q68 -33 146 -30q76 3 160 32q80 28 167 79q86 51 161 111q79 63 144 130q74 75 119 134q56 72 102 153q42 73 80 164q36 85 56 161q19 71 24 144q5 67 -9 115
q-13 48 -46 70zM1329 1753q4 -9 -1 -21q-3 -8 -11 -22q-11 -16 -34 -35q-25 -21 -44 -34q-19 -12 -42 -25q-19 -10 -30 -12q-24 -6 -33 10t1 22q32 21 64 67q28 40 44 91q5 17 16 23q12 6 23 -2q15 -13 26 -28q14 -19 21 -34z" />
    <glyph glyph-name="Ocircumflex" unicode="&#xd4;" horiz-adv-x="1220" 
d="M1325 1296q-49 31 -102 30q-60 -2 -106 -21q-46 -20 -90 -52q-37 -28 -54 -61q-16 -30 -21 -50q-5 -23 -10 -36q-6 -17 -19 -37t-51 -55q-43 -43 -59 -58q-24 -22 -41 -27q-18 -5 -26 12q-10 19 -11 65q-5 33 7 55q15 28 28 47q36 48 109 104q76 59 155 94q85 38 171 47
q87 9 155 -32q72 -43 79 -142q8 -100 -30 -223q-38 -124 -108 -254q-70 -129 -156 -241q-78 -101 -198 -218q-113 -110 -236 -181q-127 -73 -257 -94q-132 -21 -259 40q-82 39 -127 111q-44 70 -53 156q-9 88 12 187q22 104 62 201t102 198q57 93 128 181q104 127 216 218
q113 92 221 152t207 90q97 29 174 34q80 2 130 -11q54 -13 90 -33q34 -18 53 -39q13 -14 22 -26q5 -14 1 -24q-5 -11 -26 6q-26 18 -30 21q-19 12 -51 21q-34 10 -79 14q-49 5 -114 -1q-68 -6 -155 -42q-89 -37 -183 -100q-98 -66 -196 -155q-99 -90 -189 -204
q-63 -78 -117 -166q-52 -85 -99 -183q-46 -96 -70 -182q-26 -90 -27 -168q-1 -76 28 -138q29 -60 96 -93q68 -33 146 -30q76 3 160 32q80 28 167 79q86 51 161 111q79 63 144 130q74 75 119 134q56 72 102 153q42 73 80 164q36 85 56 161q19 71 24 144q5 67 -9 115
q-13 48 -46 70zM1186 1841q31 0 66 -25q33 -23 69 -61q31 -33 58 -72q27 -40 36 -59q6 -12 3 -24q-3 -10 -12 -18q-8 -7 -21 -7q-11 0 -21 12q-12 15 -23 27q-2 3 -15 17.5t-21 22.5q-15 15 -39 41q-5 6 -10.5 11.5t-11 10.5t-7.5 7q-31 31 -60 30q-30 -2 -57 -30
q-22 -23 -61 -69q-34 -40 -64 -62q-28 -22 -46 -7t-1 46q10 19 38 57q21 28 62 69q39 39 70 59q38 24 68 24z" />
    <glyph glyph-name="Otilde" unicode="&#xd5;" horiz-adv-x="1220" 
d="M1325 1296q-49 31 -102 30q-60 -2 -106 -21q-46 -20 -90 -52q-37 -28 -54 -61q-16 -30 -21 -50q-5 -23 -10 -36q-6 -17 -19 -37t-51 -55q-43 -43 -59 -58q-24 -22 -41 -27q-18 -5 -26 12q-10 19 -11 65q-5 33 7 55q15 28 28 47q36 48 109 104q76 59 155 94q85 38 171 47
q87 9 155 -32q72 -43 79 -142q8 -100 -30 -223q-38 -124 -108 -254q-70 -129 -156 -241q-78 -101 -198 -218q-113 -110 -236 -181q-127 -73 -257 -94q-132 -21 -259 40q-82 39 -127 111q-44 70 -53 156q-9 88 12 187q22 104 62 201t102 198q57 93 128 181q104 127 216 218
q113 92 221 152t207 90q97 29 174 34q80 2 130 -11q54 -13 90 -33q34 -18 53 -39q13 -14 22 -26q5 -14 1 -24q-5 -11 -26 6q-26 18 -30 21q-19 12 -51 21q-34 10 -79 14q-49 5 -114 -1q-68 -6 -155 -42q-89 -37 -183 -100q-98 -66 -196 -155q-99 -90 -189 -204
q-63 -78 -117 -166q-52 -85 -99 -183q-46 -96 -70 -182q-26 -90 -27 -168q-1 -76 28 -138q29 -60 96 -93q68 -33 146 -30q76 3 160 32q80 28 167 79q86 51 161 111q79 63 144 130q74 75 119 134q56 72 102 153q42 73 80 164q36 85 56 161q19 71 24 144q5 67 -9 115
q-13 48 -46 70zM1569 1667q-2 -2 -14 -17q-16 -21 -30 -31q-22 -17 -48 -28q-29 -12 -66 -8q-78 11 -138 36q-62 26 -104 32q-33 4 -61 -13q-9 -5 -26 -15t-25 -15q-17 -10 -24 0t5 26q1 2 7.5 9.5t11.5 13.5q9 11 31 28q19 14 46 24q24 9 54 7q42 -5 62 -11q29 -9 49 -16
q4 -2 22 -9t28 -10q25 -9 60 -15q36 -8 72 -2q35 6 63 35q10 12 24 4t1 -25z" />
    </font>
</defs>
</svg>
